G04 #@! TF.GenerationSoftware,KiCad,Pcbnew,(5.0.2)-1*
G04 #@! TF.CreationDate,2019-02-28T10:09:49+00:00*
G04 #@! TF.ProjectId,AircraftDataLogger,41697263-7261-4667-9444-6174614c6f67,rev?*
G04 #@! TF.SameCoordinates,Original*
G04 #@! TF.FileFunction,Soldermask,Bot*
G04 #@! TF.FilePolarity,Negative*
%FSLAX46Y46*%
G04 Gerber Fmt 4.6, Leading zero omitted, Abs format (unit mm)*
G04 Created by KiCad (PCBNEW (5.0.2)-1) date 28/02/2019 10:09:49*
%MOMM*%
%LPD*%
G01*
G04 APERTURE LIST*
%ADD10C,0.100000*%
G04 APERTURE END LIST*
D10*
G36*
X88885331Y-105068211D02*
X89213092Y-105203974D01*
X89508073Y-105401074D01*
X89758926Y-105651927D01*
X89956026Y-105946908D01*
X90091789Y-106274669D01*
X90161000Y-106622616D01*
X90161000Y-106977384D01*
X90091789Y-107325331D01*
X89956026Y-107653092D01*
X89758926Y-107948073D01*
X89508073Y-108198926D01*
X89213092Y-108396026D01*
X88885331Y-108531789D01*
X88537384Y-108601000D01*
X88182616Y-108601000D01*
X87834669Y-108531789D01*
X87506908Y-108396026D01*
X87211927Y-108198926D01*
X86961074Y-107948073D01*
X86763974Y-107653092D01*
X86628211Y-107325331D01*
X86559000Y-106977384D01*
X86559000Y-106622616D01*
X86628211Y-106274669D01*
X86763974Y-105946908D01*
X86961074Y-105651927D01*
X87211927Y-105401074D01*
X87506908Y-105203974D01*
X87834669Y-105068211D01*
X88182616Y-104999000D01*
X88537384Y-104999000D01*
X88885331Y-105068211D01*
X88885331Y-105068211D01*
G37*
G36*
X68565331Y-105068211D02*
X68893092Y-105203974D01*
X69188073Y-105401074D01*
X69438926Y-105651927D01*
X69636026Y-105946908D01*
X69771789Y-106274669D01*
X69841000Y-106622616D01*
X69841000Y-106977384D01*
X69771789Y-107325331D01*
X69636026Y-107653092D01*
X69438926Y-107948073D01*
X69188073Y-108198926D01*
X68893092Y-108396026D01*
X68565331Y-108531789D01*
X68217384Y-108601000D01*
X67862616Y-108601000D01*
X67514669Y-108531789D01*
X67186908Y-108396026D01*
X66891927Y-108198926D01*
X66641074Y-107948073D01*
X66443974Y-107653092D01*
X66308211Y-107325331D01*
X66239000Y-106977384D01*
X66239000Y-106622616D01*
X66308211Y-106274669D01*
X66443974Y-105946908D01*
X66641074Y-105651927D01*
X66891927Y-105401074D01*
X67186908Y-105203974D01*
X67514669Y-105068211D01*
X67862616Y-104999000D01*
X68217384Y-104999000D01*
X68565331Y-105068211D01*
X68565331Y-105068211D01*
G37*
G36*
X104725331Y-101268211D02*
X105053092Y-101403974D01*
X105348073Y-101601074D01*
X105598926Y-101851927D01*
X105796026Y-102146908D01*
X105931789Y-102474669D01*
X106001000Y-102822616D01*
X106001000Y-103177384D01*
X105931789Y-103525331D01*
X105796026Y-103853092D01*
X105598926Y-104148073D01*
X105348073Y-104398926D01*
X105053092Y-104596026D01*
X104725331Y-104731789D01*
X104377384Y-104801000D01*
X104022616Y-104801000D01*
X103674669Y-104731789D01*
X103346908Y-104596026D01*
X103051927Y-104398926D01*
X102801074Y-104148073D01*
X102603974Y-103853092D01*
X102468211Y-103525331D01*
X102399000Y-103177384D01*
X102399000Y-102822616D01*
X102468211Y-102474669D01*
X102603974Y-102146908D01*
X102801074Y-101851927D01*
X103051927Y-101601074D01*
X103346908Y-101403974D01*
X103674669Y-101268211D01*
X104022616Y-101199000D01*
X104377384Y-101199000D01*
X104725331Y-101268211D01*
X104725331Y-101268211D01*
G37*
G36*
X52725331Y-101268211D02*
X53053092Y-101403974D01*
X53348073Y-101601074D01*
X53598926Y-101851927D01*
X53796026Y-102146908D01*
X53931789Y-102474669D01*
X54001000Y-102822616D01*
X54001000Y-103177384D01*
X53931789Y-103525331D01*
X53796026Y-103853092D01*
X53598926Y-104148073D01*
X53348073Y-104398926D01*
X53053092Y-104596026D01*
X52725331Y-104731789D01*
X52377384Y-104801000D01*
X52022616Y-104801000D01*
X51674669Y-104731789D01*
X51346908Y-104596026D01*
X51051927Y-104398926D01*
X50801074Y-104148073D01*
X50603974Y-103853092D01*
X50468211Y-103525331D01*
X50399000Y-103177384D01*
X50399000Y-102822616D01*
X50468211Y-102474669D01*
X50603974Y-102146908D01*
X50801074Y-101851927D01*
X51051927Y-101601074D01*
X51346908Y-101403974D01*
X51674669Y-101268211D01*
X52022616Y-101199000D01*
X52377384Y-101199000D01*
X52725331Y-101268211D01*
X52725331Y-101268211D01*
G37*
G36*
X93925331Y-91768211D02*
X94253092Y-91903974D01*
X94548073Y-92101074D01*
X94798926Y-92351927D01*
X94996026Y-92646908D01*
X95131789Y-92974669D01*
X95201000Y-93322616D01*
X95201000Y-93677384D01*
X95131789Y-94025331D01*
X94996026Y-94353092D01*
X94798926Y-94648073D01*
X94548073Y-94898926D01*
X94253092Y-95096026D01*
X93925331Y-95231789D01*
X93577384Y-95301000D01*
X93222616Y-95301000D01*
X92874669Y-95231789D01*
X92546908Y-95096026D01*
X92251927Y-94898926D01*
X92001074Y-94648073D01*
X91803974Y-94353092D01*
X91668211Y-94025331D01*
X91599000Y-93677384D01*
X91599000Y-93322616D01*
X91668211Y-92974669D01*
X91803974Y-92646908D01*
X92001074Y-92351927D01*
X92251927Y-92101074D01*
X92546908Y-91903974D01*
X92874669Y-91768211D01*
X93222616Y-91699000D01*
X93577384Y-91699000D01*
X93925331Y-91768211D01*
X93925331Y-91768211D01*
G37*
G36*
X103310442Y-91645518D02*
X103376627Y-91652037D01*
X103489853Y-91686384D01*
X103546467Y-91703557D01*
X103667424Y-91768211D01*
X103702991Y-91787222D01*
X103738729Y-91816552D01*
X103840186Y-91899814D01*
X103923448Y-92001271D01*
X103952778Y-92037009D01*
X103952779Y-92037011D01*
X104036443Y-92193533D01*
X104036443Y-92193534D01*
X104087963Y-92363373D01*
X104105359Y-92540000D01*
X104087963Y-92716627D01*
X104053616Y-92829853D01*
X104036443Y-92886467D01*
X103989298Y-92974668D01*
X103952778Y-93042991D01*
X103923448Y-93078729D01*
X103840186Y-93180186D01*
X103738729Y-93263448D01*
X103702991Y-93292778D01*
X103702989Y-93292779D01*
X103546467Y-93376443D01*
X103489853Y-93393616D01*
X103376627Y-93427963D01*
X103310443Y-93434481D01*
X103244260Y-93441000D01*
X103155740Y-93441000D01*
X103089557Y-93434481D01*
X103023373Y-93427963D01*
X102910147Y-93393616D01*
X102853533Y-93376443D01*
X102697011Y-93292779D01*
X102697009Y-93292778D01*
X102661271Y-93263448D01*
X102559814Y-93180186D01*
X102476552Y-93078729D01*
X102447222Y-93042991D01*
X102410702Y-92974668D01*
X102363557Y-92886467D01*
X102346384Y-92829853D01*
X102312037Y-92716627D01*
X102294641Y-92540000D01*
X102312037Y-92363373D01*
X102363557Y-92193534D01*
X102363557Y-92193533D01*
X102447221Y-92037011D01*
X102447222Y-92037009D01*
X102476552Y-92001271D01*
X102559814Y-91899814D01*
X102661271Y-91816552D01*
X102697009Y-91787222D01*
X102732576Y-91768211D01*
X102853533Y-91703557D01*
X102910147Y-91686384D01*
X103023373Y-91652037D01*
X103089558Y-91645518D01*
X103155740Y-91639000D01*
X103244260Y-91639000D01*
X103310442Y-91645518D01*
X103310442Y-91645518D01*
G37*
G36*
X79075000Y-91915600D02*
X77173000Y-91915600D01*
X77173000Y-90013600D01*
X79075000Y-90013600D01*
X79075000Y-91915600D01*
X79075000Y-91915600D01*
G37*
G36*
X69701000Y-91901000D02*
X67799000Y-91901000D01*
X67799000Y-89999000D01*
X69701000Y-89999000D01*
X69701000Y-91901000D01*
X69701000Y-91901000D01*
G37*
G36*
X88551000Y-91901000D02*
X86649000Y-91901000D01*
X86649000Y-89999000D01*
X88551000Y-89999000D01*
X88551000Y-91901000D01*
X88551000Y-91901000D01*
G37*
G36*
X93925331Y-87468211D02*
X94253092Y-87603974D01*
X94548073Y-87801074D01*
X94798926Y-88051927D01*
X94996026Y-88346908D01*
X95131789Y-88674669D01*
X95201000Y-89022616D01*
X95201000Y-89377384D01*
X95131789Y-89725331D01*
X94996026Y-90053092D01*
X94798926Y-90348073D01*
X94548073Y-90598926D01*
X94253092Y-90796026D01*
X93925331Y-90931789D01*
X93577384Y-91001000D01*
X93222616Y-91001000D01*
X92874669Y-90931789D01*
X92546908Y-90796026D01*
X92251927Y-90598926D01*
X92001074Y-90348073D01*
X91803974Y-90053092D01*
X91668211Y-89725331D01*
X91599000Y-89377384D01*
X91599000Y-89022616D01*
X91668211Y-88674669D01*
X91803974Y-88346908D01*
X92001074Y-88051927D01*
X92251927Y-87801074D01*
X92546908Y-87603974D01*
X92874669Y-87468211D01*
X93222616Y-87399000D01*
X93577384Y-87399000D01*
X93925331Y-87468211D01*
X93925331Y-87468211D01*
G37*
G36*
X104101000Y-90901000D02*
X102299000Y-90901000D01*
X102299000Y-89099000D01*
X104101000Y-89099000D01*
X104101000Y-90901000D01*
X104101000Y-90901000D01*
G37*
G36*
X78401396Y-87510146D02*
X78574466Y-87581834D01*
X78730230Y-87685912D01*
X78862688Y-87818370D01*
X78966766Y-87974134D01*
X79038454Y-88147204D01*
X79075000Y-88330933D01*
X79075000Y-88518267D01*
X79038454Y-88701996D01*
X78966766Y-88875066D01*
X78862688Y-89030830D01*
X78730230Y-89163288D01*
X78574466Y-89267366D01*
X78401396Y-89339054D01*
X78217667Y-89375600D01*
X78030333Y-89375600D01*
X77846604Y-89339054D01*
X77673534Y-89267366D01*
X77517770Y-89163288D01*
X77385312Y-89030830D01*
X77281234Y-88875066D01*
X77209546Y-88701996D01*
X77173000Y-88518267D01*
X77173000Y-88330933D01*
X77209546Y-88147204D01*
X77281234Y-87974134D01*
X77385312Y-87818370D01*
X77517770Y-87685912D01*
X77673534Y-87581834D01*
X77846604Y-87510146D01*
X78030333Y-87473600D01*
X78217667Y-87473600D01*
X78401396Y-87510146D01*
X78401396Y-87510146D01*
G37*
G36*
X87877396Y-87495546D02*
X88050466Y-87567234D01*
X88206230Y-87671312D01*
X88338688Y-87803770D01*
X88442766Y-87959534D01*
X88514454Y-88132604D01*
X88551000Y-88316333D01*
X88551000Y-88503667D01*
X88514454Y-88687396D01*
X88442766Y-88860466D01*
X88338688Y-89016230D01*
X88206230Y-89148688D01*
X88050466Y-89252766D01*
X87877396Y-89324454D01*
X87693667Y-89361000D01*
X87506333Y-89361000D01*
X87322604Y-89324454D01*
X87149534Y-89252766D01*
X86993770Y-89148688D01*
X86861312Y-89016230D01*
X86757234Y-88860466D01*
X86685546Y-88687396D01*
X86649000Y-88503667D01*
X86649000Y-88316333D01*
X86685546Y-88132604D01*
X86757234Y-87959534D01*
X86861312Y-87803770D01*
X86993770Y-87671312D01*
X87149534Y-87567234D01*
X87322604Y-87495546D01*
X87506333Y-87459000D01*
X87693667Y-87459000D01*
X87877396Y-87495546D01*
X87877396Y-87495546D01*
G37*
G36*
X69027396Y-87495546D02*
X69200466Y-87567234D01*
X69356230Y-87671312D01*
X69488688Y-87803770D01*
X69592766Y-87959534D01*
X69664454Y-88132604D01*
X69701000Y-88316333D01*
X69701000Y-88503667D01*
X69664454Y-88687396D01*
X69592766Y-88860466D01*
X69488688Y-89016230D01*
X69356230Y-89148688D01*
X69200466Y-89252766D01*
X69027396Y-89324454D01*
X68843667Y-89361000D01*
X68656333Y-89361000D01*
X68472604Y-89324454D01*
X68299534Y-89252766D01*
X68143770Y-89148688D01*
X68011312Y-89016230D01*
X67907234Y-88860466D01*
X67835546Y-88687396D01*
X67799000Y-88503667D01*
X67799000Y-88316333D01*
X67835546Y-88132604D01*
X67907234Y-87959534D01*
X68011312Y-87803770D01*
X68143770Y-87671312D01*
X68299534Y-87567234D01*
X68472604Y-87495546D01*
X68656333Y-87459000D01*
X68843667Y-87459000D01*
X69027396Y-87495546D01*
X69027396Y-87495546D01*
G37*
G36*
X75001000Y-84601000D02*
X73199000Y-84601000D01*
X73199000Y-82799000D01*
X75001000Y-82799000D01*
X75001000Y-84601000D01*
X75001000Y-84601000D01*
G37*
G36*
X76750443Y-82805519D02*
X76816627Y-82812037D01*
X76929853Y-82846384D01*
X76986467Y-82863557D01*
X77125087Y-82937652D01*
X77142991Y-82947222D01*
X77178729Y-82976552D01*
X77280186Y-83059814D01*
X77363448Y-83161271D01*
X77392778Y-83197009D01*
X77392779Y-83197011D01*
X77476443Y-83353533D01*
X77476443Y-83353534D01*
X77527963Y-83523373D01*
X77545359Y-83700000D01*
X77527963Y-83876627D01*
X77493616Y-83989853D01*
X77476443Y-84046467D01*
X77402348Y-84185087D01*
X77392778Y-84202991D01*
X77363448Y-84238729D01*
X77280186Y-84340186D01*
X77178729Y-84423448D01*
X77142991Y-84452778D01*
X77142989Y-84452779D01*
X76986467Y-84536443D01*
X76929853Y-84553616D01*
X76816627Y-84587963D01*
X76750442Y-84594482D01*
X76684260Y-84601000D01*
X76595740Y-84601000D01*
X76529558Y-84594482D01*
X76463373Y-84587963D01*
X76350147Y-84553616D01*
X76293533Y-84536443D01*
X76137011Y-84452779D01*
X76137009Y-84452778D01*
X76101271Y-84423448D01*
X75999814Y-84340186D01*
X75916552Y-84238729D01*
X75887222Y-84202991D01*
X75877652Y-84185087D01*
X75803557Y-84046467D01*
X75786384Y-83989853D01*
X75752037Y-83876627D01*
X75734641Y-83700000D01*
X75752037Y-83523373D01*
X75803557Y-83353534D01*
X75803557Y-83353533D01*
X75887221Y-83197011D01*
X75887222Y-83197009D01*
X75916552Y-83161271D01*
X75999814Y-83059814D01*
X76101271Y-82976552D01*
X76137009Y-82947222D01*
X76154913Y-82937652D01*
X76293533Y-82863557D01*
X76350147Y-82846384D01*
X76463373Y-82812037D01*
X76529557Y-82805519D01*
X76595740Y-82799000D01*
X76684260Y-82799000D01*
X76750443Y-82805519D01*
X76750443Y-82805519D01*
G37*
G36*
X79290443Y-82805519D02*
X79356627Y-82812037D01*
X79469853Y-82846384D01*
X79526467Y-82863557D01*
X79665087Y-82937652D01*
X79682991Y-82947222D01*
X79718729Y-82976552D01*
X79820186Y-83059814D01*
X79903448Y-83161271D01*
X79932778Y-83197009D01*
X79932779Y-83197011D01*
X80016443Y-83353533D01*
X80016443Y-83353534D01*
X80067963Y-83523373D01*
X80085359Y-83700000D01*
X80067963Y-83876627D01*
X80033616Y-83989853D01*
X80016443Y-84046467D01*
X79942348Y-84185087D01*
X79932778Y-84202991D01*
X79903448Y-84238729D01*
X79820186Y-84340186D01*
X79718729Y-84423448D01*
X79682991Y-84452778D01*
X79682989Y-84452779D01*
X79526467Y-84536443D01*
X79469853Y-84553616D01*
X79356627Y-84587963D01*
X79290442Y-84594482D01*
X79224260Y-84601000D01*
X79135740Y-84601000D01*
X79069558Y-84594482D01*
X79003373Y-84587963D01*
X78890147Y-84553616D01*
X78833533Y-84536443D01*
X78677011Y-84452779D01*
X78677009Y-84452778D01*
X78641271Y-84423448D01*
X78539814Y-84340186D01*
X78456552Y-84238729D01*
X78427222Y-84202991D01*
X78417652Y-84185087D01*
X78343557Y-84046467D01*
X78326384Y-83989853D01*
X78292037Y-83876627D01*
X78274641Y-83700000D01*
X78292037Y-83523373D01*
X78343557Y-83353534D01*
X78343557Y-83353533D01*
X78427221Y-83197011D01*
X78427222Y-83197009D01*
X78456552Y-83161271D01*
X78539814Y-83059814D01*
X78641271Y-82976552D01*
X78677009Y-82947222D01*
X78694913Y-82937652D01*
X78833533Y-82863557D01*
X78890147Y-82846384D01*
X79003373Y-82812037D01*
X79069557Y-82805519D01*
X79135740Y-82799000D01*
X79224260Y-82799000D01*
X79290443Y-82805519D01*
X79290443Y-82805519D01*
G37*
G36*
X61925331Y-77568211D02*
X62253092Y-77703974D01*
X62548073Y-77901074D01*
X62798926Y-78151927D01*
X62996026Y-78446908D01*
X63131789Y-78774669D01*
X63201000Y-79122616D01*
X63201000Y-79477384D01*
X63131789Y-79825331D01*
X62996026Y-80153092D01*
X62798926Y-80448073D01*
X62548073Y-80698926D01*
X62253092Y-80896026D01*
X61925331Y-81031789D01*
X61577384Y-81101000D01*
X61222616Y-81101000D01*
X60874669Y-81031789D01*
X60546908Y-80896026D01*
X60251927Y-80698926D01*
X60001074Y-80448073D01*
X59803974Y-80153092D01*
X59668211Y-79825331D01*
X59599000Y-79477384D01*
X59599000Y-79122616D01*
X59668211Y-78774669D01*
X59803974Y-78446908D01*
X60001074Y-78151927D01*
X60251927Y-77901074D01*
X60546908Y-77703974D01*
X60874669Y-77568211D01*
X61222616Y-77499000D01*
X61577384Y-77499000D01*
X61925331Y-77568211D01*
X61925331Y-77568211D01*
G37*
G36*
X70161000Y-80001000D02*
X68359000Y-80001000D01*
X68359000Y-78199000D01*
X70161000Y-78199000D01*
X70161000Y-80001000D01*
X70161000Y-80001000D01*
G37*
G36*
X71910442Y-78205518D02*
X71976627Y-78212037D01*
X72089853Y-78246384D01*
X72146467Y-78263557D01*
X72285087Y-78337652D01*
X72302991Y-78347222D01*
X72338729Y-78376552D01*
X72440186Y-78459814D01*
X72523448Y-78561271D01*
X72552778Y-78597009D01*
X72552779Y-78597011D01*
X72636443Y-78753533D01*
X72636443Y-78753534D01*
X72687963Y-78923373D01*
X72705359Y-79100000D01*
X72687963Y-79276627D01*
X72653616Y-79389853D01*
X72636443Y-79446467D01*
X72619917Y-79477384D01*
X72552778Y-79602991D01*
X72523448Y-79638729D01*
X72440186Y-79740186D01*
X72338729Y-79823448D01*
X72302991Y-79852778D01*
X72302989Y-79852779D01*
X72146467Y-79936443D01*
X72089853Y-79953616D01*
X71976627Y-79987963D01*
X71910442Y-79994482D01*
X71844260Y-80001000D01*
X71755740Y-80001000D01*
X71689558Y-79994482D01*
X71623373Y-79987963D01*
X71510147Y-79953616D01*
X71453533Y-79936443D01*
X71297011Y-79852779D01*
X71297009Y-79852778D01*
X71261271Y-79823448D01*
X71159814Y-79740186D01*
X71076552Y-79638729D01*
X71047222Y-79602991D01*
X70980083Y-79477384D01*
X70963557Y-79446467D01*
X70946384Y-79389853D01*
X70912037Y-79276627D01*
X70894641Y-79100000D01*
X70912037Y-78923373D01*
X70963557Y-78753534D01*
X70963557Y-78753533D01*
X71047221Y-78597011D01*
X71047222Y-78597009D01*
X71076552Y-78561271D01*
X71159814Y-78459814D01*
X71261271Y-78376552D01*
X71297009Y-78347222D01*
X71314913Y-78337652D01*
X71453533Y-78263557D01*
X71510147Y-78246384D01*
X71623373Y-78212037D01*
X71689558Y-78205518D01*
X71755740Y-78199000D01*
X71844260Y-78199000D01*
X71910442Y-78205518D01*
X71910442Y-78205518D01*
G37*
G36*
X74450442Y-78205518D02*
X74516627Y-78212037D01*
X74629853Y-78246384D01*
X74686467Y-78263557D01*
X74825087Y-78337652D01*
X74842991Y-78347222D01*
X74878729Y-78376552D01*
X74980186Y-78459814D01*
X75063448Y-78561271D01*
X75092778Y-78597009D01*
X75092779Y-78597011D01*
X75176443Y-78753533D01*
X75176443Y-78753534D01*
X75227963Y-78923373D01*
X75245359Y-79100000D01*
X75227963Y-79276627D01*
X75193616Y-79389853D01*
X75176443Y-79446467D01*
X75159917Y-79477384D01*
X75092778Y-79602991D01*
X75063448Y-79638729D01*
X74980186Y-79740186D01*
X74878729Y-79823448D01*
X74842991Y-79852778D01*
X74842989Y-79852779D01*
X74686467Y-79936443D01*
X74629853Y-79953616D01*
X74516627Y-79987963D01*
X74450442Y-79994482D01*
X74384260Y-80001000D01*
X74295740Y-80001000D01*
X74229558Y-79994482D01*
X74163373Y-79987963D01*
X74050147Y-79953616D01*
X73993533Y-79936443D01*
X73837011Y-79852779D01*
X73837009Y-79852778D01*
X73801271Y-79823448D01*
X73699814Y-79740186D01*
X73616552Y-79638729D01*
X73587222Y-79602991D01*
X73520083Y-79477384D01*
X73503557Y-79446467D01*
X73486384Y-79389853D01*
X73452037Y-79276627D01*
X73434641Y-79100000D01*
X73452037Y-78923373D01*
X73503557Y-78753534D01*
X73503557Y-78753533D01*
X73587221Y-78597011D01*
X73587222Y-78597009D01*
X73616552Y-78561271D01*
X73699814Y-78459814D01*
X73801271Y-78376552D01*
X73837009Y-78347222D01*
X73854913Y-78337652D01*
X73993533Y-78263557D01*
X74050147Y-78246384D01*
X74163373Y-78212037D01*
X74229558Y-78205518D01*
X74295740Y-78199000D01*
X74384260Y-78199000D01*
X74450442Y-78205518D01*
X74450442Y-78205518D01*
G37*
G36*
X76990442Y-78205518D02*
X77056627Y-78212037D01*
X77169853Y-78246384D01*
X77226467Y-78263557D01*
X77365087Y-78337652D01*
X77382991Y-78347222D01*
X77418729Y-78376552D01*
X77520186Y-78459814D01*
X77603448Y-78561271D01*
X77632778Y-78597009D01*
X77632779Y-78597011D01*
X77716443Y-78753533D01*
X77716443Y-78753534D01*
X77767963Y-78923373D01*
X77785359Y-79100000D01*
X77767963Y-79276627D01*
X77733616Y-79389853D01*
X77716443Y-79446467D01*
X77699917Y-79477384D01*
X77632778Y-79602991D01*
X77603448Y-79638729D01*
X77520186Y-79740186D01*
X77418729Y-79823448D01*
X77382991Y-79852778D01*
X77382989Y-79852779D01*
X77226467Y-79936443D01*
X77169853Y-79953616D01*
X77056627Y-79987963D01*
X76990442Y-79994482D01*
X76924260Y-80001000D01*
X76835740Y-80001000D01*
X76769558Y-79994482D01*
X76703373Y-79987963D01*
X76590147Y-79953616D01*
X76533533Y-79936443D01*
X76377011Y-79852779D01*
X76377009Y-79852778D01*
X76341271Y-79823448D01*
X76239814Y-79740186D01*
X76156552Y-79638729D01*
X76127222Y-79602991D01*
X76060083Y-79477384D01*
X76043557Y-79446467D01*
X76026384Y-79389853D01*
X75992037Y-79276627D01*
X75974641Y-79100000D01*
X75992037Y-78923373D01*
X76043557Y-78753534D01*
X76043557Y-78753533D01*
X76127221Y-78597011D01*
X76127222Y-78597009D01*
X76156552Y-78561271D01*
X76239814Y-78459814D01*
X76341271Y-78376552D01*
X76377009Y-78347222D01*
X76394913Y-78337652D01*
X76533533Y-78263557D01*
X76590147Y-78246384D01*
X76703373Y-78212037D01*
X76769558Y-78205518D01*
X76835740Y-78199000D01*
X76924260Y-78199000D01*
X76990442Y-78205518D01*
X76990442Y-78205518D01*
G37*
G36*
X79530442Y-78205518D02*
X79596627Y-78212037D01*
X79709853Y-78246384D01*
X79766467Y-78263557D01*
X79905087Y-78337652D01*
X79922991Y-78347222D01*
X79958729Y-78376552D01*
X80060186Y-78459814D01*
X80143448Y-78561271D01*
X80172778Y-78597009D01*
X80172779Y-78597011D01*
X80256443Y-78753533D01*
X80256443Y-78753534D01*
X80307963Y-78923373D01*
X80325359Y-79100000D01*
X80307963Y-79276627D01*
X80273616Y-79389853D01*
X80256443Y-79446467D01*
X80239917Y-79477384D01*
X80172778Y-79602991D01*
X80143448Y-79638729D01*
X80060186Y-79740186D01*
X79958729Y-79823448D01*
X79922991Y-79852778D01*
X79922989Y-79852779D01*
X79766467Y-79936443D01*
X79709853Y-79953616D01*
X79596627Y-79987963D01*
X79530442Y-79994482D01*
X79464260Y-80001000D01*
X79375740Y-80001000D01*
X79309558Y-79994482D01*
X79243373Y-79987963D01*
X79130147Y-79953616D01*
X79073533Y-79936443D01*
X78917011Y-79852779D01*
X78917009Y-79852778D01*
X78881271Y-79823448D01*
X78779814Y-79740186D01*
X78696552Y-79638729D01*
X78667222Y-79602991D01*
X78600083Y-79477384D01*
X78583557Y-79446467D01*
X78566384Y-79389853D01*
X78532037Y-79276627D01*
X78514641Y-79100000D01*
X78532037Y-78923373D01*
X78583557Y-78753534D01*
X78583557Y-78753533D01*
X78667221Y-78597011D01*
X78667222Y-78597009D01*
X78696552Y-78561271D01*
X78779814Y-78459814D01*
X78881271Y-78376552D01*
X78917009Y-78347222D01*
X78934913Y-78337652D01*
X79073533Y-78263557D01*
X79130147Y-78246384D01*
X79243373Y-78212037D01*
X79309558Y-78205518D01*
X79375740Y-78199000D01*
X79464260Y-78199000D01*
X79530442Y-78205518D01*
X79530442Y-78205518D01*
G37*
G36*
X82070442Y-78205518D02*
X82136627Y-78212037D01*
X82249853Y-78246384D01*
X82306467Y-78263557D01*
X82445087Y-78337652D01*
X82462991Y-78347222D01*
X82498729Y-78376552D01*
X82600186Y-78459814D01*
X82683448Y-78561271D01*
X82712778Y-78597009D01*
X82712779Y-78597011D01*
X82796443Y-78753533D01*
X82796443Y-78753534D01*
X82847963Y-78923373D01*
X82865359Y-79100000D01*
X82847963Y-79276627D01*
X82813616Y-79389853D01*
X82796443Y-79446467D01*
X82779917Y-79477384D01*
X82712778Y-79602991D01*
X82683448Y-79638729D01*
X82600186Y-79740186D01*
X82498729Y-79823448D01*
X82462991Y-79852778D01*
X82462989Y-79852779D01*
X82306467Y-79936443D01*
X82249853Y-79953616D01*
X82136627Y-79987963D01*
X82070442Y-79994482D01*
X82004260Y-80001000D01*
X81915740Y-80001000D01*
X81849558Y-79994482D01*
X81783373Y-79987963D01*
X81670147Y-79953616D01*
X81613533Y-79936443D01*
X81457011Y-79852779D01*
X81457009Y-79852778D01*
X81421271Y-79823448D01*
X81319814Y-79740186D01*
X81236552Y-79638729D01*
X81207222Y-79602991D01*
X81140083Y-79477384D01*
X81123557Y-79446467D01*
X81106384Y-79389853D01*
X81072037Y-79276627D01*
X81054641Y-79100000D01*
X81072037Y-78923373D01*
X81123557Y-78753534D01*
X81123557Y-78753533D01*
X81207221Y-78597011D01*
X81207222Y-78597009D01*
X81236552Y-78561271D01*
X81319814Y-78459814D01*
X81421271Y-78376552D01*
X81457009Y-78347222D01*
X81474913Y-78337652D01*
X81613533Y-78263557D01*
X81670147Y-78246384D01*
X81783373Y-78212037D01*
X81849558Y-78205518D01*
X81915740Y-78199000D01*
X82004260Y-78199000D01*
X82070442Y-78205518D01*
X82070442Y-78205518D01*
G37*
G36*
X84610442Y-78205518D02*
X84676627Y-78212037D01*
X84789853Y-78246384D01*
X84846467Y-78263557D01*
X84985087Y-78337652D01*
X85002991Y-78347222D01*
X85038729Y-78376552D01*
X85140186Y-78459814D01*
X85223448Y-78561271D01*
X85252778Y-78597009D01*
X85252779Y-78597011D01*
X85336443Y-78753533D01*
X85336443Y-78753534D01*
X85387963Y-78923373D01*
X85405359Y-79100000D01*
X85387963Y-79276627D01*
X85353616Y-79389853D01*
X85336443Y-79446467D01*
X85319917Y-79477384D01*
X85252778Y-79602991D01*
X85223448Y-79638729D01*
X85140186Y-79740186D01*
X85038729Y-79823448D01*
X85002991Y-79852778D01*
X85002989Y-79852779D01*
X84846467Y-79936443D01*
X84789853Y-79953616D01*
X84676627Y-79987963D01*
X84610442Y-79994482D01*
X84544260Y-80001000D01*
X84455740Y-80001000D01*
X84389558Y-79994482D01*
X84323373Y-79987963D01*
X84210147Y-79953616D01*
X84153533Y-79936443D01*
X83997011Y-79852779D01*
X83997009Y-79852778D01*
X83961271Y-79823448D01*
X83859814Y-79740186D01*
X83776552Y-79638729D01*
X83747222Y-79602991D01*
X83680083Y-79477384D01*
X83663557Y-79446467D01*
X83646384Y-79389853D01*
X83612037Y-79276627D01*
X83594641Y-79100000D01*
X83612037Y-78923373D01*
X83663557Y-78753534D01*
X83663557Y-78753533D01*
X83747221Y-78597011D01*
X83747222Y-78597009D01*
X83776552Y-78561271D01*
X83859814Y-78459814D01*
X83961271Y-78376552D01*
X83997009Y-78347222D01*
X84014913Y-78337652D01*
X84153533Y-78263557D01*
X84210147Y-78246384D01*
X84323373Y-78212037D01*
X84389558Y-78205518D01*
X84455740Y-78199000D01*
X84544260Y-78199000D01*
X84610442Y-78205518D01*
X84610442Y-78205518D01*
G37*
G36*
X87150442Y-78205518D02*
X87216627Y-78212037D01*
X87329853Y-78246384D01*
X87386467Y-78263557D01*
X87525087Y-78337652D01*
X87542991Y-78347222D01*
X87578729Y-78376552D01*
X87680186Y-78459814D01*
X87763448Y-78561271D01*
X87792778Y-78597009D01*
X87792779Y-78597011D01*
X87876443Y-78753533D01*
X87876443Y-78753534D01*
X87927963Y-78923373D01*
X87945359Y-79100000D01*
X87927963Y-79276627D01*
X87893616Y-79389853D01*
X87876443Y-79446467D01*
X87859917Y-79477384D01*
X87792778Y-79602991D01*
X87763448Y-79638729D01*
X87680186Y-79740186D01*
X87578729Y-79823448D01*
X87542991Y-79852778D01*
X87542989Y-79852779D01*
X87386467Y-79936443D01*
X87329853Y-79953616D01*
X87216627Y-79987963D01*
X87150442Y-79994482D01*
X87084260Y-80001000D01*
X86995740Y-80001000D01*
X86929558Y-79994482D01*
X86863373Y-79987963D01*
X86750147Y-79953616D01*
X86693533Y-79936443D01*
X86537011Y-79852779D01*
X86537009Y-79852778D01*
X86501271Y-79823448D01*
X86399814Y-79740186D01*
X86316552Y-79638729D01*
X86287222Y-79602991D01*
X86220083Y-79477384D01*
X86203557Y-79446467D01*
X86186384Y-79389853D01*
X86152037Y-79276627D01*
X86134641Y-79100000D01*
X86152037Y-78923373D01*
X86203557Y-78753534D01*
X86203557Y-78753533D01*
X86287221Y-78597011D01*
X86287222Y-78597009D01*
X86316552Y-78561271D01*
X86399814Y-78459814D01*
X86501271Y-78376552D01*
X86537009Y-78347222D01*
X86554913Y-78337652D01*
X86693533Y-78263557D01*
X86750147Y-78246384D01*
X86863373Y-78212037D01*
X86929558Y-78205518D01*
X86995740Y-78199000D01*
X87084260Y-78199000D01*
X87150442Y-78205518D01*
X87150442Y-78205518D01*
G37*
G36*
X78033643Y-66229781D02*
X78179415Y-66290162D01*
X78310611Y-66377824D01*
X78422176Y-66489389D01*
X78509838Y-66620585D01*
X78570219Y-66766357D01*
X78601000Y-66921107D01*
X78601000Y-67078893D01*
X78570219Y-67233643D01*
X78509838Y-67379415D01*
X78422176Y-67510611D01*
X78310611Y-67622176D01*
X78179415Y-67709838D01*
X78033643Y-67770219D01*
X77878893Y-67801000D01*
X77721107Y-67801000D01*
X77566357Y-67770219D01*
X77420585Y-67709838D01*
X77289389Y-67622176D01*
X77177824Y-67510611D01*
X77090162Y-67379415D01*
X77029781Y-67233643D01*
X76999000Y-67078893D01*
X76999000Y-66921107D01*
X77029781Y-66766357D01*
X77090162Y-66620585D01*
X77177824Y-66489389D01*
X77289389Y-66377824D01*
X77420585Y-66290162D01*
X77566357Y-66229781D01*
X77721107Y-66199000D01*
X77878893Y-66199000D01*
X78033643Y-66229781D01*
X78033643Y-66229781D01*
G37*
G36*
X101101000Y-66901000D02*
X99299000Y-66901000D01*
X99299000Y-65099000D01*
X101101000Y-65099000D01*
X101101000Y-66901000D01*
X101101000Y-66901000D01*
G37*
G36*
X100310443Y-62565519D02*
X100376627Y-62572037D01*
X100489853Y-62606384D01*
X100546467Y-62623557D01*
X100685087Y-62697652D01*
X100702991Y-62707222D01*
X100738729Y-62736552D01*
X100840186Y-62819814D01*
X100923226Y-62921000D01*
X100952778Y-62957009D01*
X100952779Y-62957011D01*
X101036443Y-63113533D01*
X101053616Y-63170147D01*
X101087963Y-63283373D01*
X101105359Y-63460000D01*
X101087963Y-63636627D01*
X101053616Y-63749853D01*
X101036443Y-63806467D01*
X100962348Y-63945087D01*
X100952778Y-63962991D01*
X100923448Y-63998729D01*
X100840186Y-64100186D01*
X100738729Y-64183448D01*
X100702991Y-64212778D01*
X100702989Y-64212779D01*
X100546467Y-64296443D01*
X100489853Y-64313616D01*
X100376627Y-64347963D01*
X100310442Y-64354482D01*
X100244260Y-64361000D01*
X100155740Y-64361000D01*
X100089558Y-64354482D01*
X100023373Y-64347963D01*
X99910147Y-64313616D01*
X99853533Y-64296443D01*
X99697011Y-64212779D01*
X99697009Y-64212778D01*
X99661271Y-64183448D01*
X99559814Y-64100186D01*
X99476552Y-63998729D01*
X99447222Y-63962991D01*
X99437652Y-63945087D01*
X99363557Y-63806467D01*
X99346384Y-63749853D01*
X99312037Y-63636627D01*
X99294641Y-63460000D01*
X99312037Y-63283373D01*
X99346384Y-63170147D01*
X99363557Y-63113533D01*
X99447221Y-62957011D01*
X99447222Y-62957009D01*
X99476774Y-62921000D01*
X99559814Y-62819814D01*
X99661271Y-62736552D01*
X99697009Y-62707222D01*
X99714913Y-62697652D01*
X99853533Y-62623557D01*
X99910147Y-62606384D01*
X100023373Y-62572037D01*
X100089557Y-62565519D01*
X100155740Y-62559000D01*
X100244260Y-62559000D01*
X100310443Y-62565519D01*
X100310443Y-62565519D01*
G37*
G36*
X55910442Y-61405518D02*
X55976627Y-61412037D01*
X56089853Y-61446384D01*
X56146467Y-61463557D01*
X56210571Y-61497822D01*
X56302991Y-61547222D01*
X56338729Y-61576552D01*
X56440186Y-61659814D01*
X56506471Y-61740584D01*
X56552778Y-61797009D01*
X56552779Y-61797011D01*
X56636443Y-61953533D01*
X56636443Y-61953534D01*
X56687963Y-62123373D01*
X56705359Y-62300000D01*
X56687963Y-62476627D01*
X56681050Y-62499415D01*
X56636443Y-62646467D01*
X56562348Y-62785087D01*
X56552778Y-62802991D01*
X56530746Y-62829837D01*
X56440186Y-62940186D01*
X56338729Y-63023448D01*
X56302991Y-63052778D01*
X56302989Y-63052779D01*
X56146467Y-63136443D01*
X56089853Y-63153616D01*
X55976627Y-63187963D01*
X55910443Y-63194481D01*
X55844260Y-63201000D01*
X55755740Y-63201000D01*
X55689557Y-63194481D01*
X55623373Y-63187963D01*
X55510147Y-63153616D01*
X55453533Y-63136443D01*
X55297011Y-63052779D01*
X55297009Y-63052778D01*
X55261271Y-63023448D01*
X55159814Y-62940186D01*
X55069254Y-62829837D01*
X55047222Y-62802991D01*
X55037652Y-62785087D01*
X54963557Y-62646467D01*
X54918950Y-62499415D01*
X54912037Y-62476627D01*
X54894641Y-62300000D01*
X54912037Y-62123373D01*
X54963557Y-61953534D01*
X54963557Y-61953533D01*
X55047221Y-61797011D01*
X55047222Y-61797009D01*
X55093529Y-61740584D01*
X55159814Y-61659814D01*
X55261271Y-61576552D01*
X55297009Y-61547222D01*
X55389429Y-61497822D01*
X55453533Y-61463557D01*
X55510147Y-61446384D01*
X55623373Y-61412037D01*
X55689558Y-61405518D01*
X55755740Y-61399000D01*
X55844260Y-61399000D01*
X55910442Y-61405518D01*
X55910442Y-61405518D01*
G37*
G36*
X78033643Y-61349781D02*
X78179415Y-61410162D01*
X78310611Y-61497824D01*
X78422176Y-61609389D01*
X78509838Y-61740585D01*
X78570219Y-61886357D01*
X78601000Y-62041107D01*
X78601000Y-62198893D01*
X78570219Y-62353643D01*
X78509838Y-62499415D01*
X78422176Y-62630611D01*
X78310611Y-62742176D01*
X78179415Y-62829838D01*
X78033643Y-62890219D01*
X77878893Y-62921000D01*
X77721107Y-62921000D01*
X77566357Y-62890219D01*
X77420585Y-62829838D01*
X77289389Y-62742176D01*
X77177824Y-62630611D01*
X77090162Y-62499415D01*
X77029781Y-62353643D01*
X76999000Y-62198893D01*
X76999000Y-62041107D01*
X77029781Y-61886357D01*
X77090162Y-61740585D01*
X77177824Y-61609389D01*
X77289389Y-61497824D01*
X77420585Y-61410162D01*
X77566357Y-61349781D01*
X77721107Y-61319000D01*
X77878893Y-61319000D01*
X78033643Y-61349781D01*
X78033643Y-61349781D01*
G37*
G36*
X52725331Y-57268211D02*
X53053092Y-57403974D01*
X53348073Y-57601074D01*
X53598926Y-57851927D01*
X53796026Y-58146908D01*
X53931789Y-58474669D01*
X54001000Y-58822616D01*
X54001000Y-59177384D01*
X53931789Y-59525331D01*
X53796026Y-59853092D01*
X53598926Y-60148073D01*
X53348073Y-60398926D01*
X53053092Y-60596026D01*
X52725331Y-60731789D01*
X52377384Y-60801000D01*
X52022616Y-60801000D01*
X51674669Y-60731789D01*
X51346908Y-60596026D01*
X51051927Y-60398926D01*
X50801074Y-60148073D01*
X50603974Y-59853092D01*
X50468211Y-59525331D01*
X50399000Y-59177384D01*
X50399000Y-58822616D01*
X50468211Y-58474669D01*
X50603974Y-58146908D01*
X50801074Y-57851927D01*
X51051927Y-57601074D01*
X51346908Y-57403974D01*
X51674669Y-57268211D01*
X52022616Y-57199000D01*
X52377384Y-57199000D01*
X52725331Y-57268211D01*
X52725331Y-57268211D01*
G37*
G36*
X104725331Y-57268211D02*
X105053092Y-57403974D01*
X105348073Y-57601074D01*
X105598926Y-57851927D01*
X105796026Y-58146908D01*
X105931789Y-58474669D01*
X106001000Y-58822616D01*
X106001000Y-59177384D01*
X105931789Y-59525331D01*
X105796026Y-59853092D01*
X105598926Y-60148073D01*
X105348073Y-60398926D01*
X105053092Y-60596026D01*
X104725331Y-60731789D01*
X104377384Y-60801000D01*
X104022616Y-60801000D01*
X103674669Y-60731789D01*
X103346908Y-60596026D01*
X103051927Y-60398926D01*
X102801074Y-60148073D01*
X102603974Y-59853092D01*
X102468211Y-59525331D01*
X102399000Y-59177384D01*
X102399000Y-58822616D01*
X102468211Y-58474669D01*
X102603974Y-58146908D01*
X102801074Y-57851927D01*
X103051927Y-57601074D01*
X103346908Y-57403974D01*
X103674669Y-57268211D01*
X104022616Y-57199000D01*
X104377384Y-57199000D01*
X104725331Y-57268211D01*
X104725331Y-57268211D01*
G37*
G36*
X55910443Y-58865519D02*
X55976627Y-58872037D01*
X56089853Y-58906384D01*
X56146467Y-58923557D01*
X56285087Y-58997652D01*
X56302991Y-59007222D01*
X56338729Y-59036552D01*
X56440186Y-59119814D01*
X56523448Y-59221271D01*
X56552778Y-59257009D01*
X56552779Y-59257011D01*
X56636443Y-59413533D01*
X56636443Y-59413534D01*
X56687963Y-59583373D01*
X56705359Y-59760000D01*
X56687963Y-59936627D01*
X56653616Y-60049853D01*
X56636443Y-60106467D01*
X56562348Y-60245087D01*
X56552778Y-60262991D01*
X56523448Y-60298729D01*
X56440186Y-60400186D01*
X56338729Y-60483448D01*
X56302991Y-60512778D01*
X56302989Y-60512779D01*
X56146467Y-60596443D01*
X56089853Y-60613616D01*
X55976627Y-60647963D01*
X55910442Y-60654482D01*
X55844260Y-60661000D01*
X55755740Y-60661000D01*
X55689558Y-60654482D01*
X55623373Y-60647963D01*
X55510147Y-60613616D01*
X55453533Y-60596443D01*
X55297011Y-60512779D01*
X55297009Y-60512778D01*
X55261271Y-60483448D01*
X55159814Y-60400186D01*
X55076552Y-60298729D01*
X55047222Y-60262991D01*
X55037652Y-60245087D01*
X54963557Y-60106467D01*
X54946384Y-60049853D01*
X54912037Y-59936627D01*
X54894641Y-59760000D01*
X54912037Y-59583373D01*
X54963557Y-59413534D01*
X54963557Y-59413533D01*
X55047221Y-59257011D01*
X55047222Y-59257009D01*
X55076552Y-59221271D01*
X55159814Y-59119814D01*
X55261271Y-59036552D01*
X55297009Y-59007222D01*
X55314913Y-58997652D01*
X55453533Y-58923557D01*
X55510147Y-58906384D01*
X55623373Y-58872037D01*
X55689557Y-58865519D01*
X55755740Y-58859000D01*
X55844260Y-58859000D01*
X55910443Y-58865519D01*
X55910443Y-58865519D01*
G37*
G36*
X55910442Y-56325518D02*
X55976627Y-56332037D01*
X56089853Y-56366384D01*
X56146467Y-56383557D01*
X56285087Y-56457652D01*
X56302991Y-56467222D01*
X56338729Y-56496552D01*
X56440186Y-56579814D01*
X56523448Y-56681271D01*
X56552778Y-56717009D01*
X56552779Y-56717011D01*
X56636443Y-56873533D01*
X56636443Y-56873534D01*
X56687963Y-57043373D01*
X56705359Y-57220000D01*
X56687963Y-57396627D01*
X56653616Y-57509853D01*
X56636443Y-57566467D01*
X56562348Y-57705087D01*
X56552778Y-57722991D01*
X56523448Y-57758729D01*
X56440186Y-57860186D01*
X56338729Y-57943448D01*
X56302991Y-57972778D01*
X56302989Y-57972779D01*
X56146467Y-58056443D01*
X56089853Y-58073616D01*
X55976627Y-58107963D01*
X55910443Y-58114481D01*
X55844260Y-58121000D01*
X55755740Y-58121000D01*
X55689557Y-58114481D01*
X55623373Y-58107963D01*
X55510147Y-58073616D01*
X55453533Y-58056443D01*
X55297011Y-57972779D01*
X55297009Y-57972778D01*
X55261271Y-57943448D01*
X55159814Y-57860186D01*
X55076552Y-57758729D01*
X55047222Y-57722991D01*
X55037652Y-57705087D01*
X54963557Y-57566467D01*
X54946384Y-57509853D01*
X54912037Y-57396627D01*
X54894641Y-57220000D01*
X54912037Y-57043373D01*
X54963557Y-56873534D01*
X54963557Y-56873533D01*
X55047221Y-56717011D01*
X55047222Y-56717009D01*
X55076552Y-56681271D01*
X55159814Y-56579814D01*
X55261271Y-56496552D01*
X55297009Y-56467222D01*
X55314913Y-56457652D01*
X55453533Y-56383557D01*
X55510147Y-56366384D01*
X55623373Y-56332037D01*
X55689558Y-56325518D01*
X55755740Y-56319000D01*
X55844260Y-56319000D01*
X55910442Y-56325518D01*
X55910442Y-56325518D01*
G37*
G36*
X55910442Y-53785518D02*
X55976627Y-53792037D01*
X56089853Y-53826384D01*
X56146467Y-53843557D01*
X56285087Y-53917652D01*
X56302991Y-53927222D01*
X56338729Y-53956552D01*
X56440186Y-54039814D01*
X56523448Y-54141271D01*
X56552778Y-54177009D01*
X56552779Y-54177011D01*
X56636443Y-54333533D01*
X56636443Y-54333534D01*
X56687963Y-54503373D01*
X56705359Y-54680000D01*
X56687963Y-54856627D01*
X56653616Y-54969853D01*
X56636443Y-55026467D01*
X56562348Y-55165087D01*
X56552778Y-55182991D01*
X56523448Y-55218729D01*
X56440186Y-55320186D01*
X56338729Y-55403448D01*
X56302991Y-55432778D01*
X56302989Y-55432779D01*
X56146467Y-55516443D01*
X56089853Y-55533616D01*
X55976627Y-55567963D01*
X55910442Y-55574482D01*
X55844260Y-55581000D01*
X55755740Y-55581000D01*
X55689558Y-55574482D01*
X55623373Y-55567963D01*
X55510147Y-55533616D01*
X55453533Y-55516443D01*
X55297011Y-55432779D01*
X55297009Y-55432778D01*
X55261271Y-55403448D01*
X55159814Y-55320186D01*
X55076552Y-55218729D01*
X55047222Y-55182991D01*
X55037652Y-55165087D01*
X54963557Y-55026467D01*
X54946384Y-54969853D01*
X54912037Y-54856627D01*
X54894641Y-54680000D01*
X54912037Y-54503373D01*
X54963557Y-54333534D01*
X54963557Y-54333533D01*
X55047221Y-54177011D01*
X55047222Y-54177009D01*
X55076552Y-54141271D01*
X55159814Y-54039814D01*
X55261271Y-53956552D01*
X55297009Y-53927222D01*
X55314913Y-53917652D01*
X55453533Y-53843557D01*
X55510147Y-53826384D01*
X55623373Y-53792037D01*
X55689558Y-53785518D01*
X55755740Y-53779000D01*
X55844260Y-53779000D01*
X55910442Y-53785518D01*
X55910442Y-53785518D01*
G37*
G36*
X55910442Y-51245518D02*
X55976627Y-51252037D01*
X56089853Y-51286384D01*
X56146467Y-51303557D01*
X56285087Y-51377652D01*
X56302991Y-51387222D01*
X56338729Y-51416552D01*
X56440186Y-51499814D01*
X56523448Y-51601271D01*
X56552778Y-51637009D01*
X56552779Y-51637011D01*
X56636443Y-51793533D01*
X56636443Y-51793534D01*
X56687963Y-51963373D01*
X56705359Y-52140000D01*
X56687963Y-52316627D01*
X56653616Y-52429853D01*
X56636443Y-52486467D01*
X56562348Y-52625087D01*
X56552778Y-52642991D01*
X56523448Y-52678729D01*
X56440186Y-52780186D01*
X56338729Y-52863448D01*
X56302991Y-52892778D01*
X56302989Y-52892779D01*
X56146467Y-52976443D01*
X56089853Y-52993616D01*
X55976627Y-53027963D01*
X55910443Y-53034481D01*
X55844260Y-53041000D01*
X55755740Y-53041000D01*
X55689557Y-53034481D01*
X55623373Y-53027963D01*
X55510147Y-52993616D01*
X55453533Y-52976443D01*
X55297011Y-52892779D01*
X55297009Y-52892778D01*
X55261271Y-52863448D01*
X55159814Y-52780186D01*
X55076552Y-52678729D01*
X55047222Y-52642991D01*
X55037652Y-52625087D01*
X54963557Y-52486467D01*
X54946384Y-52429853D01*
X54912037Y-52316627D01*
X54894641Y-52140000D01*
X54912037Y-51963373D01*
X54963557Y-51793534D01*
X54963557Y-51793533D01*
X55047221Y-51637011D01*
X55047222Y-51637009D01*
X55076552Y-51601271D01*
X55159814Y-51499814D01*
X55261271Y-51416552D01*
X55297009Y-51387222D01*
X55314913Y-51377652D01*
X55453533Y-51303557D01*
X55510147Y-51286384D01*
X55623373Y-51252037D01*
X55689557Y-51245519D01*
X55755740Y-51239000D01*
X55844260Y-51239000D01*
X55910442Y-51245518D01*
X55910442Y-51245518D01*
G37*
G36*
X84170443Y-48705519D02*
X84236627Y-48712037D01*
X84349853Y-48746384D01*
X84406467Y-48763557D01*
X84545087Y-48837652D01*
X84562991Y-48847222D01*
X84598729Y-48876552D01*
X84700186Y-48959814D01*
X84783448Y-49061271D01*
X84812778Y-49097009D01*
X84812779Y-49097011D01*
X84896443Y-49253533D01*
X84896443Y-49253534D01*
X84947963Y-49423373D01*
X84965359Y-49600000D01*
X84947963Y-49776627D01*
X84913616Y-49889853D01*
X84896443Y-49946467D01*
X84822348Y-50085087D01*
X84812778Y-50102991D01*
X84783448Y-50138729D01*
X84700186Y-50240186D01*
X84598729Y-50323448D01*
X84562991Y-50352778D01*
X84562989Y-50352779D01*
X84406467Y-50436443D01*
X84349853Y-50453616D01*
X84236627Y-50487963D01*
X84170443Y-50494481D01*
X84104260Y-50501000D01*
X84015740Y-50501000D01*
X83949557Y-50494481D01*
X83883373Y-50487963D01*
X83770147Y-50453616D01*
X83713533Y-50436443D01*
X83557011Y-50352779D01*
X83557009Y-50352778D01*
X83521271Y-50323448D01*
X83419814Y-50240186D01*
X83336552Y-50138729D01*
X83307222Y-50102991D01*
X83297652Y-50085087D01*
X83223557Y-49946467D01*
X83206384Y-49889853D01*
X83172037Y-49776627D01*
X83154641Y-49600000D01*
X83172037Y-49423373D01*
X83223557Y-49253534D01*
X83223557Y-49253533D01*
X83307221Y-49097011D01*
X83307222Y-49097009D01*
X83336552Y-49061271D01*
X83419814Y-48959814D01*
X83521271Y-48876552D01*
X83557009Y-48847222D01*
X83574913Y-48837652D01*
X83713533Y-48763557D01*
X83770147Y-48746384D01*
X83883373Y-48712037D01*
X83949557Y-48705519D01*
X84015740Y-48699000D01*
X84104260Y-48699000D01*
X84170443Y-48705519D01*
X84170443Y-48705519D01*
G37*
G36*
X86710443Y-48705519D02*
X86776627Y-48712037D01*
X86889853Y-48746384D01*
X86946467Y-48763557D01*
X87085087Y-48837652D01*
X87102991Y-48847222D01*
X87138729Y-48876552D01*
X87240186Y-48959814D01*
X87323448Y-49061271D01*
X87352778Y-49097009D01*
X87352779Y-49097011D01*
X87436443Y-49253533D01*
X87436443Y-49253534D01*
X87487963Y-49423373D01*
X87505359Y-49600000D01*
X87487963Y-49776627D01*
X87453616Y-49889853D01*
X87436443Y-49946467D01*
X87362348Y-50085087D01*
X87352778Y-50102991D01*
X87323448Y-50138729D01*
X87240186Y-50240186D01*
X87138729Y-50323448D01*
X87102991Y-50352778D01*
X87102989Y-50352779D01*
X86946467Y-50436443D01*
X86889853Y-50453616D01*
X86776627Y-50487963D01*
X86710443Y-50494481D01*
X86644260Y-50501000D01*
X86555740Y-50501000D01*
X86489557Y-50494481D01*
X86423373Y-50487963D01*
X86310147Y-50453616D01*
X86253533Y-50436443D01*
X86097011Y-50352779D01*
X86097009Y-50352778D01*
X86061271Y-50323448D01*
X85959814Y-50240186D01*
X85876552Y-50138729D01*
X85847222Y-50102991D01*
X85837652Y-50085087D01*
X85763557Y-49946467D01*
X85746384Y-49889853D01*
X85712037Y-49776627D01*
X85694641Y-49600000D01*
X85712037Y-49423373D01*
X85763557Y-49253534D01*
X85763557Y-49253533D01*
X85847221Y-49097011D01*
X85847222Y-49097009D01*
X85876552Y-49061271D01*
X85959814Y-48959814D01*
X86061271Y-48876552D01*
X86097009Y-48847222D01*
X86114913Y-48837652D01*
X86253533Y-48763557D01*
X86310147Y-48746384D01*
X86423373Y-48712037D01*
X86489557Y-48705519D01*
X86555740Y-48699000D01*
X86644260Y-48699000D01*
X86710443Y-48705519D01*
X86710443Y-48705519D01*
G37*
G36*
X89250443Y-48705519D02*
X89316627Y-48712037D01*
X89429853Y-48746384D01*
X89486467Y-48763557D01*
X89625087Y-48837652D01*
X89642991Y-48847222D01*
X89678729Y-48876552D01*
X89780186Y-48959814D01*
X89863448Y-49061271D01*
X89892778Y-49097009D01*
X89892779Y-49097011D01*
X89976443Y-49253533D01*
X89976443Y-49253534D01*
X90027963Y-49423373D01*
X90045359Y-49600000D01*
X90027963Y-49776627D01*
X89993616Y-49889853D01*
X89976443Y-49946467D01*
X89902348Y-50085087D01*
X89892778Y-50102991D01*
X89863448Y-50138729D01*
X89780186Y-50240186D01*
X89678729Y-50323448D01*
X89642991Y-50352778D01*
X89642989Y-50352779D01*
X89486467Y-50436443D01*
X89429853Y-50453616D01*
X89316627Y-50487963D01*
X89250443Y-50494481D01*
X89184260Y-50501000D01*
X89095740Y-50501000D01*
X89029557Y-50494481D01*
X88963373Y-50487963D01*
X88850147Y-50453616D01*
X88793533Y-50436443D01*
X88637011Y-50352779D01*
X88637009Y-50352778D01*
X88601271Y-50323448D01*
X88499814Y-50240186D01*
X88416552Y-50138729D01*
X88387222Y-50102991D01*
X88377652Y-50085087D01*
X88303557Y-49946467D01*
X88286384Y-49889853D01*
X88252037Y-49776627D01*
X88234641Y-49600000D01*
X88252037Y-49423373D01*
X88303557Y-49253534D01*
X88303557Y-49253533D01*
X88387221Y-49097011D01*
X88387222Y-49097009D01*
X88416552Y-49061271D01*
X88499814Y-48959814D01*
X88601271Y-48876552D01*
X88637009Y-48847222D01*
X88654913Y-48837652D01*
X88793533Y-48763557D01*
X88850147Y-48746384D01*
X88963373Y-48712037D01*
X89029557Y-48705519D01*
X89095740Y-48699000D01*
X89184260Y-48699000D01*
X89250443Y-48705519D01*
X89250443Y-48705519D01*
G37*
G36*
X91790443Y-48705519D02*
X91856627Y-48712037D01*
X91969853Y-48746384D01*
X92026467Y-48763557D01*
X92165087Y-48837652D01*
X92182991Y-48847222D01*
X92218729Y-48876552D01*
X92320186Y-48959814D01*
X92403448Y-49061271D01*
X92432778Y-49097009D01*
X92432779Y-49097011D01*
X92516443Y-49253533D01*
X92516443Y-49253534D01*
X92567963Y-49423373D01*
X92585359Y-49600000D01*
X92567963Y-49776627D01*
X92533616Y-49889853D01*
X92516443Y-49946467D01*
X92442348Y-50085087D01*
X92432778Y-50102991D01*
X92403448Y-50138729D01*
X92320186Y-50240186D01*
X92218729Y-50323448D01*
X92182991Y-50352778D01*
X92182989Y-50352779D01*
X92026467Y-50436443D01*
X91969853Y-50453616D01*
X91856627Y-50487963D01*
X91790443Y-50494481D01*
X91724260Y-50501000D01*
X91635740Y-50501000D01*
X91569557Y-50494481D01*
X91503373Y-50487963D01*
X91390147Y-50453616D01*
X91333533Y-50436443D01*
X91177011Y-50352779D01*
X91177009Y-50352778D01*
X91141271Y-50323448D01*
X91039814Y-50240186D01*
X90956552Y-50138729D01*
X90927222Y-50102991D01*
X90917652Y-50085087D01*
X90843557Y-49946467D01*
X90826384Y-49889853D01*
X90792037Y-49776627D01*
X90774641Y-49600000D01*
X90792037Y-49423373D01*
X90843557Y-49253534D01*
X90843557Y-49253533D01*
X90927221Y-49097011D01*
X90927222Y-49097009D01*
X90956552Y-49061271D01*
X91039814Y-48959814D01*
X91141271Y-48876552D01*
X91177009Y-48847222D01*
X91194913Y-48837652D01*
X91333533Y-48763557D01*
X91390147Y-48746384D01*
X91503373Y-48712037D01*
X91569557Y-48705519D01*
X91635740Y-48699000D01*
X91724260Y-48699000D01*
X91790443Y-48705519D01*
X91790443Y-48705519D01*
G37*
G36*
X94330443Y-48705519D02*
X94396627Y-48712037D01*
X94509853Y-48746384D01*
X94566467Y-48763557D01*
X94705087Y-48837652D01*
X94722991Y-48847222D01*
X94758729Y-48876552D01*
X94860186Y-48959814D01*
X94943448Y-49061271D01*
X94972778Y-49097009D01*
X94972779Y-49097011D01*
X95056443Y-49253533D01*
X95056443Y-49253534D01*
X95107963Y-49423373D01*
X95125359Y-49600000D01*
X95107963Y-49776627D01*
X95073616Y-49889853D01*
X95056443Y-49946467D01*
X94982348Y-50085087D01*
X94972778Y-50102991D01*
X94943448Y-50138729D01*
X94860186Y-50240186D01*
X94758729Y-50323448D01*
X94722991Y-50352778D01*
X94722989Y-50352779D01*
X94566467Y-50436443D01*
X94509853Y-50453616D01*
X94396627Y-50487963D01*
X94330443Y-50494481D01*
X94264260Y-50501000D01*
X94175740Y-50501000D01*
X94109557Y-50494481D01*
X94043373Y-50487963D01*
X93930147Y-50453616D01*
X93873533Y-50436443D01*
X93717011Y-50352779D01*
X93717009Y-50352778D01*
X93681271Y-50323448D01*
X93579814Y-50240186D01*
X93496552Y-50138729D01*
X93467222Y-50102991D01*
X93457652Y-50085087D01*
X93383557Y-49946467D01*
X93366384Y-49889853D01*
X93332037Y-49776627D01*
X93314641Y-49600000D01*
X93332037Y-49423373D01*
X93383557Y-49253534D01*
X93383557Y-49253533D01*
X93467221Y-49097011D01*
X93467222Y-49097009D01*
X93496552Y-49061271D01*
X93579814Y-48959814D01*
X93681271Y-48876552D01*
X93717009Y-48847222D01*
X93734913Y-48837652D01*
X93873533Y-48763557D01*
X93930147Y-48746384D01*
X94043373Y-48712037D01*
X94109557Y-48705519D01*
X94175740Y-48699000D01*
X94264260Y-48699000D01*
X94330443Y-48705519D01*
X94330443Y-48705519D01*
G37*
G36*
X96870443Y-48705519D02*
X96936627Y-48712037D01*
X97049853Y-48746384D01*
X97106467Y-48763557D01*
X97245087Y-48837652D01*
X97262991Y-48847222D01*
X97298729Y-48876552D01*
X97400186Y-48959814D01*
X97483448Y-49061271D01*
X97512778Y-49097009D01*
X97512779Y-49097011D01*
X97596443Y-49253533D01*
X97596443Y-49253534D01*
X97647963Y-49423373D01*
X97665359Y-49600000D01*
X97647963Y-49776627D01*
X97613616Y-49889853D01*
X97596443Y-49946467D01*
X97522348Y-50085087D01*
X97512778Y-50102991D01*
X97483448Y-50138729D01*
X97400186Y-50240186D01*
X97298729Y-50323448D01*
X97262991Y-50352778D01*
X97262989Y-50352779D01*
X97106467Y-50436443D01*
X97049853Y-50453616D01*
X96936627Y-50487963D01*
X96870443Y-50494481D01*
X96804260Y-50501000D01*
X96715740Y-50501000D01*
X96649557Y-50494481D01*
X96583373Y-50487963D01*
X96470147Y-50453616D01*
X96413533Y-50436443D01*
X96257011Y-50352779D01*
X96257009Y-50352778D01*
X96221271Y-50323448D01*
X96119814Y-50240186D01*
X96036552Y-50138729D01*
X96007222Y-50102991D01*
X95997652Y-50085087D01*
X95923557Y-49946467D01*
X95906384Y-49889853D01*
X95872037Y-49776627D01*
X95854641Y-49600000D01*
X95872037Y-49423373D01*
X95923557Y-49253534D01*
X95923557Y-49253533D01*
X96007221Y-49097011D01*
X96007222Y-49097009D01*
X96036552Y-49061271D01*
X96119814Y-48959814D01*
X96221271Y-48876552D01*
X96257009Y-48847222D01*
X96274913Y-48837652D01*
X96413533Y-48763557D01*
X96470147Y-48746384D01*
X96583373Y-48712037D01*
X96649557Y-48705519D01*
X96715740Y-48699000D01*
X96804260Y-48699000D01*
X96870443Y-48705519D01*
X96870443Y-48705519D01*
G37*
G36*
X61310443Y-48705519D02*
X61376627Y-48712037D01*
X61489853Y-48746384D01*
X61546467Y-48763557D01*
X61685087Y-48837652D01*
X61702991Y-48847222D01*
X61738729Y-48876552D01*
X61840186Y-48959814D01*
X61923448Y-49061271D01*
X61952778Y-49097009D01*
X61952779Y-49097011D01*
X62036443Y-49253533D01*
X62036443Y-49253534D01*
X62087963Y-49423373D01*
X62105359Y-49600000D01*
X62087963Y-49776627D01*
X62053616Y-49889853D01*
X62036443Y-49946467D01*
X61962348Y-50085087D01*
X61952778Y-50102991D01*
X61923448Y-50138729D01*
X61840186Y-50240186D01*
X61738729Y-50323448D01*
X61702991Y-50352778D01*
X61702989Y-50352779D01*
X61546467Y-50436443D01*
X61489853Y-50453616D01*
X61376627Y-50487963D01*
X61310443Y-50494481D01*
X61244260Y-50501000D01*
X61155740Y-50501000D01*
X61089557Y-50494481D01*
X61023373Y-50487963D01*
X60910147Y-50453616D01*
X60853533Y-50436443D01*
X60697011Y-50352779D01*
X60697009Y-50352778D01*
X60661271Y-50323448D01*
X60559814Y-50240186D01*
X60476552Y-50138729D01*
X60447222Y-50102991D01*
X60437652Y-50085087D01*
X60363557Y-49946467D01*
X60346384Y-49889853D01*
X60312037Y-49776627D01*
X60294641Y-49600000D01*
X60312037Y-49423373D01*
X60363557Y-49253534D01*
X60363557Y-49253533D01*
X60447221Y-49097011D01*
X60447222Y-49097009D01*
X60476552Y-49061271D01*
X60559814Y-48959814D01*
X60661271Y-48876552D01*
X60697009Y-48847222D01*
X60714913Y-48837652D01*
X60853533Y-48763557D01*
X60910147Y-48746384D01*
X61023373Y-48712037D01*
X61089557Y-48705519D01*
X61155740Y-48699000D01*
X61244260Y-48699000D01*
X61310443Y-48705519D01*
X61310443Y-48705519D01*
G37*
G36*
X63850443Y-48705519D02*
X63916627Y-48712037D01*
X64029853Y-48746384D01*
X64086467Y-48763557D01*
X64225087Y-48837652D01*
X64242991Y-48847222D01*
X64278729Y-48876552D01*
X64380186Y-48959814D01*
X64463448Y-49061271D01*
X64492778Y-49097009D01*
X64492779Y-49097011D01*
X64576443Y-49253533D01*
X64576443Y-49253534D01*
X64627963Y-49423373D01*
X64645359Y-49600000D01*
X64627963Y-49776627D01*
X64593616Y-49889853D01*
X64576443Y-49946467D01*
X64502348Y-50085087D01*
X64492778Y-50102991D01*
X64463448Y-50138729D01*
X64380186Y-50240186D01*
X64278729Y-50323448D01*
X64242991Y-50352778D01*
X64242989Y-50352779D01*
X64086467Y-50436443D01*
X64029853Y-50453616D01*
X63916627Y-50487963D01*
X63850443Y-50494481D01*
X63784260Y-50501000D01*
X63695740Y-50501000D01*
X63629557Y-50494481D01*
X63563373Y-50487963D01*
X63450147Y-50453616D01*
X63393533Y-50436443D01*
X63237011Y-50352779D01*
X63237009Y-50352778D01*
X63201271Y-50323448D01*
X63099814Y-50240186D01*
X63016552Y-50138729D01*
X62987222Y-50102991D01*
X62977652Y-50085087D01*
X62903557Y-49946467D01*
X62886384Y-49889853D01*
X62852037Y-49776627D01*
X62834641Y-49600000D01*
X62852037Y-49423373D01*
X62903557Y-49253534D01*
X62903557Y-49253533D01*
X62987221Y-49097011D01*
X62987222Y-49097009D01*
X63016552Y-49061271D01*
X63099814Y-48959814D01*
X63201271Y-48876552D01*
X63237009Y-48847222D01*
X63254913Y-48837652D01*
X63393533Y-48763557D01*
X63450147Y-48746384D01*
X63563373Y-48712037D01*
X63629557Y-48705519D01*
X63695740Y-48699000D01*
X63784260Y-48699000D01*
X63850443Y-48705519D01*
X63850443Y-48705519D01*
G37*
G36*
X66390443Y-48705519D02*
X66456627Y-48712037D01*
X66569853Y-48746384D01*
X66626467Y-48763557D01*
X66765087Y-48837652D01*
X66782991Y-48847222D01*
X66818729Y-48876552D01*
X66920186Y-48959814D01*
X67003448Y-49061271D01*
X67032778Y-49097009D01*
X67032779Y-49097011D01*
X67116443Y-49253533D01*
X67116443Y-49253534D01*
X67167963Y-49423373D01*
X67185359Y-49600000D01*
X67167963Y-49776627D01*
X67133616Y-49889853D01*
X67116443Y-49946467D01*
X67042348Y-50085087D01*
X67032778Y-50102991D01*
X67003448Y-50138729D01*
X66920186Y-50240186D01*
X66818729Y-50323448D01*
X66782991Y-50352778D01*
X66782989Y-50352779D01*
X66626467Y-50436443D01*
X66569853Y-50453616D01*
X66456627Y-50487963D01*
X66390443Y-50494481D01*
X66324260Y-50501000D01*
X66235740Y-50501000D01*
X66169557Y-50494481D01*
X66103373Y-50487963D01*
X65990147Y-50453616D01*
X65933533Y-50436443D01*
X65777011Y-50352779D01*
X65777009Y-50352778D01*
X65741271Y-50323448D01*
X65639814Y-50240186D01*
X65556552Y-50138729D01*
X65527222Y-50102991D01*
X65517652Y-50085087D01*
X65443557Y-49946467D01*
X65426384Y-49889853D01*
X65392037Y-49776627D01*
X65374641Y-49600000D01*
X65392037Y-49423373D01*
X65443557Y-49253534D01*
X65443557Y-49253533D01*
X65527221Y-49097011D01*
X65527222Y-49097009D01*
X65556552Y-49061271D01*
X65639814Y-48959814D01*
X65741271Y-48876552D01*
X65777009Y-48847222D01*
X65794913Y-48837652D01*
X65933533Y-48763557D01*
X65990147Y-48746384D01*
X66103373Y-48712037D01*
X66169557Y-48705519D01*
X66235740Y-48699000D01*
X66324260Y-48699000D01*
X66390443Y-48705519D01*
X66390443Y-48705519D01*
G37*
G36*
X68930443Y-48705519D02*
X68996627Y-48712037D01*
X69109853Y-48746384D01*
X69166467Y-48763557D01*
X69305087Y-48837652D01*
X69322991Y-48847222D01*
X69358729Y-48876552D01*
X69460186Y-48959814D01*
X69543448Y-49061271D01*
X69572778Y-49097009D01*
X69572779Y-49097011D01*
X69656443Y-49253533D01*
X69656443Y-49253534D01*
X69707963Y-49423373D01*
X69725359Y-49600000D01*
X69707963Y-49776627D01*
X69673616Y-49889853D01*
X69656443Y-49946467D01*
X69582348Y-50085087D01*
X69572778Y-50102991D01*
X69543448Y-50138729D01*
X69460186Y-50240186D01*
X69358729Y-50323448D01*
X69322991Y-50352778D01*
X69322989Y-50352779D01*
X69166467Y-50436443D01*
X69109853Y-50453616D01*
X68996627Y-50487963D01*
X68930443Y-50494481D01*
X68864260Y-50501000D01*
X68775740Y-50501000D01*
X68709557Y-50494481D01*
X68643373Y-50487963D01*
X68530147Y-50453616D01*
X68473533Y-50436443D01*
X68317011Y-50352779D01*
X68317009Y-50352778D01*
X68281271Y-50323448D01*
X68179814Y-50240186D01*
X68096552Y-50138729D01*
X68067222Y-50102991D01*
X68057652Y-50085087D01*
X67983557Y-49946467D01*
X67966384Y-49889853D01*
X67932037Y-49776627D01*
X67914641Y-49600000D01*
X67932037Y-49423373D01*
X67983557Y-49253534D01*
X67983557Y-49253533D01*
X68067221Y-49097011D01*
X68067222Y-49097009D01*
X68096552Y-49061271D01*
X68179814Y-48959814D01*
X68281271Y-48876552D01*
X68317009Y-48847222D01*
X68334913Y-48837652D01*
X68473533Y-48763557D01*
X68530147Y-48746384D01*
X68643373Y-48712037D01*
X68709557Y-48705519D01*
X68775740Y-48699000D01*
X68864260Y-48699000D01*
X68930443Y-48705519D01*
X68930443Y-48705519D01*
G37*
G36*
X71470443Y-48705519D02*
X71536627Y-48712037D01*
X71649853Y-48746384D01*
X71706467Y-48763557D01*
X71845087Y-48837652D01*
X71862991Y-48847222D01*
X71898729Y-48876552D01*
X72000186Y-48959814D01*
X72083448Y-49061271D01*
X72112778Y-49097009D01*
X72112779Y-49097011D01*
X72196443Y-49253533D01*
X72196443Y-49253534D01*
X72247963Y-49423373D01*
X72265359Y-49600000D01*
X72247963Y-49776627D01*
X72213616Y-49889853D01*
X72196443Y-49946467D01*
X72122348Y-50085087D01*
X72112778Y-50102991D01*
X72083448Y-50138729D01*
X72000186Y-50240186D01*
X71898729Y-50323448D01*
X71862991Y-50352778D01*
X71862989Y-50352779D01*
X71706467Y-50436443D01*
X71649853Y-50453616D01*
X71536627Y-50487963D01*
X71470443Y-50494481D01*
X71404260Y-50501000D01*
X71315740Y-50501000D01*
X71249557Y-50494481D01*
X71183373Y-50487963D01*
X71070147Y-50453616D01*
X71013533Y-50436443D01*
X70857011Y-50352779D01*
X70857009Y-50352778D01*
X70821271Y-50323448D01*
X70719814Y-50240186D01*
X70636552Y-50138729D01*
X70607222Y-50102991D01*
X70597652Y-50085087D01*
X70523557Y-49946467D01*
X70506384Y-49889853D01*
X70472037Y-49776627D01*
X70454641Y-49600000D01*
X70472037Y-49423373D01*
X70523557Y-49253534D01*
X70523557Y-49253533D01*
X70607221Y-49097011D01*
X70607222Y-49097009D01*
X70636552Y-49061271D01*
X70719814Y-48959814D01*
X70821271Y-48876552D01*
X70857009Y-48847222D01*
X70874913Y-48837652D01*
X71013533Y-48763557D01*
X71070147Y-48746384D01*
X71183373Y-48712037D01*
X71249557Y-48705519D01*
X71315740Y-48699000D01*
X71404260Y-48699000D01*
X71470443Y-48705519D01*
X71470443Y-48705519D01*
G37*
G36*
X74010443Y-48705519D02*
X74076627Y-48712037D01*
X74189853Y-48746384D01*
X74246467Y-48763557D01*
X74385087Y-48837652D01*
X74402991Y-48847222D01*
X74438729Y-48876552D01*
X74540186Y-48959814D01*
X74623448Y-49061271D01*
X74652778Y-49097009D01*
X74652779Y-49097011D01*
X74736443Y-49253533D01*
X74736443Y-49253534D01*
X74787963Y-49423373D01*
X74805359Y-49600000D01*
X74787963Y-49776627D01*
X74753616Y-49889853D01*
X74736443Y-49946467D01*
X74662348Y-50085087D01*
X74652778Y-50102991D01*
X74623448Y-50138729D01*
X74540186Y-50240186D01*
X74438729Y-50323448D01*
X74402991Y-50352778D01*
X74402989Y-50352779D01*
X74246467Y-50436443D01*
X74189853Y-50453616D01*
X74076627Y-50487963D01*
X74010443Y-50494481D01*
X73944260Y-50501000D01*
X73855740Y-50501000D01*
X73789557Y-50494481D01*
X73723373Y-50487963D01*
X73610147Y-50453616D01*
X73553533Y-50436443D01*
X73397011Y-50352779D01*
X73397009Y-50352778D01*
X73361271Y-50323448D01*
X73259814Y-50240186D01*
X73176552Y-50138729D01*
X73147222Y-50102991D01*
X73137652Y-50085087D01*
X73063557Y-49946467D01*
X73046384Y-49889853D01*
X73012037Y-49776627D01*
X72994641Y-49600000D01*
X73012037Y-49423373D01*
X73063557Y-49253534D01*
X73063557Y-49253533D01*
X73147221Y-49097011D01*
X73147222Y-49097009D01*
X73176552Y-49061271D01*
X73259814Y-48959814D01*
X73361271Y-48876552D01*
X73397009Y-48847222D01*
X73414913Y-48837652D01*
X73553533Y-48763557D01*
X73610147Y-48746384D01*
X73723373Y-48712037D01*
X73789557Y-48705519D01*
X73855740Y-48699000D01*
X73944260Y-48699000D01*
X74010443Y-48705519D01*
X74010443Y-48705519D01*
G37*
G36*
X76550443Y-48705519D02*
X76616627Y-48712037D01*
X76729853Y-48746384D01*
X76786467Y-48763557D01*
X76925087Y-48837652D01*
X76942991Y-48847222D01*
X76978729Y-48876552D01*
X77080186Y-48959814D01*
X77163448Y-49061271D01*
X77192778Y-49097009D01*
X77192779Y-49097011D01*
X77276443Y-49253533D01*
X77276443Y-49253534D01*
X77327963Y-49423373D01*
X77345359Y-49600000D01*
X77327963Y-49776627D01*
X77293616Y-49889853D01*
X77276443Y-49946467D01*
X77202348Y-50085087D01*
X77192778Y-50102991D01*
X77163448Y-50138729D01*
X77080186Y-50240186D01*
X76978729Y-50323448D01*
X76942991Y-50352778D01*
X76942989Y-50352779D01*
X76786467Y-50436443D01*
X76729853Y-50453616D01*
X76616627Y-50487963D01*
X76550443Y-50494481D01*
X76484260Y-50501000D01*
X76395740Y-50501000D01*
X76329557Y-50494481D01*
X76263373Y-50487963D01*
X76150147Y-50453616D01*
X76093533Y-50436443D01*
X75937011Y-50352779D01*
X75937009Y-50352778D01*
X75901271Y-50323448D01*
X75799814Y-50240186D01*
X75716552Y-50138729D01*
X75687222Y-50102991D01*
X75677652Y-50085087D01*
X75603557Y-49946467D01*
X75586384Y-49889853D01*
X75552037Y-49776627D01*
X75534641Y-49600000D01*
X75552037Y-49423373D01*
X75603557Y-49253534D01*
X75603557Y-49253533D01*
X75687221Y-49097011D01*
X75687222Y-49097009D01*
X75716552Y-49061271D01*
X75799814Y-48959814D01*
X75901271Y-48876552D01*
X75937009Y-48847222D01*
X75954913Y-48837652D01*
X76093533Y-48763557D01*
X76150147Y-48746384D01*
X76263373Y-48712037D01*
X76329557Y-48705519D01*
X76395740Y-48699000D01*
X76484260Y-48699000D01*
X76550443Y-48705519D01*
X76550443Y-48705519D01*
G37*
G36*
X81630443Y-48705519D02*
X81696627Y-48712037D01*
X81809853Y-48746384D01*
X81866467Y-48763557D01*
X82005087Y-48837652D01*
X82022991Y-48847222D01*
X82058729Y-48876552D01*
X82160186Y-48959814D01*
X82243448Y-49061271D01*
X82272778Y-49097009D01*
X82272779Y-49097011D01*
X82356443Y-49253533D01*
X82356443Y-49253534D01*
X82407963Y-49423373D01*
X82425359Y-49600000D01*
X82407963Y-49776627D01*
X82373616Y-49889853D01*
X82356443Y-49946467D01*
X82282348Y-50085087D01*
X82272778Y-50102991D01*
X82243448Y-50138729D01*
X82160186Y-50240186D01*
X82058729Y-50323448D01*
X82022991Y-50352778D01*
X82022989Y-50352779D01*
X81866467Y-50436443D01*
X81809853Y-50453616D01*
X81696627Y-50487963D01*
X81630443Y-50494481D01*
X81564260Y-50501000D01*
X81475740Y-50501000D01*
X81409557Y-50494481D01*
X81343373Y-50487963D01*
X81230147Y-50453616D01*
X81173533Y-50436443D01*
X81017011Y-50352779D01*
X81017009Y-50352778D01*
X80981271Y-50323448D01*
X80879814Y-50240186D01*
X80796552Y-50138729D01*
X80767222Y-50102991D01*
X80757652Y-50085087D01*
X80683557Y-49946467D01*
X80666384Y-49889853D01*
X80632037Y-49776627D01*
X80614641Y-49600000D01*
X80632037Y-49423373D01*
X80683557Y-49253534D01*
X80683557Y-49253533D01*
X80767221Y-49097011D01*
X80767222Y-49097009D01*
X80796552Y-49061271D01*
X80879814Y-48959814D01*
X80981271Y-48876552D01*
X81017009Y-48847222D01*
X81034913Y-48837652D01*
X81173533Y-48763557D01*
X81230147Y-48746384D01*
X81343373Y-48712037D01*
X81409557Y-48705519D01*
X81475740Y-48699000D01*
X81564260Y-48699000D01*
X81630443Y-48705519D01*
X81630443Y-48705519D01*
G37*
G36*
X79090443Y-48705519D02*
X79156627Y-48712037D01*
X79269853Y-48746384D01*
X79326467Y-48763557D01*
X79465087Y-48837652D01*
X79482991Y-48847222D01*
X79518729Y-48876552D01*
X79620186Y-48959814D01*
X79703448Y-49061271D01*
X79732778Y-49097009D01*
X79732779Y-49097011D01*
X79816443Y-49253533D01*
X79816443Y-49253534D01*
X79867963Y-49423373D01*
X79885359Y-49600000D01*
X79867963Y-49776627D01*
X79833616Y-49889853D01*
X79816443Y-49946467D01*
X79742348Y-50085087D01*
X79732778Y-50102991D01*
X79703448Y-50138729D01*
X79620186Y-50240186D01*
X79518729Y-50323448D01*
X79482991Y-50352778D01*
X79482989Y-50352779D01*
X79326467Y-50436443D01*
X79269853Y-50453616D01*
X79156627Y-50487963D01*
X79090443Y-50494481D01*
X79024260Y-50501000D01*
X78935740Y-50501000D01*
X78869557Y-50494481D01*
X78803373Y-50487963D01*
X78690147Y-50453616D01*
X78633533Y-50436443D01*
X78477011Y-50352779D01*
X78477009Y-50352778D01*
X78441271Y-50323448D01*
X78339814Y-50240186D01*
X78256552Y-50138729D01*
X78227222Y-50102991D01*
X78217652Y-50085087D01*
X78143557Y-49946467D01*
X78126384Y-49889853D01*
X78092037Y-49776627D01*
X78074641Y-49600000D01*
X78092037Y-49423373D01*
X78143557Y-49253534D01*
X78143557Y-49253533D01*
X78227221Y-49097011D01*
X78227222Y-49097009D01*
X78256552Y-49061271D01*
X78339814Y-48959814D01*
X78441271Y-48876552D01*
X78477009Y-48847222D01*
X78494913Y-48837652D01*
X78633533Y-48763557D01*
X78690147Y-48746384D01*
X78803373Y-48712037D01*
X78869557Y-48705519D01*
X78935740Y-48699000D01*
X79024260Y-48699000D01*
X79090443Y-48705519D01*
X79090443Y-48705519D01*
G37*
G36*
X56701000Y-50501000D02*
X54899000Y-50501000D01*
X54899000Y-48699000D01*
X56701000Y-48699000D01*
X56701000Y-50501000D01*
X56701000Y-50501000D01*
G37*
G36*
X100201000Y-50501000D02*
X98399000Y-50501000D01*
X98399000Y-48699000D01*
X100201000Y-48699000D01*
X100201000Y-50501000D01*
X100201000Y-50501000D01*
G37*
M02*
