G04 #@! TF.GenerationSoftware,KiCad,Pcbnew,(5.0.2)-1*
G04 #@! TF.CreationDate,2019-02-28T10:09:49+00:00*
G04 #@! TF.ProjectId,AircraftDataLogger,41697263-7261-4667-9444-6174614c6f67,rev?*
G04 #@! TF.SameCoordinates,Original*
G04 #@! TF.FileFunction,Copper,L1,Top*
G04 #@! TF.FilePolarity,Positive*
%FSLAX46Y46*%
G04 Gerber Fmt 4.6, Leading zero omitted, Abs format (unit mm)*
G04 Created by KiCad (PCBNEW (5.0.2)-1) date 28/02/2019 10:09:49*
%MOMM*%
%LPD*%
G01*
G04 APERTURE LIST*
G04 #@! TA.AperFunction,ComponentPad*
%ADD10C,3.500000*%
G04 #@! TD*
G04 #@! TA.AperFunction,ComponentPad*
%ADD11O,1.700000X1.700000*%
G04 #@! TD*
G04 #@! TA.AperFunction,ComponentPad*
%ADD12R,1.700000X1.700000*%
G04 #@! TD*
G04 #@! TA.AperFunction,Conductor*
%ADD13C,0.100000*%
G04 #@! TD*
G04 #@! TA.AperFunction,SMDPad,CuDef*
%ADD14C,0.975000*%
G04 #@! TD*
G04 #@! TA.AperFunction,ComponentPad*
%ADD15C,1.800000*%
G04 #@! TD*
G04 #@! TA.AperFunction,ComponentPad*
%ADD16R,1.800000X1.800000*%
G04 #@! TD*
G04 #@! TA.AperFunction,SMDPad,CuDef*
%ADD17R,1.220000X0.650000*%
G04 #@! TD*
G04 #@! TA.AperFunction,SMDPad,CuDef*
%ADD18R,1.600000X0.550000*%
G04 #@! TD*
G04 #@! TA.AperFunction,SMDPad,CuDef*
%ADD19R,0.550000X1.600000*%
G04 #@! TD*
G04 #@! TA.AperFunction,ComponentPad*
%ADD20C,1.500000*%
G04 #@! TD*
G04 #@! TA.AperFunction,SMDPad,CuDef*
%ADD21C,1.250000*%
G04 #@! TD*
G04 #@! TA.AperFunction,ViaPad*
%ADD22C,0.800000*%
G04 #@! TD*
G04 #@! TA.AperFunction,Conductor*
%ADD23C,0.400000*%
G04 #@! TD*
G04 #@! TA.AperFunction,Conductor*
%ADD24C,0.254000*%
G04 #@! TD*
G04 APERTURE END LIST*
D10*
G04 #@! TO.P,uSDL,1*
G04 #@! TO.N,N/C*
X68040000Y-106800000D03*
G04 #@! TD*
D11*
G04 #@! TO.P,J1,8*
G04 #@! TO.N,Net-(J1-Pad8)*
X87040000Y-79100000D03*
G04 #@! TO.P,J1,7*
G04 #@! TO.N,CS*
X84500000Y-79100000D03*
G04 #@! TO.P,J1,6*
G04 #@! TO.N,MOSI*
X81960000Y-79100000D03*
G04 #@! TO.P,J1,5*
G04 #@! TO.N,MISO*
X79420000Y-79100000D03*
G04 #@! TO.P,J1,4*
G04 #@! TO.N,SCK*
X76880000Y-79100000D03*
G04 #@! TO.P,J1,3*
G04 #@! TO.N,GND*
X74340000Y-79100000D03*
G04 #@! TO.P,J1,2*
G04 #@! TO.N,3V3*
X71800000Y-79100000D03*
D12*
G04 #@! TO.P,J1,1*
G04 #@! TO.N,Net-(J1-Pad1)*
X69260000Y-79100000D03*
G04 #@! TD*
D10*
G04 #@! TO.P,BAT,1*
G04 #@! TO.N,N/C*
X93400000Y-89200000D03*
G04 #@! TD*
G04 #@! TO.P,BAT,1*
G04 #@! TO.N,N/C*
X93400000Y-93500000D03*
G04 #@! TD*
G04 #@! TO.P,TL,1*
G04 #@! TO.N,N/C*
X52200000Y-59000000D03*
G04 #@! TD*
G04 #@! TO.P,uSDR,1*
G04 #@! TO.N,N/C*
X88360000Y-106800000D03*
G04 #@! TD*
G04 #@! TO.P,BL,1*
G04 #@! TO.N,N/C*
X104200000Y-103000000D03*
G04 #@! TD*
G04 #@! TO.P,TR,1*
G04 #@! TO.N,N/C*
X104200000Y-59000000D03*
G04 #@! TD*
G04 #@! TO.P,GPS,1*
G04 #@! TO.N,N/C*
X61400000Y-79300000D03*
G04 #@! TD*
D13*
G04 #@! TO.N,Net-(C1-Pad2)*
G04 #@! TO.C,C1*
G36*
X74105142Y-61401174D02*
X74128803Y-61404684D01*
X74152007Y-61410496D01*
X74174529Y-61418554D01*
X74196153Y-61428782D01*
X74216670Y-61441079D01*
X74235883Y-61455329D01*
X74253607Y-61471393D01*
X74269671Y-61489117D01*
X74283921Y-61508330D01*
X74296218Y-61528847D01*
X74306446Y-61550471D01*
X74314504Y-61572993D01*
X74320316Y-61596197D01*
X74323826Y-61619858D01*
X74325000Y-61643750D01*
X74325000Y-62556250D01*
X74323826Y-62580142D01*
X74320316Y-62603803D01*
X74314504Y-62627007D01*
X74306446Y-62649529D01*
X74296218Y-62671153D01*
X74283921Y-62691670D01*
X74269671Y-62710883D01*
X74253607Y-62728607D01*
X74235883Y-62744671D01*
X74216670Y-62758921D01*
X74196153Y-62771218D01*
X74174529Y-62781446D01*
X74152007Y-62789504D01*
X74128803Y-62795316D01*
X74105142Y-62798826D01*
X74081250Y-62800000D01*
X73593750Y-62800000D01*
X73569858Y-62798826D01*
X73546197Y-62795316D01*
X73522993Y-62789504D01*
X73500471Y-62781446D01*
X73478847Y-62771218D01*
X73458330Y-62758921D01*
X73439117Y-62744671D01*
X73421393Y-62728607D01*
X73405329Y-62710883D01*
X73391079Y-62691670D01*
X73378782Y-62671153D01*
X73368554Y-62649529D01*
X73360496Y-62627007D01*
X73354684Y-62603803D01*
X73351174Y-62580142D01*
X73350000Y-62556250D01*
X73350000Y-61643750D01*
X73351174Y-61619858D01*
X73354684Y-61596197D01*
X73360496Y-61572993D01*
X73368554Y-61550471D01*
X73378782Y-61528847D01*
X73391079Y-61508330D01*
X73405329Y-61489117D01*
X73421393Y-61471393D01*
X73439117Y-61455329D01*
X73458330Y-61441079D01*
X73478847Y-61428782D01*
X73500471Y-61418554D01*
X73522993Y-61410496D01*
X73546197Y-61404684D01*
X73569858Y-61401174D01*
X73593750Y-61400000D01*
X74081250Y-61400000D01*
X74105142Y-61401174D01*
X74105142Y-61401174D01*
G37*
D14*
G04 #@! TD*
G04 #@! TO.P,C1,2*
G04 #@! TO.N,Net-(C1-Pad2)*
X73837500Y-62100000D03*
D13*
G04 #@! TO.N,GND*
G04 #@! TO.C,C1*
G36*
X72230142Y-61401174D02*
X72253803Y-61404684D01*
X72277007Y-61410496D01*
X72299529Y-61418554D01*
X72321153Y-61428782D01*
X72341670Y-61441079D01*
X72360883Y-61455329D01*
X72378607Y-61471393D01*
X72394671Y-61489117D01*
X72408921Y-61508330D01*
X72421218Y-61528847D01*
X72431446Y-61550471D01*
X72439504Y-61572993D01*
X72445316Y-61596197D01*
X72448826Y-61619858D01*
X72450000Y-61643750D01*
X72450000Y-62556250D01*
X72448826Y-62580142D01*
X72445316Y-62603803D01*
X72439504Y-62627007D01*
X72431446Y-62649529D01*
X72421218Y-62671153D01*
X72408921Y-62691670D01*
X72394671Y-62710883D01*
X72378607Y-62728607D01*
X72360883Y-62744671D01*
X72341670Y-62758921D01*
X72321153Y-62771218D01*
X72299529Y-62781446D01*
X72277007Y-62789504D01*
X72253803Y-62795316D01*
X72230142Y-62798826D01*
X72206250Y-62800000D01*
X71718750Y-62800000D01*
X71694858Y-62798826D01*
X71671197Y-62795316D01*
X71647993Y-62789504D01*
X71625471Y-62781446D01*
X71603847Y-62771218D01*
X71583330Y-62758921D01*
X71564117Y-62744671D01*
X71546393Y-62728607D01*
X71530329Y-62710883D01*
X71516079Y-62691670D01*
X71503782Y-62671153D01*
X71493554Y-62649529D01*
X71485496Y-62627007D01*
X71479684Y-62603803D01*
X71476174Y-62580142D01*
X71475000Y-62556250D01*
X71475000Y-61643750D01*
X71476174Y-61619858D01*
X71479684Y-61596197D01*
X71485496Y-61572993D01*
X71493554Y-61550471D01*
X71503782Y-61528847D01*
X71516079Y-61508330D01*
X71530329Y-61489117D01*
X71546393Y-61471393D01*
X71564117Y-61455329D01*
X71583330Y-61441079D01*
X71603847Y-61428782D01*
X71625471Y-61418554D01*
X71647993Y-61410496D01*
X71671197Y-61404684D01*
X71694858Y-61401174D01*
X71718750Y-61400000D01*
X72206250Y-61400000D01*
X72230142Y-61401174D01*
X72230142Y-61401174D01*
G37*
D14*
G04 #@! TD*
G04 #@! TO.P,C1,1*
G04 #@! TO.N,GND*
X71962500Y-62100000D03*
D13*
G04 #@! TO.N,GND*
G04 #@! TO.C,C2*
G36*
X72230142Y-66301174D02*
X72253803Y-66304684D01*
X72277007Y-66310496D01*
X72299529Y-66318554D01*
X72321153Y-66328782D01*
X72341670Y-66341079D01*
X72360883Y-66355329D01*
X72378607Y-66371393D01*
X72394671Y-66389117D01*
X72408921Y-66408330D01*
X72421218Y-66428847D01*
X72431446Y-66450471D01*
X72439504Y-66472993D01*
X72445316Y-66496197D01*
X72448826Y-66519858D01*
X72450000Y-66543750D01*
X72450000Y-67456250D01*
X72448826Y-67480142D01*
X72445316Y-67503803D01*
X72439504Y-67527007D01*
X72431446Y-67549529D01*
X72421218Y-67571153D01*
X72408921Y-67591670D01*
X72394671Y-67610883D01*
X72378607Y-67628607D01*
X72360883Y-67644671D01*
X72341670Y-67658921D01*
X72321153Y-67671218D01*
X72299529Y-67681446D01*
X72277007Y-67689504D01*
X72253803Y-67695316D01*
X72230142Y-67698826D01*
X72206250Y-67700000D01*
X71718750Y-67700000D01*
X71694858Y-67698826D01*
X71671197Y-67695316D01*
X71647993Y-67689504D01*
X71625471Y-67681446D01*
X71603847Y-67671218D01*
X71583330Y-67658921D01*
X71564117Y-67644671D01*
X71546393Y-67628607D01*
X71530329Y-67610883D01*
X71516079Y-67591670D01*
X71503782Y-67571153D01*
X71493554Y-67549529D01*
X71485496Y-67527007D01*
X71479684Y-67503803D01*
X71476174Y-67480142D01*
X71475000Y-67456250D01*
X71475000Y-66543750D01*
X71476174Y-66519858D01*
X71479684Y-66496197D01*
X71485496Y-66472993D01*
X71493554Y-66450471D01*
X71503782Y-66428847D01*
X71516079Y-66408330D01*
X71530329Y-66389117D01*
X71546393Y-66371393D01*
X71564117Y-66355329D01*
X71583330Y-66341079D01*
X71603847Y-66328782D01*
X71625471Y-66318554D01*
X71647993Y-66310496D01*
X71671197Y-66304684D01*
X71694858Y-66301174D01*
X71718750Y-66300000D01*
X72206250Y-66300000D01*
X72230142Y-66301174D01*
X72230142Y-66301174D01*
G37*
D14*
G04 #@! TD*
G04 #@! TO.P,C2,1*
G04 #@! TO.N,GND*
X71962500Y-67000000D03*
D13*
G04 #@! TO.N,Net-(C2-Pad2)*
G04 #@! TO.C,C2*
G36*
X74105142Y-66301174D02*
X74128803Y-66304684D01*
X74152007Y-66310496D01*
X74174529Y-66318554D01*
X74196153Y-66328782D01*
X74216670Y-66341079D01*
X74235883Y-66355329D01*
X74253607Y-66371393D01*
X74269671Y-66389117D01*
X74283921Y-66408330D01*
X74296218Y-66428847D01*
X74306446Y-66450471D01*
X74314504Y-66472993D01*
X74320316Y-66496197D01*
X74323826Y-66519858D01*
X74325000Y-66543750D01*
X74325000Y-67456250D01*
X74323826Y-67480142D01*
X74320316Y-67503803D01*
X74314504Y-67527007D01*
X74306446Y-67549529D01*
X74296218Y-67571153D01*
X74283921Y-67591670D01*
X74269671Y-67610883D01*
X74253607Y-67628607D01*
X74235883Y-67644671D01*
X74216670Y-67658921D01*
X74196153Y-67671218D01*
X74174529Y-67681446D01*
X74152007Y-67689504D01*
X74128803Y-67695316D01*
X74105142Y-67698826D01*
X74081250Y-67700000D01*
X73593750Y-67700000D01*
X73569858Y-67698826D01*
X73546197Y-67695316D01*
X73522993Y-67689504D01*
X73500471Y-67681446D01*
X73478847Y-67671218D01*
X73458330Y-67658921D01*
X73439117Y-67644671D01*
X73421393Y-67628607D01*
X73405329Y-67610883D01*
X73391079Y-67591670D01*
X73378782Y-67571153D01*
X73368554Y-67549529D01*
X73360496Y-67527007D01*
X73354684Y-67503803D01*
X73351174Y-67480142D01*
X73350000Y-67456250D01*
X73350000Y-66543750D01*
X73351174Y-66519858D01*
X73354684Y-66496197D01*
X73360496Y-66472993D01*
X73368554Y-66450471D01*
X73378782Y-66428847D01*
X73391079Y-66408330D01*
X73405329Y-66389117D01*
X73421393Y-66371393D01*
X73439117Y-66355329D01*
X73458330Y-66341079D01*
X73478847Y-66328782D01*
X73500471Y-66318554D01*
X73522993Y-66310496D01*
X73546197Y-66304684D01*
X73569858Y-66301174D01*
X73593750Y-66300000D01*
X74081250Y-66300000D01*
X74105142Y-66301174D01*
X74105142Y-66301174D01*
G37*
D14*
G04 #@! TD*
G04 #@! TO.P,C2,2*
G04 #@! TO.N,Net-(C2-Pad2)*
X73837500Y-67000000D03*
D15*
G04 #@! TO.P,D1,2*
G04 #@! TO.N,FIX*
X87600000Y-88410000D03*
D16*
G04 #@! TO.P,D1,1*
G04 #@! TO.N,Net-(D1-Pad1)*
X87600000Y-90950000D03*
G04 #@! TD*
G04 #@! TO.P,D2,1*
G04 #@! TO.N,Net-(D2-Pad1)*
X68750000Y-90950000D03*
D15*
G04 #@! TO.P,D2,2*
G04 #@! TO.N,STABLE*
X68750000Y-88410000D03*
G04 #@! TD*
D16*
G04 #@! TO.P,D3,1*
G04 #@! TO.N,Net-(D3-Pad1)*
X78124000Y-90964600D03*
D15*
G04 #@! TO.P,D3,2*
G04 #@! TO.N,REC*
X78124000Y-88424600D03*
G04 #@! TD*
D13*
G04 #@! TO.N,3V3*
G04 #@! TO.C,R1*
G36*
X89580142Y-54176174D02*
X89603803Y-54179684D01*
X89627007Y-54185496D01*
X89649529Y-54193554D01*
X89671153Y-54203782D01*
X89691670Y-54216079D01*
X89710883Y-54230329D01*
X89728607Y-54246393D01*
X89744671Y-54264117D01*
X89758921Y-54283330D01*
X89771218Y-54303847D01*
X89781446Y-54325471D01*
X89789504Y-54347993D01*
X89795316Y-54371197D01*
X89798826Y-54394858D01*
X89800000Y-54418750D01*
X89800000Y-54906250D01*
X89798826Y-54930142D01*
X89795316Y-54953803D01*
X89789504Y-54977007D01*
X89781446Y-54999529D01*
X89771218Y-55021153D01*
X89758921Y-55041670D01*
X89744671Y-55060883D01*
X89728607Y-55078607D01*
X89710883Y-55094671D01*
X89691670Y-55108921D01*
X89671153Y-55121218D01*
X89649529Y-55131446D01*
X89627007Y-55139504D01*
X89603803Y-55145316D01*
X89580142Y-55148826D01*
X89556250Y-55150000D01*
X88643750Y-55150000D01*
X88619858Y-55148826D01*
X88596197Y-55145316D01*
X88572993Y-55139504D01*
X88550471Y-55131446D01*
X88528847Y-55121218D01*
X88508330Y-55108921D01*
X88489117Y-55094671D01*
X88471393Y-55078607D01*
X88455329Y-55060883D01*
X88441079Y-55041670D01*
X88428782Y-55021153D01*
X88418554Y-54999529D01*
X88410496Y-54977007D01*
X88404684Y-54953803D01*
X88401174Y-54930142D01*
X88400000Y-54906250D01*
X88400000Y-54418750D01*
X88401174Y-54394858D01*
X88404684Y-54371197D01*
X88410496Y-54347993D01*
X88418554Y-54325471D01*
X88428782Y-54303847D01*
X88441079Y-54283330D01*
X88455329Y-54264117D01*
X88471393Y-54246393D01*
X88489117Y-54230329D01*
X88508330Y-54216079D01*
X88528847Y-54203782D01*
X88550471Y-54193554D01*
X88572993Y-54185496D01*
X88596197Y-54179684D01*
X88619858Y-54176174D01*
X88643750Y-54175000D01*
X89556250Y-54175000D01*
X89580142Y-54176174D01*
X89580142Y-54176174D01*
G37*
D14*
G04 #@! TD*
G04 #@! TO.P,R1,1*
G04 #@! TO.N,3V3*
X89100000Y-54662500D03*
D13*
G04 #@! TO.N,RESET*
G04 #@! TO.C,R1*
G36*
X89580142Y-56051174D02*
X89603803Y-56054684D01*
X89627007Y-56060496D01*
X89649529Y-56068554D01*
X89671153Y-56078782D01*
X89691670Y-56091079D01*
X89710883Y-56105329D01*
X89728607Y-56121393D01*
X89744671Y-56139117D01*
X89758921Y-56158330D01*
X89771218Y-56178847D01*
X89781446Y-56200471D01*
X89789504Y-56222993D01*
X89795316Y-56246197D01*
X89798826Y-56269858D01*
X89800000Y-56293750D01*
X89800000Y-56781250D01*
X89798826Y-56805142D01*
X89795316Y-56828803D01*
X89789504Y-56852007D01*
X89781446Y-56874529D01*
X89771218Y-56896153D01*
X89758921Y-56916670D01*
X89744671Y-56935883D01*
X89728607Y-56953607D01*
X89710883Y-56969671D01*
X89691670Y-56983921D01*
X89671153Y-56996218D01*
X89649529Y-57006446D01*
X89627007Y-57014504D01*
X89603803Y-57020316D01*
X89580142Y-57023826D01*
X89556250Y-57025000D01*
X88643750Y-57025000D01*
X88619858Y-57023826D01*
X88596197Y-57020316D01*
X88572993Y-57014504D01*
X88550471Y-57006446D01*
X88528847Y-56996218D01*
X88508330Y-56983921D01*
X88489117Y-56969671D01*
X88471393Y-56953607D01*
X88455329Y-56935883D01*
X88441079Y-56916670D01*
X88428782Y-56896153D01*
X88418554Y-56874529D01*
X88410496Y-56852007D01*
X88404684Y-56828803D01*
X88401174Y-56805142D01*
X88400000Y-56781250D01*
X88400000Y-56293750D01*
X88401174Y-56269858D01*
X88404684Y-56246197D01*
X88410496Y-56222993D01*
X88418554Y-56200471D01*
X88428782Y-56178847D01*
X88441079Y-56158330D01*
X88455329Y-56139117D01*
X88471393Y-56121393D01*
X88489117Y-56105329D01*
X88508330Y-56091079D01*
X88528847Y-56078782D01*
X88550471Y-56068554D01*
X88572993Y-56060496D01*
X88596197Y-56054684D01*
X88619858Y-56051174D01*
X88643750Y-56050000D01*
X89556250Y-56050000D01*
X89580142Y-56051174D01*
X89580142Y-56051174D01*
G37*
D14*
G04 #@! TD*
G04 #@! TO.P,R1,2*
G04 #@! TO.N,RESET*
X89100000Y-56537500D03*
D13*
G04 #@! TO.N,GND*
G04 #@! TO.C,R2*
G36*
X88080142Y-94701174D02*
X88103803Y-94704684D01*
X88127007Y-94710496D01*
X88149529Y-94718554D01*
X88171153Y-94728782D01*
X88191670Y-94741079D01*
X88210883Y-94755329D01*
X88228607Y-94771393D01*
X88244671Y-94789117D01*
X88258921Y-94808330D01*
X88271218Y-94828847D01*
X88281446Y-94850471D01*
X88289504Y-94872993D01*
X88295316Y-94896197D01*
X88298826Y-94919858D01*
X88300000Y-94943750D01*
X88300000Y-95431250D01*
X88298826Y-95455142D01*
X88295316Y-95478803D01*
X88289504Y-95502007D01*
X88281446Y-95524529D01*
X88271218Y-95546153D01*
X88258921Y-95566670D01*
X88244671Y-95585883D01*
X88228607Y-95603607D01*
X88210883Y-95619671D01*
X88191670Y-95633921D01*
X88171153Y-95646218D01*
X88149529Y-95656446D01*
X88127007Y-95664504D01*
X88103803Y-95670316D01*
X88080142Y-95673826D01*
X88056250Y-95675000D01*
X87143750Y-95675000D01*
X87119858Y-95673826D01*
X87096197Y-95670316D01*
X87072993Y-95664504D01*
X87050471Y-95656446D01*
X87028847Y-95646218D01*
X87008330Y-95633921D01*
X86989117Y-95619671D01*
X86971393Y-95603607D01*
X86955329Y-95585883D01*
X86941079Y-95566670D01*
X86928782Y-95546153D01*
X86918554Y-95524529D01*
X86910496Y-95502007D01*
X86904684Y-95478803D01*
X86901174Y-95455142D01*
X86900000Y-95431250D01*
X86900000Y-94943750D01*
X86901174Y-94919858D01*
X86904684Y-94896197D01*
X86910496Y-94872993D01*
X86918554Y-94850471D01*
X86928782Y-94828847D01*
X86941079Y-94808330D01*
X86955329Y-94789117D01*
X86971393Y-94771393D01*
X86989117Y-94755329D01*
X87008330Y-94741079D01*
X87028847Y-94728782D01*
X87050471Y-94718554D01*
X87072993Y-94710496D01*
X87096197Y-94704684D01*
X87119858Y-94701174D01*
X87143750Y-94700000D01*
X88056250Y-94700000D01*
X88080142Y-94701174D01*
X88080142Y-94701174D01*
G37*
D14*
G04 #@! TD*
G04 #@! TO.P,R2,1*
G04 #@! TO.N,GND*
X87600000Y-95187500D03*
D13*
G04 #@! TO.N,Net-(D1-Pad1)*
G04 #@! TO.C,R2*
G36*
X88080142Y-92826174D02*
X88103803Y-92829684D01*
X88127007Y-92835496D01*
X88149529Y-92843554D01*
X88171153Y-92853782D01*
X88191670Y-92866079D01*
X88210883Y-92880329D01*
X88228607Y-92896393D01*
X88244671Y-92914117D01*
X88258921Y-92933330D01*
X88271218Y-92953847D01*
X88281446Y-92975471D01*
X88289504Y-92997993D01*
X88295316Y-93021197D01*
X88298826Y-93044858D01*
X88300000Y-93068750D01*
X88300000Y-93556250D01*
X88298826Y-93580142D01*
X88295316Y-93603803D01*
X88289504Y-93627007D01*
X88281446Y-93649529D01*
X88271218Y-93671153D01*
X88258921Y-93691670D01*
X88244671Y-93710883D01*
X88228607Y-93728607D01*
X88210883Y-93744671D01*
X88191670Y-93758921D01*
X88171153Y-93771218D01*
X88149529Y-93781446D01*
X88127007Y-93789504D01*
X88103803Y-93795316D01*
X88080142Y-93798826D01*
X88056250Y-93800000D01*
X87143750Y-93800000D01*
X87119858Y-93798826D01*
X87096197Y-93795316D01*
X87072993Y-93789504D01*
X87050471Y-93781446D01*
X87028847Y-93771218D01*
X87008330Y-93758921D01*
X86989117Y-93744671D01*
X86971393Y-93728607D01*
X86955329Y-93710883D01*
X86941079Y-93691670D01*
X86928782Y-93671153D01*
X86918554Y-93649529D01*
X86910496Y-93627007D01*
X86904684Y-93603803D01*
X86901174Y-93580142D01*
X86900000Y-93556250D01*
X86900000Y-93068750D01*
X86901174Y-93044858D01*
X86904684Y-93021197D01*
X86910496Y-92997993D01*
X86918554Y-92975471D01*
X86928782Y-92953847D01*
X86941079Y-92933330D01*
X86955329Y-92914117D01*
X86971393Y-92896393D01*
X86989117Y-92880329D01*
X87008330Y-92866079D01*
X87028847Y-92853782D01*
X87050471Y-92843554D01*
X87072993Y-92835496D01*
X87096197Y-92829684D01*
X87119858Y-92826174D01*
X87143750Y-92825000D01*
X88056250Y-92825000D01*
X88080142Y-92826174D01*
X88080142Y-92826174D01*
G37*
D14*
G04 #@! TD*
G04 #@! TO.P,R2,2*
G04 #@! TO.N,Net-(D1-Pad1)*
X87600000Y-93312500D03*
D13*
G04 #@! TO.N,Net-(D2-Pad1)*
G04 #@! TO.C,R3*
G36*
X69230142Y-92826174D02*
X69253803Y-92829684D01*
X69277007Y-92835496D01*
X69299529Y-92843554D01*
X69321153Y-92853782D01*
X69341670Y-92866079D01*
X69360883Y-92880329D01*
X69378607Y-92896393D01*
X69394671Y-92914117D01*
X69408921Y-92933330D01*
X69421218Y-92953847D01*
X69431446Y-92975471D01*
X69439504Y-92997993D01*
X69445316Y-93021197D01*
X69448826Y-93044858D01*
X69450000Y-93068750D01*
X69450000Y-93556250D01*
X69448826Y-93580142D01*
X69445316Y-93603803D01*
X69439504Y-93627007D01*
X69431446Y-93649529D01*
X69421218Y-93671153D01*
X69408921Y-93691670D01*
X69394671Y-93710883D01*
X69378607Y-93728607D01*
X69360883Y-93744671D01*
X69341670Y-93758921D01*
X69321153Y-93771218D01*
X69299529Y-93781446D01*
X69277007Y-93789504D01*
X69253803Y-93795316D01*
X69230142Y-93798826D01*
X69206250Y-93800000D01*
X68293750Y-93800000D01*
X68269858Y-93798826D01*
X68246197Y-93795316D01*
X68222993Y-93789504D01*
X68200471Y-93781446D01*
X68178847Y-93771218D01*
X68158330Y-93758921D01*
X68139117Y-93744671D01*
X68121393Y-93728607D01*
X68105329Y-93710883D01*
X68091079Y-93691670D01*
X68078782Y-93671153D01*
X68068554Y-93649529D01*
X68060496Y-93627007D01*
X68054684Y-93603803D01*
X68051174Y-93580142D01*
X68050000Y-93556250D01*
X68050000Y-93068750D01*
X68051174Y-93044858D01*
X68054684Y-93021197D01*
X68060496Y-92997993D01*
X68068554Y-92975471D01*
X68078782Y-92953847D01*
X68091079Y-92933330D01*
X68105329Y-92914117D01*
X68121393Y-92896393D01*
X68139117Y-92880329D01*
X68158330Y-92866079D01*
X68178847Y-92853782D01*
X68200471Y-92843554D01*
X68222993Y-92835496D01*
X68246197Y-92829684D01*
X68269858Y-92826174D01*
X68293750Y-92825000D01*
X69206250Y-92825000D01*
X69230142Y-92826174D01*
X69230142Y-92826174D01*
G37*
D14*
G04 #@! TD*
G04 #@! TO.P,R3,2*
G04 #@! TO.N,Net-(D2-Pad1)*
X68750000Y-93312500D03*
D13*
G04 #@! TO.N,GND*
G04 #@! TO.C,R3*
G36*
X69230142Y-94701174D02*
X69253803Y-94704684D01*
X69277007Y-94710496D01*
X69299529Y-94718554D01*
X69321153Y-94728782D01*
X69341670Y-94741079D01*
X69360883Y-94755329D01*
X69378607Y-94771393D01*
X69394671Y-94789117D01*
X69408921Y-94808330D01*
X69421218Y-94828847D01*
X69431446Y-94850471D01*
X69439504Y-94872993D01*
X69445316Y-94896197D01*
X69448826Y-94919858D01*
X69450000Y-94943750D01*
X69450000Y-95431250D01*
X69448826Y-95455142D01*
X69445316Y-95478803D01*
X69439504Y-95502007D01*
X69431446Y-95524529D01*
X69421218Y-95546153D01*
X69408921Y-95566670D01*
X69394671Y-95585883D01*
X69378607Y-95603607D01*
X69360883Y-95619671D01*
X69341670Y-95633921D01*
X69321153Y-95646218D01*
X69299529Y-95656446D01*
X69277007Y-95664504D01*
X69253803Y-95670316D01*
X69230142Y-95673826D01*
X69206250Y-95675000D01*
X68293750Y-95675000D01*
X68269858Y-95673826D01*
X68246197Y-95670316D01*
X68222993Y-95664504D01*
X68200471Y-95656446D01*
X68178847Y-95646218D01*
X68158330Y-95633921D01*
X68139117Y-95619671D01*
X68121393Y-95603607D01*
X68105329Y-95585883D01*
X68091079Y-95566670D01*
X68078782Y-95546153D01*
X68068554Y-95524529D01*
X68060496Y-95502007D01*
X68054684Y-95478803D01*
X68051174Y-95455142D01*
X68050000Y-95431250D01*
X68050000Y-94943750D01*
X68051174Y-94919858D01*
X68054684Y-94896197D01*
X68060496Y-94872993D01*
X68068554Y-94850471D01*
X68078782Y-94828847D01*
X68091079Y-94808330D01*
X68105329Y-94789117D01*
X68121393Y-94771393D01*
X68139117Y-94755329D01*
X68158330Y-94741079D01*
X68178847Y-94728782D01*
X68200471Y-94718554D01*
X68222993Y-94710496D01*
X68246197Y-94704684D01*
X68269858Y-94701174D01*
X68293750Y-94700000D01*
X69206250Y-94700000D01*
X69230142Y-94701174D01*
X69230142Y-94701174D01*
G37*
D14*
G04 #@! TD*
G04 #@! TO.P,R3,1*
G04 #@! TO.N,GND*
X68750000Y-95187500D03*
D13*
G04 #@! TO.N,GND*
G04 #@! TO.C,R4*
G36*
X78580142Y-94751174D02*
X78603803Y-94754684D01*
X78627007Y-94760496D01*
X78649529Y-94768554D01*
X78671153Y-94778782D01*
X78691670Y-94791079D01*
X78710883Y-94805329D01*
X78728607Y-94821393D01*
X78744671Y-94839117D01*
X78758921Y-94858330D01*
X78771218Y-94878847D01*
X78781446Y-94900471D01*
X78789504Y-94922993D01*
X78795316Y-94946197D01*
X78798826Y-94969858D01*
X78800000Y-94993750D01*
X78800000Y-95481250D01*
X78798826Y-95505142D01*
X78795316Y-95528803D01*
X78789504Y-95552007D01*
X78781446Y-95574529D01*
X78771218Y-95596153D01*
X78758921Y-95616670D01*
X78744671Y-95635883D01*
X78728607Y-95653607D01*
X78710883Y-95669671D01*
X78691670Y-95683921D01*
X78671153Y-95696218D01*
X78649529Y-95706446D01*
X78627007Y-95714504D01*
X78603803Y-95720316D01*
X78580142Y-95723826D01*
X78556250Y-95725000D01*
X77643750Y-95725000D01*
X77619858Y-95723826D01*
X77596197Y-95720316D01*
X77572993Y-95714504D01*
X77550471Y-95706446D01*
X77528847Y-95696218D01*
X77508330Y-95683921D01*
X77489117Y-95669671D01*
X77471393Y-95653607D01*
X77455329Y-95635883D01*
X77441079Y-95616670D01*
X77428782Y-95596153D01*
X77418554Y-95574529D01*
X77410496Y-95552007D01*
X77404684Y-95528803D01*
X77401174Y-95505142D01*
X77400000Y-95481250D01*
X77400000Y-94993750D01*
X77401174Y-94969858D01*
X77404684Y-94946197D01*
X77410496Y-94922993D01*
X77418554Y-94900471D01*
X77428782Y-94878847D01*
X77441079Y-94858330D01*
X77455329Y-94839117D01*
X77471393Y-94821393D01*
X77489117Y-94805329D01*
X77508330Y-94791079D01*
X77528847Y-94778782D01*
X77550471Y-94768554D01*
X77572993Y-94760496D01*
X77596197Y-94754684D01*
X77619858Y-94751174D01*
X77643750Y-94750000D01*
X78556250Y-94750000D01*
X78580142Y-94751174D01*
X78580142Y-94751174D01*
G37*
D14*
G04 #@! TD*
G04 #@! TO.P,R4,1*
G04 #@! TO.N,GND*
X78100000Y-95237500D03*
D13*
G04 #@! TO.N,Net-(D3-Pad1)*
G04 #@! TO.C,R4*
G36*
X78580142Y-92876174D02*
X78603803Y-92879684D01*
X78627007Y-92885496D01*
X78649529Y-92893554D01*
X78671153Y-92903782D01*
X78691670Y-92916079D01*
X78710883Y-92930329D01*
X78728607Y-92946393D01*
X78744671Y-92964117D01*
X78758921Y-92983330D01*
X78771218Y-93003847D01*
X78781446Y-93025471D01*
X78789504Y-93047993D01*
X78795316Y-93071197D01*
X78798826Y-93094858D01*
X78800000Y-93118750D01*
X78800000Y-93606250D01*
X78798826Y-93630142D01*
X78795316Y-93653803D01*
X78789504Y-93677007D01*
X78781446Y-93699529D01*
X78771218Y-93721153D01*
X78758921Y-93741670D01*
X78744671Y-93760883D01*
X78728607Y-93778607D01*
X78710883Y-93794671D01*
X78691670Y-93808921D01*
X78671153Y-93821218D01*
X78649529Y-93831446D01*
X78627007Y-93839504D01*
X78603803Y-93845316D01*
X78580142Y-93848826D01*
X78556250Y-93850000D01*
X77643750Y-93850000D01*
X77619858Y-93848826D01*
X77596197Y-93845316D01*
X77572993Y-93839504D01*
X77550471Y-93831446D01*
X77528847Y-93821218D01*
X77508330Y-93808921D01*
X77489117Y-93794671D01*
X77471393Y-93778607D01*
X77455329Y-93760883D01*
X77441079Y-93741670D01*
X77428782Y-93721153D01*
X77418554Y-93699529D01*
X77410496Y-93677007D01*
X77404684Y-93653803D01*
X77401174Y-93630142D01*
X77400000Y-93606250D01*
X77400000Y-93118750D01*
X77401174Y-93094858D01*
X77404684Y-93071197D01*
X77410496Y-93047993D01*
X77418554Y-93025471D01*
X77428782Y-93003847D01*
X77441079Y-92983330D01*
X77455329Y-92964117D01*
X77471393Y-92946393D01*
X77489117Y-92930329D01*
X77508330Y-92916079D01*
X77528847Y-92903782D01*
X77550471Y-92893554D01*
X77572993Y-92885496D01*
X77596197Y-92879684D01*
X77619858Y-92876174D01*
X77643750Y-92875000D01*
X78556250Y-92875000D01*
X78580142Y-92876174D01*
X78580142Y-92876174D01*
G37*
D14*
G04 #@! TD*
G04 #@! TO.P,R4,2*
G04 #@! TO.N,Net-(D3-Pad1)*
X78100000Y-93362500D03*
D17*
G04 #@! TO.P,U1,1*
G04 #@! TO.N,+9V*
X93814000Y-100050000D03*
G04 #@! TO.P,U1,2*
G04 #@! TO.N,GND*
X93814000Y-99100000D03*
G04 #@! TO.P,U1,3*
G04 #@! TO.N,+9V*
X93814000Y-98150000D03*
G04 #@! TO.P,U1,4*
G04 #@! TO.N,Net-(R5-Pad2)*
X91194000Y-98150000D03*
G04 #@! TO.P,U1,5*
G04 #@! TO.N,3V3*
X91194000Y-100050000D03*
G04 #@! TD*
D18*
G04 #@! TO.P,U4,1*
G04 #@! TO.N,Net-(U4-Pad1)*
X85250000Y-61800000D03*
G04 #@! TO.P,U4,2*
G04 #@! TO.N,Net-(U4-Pad2)*
X85250000Y-62600000D03*
G04 #@! TO.P,U4,3*
G04 #@! TO.N,Net-(U4-Pad3)*
X85250000Y-63400000D03*
G04 #@! TO.P,U4,4*
G04 #@! TO.N,3V3*
X85250000Y-64200000D03*
G04 #@! TO.P,U4,5*
G04 #@! TO.N,GND*
X85250000Y-65000000D03*
G04 #@! TO.P,U4,6*
G04 #@! TO.N,Net-(U4-Pad6)*
X85250000Y-65800000D03*
G04 #@! TO.P,U4,7*
G04 #@! TO.N,Net-(C1-Pad2)*
X85250000Y-66600000D03*
G04 #@! TO.P,U4,8*
G04 #@! TO.N,Net-(C2-Pad2)*
X85250000Y-67400000D03*
D19*
G04 #@! TO.P,U4,9*
G04 #@! TO.N,STABLE*
X86700000Y-68850000D03*
G04 #@! TO.P,U4,10*
G04 #@! TO.N,REC*
X87500000Y-68850000D03*
G04 #@! TO.P,U4,11*
G04 #@! TO.N,Net-(U4-Pad11)*
X88300000Y-68850000D03*
G04 #@! TO.P,U4,12*
G04 #@! TO.N,Net-(U4-Pad12)*
X89100000Y-68850000D03*
G04 #@! TO.P,U4,13*
G04 #@! TO.N,Net-(U4-Pad13)*
X89900000Y-68850000D03*
G04 #@! TO.P,U4,14*
G04 #@! TO.N,CS*
X90700000Y-68850000D03*
G04 #@! TO.P,U4,15*
G04 #@! TO.N,MOSI*
X91500000Y-68850000D03*
G04 #@! TO.P,U4,16*
G04 #@! TO.N,MISO*
X92300000Y-68850000D03*
D18*
G04 #@! TO.P,U4,17*
G04 #@! TO.N,SCK*
X93750000Y-67400000D03*
G04 #@! TO.P,U4,18*
G04 #@! TO.N,3V3*
X93750000Y-66600000D03*
G04 #@! TO.P,U4,19*
G04 #@! TO.N,Net-(U4-Pad19)*
X93750000Y-65800000D03*
G04 #@! TO.P,U4,20*
G04 #@! TO.N,Net-(U4-Pad20)*
X93750000Y-65000000D03*
G04 #@! TO.P,U4,21*
G04 #@! TO.N,GND*
X93750000Y-64200000D03*
G04 #@! TO.P,U4,22*
G04 #@! TO.N,Net-(J4-Pad2)*
X93750000Y-63400000D03*
G04 #@! TO.P,U4,23*
G04 #@! TO.N,Net-(U4-Pad23)*
X93750000Y-62600000D03*
G04 #@! TO.P,U4,24*
G04 #@! TO.N,Net-(U4-Pad24)*
X93750000Y-61800000D03*
D19*
G04 #@! TO.P,U4,25*
G04 #@! TO.N,Net-(U4-Pad25)*
X92300000Y-60350000D03*
G04 #@! TO.P,U4,26*
G04 #@! TO.N,Net-(U4-Pad26)*
X91500000Y-60350000D03*
G04 #@! TO.P,U4,27*
G04 #@! TO.N,SDA*
X90700000Y-60350000D03*
G04 #@! TO.P,U4,28*
G04 #@! TO.N,SCL*
X89900000Y-60350000D03*
G04 #@! TO.P,U4,29*
G04 #@! TO.N,RESET*
X89100000Y-60350000D03*
G04 #@! TO.P,U4,30*
G04 #@! TO.N,RXD*
X88300000Y-60350000D03*
G04 #@! TO.P,U4,31*
G04 #@! TO.N,TXD*
X87500000Y-60350000D03*
G04 #@! TO.P,U4,32*
G04 #@! TO.N,Net-(U4-Pad32)*
X86700000Y-60350000D03*
G04 #@! TD*
D20*
G04 #@! TO.P,Y1,1*
G04 #@! TO.N,Net-(C2-Pad2)*
X77800000Y-67000000D03*
G04 #@! TO.P,Y1,2*
G04 #@! TO.N,Net-(C1-Pad2)*
X77800000Y-62120000D03*
G04 #@! TD*
D10*
G04 #@! TO.P,BL,1*
G04 #@! TO.N,N/C*
X52200000Y-103000000D03*
G04 #@! TD*
D12*
G04 #@! TO.P,J2,1*
G04 #@! TO.N,Net-(J2-Pad1)*
X99300000Y-49600000D03*
D11*
G04 #@! TO.P,J2,2*
G04 #@! TO.N,Net-(J2-Pad2)*
X96760000Y-49600000D03*
G04 #@! TO.P,J2,3*
G04 #@! TO.N,SDA*
X94220000Y-49600000D03*
G04 #@! TO.P,J2,4*
G04 #@! TO.N,SCL*
X91680000Y-49600000D03*
G04 #@! TO.P,J2,5*
G04 #@! TO.N,3V3*
X89140000Y-49600000D03*
G04 #@! TO.P,J2,6*
G04 #@! TO.N,GND*
X86600000Y-49600000D03*
G04 #@! TO.P,J2,7*
G04 #@! TO.N,Net-(J2-Pad7)*
X84060000Y-49600000D03*
G04 #@! TO.P,J2,8*
G04 #@! TO.N,Net-(J2-Pad8)*
X81520000Y-49600000D03*
G04 #@! TO.P,J2,9*
G04 #@! TO.N,ENABLE*
X78980000Y-49600000D03*
G04 #@! TO.P,J2,10*
G04 #@! TO.N,Net-(J2-Pad10)*
X76440000Y-49600000D03*
G04 #@! TO.P,J2,11*
G04 #@! TO.N,FIX*
X73900000Y-49600000D03*
G04 #@! TO.P,J2,12*
G04 #@! TO.N,RXD*
X71360000Y-49600000D03*
G04 #@! TO.P,J2,13*
G04 #@! TO.N,TXD*
X68820000Y-49600000D03*
G04 #@! TO.P,J2,14*
G04 #@! TO.N,GND*
X66280000Y-49600000D03*
G04 #@! TO.P,J2,15*
G04 #@! TO.N,3V3*
X63740000Y-49600000D03*
G04 #@! TO.P,J2,16*
G04 #@! TO.N,Net-(J2-Pad16)*
X61200000Y-49600000D03*
G04 #@! TD*
G04 #@! TO.P,J4,2*
G04 #@! TO.N,Net-(J4-Pad2)*
X100200000Y-63460000D03*
D12*
G04 #@! TO.P,J4,1*
G04 #@! TO.N,3V3*
X100200000Y-66000000D03*
G04 #@! TD*
D13*
G04 #@! TO.N,Net-(R5-Pad2)*
G04 #@! TO.C,R5*
G36*
X85580142Y-101676174D02*
X85603803Y-101679684D01*
X85627007Y-101685496D01*
X85649529Y-101693554D01*
X85671153Y-101703782D01*
X85691670Y-101716079D01*
X85710883Y-101730329D01*
X85728607Y-101746393D01*
X85744671Y-101764117D01*
X85758921Y-101783330D01*
X85771218Y-101803847D01*
X85781446Y-101825471D01*
X85789504Y-101847993D01*
X85795316Y-101871197D01*
X85798826Y-101894858D01*
X85800000Y-101918750D01*
X85800000Y-102406250D01*
X85798826Y-102430142D01*
X85795316Y-102453803D01*
X85789504Y-102477007D01*
X85781446Y-102499529D01*
X85771218Y-102521153D01*
X85758921Y-102541670D01*
X85744671Y-102560883D01*
X85728607Y-102578607D01*
X85710883Y-102594671D01*
X85691670Y-102608921D01*
X85671153Y-102621218D01*
X85649529Y-102631446D01*
X85627007Y-102639504D01*
X85603803Y-102645316D01*
X85580142Y-102648826D01*
X85556250Y-102650000D01*
X84643750Y-102650000D01*
X84619858Y-102648826D01*
X84596197Y-102645316D01*
X84572993Y-102639504D01*
X84550471Y-102631446D01*
X84528847Y-102621218D01*
X84508330Y-102608921D01*
X84489117Y-102594671D01*
X84471393Y-102578607D01*
X84455329Y-102560883D01*
X84441079Y-102541670D01*
X84428782Y-102521153D01*
X84418554Y-102499529D01*
X84410496Y-102477007D01*
X84404684Y-102453803D01*
X84401174Y-102430142D01*
X84400000Y-102406250D01*
X84400000Y-101918750D01*
X84401174Y-101894858D01*
X84404684Y-101871197D01*
X84410496Y-101847993D01*
X84418554Y-101825471D01*
X84428782Y-101803847D01*
X84441079Y-101783330D01*
X84455329Y-101764117D01*
X84471393Y-101746393D01*
X84489117Y-101730329D01*
X84508330Y-101716079D01*
X84528847Y-101703782D01*
X84550471Y-101693554D01*
X84572993Y-101685496D01*
X84596197Y-101679684D01*
X84619858Y-101676174D01*
X84643750Y-101675000D01*
X85556250Y-101675000D01*
X85580142Y-101676174D01*
X85580142Y-101676174D01*
G37*
D14*
G04 #@! TD*
G04 #@! TO.P,R5,2*
G04 #@! TO.N,Net-(R5-Pad2)*
X85100000Y-102162500D03*
D13*
G04 #@! TO.N,3V3*
G04 #@! TO.C,R5*
G36*
X85580142Y-103551174D02*
X85603803Y-103554684D01*
X85627007Y-103560496D01*
X85649529Y-103568554D01*
X85671153Y-103578782D01*
X85691670Y-103591079D01*
X85710883Y-103605329D01*
X85728607Y-103621393D01*
X85744671Y-103639117D01*
X85758921Y-103658330D01*
X85771218Y-103678847D01*
X85781446Y-103700471D01*
X85789504Y-103722993D01*
X85795316Y-103746197D01*
X85798826Y-103769858D01*
X85800000Y-103793750D01*
X85800000Y-104281250D01*
X85798826Y-104305142D01*
X85795316Y-104328803D01*
X85789504Y-104352007D01*
X85781446Y-104374529D01*
X85771218Y-104396153D01*
X85758921Y-104416670D01*
X85744671Y-104435883D01*
X85728607Y-104453607D01*
X85710883Y-104469671D01*
X85691670Y-104483921D01*
X85671153Y-104496218D01*
X85649529Y-104506446D01*
X85627007Y-104514504D01*
X85603803Y-104520316D01*
X85580142Y-104523826D01*
X85556250Y-104525000D01*
X84643750Y-104525000D01*
X84619858Y-104523826D01*
X84596197Y-104520316D01*
X84572993Y-104514504D01*
X84550471Y-104506446D01*
X84528847Y-104496218D01*
X84508330Y-104483921D01*
X84489117Y-104469671D01*
X84471393Y-104453607D01*
X84455329Y-104435883D01*
X84441079Y-104416670D01*
X84428782Y-104396153D01*
X84418554Y-104374529D01*
X84410496Y-104352007D01*
X84404684Y-104328803D01*
X84401174Y-104305142D01*
X84400000Y-104281250D01*
X84400000Y-103793750D01*
X84401174Y-103769858D01*
X84404684Y-103746197D01*
X84410496Y-103722993D01*
X84418554Y-103700471D01*
X84428782Y-103678847D01*
X84441079Y-103658330D01*
X84455329Y-103639117D01*
X84471393Y-103621393D01*
X84489117Y-103605329D01*
X84508330Y-103591079D01*
X84528847Y-103578782D01*
X84550471Y-103568554D01*
X84572993Y-103560496D01*
X84596197Y-103554684D01*
X84619858Y-103551174D01*
X84643750Y-103550000D01*
X85556250Y-103550000D01*
X85580142Y-103551174D01*
X85580142Y-103551174D01*
G37*
D14*
G04 #@! TD*
G04 #@! TO.P,R5,1*
G04 #@! TO.N,3V3*
X85100000Y-104037500D03*
D13*
G04 #@! TO.N,Net-(R5-Pad2)*
G04 #@! TO.C,R6*
G36*
X85580142Y-99251174D02*
X85603803Y-99254684D01*
X85627007Y-99260496D01*
X85649529Y-99268554D01*
X85671153Y-99278782D01*
X85691670Y-99291079D01*
X85710883Y-99305329D01*
X85728607Y-99321393D01*
X85744671Y-99339117D01*
X85758921Y-99358330D01*
X85771218Y-99378847D01*
X85781446Y-99400471D01*
X85789504Y-99422993D01*
X85795316Y-99446197D01*
X85798826Y-99469858D01*
X85800000Y-99493750D01*
X85800000Y-99981250D01*
X85798826Y-100005142D01*
X85795316Y-100028803D01*
X85789504Y-100052007D01*
X85781446Y-100074529D01*
X85771218Y-100096153D01*
X85758921Y-100116670D01*
X85744671Y-100135883D01*
X85728607Y-100153607D01*
X85710883Y-100169671D01*
X85691670Y-100183921D01*
X85671153Y-100196218D01*
X85649529Y-100206446D01*
X85627007Y-100214504D01*
X85603803Y-100220316D01*
X85580142Y-100223826D01*
X85556250Y-100225000D01*
X84643750Y-100225000D01*
X84619858Y-100223826D01*
X84596197Y-100220316D01*
X84572993Y-100214504D01*
X84550471Y-100206446D01*
X84528847Y-100196218D01*
X84508330Y-100183921D01*
X84489117Y-100169671D01*
X84471393Y-100153607D01*
X84455329Y-100135883D01*
X84441079Y-100116670D01*
X84428782Y-100096153D01*
X84418554Y-100074529D01*
X84410496Y-100052007D01*
X84404684Y-100028803D01*
X84401174Y-100005142D01*
X84400000Y-99981250D01*
X84400000Y-99493750D01*
X84401174Y-99469858D01*
X84404684Y-99446197D01*
X84410496Y-99422993D01*
X84418554Y-99400471D01*
X84428782Y-99378847D01*
X84441079Y-99358330D01*
X84455329Y-99339117D01*
X84471393Y-99321393D01*
X84489117Y-99305329D01*
X84508330Y-99291079D01*
X84528847Y-99278782D01*
X84550471Y-99268554D01*
X84572993Y-99260496D01*
X84596197Y-99254684D01*
X84619858Y-99251174D01*
X84643750Y-99250000D01*
X85556250Y-99250000D01*
X85580142Y-99251174D01*
X85580142Y-99251174D01*
G37*
D14*
G04 #@! TD*
G04 #@! TO.P,R6,1*
G04 #@! TO.N,Net-(R5-Pad2)*
X85100000Y-99737500D03*
D13*
G04 #@! TO.N,GND*
G04 #@! TO.C,R6*
G36*
X85580142Y-97376174D02*
X85603803Y-97379684D01*
X85627007Y-97385496D01*
X85649529Y-97393554D01*
X85671153Y-97403782D01*
X85691670Y-97416079D01*
X85710883Y-97430329D01*
X85728607Y-97446393D01*
X85744671Y-97464117D01*
X85758921Y-97483330D01*
X85771218Y-97503847D01*
X85781446Y-97525471D01*
X85789504Y-97547993D01*
X85795316Y-97571197D01*
X85798826Y-97594858D01*
X85800000Y-97618750D01*
X85800000Y-98106250D01*
X85798826Y-98130142D01*
X85795316Y-98153803D01*
X85789504Y-98177007D01*
X85781446Y-98199529D01*
X85771218Y-98221153D01*
X85758921Y-98241670D01*
X85744671Y-98260883D01*
X85728607Y-98278607D01*
X85710883Y-98294671D01*
X85691670Y-98308921D01*
X85671153Y-98321218D01*
X85649529Y-98331446D01*
X85627007Y-98339504D01*
X85603803Y-98345316D01*
X85580142Y-98348826D01*
X85556250Y-98350000D01*
X84643750Y-98350000D01*
X84619858Y-98348826D01*
X84596197Y-98345316D01*
X84572993Y-98339504D01*
X84550471Y-98331446D01*
X84528847Y-98321218D01*
X84508330Y-98308921D01*
X84489117Y-98294671D01*
X84471393Y-98278607D01*
X84455329Y-98260883D01*
X84441079Y-98241670D01*
X84428782Y-98221153D01*
X84418554Y-98199529D01*
X84410496Y-98177007D01*
X84404684Y-98153803D01*
X84401174Y-98130142D01*
X84400000Y-98106250D01*
X84400000Y-97618750D01*
X84401174Y-97594858D01*
X84404684Y-97571197D01*
X84410496Y-97547993D01*
X84418554Y-97525471D01*
X84428782Y-97503847D01*
X84441079Y-97483330D01*
X84455329Y-97464117D01*
X84471393Y-97446393D01*
X84489117Y-97430329D01*
X84508330Y-97416079D01*
X84528847Y-97403782D01*
X84550471Y-97393554D01*
X84572993Y-97385496D01*
X84596197Y-97379684D01*
X84619858Y-97376174D01*
X84643750Y-97375000D01*
X85556250Y-97375000D01*
X85580142Y-97376174D01*
X85580142Y-97376174D01*
G37*
D14*
G04 #@! TD*
G04 #@! TO.P,R6,2*
G04 #@! TO.N,GND*
X85100000Y-97862500D03*
D13*
G04 #@! TO.N,3V3*
G04 #@! TO.C,C5*
G36*
X79380142Y-102451174D02*
X79403803Y-102454684D01*
X79427007Y-102460496D01*
X79449529Y-102468554D01*
X79471153Y-102478782D01*
X79491670Y-102491079D01*
X79510883Y-102505329D01*
X79528607Y-102521393D01*
X79544671Y-102539117D01*
X79558921Y-102558330D01*
X79571218Y-102578847D01*
X79581446Y-102600471D01*
X79589504Y-102622993D01*
X79595316Y-102646197D01*
X79598826Y-102669858D01*
X79600000Y-102693750D01*
X79600000Y-103181250D01*
X79598826Y-103205142D01*
X79595316Y-103228803D01*
X79589504Y-103252007D01*
X79581446Y-103274529D01*
X79571218Y-103296153D01*
X79558921Y-103316670D01*
X79544671Y-103335883D01*
X79528607Y-103353607D01*
X79510883Y-103369671D01*
X79491670Y-103383921D01*
X79471153Y-103396218D01*
X79449529Y-103406446D01*
X79427007Y-103414504D01*
X79403803Y-103420316D01*
X79380142Y-103423826D01*
X79356250Y-103425000D01*
X78443750Y-103425000D01*
X78419858Y-103423826D01*
X78396197Y-103420316D01*
X78372993Y-103414504D01*
X78350471Y-103406446D01*
X78328847Y-103396218D01*
X78308330Y-103383921D01*
X78289117Y-103369671D01*
X78271393Y-103353607D01*
X78255329Y-103335883D01*
X78241079Y-103316670D01*
X78228782Y-103296153D01*
X78218554Y-103274529D01*
X78210496Y-103252007D01*
X78204684Y-103228803D01*
X78201174Y-103205142D01*
X78200000Y-103181250D01*
X78200000Y-102693750D01*
X78201174Y-102669858D01*
X78204684Y-102646197D01*
X78210496Y-102622993D01*
X78218554Y-102600471D01*
X78228782Y-102578847D01*
X78241079Y-102558330D01*
X78255329Y-102539117D01*
X78271393Y-102521393D01*
X78289117Y-102505329D01*
X78308330Y-102491079D01*
X78328847Y-102478782D01*
X78350471Y-102468554D01*
X78372993Y-102460496D01*
X78396197Y-102454684D01*
X78419858Y-102451174D01*
X78443750Y-102450000D01*
X79356250Y-102450000D01*
X79380142Y-102451174D01*
X79380142Y-102451174D01*
G37*
D14*
G04 #@! TD*
G04 #@! TO.P,C5,1*
G04 #@! TO.N,3V3*
X78900000Y-102937500D03*
D13*
G04 #@! TO.N,Net-(C5-Pad2)*
G04 #@! TO.C,C5*
G36*
X79380142Y-100576174D02*
X79403803Y-100579684D01*
X79427007Y-100585496D01*
X79449529Y-100593554D01*
X79471153Y-100603782D01*
X79491670Y-100616079D01*
X79510883Y-100630329D01*
X79528607Y-100646393D01*
X79544671Y-100664117D01*
X79558921Y-100683330D01*
X79571218Y-100703847D01*
X79581446Y-100725471D01*
X79589504Y-100747993D01*
X79595316Y-100771197D01*
X79598826Y-100794858D01*
X79600000Y-100818750D01*
X79600000Y-101306250D01*
X79598826Y-101330142D01*
X79595316Y-101353803D01*
X79589504Y-101377007D01*
X79581446Y-101399529D01*
X79571218Y-101421153D01*
X79558921Y-101441670D01*
X79544671Y-101460883D01*
X79528607Y-101478607D01*
X79510883Y-101494671D01*
X79491670Y-101508921D01*
X79471153Y-101521218D01*
X79449529Y-101531446D01*
X79427007Y-101539504D01*
X79403803Y-101545316D01*
X79380142Y-101548826D01*
X79356250Y-101550000D01*
X78443750Y-101550000D01*
X78419858Y-101548826D01*
X78396197Y-101545316D01*
X78372993Y-101539504D01*
X78350471Y-101531446D01*
X78328847Y-101521218D01*
X78308330Y-101508921D01*
X78289117Y-101494671D01*
X78271393Y-101478607D01*
X78255329Y-101460883D01*
X78241079Y-101441670D01*
X78228782Y-101421153D01*
X78218554Y-101399529D01*
X78210496Y-101377007D01*
X78204684Y-101353803D01*
X78201174Y-101330142D01*
X78200000Y-101306250D01*
X78200000Y-100818750D01*
X78201174Y-100794858D01*
X78204684Y-100771197D01*
X78210496Y-100747993D01*
X78218554Y-100725471D01*
X78228782Y-100703847D01*
X78241079Y-100683330D01*
X78255329Y-100664117D01*
X78271393Y-100646393D01*
X78289117Y-100630329D01*
X78308330Y-100616079D01*
X78328847Y-100603782D01*
X78350471Y-100593554D01*
X78372993Y-100585496D01*
X78396197Y-100579684D01*
X78419858Y-100576174D01*
X78443750Y-100575000D01*
X79356250Y-100575000D01*
X79380142Y-100576174D01*
X79380142Y-100576174D01*
G37*
D14*
G04 #@! TD*
G04 #@! TO.P,C5,2*
G04 #@! TO.N,Net-(C5-Pad2)*
X78900000Y-101062500D03*
D13*
G04 #@! TO.N,Net-(C5-Pad2)*
G04 #@! TO.C,R7*
G36*
X81292642Y-100401174D02*
X81316303Y-100404684D01*
X81339507Y-100410496D01*
X81362029Y-100418554D01*
X81383653Y-100428782D01*
X81404170Y-100441079D01*
X81423383Y-100455329D01*
X81441107Y-100471393D01*
X81457171Y-100489117D01*
X81471421Y-100508330D01*
X81483718Y-100528847D01*
X81493946Y-100550471D01*
X81502004Y-100572993D01*
X81507816Y-100596197D01*
X81511326Y-100619858D01*
X81512500Y-100643750D01*
X81512500Y-101556250D01*
X81511326Y-101580142D01*
X81507816Y-101603803D01*
X81502004Y-101627007D01*
X81493946Y-101649529D01*
X81483718Y-101671153D01*
X81471421Y-101691670D01*
X81457171Y-101710883D01*
X81441107Y-101728607D01*
X81423383Y-101744671D01*
X81404170Y-101758921D01*
X81383653Y-101771218D01*
X81362029Y-101781446D01*
X81339507Y-101789504D01*
X81316303Y-101795316D01*
X81292642Y-101798826D01*
X81268750Y-101800000D01*
X80781250Y-101800000D01*
X80757358Y-101798826D01*
X80733697Y-101795316D01*
X80710493Y-101789504D01*
X80687971Y-101781446D01*
X80666347Y-101771218D01*
X80645830Y-101758921D01*
X80626617Y-101744671D01*
X80608893Y-101728607D01*
X80592829Y-101710883D01*
X80578579Y-101691670D01*
X80566282Y-101671153D01*
X80556054Y-101649529D01*
X80547996Y-101627007D01*
X80542184Y-101603803D01*
X80538674Y-101580142D01*
X80537500Y-101556250D01*
X80537500Y-100643750D01*
X80538674Y-100619858D01*
X80542184Y-100596197D01*
X80547996Y-100572993D01*
X80556054Y-100550471D01*
X80566282Y-100528847D01*
X80578579Y-100508330D01*
X80592829Y-100489117D01*
X80608893Y-100471393D01*
X80626617Y-100455329D01*
X80645830Y-100441079D01*
X80666347Y-100428782D01*
X80687971Y-100418554D01*
X80710493Y-100410496D01*
X80733697Y-100404684D01*
X80757358Y-100401174D01*
X80781250Y-100400000D01*
X81268750Y-100400000D01*
X81292642Y-100401174D01*
X81292642Y-100401174D01*
G37*
D14*
G04 #@! TD*
G04 #@! TO.P,R7,1*
G04 #@! TO.N,Net-(C5-Pad2)*
X81025000Y-101100000D03*
D13*
G04 #@! TO.N,Net-(R5-Pad2)*
G04 #@! TO.C,R7*
G36*
X83167642Y-100401174D02*
X83191303Y-100404684D01*
X83214507Y-100410496D01*
X83237029Y-100418554D01*
X83258653Y-100428782D01*
X83279170Y-100441079D01*
X83298383Y-100455329D01*
X83316107Y-100471393D01*
X83332171Y-100489117D01*
X83346421Y-100508330D01*
X83358718Y-100528847D01*
X83368946Y-100550471D01*
X83377004Y-100572993D01*
X83382816Y-100596197D01*
X83386326Y-100619858D01*
X83387500Y-100643750D01*
X83387500Y-101556250D01*
X83386326Y-101580142D01*
X83382816Y-101603803D01*
X83377004Y-101627007D01*
X83368946Y-101649529D01*
X83358718Y-101671153D01*
X83346421Y-101691670D01*
X83332171Y-101710883D01*
X83316107Y-101728607D01*
X83298383Y-101744671D01*
X83279170Y-101758921D01*
X83258653Y-101771218D01*
X83237029Y-101781446D01*
X83214507Y-101789504D01*
X83191303Y-101795316D01*
X83167642Y-101798826D01*
X83143750Y-101800000D01*
X82656250Y-101800000D01*
X82632358Y-101798826D01*
X82608697Y-101795316D01*
X82585493Y-101789504D01*
X82562971Y-101781446D01*
X82541347Y-101771218D01*
X82520830Y-101758921D01*
X82501617Y-101744671D01*
X82483893Y-101728607D01*
X82467829Y-101710883D01*
X82453579Y-101691670D01*
X82441282Y-101671153D01*
X82431054Y-101649529D01*
X82422996Y-101627007D01*
X82417184Y-101603803D01*
X82413674Y-101580142D01*
X82412500Y-101556250D01*
X82412500Y-100643750D01*
X82413674Y-100619858D01*
X82417184Y-100596197D01*
X82422996Y-100572993D01*
X82431054Y-100550471D01*
X82441282Y-100528847D01*
X82453579Y-100508330D01*
X82467829Y-100489117D01*
X82483893Y-100471393D01*
X82501617Y-100455329D01*
X82520830Y-100441079D01*
X82541347Y-100428782D01*
X82562971Y-100418554D01*
X82585493Y-100410496D01*
X82608697Y-100404684D01*
X82632358Y-100401174D01*
X82656250Y-100400000D01*
X83143750Y-100400000D01*
X83167642Y-100401174D01*
X83167642Y-100401174D01*
G37*
D14*
G04 #@! TD*
G04 #@! TO.P,R7,2*
G04 #@! TO.N,Net-(R5-Pad2)*
X82900000Y-101100000D03*
D12*
G04 #@! TO.P,J5,1*
G04 #@! TO.N,+9V*
X103200000Y-90000000D03*
D11*
G04 #@! TO.P,J5,2*
G04 #@! TO.N,GND*
X103200000Y-92540000D03*
G04 #@! TD*
D13*
G04 #@! TO.N,GND*
G04 #@! TO.C,C3*
G36*
X98099504Y-102876204D02*
X98123773Y-102879804D01*
X98147571Y-102885765D01*
X98170671Y-102894030D01*
X98192849Y-102904520D01*
X98213893Y-102917133D01*
X98233598Y-102931747D01*
X98251777Y-102948223D01*
X98268253Y-102966402D01*
X98282867Y-102986107D01*
X98295480Y-103007151D01*
X98305970Y-103029329D01*
X98314235Y-103052429D01*
X98320196Y-103076227D01*
X98323796Y-103100496D01*
X98325000Y-103125000D01*
X98325000Y-103875000D01*
X98323796Y-103899504D01*
X98320196Y-103923773D01*
X98314235Y-103947571D01*
X98305970Y-103970671D01*
X98295480Y-103992849D01*
X98282867Y-104013893D01*
X98268253Y-104033598D01*
X98251777Y-104051777D01*
X98233598Y-104068253D01*
X98213893Y-104082867D01*
X98192849Y-104095480D01*
X98170671Y-104105970D01*
X98147571Y-104114235D01*
X98123773Y-104120196D01*
X98099504Y-104123796D01*
X98075000Y-104125000D01*
X95925000Y-104125000D01*
X95900496Y-104123796D01*
X95876227Y-104120196D01*
X95852429Y-104114235D01*
X95829329Y-104105970D01*
X95807151Y-104095480D01*
X95786107Y-104082867D01*
X95766402Y-104068253D01*
X95748223Y-104051777D01*
X95731747Y-104033598D01*
X95717133Y-104013893D01*
X95704520Y-103992849D01*
X95694030Y-103970671D01*
X95685765Y-103947571D01*
X95679804Y-103923773D01*
X95676204Y-103899504D01*
X95675000Y-103875000D01*
X95675000Y-103125000D01*
X95676204Y-103100496D01*
X95679804Y-103076227D01*
X95685765Y-103052429D01*
X95694030Y-103029329D01*
X95704520Y-103007151D01*
X95717133Y-102986107D01*
X95731747Y-102966402D01*
X95748223Y-102948223D01*
X95766402Y-102931747D01*
X95786107Y-102917133D01*
X95807151Y-102904520D01*
X95829329Y-102894030D01*
X95852429Y-102885765D01*
X95876227Y-102879804D01*
X95900496Y-102876204D01*
X95925000Y-102875000D01*
X98075000Y-102875000D01*
X98099504Y-102876204D01*
X98099504Y-102876204D01*
G37*
D21*
G04 #@! TD*
G04 #@! TO.P,C3,2*
G04 #@! TO.N,GND*
X97000000Y-103500000D03*
D13*
G04 #@! TO.N,+9V*
G04 #@! TO.C,C3*
G36*
X98099504Y-100076204D02*
X98123773Y-100079804D01*
X98147571Y-100085765D01*
X98170671Y-100094030D01*
X98192849Y-100104520D01*
X98213893Y-100117133D01*
X98233598Y-100131747D01*
X98251777Y-100148223D01*
X98268253Y-100166402D01*
X98282867Y-100186107D01*
X98295480Y-100207151D01*
X98305970Y-100229329D01*
X98314235Y-100252429D01*
X98320196Y-100276227D01*
X98323796Y-100300496D01*
X98325000Y-100325000D01*
X98325000Y-101075000D01*
X98323796Y-101099504D01*
X98320196Y-101123773D01*
X98314235Y-101147571D01*
X98305970Y-101170671D01*
X98295480Y-101192849D01*
X98282867Y-101213893D01*
X98268253Y-101233598D01*
X98251777Y-101251777D01*
X98233598Y-101268253D01*
X98213893Y-101282867D01*
X98192849Y-101295480D01*
X98170671Y-101305970D01*
X98147571Y-101314235D01*
X98123773Y-101320196D01*
X98099504Y-101323796D01*
X98075000Y-101325000D01*
X95925000Y-101325000D01*
X95900496Y-101323796D01*
X95876227Y-101320196D01*
X95852429Y-101314235D01*
X95829329Y-101305970D01*
X95807151Y-101295480D01*
X95786107Y-101282867D01*
X95766402Y-101268253D01*
X95748223Y-101251777D01*
X95731747Y-101233598D01*
X95717133Y-101213893D01*
X95704520Y-101192849D01*
X95694030Y-101170671D01*
X95685765Y-101147571D01*
X95679804Y-101123773D01*
X95676204Y-101099504D01*
X95675000Y-101075000D01*
X95675000Y-100325000D01*
X95676204Y-100300496D01*
X95679804Y-100276227D01*
X95685765Y-100252429D01*
X95694030Y-100229329D01*
X95704520Y-100207151D01*
X95717133Y-100186107D01*
X95731747Y-100166402D01*
X95748223Y-100148223D01*
X95766402Y-100131747D01*
X95786107Y-100117133D01*
X95807151Y-100104520D01*
X95829329Y-100094030D01*
X95852429Y-100085765D01*
X95876227Y-100079804D01*
X95900496Y-100076204D01*
X95925000Y-100075000D01*
X98075000Y-100075000D01*
X98099504Y-100076204D01*
X98099504Y-100076204D01*
G37*
D21*
G04 #@! TD*
G04 #@! TO.P,C3,1*
G04 #@! TO.N,+9V*
X97000000Y-100700000D03*
D13*
G04 #@! TO.N,3V3*
G04 #@! TO.C,C4*
G36*
X77099504Y-102276204D02*
X77123773Y-102279804D01*
X77147571Y-102285765D01*
X77170671Y-102294030D01*
X77192849Y-102304520D01*
X77213893Y-102317133D01*
X77233598Y-102331747D01*
X77251777Y-102348223D01*
X77268253Y-102366402D01*
X77282867Y-102386107D01*
X77295480Y-102407151D01*
X77305970Y-102429329D01*
X77314235Y-102452429D01*
X77320196Y-102476227D01*
X77323796Y-102500496D01*
X77325000Y-102525000D01*
X77325000Y-103275000D01*
X77323796Y-103299504D01*
X77320196Y-103323773D01*
X77314235Y-103347571D01*
X77305970Y-103370671D01*
X77295480Y-103392849D01*
X77282867Y-103413893D01*
X77268253Y-103433598D01*
X77251777Y-103451777D01*
X77233598Y-103468253D01*
X77213893Y-103482867D01*
X77192849Y-103495480D01*
X77170671Y-103505970D01*
X77147571Y-103514235D01*
X77123773Y-103520196D01*
X77099504Y-103523796D01*
X77075000Y-103525000D01*
X74925000Y-103525000D01*
X74900496Y-103523796D01*
X74876227Y-103520196D01*
X74852429Y-103514235D01*
X74829329Y-103505970D01*
X74807151Y-103495480D01*
X74786107Y-103482867D01*
X74766402Y-103468253D01*
X74748223Y-103451777D01*
X74731747Y-103433598D01*
X74717133Y-103413893D01*
X74704520Y-103392849D01*
X74694030Y-103370671D01*
X74685765Y-103347571D01*
X74679804Y-103323773D01*
X74676204Y-103299504D01*
X74675000Y-103275000D01*
X74675000Y-102525000D01*
X74676204Y-102500496D01*
X74679804Y-102476227D01*
X74685765Y-102452429D01*
X74694030Y-102429329D01*
X74704520Y-102407151D01*
X74717133Y-102386107D01*
X74731747Y-102366402D01*
X74748223Y-102348223D01*
X74766402Y-102331747D01*
X74786107Y-102317133D01*
X74807151Y-102304520D01*
X74829329Y-102294030D01*
X74852429Y-102285765D01*
X74876227Y-102279804D01*
X74900496Y-102276204D01*
X74925000Y-102275000D01*
X77075000Y-102275000D01*
X77099504Y-102276204D01*
X77099504Y-102276204D01*
G37*
D21*
G04 #@! TD*
G04 #@! TO.P,C4,1*
G04 #@! TO.N,3V3*
X76000000Y-102900000D03*
D13*
G04 #@! TO.N,GND*
G04 #@! TO.C,C4*
G36*
X77099504Y-99476204D02*
X77123773Y-99479804D01*
X77147571Y-99485765D01*
X77170671Y-99494030D01*
X77192849Y-99504520D01*
X77213893Y-99517133D01*
X77233598Y-99531747D01*
X77251777Y-99548223D01*
X77268253Y-99566402D01*
X77282867Y-99586107D01*
X77295480Y-99607151D01*
X77305970Y-99629329D01*
X77314235Y-99652429D01*
X77320196Y-99676227D01*
X77323796Y-99700496D01*
X77325000Y-99725000D01*
X77325000Y-100475000D01*
X77323796Y-100499504D01*
X77320196Y-100523773D01*
X77314235Y-100547571D01*
X77305970Y-100570671D01*
X77295480Y-100592849D01*
X77282867Y-100613893D01*
X77268253Y-100633598D01*
X77251777Y-100651777D01*
X77233598Y-100668253D01*
X77213893Y-100682867D01*
X77192849Y-100695480D01*
X77170671Y-100705970D01*
X77147571Y-100714235D01*
X77123773Y-100720196D01*
X77099504Y-100723796D01*
X77075000Y-100725000D01*
X74925000Y-100725000D01*
X74900496Y-100723796D01*
X74876227Y-100720196D01*
X74852429Y-100714235D01*
X74829329Y-100705970D01*
X74807151Y-100695480D01*
X74786107Y-100682867D01*
X74766402Y-100668253D01*
X74748223Y-100651777D01*
X74731747Y-100633598D01*
X74717133Y-100613893D01*
X74704520Y-100592849D01*
X74694030Y-100570671D01*
X74685765Y-100547571D01*
X74679804Y-100523773D01*
X74676204Y-100499504D01*
X74675000Y-100475000D01*
X74675000Y-99725000D01*
X74676204Y-99700496D01*
X74679804Y-99676227D01*
X74685765Y-99652429D01*
X74694030Y-99629329D01*
X74704520Y-99607151D01*
X74717133Y-99586107D01*
X74731747Y-99566402D01*
X74748223Y-99548223D01*
X74766402Y-99531747D01*
X74786107Y-99517133D01*
X74807151Y-99504520D01*
X74829329Y-99494030D01*
X74852429Y-99485765D01*
X74876227Y-99479804D01*
X74900496Y-99476204D01*
X74925000Y-99475000D01*
X77075000Y-99475000D01*
X77099504Y-99476204D01*
X77099504Y-99476204D01*
G37*
D21*
G04 #@! TD*
G04 #@! TO.P,C4,2*
G04 #@! TO.N,GND*
X76000000Y-100100000D03*
D12*
G04 #@! TO.P,J6,1*
G04 #@! TO.N,MOSI*
X74100000Y-83700000D03*
D11*
G04 #@! TO.P,J6,2*
G04 #@! TO.N,MISO*
X76640000Y-83700000D03*
G04 #@! TO.P,J6,3*
G04 #@! TO.N,SCK*
X79180000Y-83700000D03*
G04 #@! TD*
D12*
G04 #@! TO.P,J3,1*
G04 #@! TO.N,TXD*
X55800000Y-49600000D03*
D11*
G04 #@! TO.P,J3,2*
G04 #@! TO.N,RXD*
X55800000Y-52140000D03*
G04 #@! TO.P,J3,3*
G04 #@! TO.N,RESET*
X55800000Y-54680000D03*
G04 #@! TO.P,J3,4*
G04 #@! TO.N,3V3*
X55800000Y-57220000D03*
G04 #@! TO.P,J3,5*
G04 #@! TO.N,ENABLE*
X55800000Y-59760000D03*
G04 #@! TO.P,J3,6*
G04 #@! TO.N,GND*
X55800000Y-62300000D03*
G04 #@! TD*
D22*
G04 #@! TO.N,GND*
X95500000Y-99100000D03*
X70500000Y-64300000D03*
X82700000Y-63600000D03*
X64000000Y-98400000D03*
X95400000Y-64800000D03*
G04 #@! TO.N,3V3*
X83000000Y-61300000D03*
X64700000Y-70500000D03*
G04 #@! TO.N,RXD*
X70900000Y-53200000D03*
X64200000Y-55300000D03*
X66400000Y-53200000D03*
G04 #@! TO.N,TXD*
X72500000Y-55100000D03*
X68800000Y-51500000D03*
G04 #@! TO.N,CS*
X90700000Y-74400000D03*
X88800000Y-70300000D03*
G04 #@! TO.N,SDA*
X94200000Y-57000000D03*
G04 #@! TO.N,SCL*
X91700000Y-56900000D03*
G04 #@! TO.N,ENABLE*
X76700000Y-57000000D03*
G04 #@! TO.N,RESET*
X86800000Y-56000000D03*
G04 #@! TD*
D23*
G04 #@! TO.N,GND*
X93814000Y-99100000D02*
X95500000Y-99100000D01*
X68750000Y-95187500D02*
X68750000Y-95775000D01*
X68750000Y-95775000D02*
X68750000Y-95350000D01*
X68750000Y-95350000D02*
X68700000Y-95300000D01*
X69550000Y-95187500D02*
X69562500Y-95200000D01*
X68750000Y-95187500D02*
X69550000Y-95187500D01*
X69562500Y-95200000D02*
X78100000Y-95200000D01*
X78100000Y-95200000D02*
X87500000Y-95200000D01*
X87500000Y-95200000D02*
X87500000Y-95500000D01*
X87500000Y-95500000D02*
X85100000Y-97900000D01*
X76000000Y-99375000D02*
X78100000Y-97275000D01*
X76000000Y-100100000D02*
X76000000Y-99375000D01*
X78100000Y-97275000D02*
X78100000Y-95400000D01*
X71962500Y-62100000D02*
X71962500Y-62837500D01*
X71962500Y-62837500D02*
X70500000Y-64300000D01*
X71962500Y-65762500D02*
X70500000Y-64300000D01*
X71962500Y-67000000D02*
X71962500Y-65762500D01*
X85250000Y-65000000D02*
X84100000Y-65000000D01*
X84100000Y-65000000D02*
X82700000Y-63600000D01*
X64565685Y-98400000D02*
X64000000Y-98400000D01*
X68750000Y-95775000D02*
X66125000Y-98400000D01*
X66125000Y-98400000D02*
X64565685Y-98400000D01*
X102350001Y-93389999D02*
X102350001Y-98349999D01*
X103200000Y-92540000D02*
X102350001Y-93389999D01*
X102350001Y-98349999D02*
X97100000Y-103600000D01*
X93750000Y-64200000D02*
X94800000Y-64200000D01*
X94800000Y-64200000D02*
X95400000Y-64800000D01*
G04 #@! TO.N,Net-(C1-Pad2)*
X74425000Y-62100000D02*
X74525000Y-62200000D01*
X73837500Y-62100000D02*
X74425000Y-62100000D01*
X74525000Y-62200000D02*
X77800000Y-62200000D01*
X78860660Y-62120000D02*
X83340660Y-66600000D01*
X77800000Y-62120000D02*
X78860660Y-62120000D01*
X83340660Y-66600000D02*
X85300000Y-66600000D01*
G04 #@! TO.N,Net-(C2-Pad2)*
X73837500Y-67000000D02*
X77800000Y-67000000D01*
X78549999Y-67749999D02*
X84950001Y-67749999D01*
X77800000Y-67000000D02*
X78549999Y-67749999D01*
X84950001Y-67749999D02*
X85200000Y-67500000D01*
G04 #@! TO.N,3V3*
X98950000Y-66000000D02*
X98350000Y-66600000D01*
X100200000Y-66000000D02*
X98950000Y-66000000D01*
X98350000Y-66600000D02*
X93800000Y-66600000D01*
X92550000Y-66600000D02*
X90150000Y-64200000D01*
X93750000Y-66600000D02*
X92550000Y-66600000D01*
X84049999Y-62349999D02*
X83000000Y-61300000D01*
X84049999Y-63995001D02*
X84049999Y-62349999D01*
X90150000Y-64200000D02*
X84254998Y-64200000D01*
X84254998Y-64200000D02*
X84049999Y-63995001D01*
X90184000Y-100050000D02*
X86134000Y-104100000D01*
X91194000Y-100050000D02*
X90184000Y-100050000D01*
X86134000Y-104100000D02*
X85200000Y-104100000D01*
X78900000Y-102937500D02*
X81337500Y-102937500D01*
X81337500Y-102937500D02*
X82500000Y-104100000D01*
X82500000Y-104100000D02*
X85100000Y-104100000D01*
X78900000Y-102937500D02*
X76137500Y-102937500D01*
X76137500Y-102937500D02*
X76100000Y-102900000D01*
X75304290Y-103595710D02*
X71795710Y-103595710D01*
X76000000Y-102900000D02*
X75304290Y-103595710D01*
G04 #@! TO.N,STABLE*
X68750000Y-87137208D02*
X64100000Y-82487208D01*
X68750000Y-88410000D02*
X68750000Y-87137208D01*
X64100000Y-82487208D02*
X64100000Y-73500000D01*
X64100000Y-73500000D02*
X68800000Y-68800000D01*
X68800000Y-68800000D02*
X86600000Y-68800000D01*
G04 #@! TO.N,REC*
X86845002Y-70500000D02*
X67948542Y-70500000D01*
X87500000Y-68850000D02*
X87500000Y-69845002D01*
X87500000Y-69845002D02*
X86845002Y-70500000D01*
X64700010Y-73748532D02*
X64700010Y-82000010D01*
X67948542Y-70500000D02*
X64700010Y-73748532D01*
X64700010Y-82000010D02*
X71200000Y-88500000D01*
X71200000Y-88500000D02*
X78100000Y-88500000D01*
G04 #@! TO.N,RXD*
X88300000Y-60350000D02*
X88300000Y-59150000D01*
X88300000Y-59150000D02*
X82350000Y-53200000D01*
X66300000Y-53200000D02*
X64200000Y-55300000D01*
X66400000Y-53200000D02*
X66300000Y-53200000D01*
X74960000Y-53200000D02*
X76500000Y-53200000D01*
X71360000Y-49600000D02*
X74960000Y-53200000D01*
X82350000Y-53200000D02*
X76500000Y-53200000D01*
X76500000Y-53200000D02*
X70900000Y-53200000D01*
G04 #@! TO.N,TXD*
X87500000Y-59354998D02*
X84345002Y-56200000D01*
X87500000Y-60350000D02*
X87500000Y-59354998D01*
X84345002Y-56200000D02*
X73600000Y-56200000D01*
X73600000Y-56200000D02*
X72500000Y-55100000D01*
X68800000Y-52284002D02*
X68800000Y-51500000D01*
X72500000Y-55100000D02*
X71615998Y-55100000D01*
X71615998Y-55100000D02*
X68800000Y-52284002D01*
G04 #@! TO.N,CS*
X84500000Y-79100000D02*
X89200000Y-74400000D01*
X89200000Y-74400000D02*
X90700000Y-74400000D01*
X90196460Y-70300000D02*
X90700000Y-69796460D01*
X88800000Y-70300000D02*
X90196460Y-70300000D01*
X90700000Y-69796460D02*
X90700000Y-68900000D01*
G04 #@! TO.N,MOSI*
X74100000Y-83700000D02*
X67248542Y-83700000D01*
X67248542Y-83700000D02*
X65300020Y-81751478D01*
X65300020Y-81751478D02*
X65300020Y-73997064D01*
X90244992Y-71100010D02*
X91500000Y-69845002D01*
X65300020Y-73997064D02*
X68197074Y-71100010D01*
X68197074Y-71100010D02*
X90244992Y-71100010D01*
X91500000Y-69845002D02*
X91500000Y-68900000D01*
X90244992Y-71100010D02*
X87199990Y-71100010D01*
X87199990Y-71100010D02*
X82000000Y-76300000D01*
X82000000Y-76300000D02*
X82000000Y-79100000D01*
G04 #@! TO.N,MISO*
X78840000Y-81500000D02*
X90100000Y-81500000D01*
X76640000Y-83700000D02*
X78840000Y-81500000D01*
X90100000Y-81500000D02*
X92300000Y-79300000D01*
X92300000Y-79300000D02*
X92300000Y-69100000D01*
X78840000Y-81500000D02*
X78840000Y-79760000D01*
X78840000Y-79760000D02*
X79400000Y-79200000D01*
G04 #@! TO.N,SCK*
X93799999Y-67400001D02*
X93800000Y-67400000D01*
X79180000Y-83700000D02*
X80382081Y-83700000D01*
X80382081Y-83700000D02*
X88800000Y-83700000D01*
X88800000Y-83700000D02*
X93800000Y-78700000D01*
X93800000Y-78700000D02*
X93800000Y-67400000D01*
G04 #@! TO.N,SDA*
X90700000Y-59150000D02*
X92050000Y-57800000D01*
X90700000Y-60350000D02*
X90700000Y-59150000D01*
X92050000Y-57800000D02*
X93400000Y-57800000D01*
X93400000Y-57800000D02*
X94200000Y-57000000D01*
G04 #@! TO.N,SCL*
X89900000Y-60350000D02*
X89900000Y-58700000D01*
X89900000Y-58700000D02*
X91700000Y-56900000D01*
G04 #@! TO.N,Net-(D1-Pad1)*
X87600000Y-90950000D02*
X87600000Y-92250000D01*
X87600000Y-92250000D02*
X87600000Y-93300000D01*
G04 #@! TO.N,Net-(D2-Pad1)*
X68750000Y-92250000D02*
X68700000Y-92300000D01*
X68750000Y-90950000D02*
X68750000Y-92250000D01*
X68700000Y-92300000D02*
X68700000Y-93400000D01*
G04 #@! TO.N,Net-(D3-Pad1)*
X78124000Y-90964600D02*
X78124000Y-93176000D01*
G04 #@! TO.N,+9V*
X96304290Y-100004290D02*
X93804290Y-100004290D01*
X97000000Y-100700000D02*
X96304290Y-100004290D01*
X97000000Y-100700000D02*
X97000000Y-99975000D01*
X97000000Y-99975000D02*
X97000000Y-99100000D01*
X97000000Y-99100000D02*
X96000000Y-98100000D01*
X96000000Y-98100000D02*
X93800000Y-98100000D01*
X97000000Y-100700000D02*
X99300000Y-98400000D01*
X99300000Y-92650000D02*
X101950000Y-90000000D01*
X99300000Y-98400000D02*
X99300000Y-92650000D01*
X101950000Y-90000000D02*
X103300000Y-90000000D01*
G04 #@! TO.N,Net-(R5-Pad2)*
X90184000Y-98150000D02*
X88534000Y-99800000D01*
X91194000Y-98150000D02*
X90184000Y-98150000D01*
X88534000Y-99800000D02*
X85100000Y-99800000D01*
X85100000Y-101000000D02*
X83100000Y-101000000D01*
X85100000Y-101000000D02*
X85100000Y-99900000D01*
X85100000Y-102162500D02*
X85100000Y-101000000D01*
X83100000Y-101000000D02*
X83000000Y-101100000D01*
G04 #@! TO.N,Net-(C5-Pad2)*
X81025000Y-101100000D02*
X78900000Y-101100000D01*
G04 #@! TO.N,ENABLE*
X76700000Y-57000000D02*
X65900000Y-57000000D01*
X65900000Y-57000000D02*
X64200000Y-57000000D01*
X64200000Y-57000000D02*
X60600000Y-57000000D01*
X60600000Y-57000000D02*
X57900000Y-59700000D01*
X57900000Y-59700000D02*
X55800000Y-59700000D01*
G04 #@! TO.N,Net-(J4-Pad2)*
X100200000Y-63460000D02*
X93760000Y-63460000D01*
X93760000Y-63460000D02*
X93700000Y-63400000D01*
G04 #@! TO.N,RESET*
X89100000Y-56537500D02*
X89100000Y-60500000D01*
X87365685Y-56000000D02*
X87865685Y-56500000D01*
X86800000Y-56000000D02*
X87365685Y-56000000D01*
X87865685Y-56500000D02*
X89100000Y-56500000D01*
G04 #@! TD*
D24*
G04 #@! TO.N,3V3*
G36*
X104867399Y-56694941D02*
X104674406Y-56615000D01*
X103725594Y-56615000D01*
X102849006Y-56978095D01*
X102178095Y-57649006D01*
X101815000Y-58525594D01*
X101815000Y-59474406D01*
X102178095Y-60350994D01*
X102849006Y-61021905D01*
X103725594Y-61385000D01*
X104674406Y-61385000D01*
X104867399Y-61305059D01*
X104867399Y-100694940D01*
X104674406Y-100615000D01*
X103725594Y-100615000D01*
X102849006Y-100978095D01*
X102178095Y-101649006D01*
X101815000Y-102525594D01*
X101815000Y-103474406D01*
X102178095Y-104350994D01*
X102849006Y-105021905D01*
X103725594Y-105385000D01*
X104674406Y-105385000D01*
X104867399Y-105305060D01*
X104867399Y-107873000D01*
X99027000Y-107873000D01*
X99027000Y-102853867D01*
X102882284Y-98998584D01*
X102952002Y-98952000D01*
X103136553Y-98675800D01*
X103185001Y-98432236D01*
X103201359Y-98349999D01*
X103185001Y-98267762D01*
X103185001Y-94025000D01*
X103346256Y-94025000D01*
X103779418Y-93938839D01*
X104270625Y-93610625D01*
X104598839Y-93119418D01*
X104714092Y-92540000D01*
X104598839Y-91960582D01*
X104270625Y-91469375D01*
X104252381Y-91457184D01*
X104297765Y-91448157D01*
X104507809Y-91307809D01*
X104648157Y-91097765D01*
X104697440Y-90850000D01*
X104697440Y-89150000D01*
X104648157Y-88902235D01*
X104507809Y-88692191D01*
X104297765Y-88551843D01*
X104050000Y-88502560D01*
X102350000Y-88502560D01*
X102102235Y-88551843D01*
X101892191Y-88692191D01*
X101751843Y-88902235D01*
X101702560Y-89150000D01*
X101702560Y-89197861D01*
X101624199Y-89213448D01*
X101347999Y-89397999D01*
X101301415Y-89467717D01*
X98767718Y-92001415D01*
X98698000Y-92047999D01*
X98651416Y-92117717D01*
X98513448Y-92324200D01*
X98448643Y-92650000D01*
X98465001Y-92732238D01*
X98465000Y-96973000D01*
X87207868Y-96973000D01*
X87858428Y-96322440D01*
X88056250Y-96322440D01*
X88397294Y-96254602D01*
X88686416Y-96061416D01*
X88879602Y-95772294D01*
X88947440Y-95431250D01*
X88947440Y-94943750D01*
X88879602Y-94602706D01*
X88686416Y-94313584D01*
X88591256Y-94250000D01*
X88686416Y-94186416D01*
X88879602Y-93897294D01*
X88947440Y-93556250D01*
X88947440Y-93068750D01*
X88879602Y-92727706D01*
X88699259Y-92457805D01*
X88747765Y-92448157D01*
X88957809Y-92307809D01*
X89098157Y-92097765D01*
X89147440Y-91850000D01*
X89147440Y-90050000D01*
X89098157Y-89802235D01*
X88957809Y-89592191D01*
X88747765Y-89451843D01*
X88732092Y-89448725D01*
X88901310Y-89279507D01*
X89130748Y-88725594D01*
X91015000Y-88725594D01*
X91015000Y-89674406D01*
X91378095Y-90550994D01*
X92049006Y-91221905D01*
X92358254Y-91350000D01*
X92049006Y-91478095D01*
X91378095Y-92149006D01*
X91015000Y-93025594D01*
X91015000Y-93974406D01*
X91378095Y-94850994D01*
X92049006Y-95521905D01*
X92925594Y-95885000D01*
X93874406Y-95885000D01*
X94750994Y-95521905D01*
X95421905Y-94850994D01*
X95785000Y-93974406D01*
X95785000Y-93025594D01*
X95421905Y-92149006D01*
X94750994Y-91478095D01*
X94441746Y-91350000D01*
X94750994Y-91221905D01*
X95421905Y-90550994D01*
X95785000Y-89674406D01*
X95785000Y-88725594D01*
X95421905Y-87849006D01*
X94750994Y-87178095D01*
X93874406Y-86815000D01*
X92925594Y-86815000D01*
X92049006Y-87178095D01*
X91378095Y-87849006D01*
X91015000Y-88725594D01*
X89130748Y-88725594D01*
X89135000Y-88715330D01*
X89135000Y-88104670D01*
X88901310Y-87540493D01*
X88469507Y-87108690D01*
X87905330Y-86875000D01*
X87294670Y-86875000D01*
X86730493Y-87108690D01*
X86298690Y-87540493D01*
X86065000Y-88104670D01*
X86065000Y-88715330D01*
X86298690Y-89279507D01*
X86467908Y-89448725D01*
X86452235Y-89451843D01*
X86242191Y-89592191D01*
X86101843Y-89802235D01*
X86052560Y-90050000D01*
X86052560Y-91850000D01*
X86101843Y-92097765D01*
X86242191Y-92307809D01*
X86452235Y-92448157D01*
X86500741Y-92457805D01*
X86320398Y-92727706D01*
X86252560Y-93068750D01*
X86252560Y-93556250D01*
X86320398Y-93897294D01*
X86513584Y-94186416D01*
X86608744Y-94250000D01*
X86513584Y-94313584D01*
X86479229Y-94365000D01*
X79187362Y-94365000D01*
X79186416Y-94363584D01*
X79091256Y-94300000D01*
X79186416Y-94236416D01*
X79379602Y-93947294D01*
X79447440Y-93606250D01*
X79447440Y-93118750D01*
X79379602Y-92777706D01*
X79186416Y-92488584D01*
X79176209Y-92481764D01*
X79271765Y-92462757D01*
X79481809Y-92322409D01*
X79622157Y-92112365D01*
X79671440Y-91864600D01*
X79671440Y-90064600D01*
X79622157Y-89816835D01*
X79481809Y-89606791D01*
X79271765Y-89466443D01*
X79256092Y-89463325D01*
X79425310Y-89294107D01*
X79659000Y-88729930D01*
X79659000Y-88119270D01*
X79425310Y-87555093D01*
X78993507Y-87123290D01*
X78429330Y-86889600D01*
X77818670Y-86889600D01*
X77254493Y-87123290D01*
X76822690Y-87555093D01*
X76777165Y-87665000D01*
X71545868Y-87665000D01*
X68415867Y-84535000D01*
X72602560Y-84535000D01*
X72602560Y-84550000D01*
X72651843Y-84797765D01*
X72792191Y-85007809D01*
X73002235Y-85148157D01*
X73250000Y-85197440D01*
X74950000Y-85197440D01*
X75197765Y-85148157D01*
X75407809Y-85007809D01*
X75548157Y-84797765D01*
X75557184Y-84752381D01*
X75569375Y-84770625D01*
X76060582Y-85098839D01*
X76493744Y-85185000D01*
X76786256Y-85185000D01*
X77219418Y-85098839D01*
X77710625Y-84770625D01*
X77910000Y-84472239D01*
X78109375Y-84770625D01*
X78600582Y-85098839D01*
X79033744Y-85185000D01*
X79326256Y-85185000D01*
X79759418Y-85098839D01*
X80250625Y-84770625D01*
X80408065Y-84535000D01*
X88717767Y-84535000D01*
X88800000Y-84551357D01*
X88882233Y-84535000D01*
X88882237Y-84535000D01*
X89125801Y-84486552D01*
X89402001Y-84302001D01*
X89448587Y-84232280D01*
X94332283Y-79348585D01*
X94402001Y-79302001D01*
X94586552Y-79025801D01*
X94635000Y-78782237D01*
X94635000Y-78782236D01*
X94651358Y-78700000D01*
X94635000Y-78617763D01*
X94635000Y-68305533D01*
X94797765Y-68273157D01*
X95007809Y-68132809D01*
X95148157Y-67922765D01*
X95197440Y-67675000D01*
X95197440Y-67125000D01*
X95176783Y-67021148D01*
X95185000Y-67001310D01*
X95185000Y-66885750D01*
X95091112Y-66791862D01*
X95007809Y-66667191D01*
X94907251Y-66600000D01*
X95007809Y-66532809D01*
X95091112Y-66408138D01*
X95185000Y-66314250D01*
X95185000Y-66285750D01*
X98715000Y-66285750D01*
X98715000Y-66976310D01*
X98811673Y-67209699D01*
X98990302Y-67388327D01*
X99223691Y-67485000D01*
X99914250Y-67485000D01*
X100073000Y-67326250D01*
X100073000Y-66127000D01*
X100327000Y-66127000D01*
X100327000Y-67326250D01*
X100485750Y-67485000D01*
X101176309Y-67485000D01*
X101409698Y-67388327D01*
X101588327Y-67209699D01*
X101685000Y-66976310D01*
X101685000Y-66285750D01*
X101526250Y-66127000D01*
X100327000Y-66127000D01*
X100073000Y-66127000D01*
X98873750Y-66127000D01*
X98715000Y-66285750D01*
X95185000Y-66285750D01*
X95185000Y-66198690D01*
X95176783Y-66178852D01*
X95197440Y-66075000D01*
X95197440Y-65835000D01*
X95605874Y-65835000D01*
X95986280Y-65677431D01*
X96277431Y-65386280D01*
X96435000Y-65005874D01*
X96435000Y-64594126D01*
X96311098Y-64295000D01*
X98971935Y-64295000D01*
X99129375Y-64530625D01*
X99151033Y-64545096D01*
X98990302Y-64611673D01*
X98811673Y-64790301D01*
X98715000Y-65023690D01*
X98715000Y-65714250D01*
X98873750Y-65873000D01*
X100073000Y-65873000D01*
X100073000Y-65853000D01*
X100327000Y-65853000D01*
X100327000Y-65873000D01*
X101526250Y-65873000D01*
X101685000Y-65714250D01*
X101685000Y-65023690D01*
X101588327Y-64790301D01*
X101409698Y-64611673D01*
X101248967Y-64545096D01*
X101270625Y-64530625D01*
X101598839Y-64039418D01*
X101714092Y-63460000D01*
X101598839Y-62880582D01*
X101270625Y-62389375D01*
X100779418Y-62061161D01*
X100346256Y-61975000D01*
X100053744Y-61975000D01*
X99620582Y-62061161D01*
X99129375Y-62389375D01*
X98971935Y-62625000D01*
X95197440Y-62625000D01*
X95197440Y-62325000D01*
X95172576Y-62199999D01*
X95197440Y-62075000D01*
X95197440Y-61525000D01*
X95148157Y-61277235D01*
X95007809Y-61067191D01*
X94797765Y-60926843D01*
X94550000Y-60877560D01*
X93222440Y-60877560D01*
X93222440Y-59550000D01*
X93173157Y-59302235D01*
X93032809Y-59092191D01*
X92822765Y-58951843D01*
X92575000Y-58902560D01*
X92128308Y-58902560D01*
X92395869Y-58635000D01*
X93317767Y-58635000D01*
X93400000Y-58651357D01*
X93482233Y-58635000D01*
X93482237Y-58635000D01*
X93725801Y-58586552D01*
X94002001Y-58402001D01*
X94048587Y-58332280D01*
X94345867Y-58035000D01*
X94405874Y-58035000D01*
X94786280Y-57877431D01*
X95077431Y-57586280D01*
X95235000Y-57205874D01*
X95235000Y-56794126D01*
X95077431Y-56413720D01*
X94786280Y-56122569D01*
X94405874Y-55965000D01*
X93994126Y-55965000D01*
X93613720Y-56122569D01*
X93322569Y-56413720D01*
X93165000Y-56794126D01*
X93165000Y-56854133D01*
X93054133Y-56965000D01*
X92735000Y-56965000D01*
X92735000Y-56694126D01*
X92577431Y-56313720D01*
X92286280Y-56022569D01*
X91905874Y-55865000D01*
X91494126Y-55865000D01*
X91113720Y-56022569D01*
X90822569Y-56313720D01*
X90665000Y-56694126D01*
X90665000Y-56754132D01*
X90400153Y-57018979D01*
X90447440Y-56781250D01*
X90447440Y-56293750D01*
X90379602Y-55952706D01*
X90186416Y-55663584D01*
X90185233Y-55662793D01*
X90338327Y-55509698D01*
X90435000Y-55276309D01*
X90435000Y-54948250D01*
X90276250Y-54789500D01*
X89227000Y-54789500D01*
X89227000Y-54809500D01*
X88973000Y-54809500D01*
X88973000Y-54789500D01*
X87923750Y-54789500D01*
X87765000Y-54948250D01*
X87765000Y-55262569D01*
X87691486Y-55213448D01*
X87447922Y-55165000D01*
X87447918Y-55165000D01*
X87423942Y-55160231D01*
X87386280Y-55122569D01*
X87005874Y-54965000D01*
X86594126Y-54965000D01*
X86213720Y-55122569D01*
X85922569Y-55413720D01*
X85870439Y-55539572D01*
X84379558Y-54048691D01*
X87765000Y-54048691D01*
X87765000Y-54376750D01*
X87923750Y-54535500D01*
X88973000Y-54535500D01*
X88973000Y-53698750D01*
X89227000Y-53698750D01*
X89227000Y-54535500D01*
X90276250Y-54535500D01*
X90435000Y-54376750D01*
X90435000Y-54048691D01*
X90338327Y-53815302D01*
X90159699Y-53636673D01*
X89926310Y-53540000D01*
X89385750Y-53540000D01*
X89227000Y-53698750D01*
X88973000Y-53698750D01*
X88814250Y-53540000D01*
X88273690Y-53540000D01*
X88040301Y-53636673D01*
X87861673Y-53815302D01*
X87765000Y-54048691D01*
X84379558Y-54048691D01*
X82998587Y-52667720D01*
X82952001Y-52597999D01*
X82675801Y-52413448D01*
X82432237Y-52365000D01*
X82432233Y-52365000D01*
X82350000Y-52348643D01*
X82267767Y-52365000D01*
X75305868Y-52365000D01*
X74025868Y-51085000D01*
X74046256Y-51085000D01*
X74479418Y-50998839D01*
X74970625Y-50670625D01*
X75170000Y-50372239D01*
X75369375Y-50670625D01*
X75860582Y-50998839D01*
X76293744Y-51085000D01*
X76586256Y-51085000D01*
X77019418Y-50998839D01*
X77510625Y-50670625D01*
X77710000Y-50372239D01*
X77909375Y-50670625D01*
X78400582Y-50998839D01*
X78833744Y-51085000D01*
X79126256Y-51085000D01*
X79559418Y-50998839D01*
X80050625Y-50670625D01*
X80250000Y-50372239D01*
X80449375Y-50670625D01*
X80940582Y-50998839D01*
X81373744Y-51085000D01*
X81666256Y-51085000D01*
X82099418Y-50998839D01*
X82590625Y-50670625D01*
X82790000Y-50372239D01*
X82989375Y-50670625D01*
X83480582Y-50998839D01*
X83913744Y-51085000D01*
X84206256Y-51085000D01*
X84639418Y-50998839D01*
X85130625Y-50670625D01*
X85330000Y-50372239D01*
X85529375Y-50670625D01*
X86020582Y-50998839D01*
X86453744Y-51085000D01*
X86746256Y-51085000D01*
X87179418Y-50998839D01*
X87670625Y-50670625D01*
X87883843Y-50351522D01*
X87944817Y-50481358D01*
X88373076Y-50871645D01*
X88783110Y-51041476D01*
X89013000Y-50920155D01*
X89013000Y-49727000D01*
X88993000Y-49727000D01*
X88993000Y-49473000D01*
X89013000Y-49473000D01*
X89013000Y-48279845D01*
X89267000Y-48279845D01*
X89267000Y-49473000D01*
X89287000Y-49473000D01*
X89287000Y-49727000D01*
X89267000Y-49727000D01*
X89267000Y-50920155D01*
X89496890Y-51041476D01*
X89906924Y-50871645D01*
X90335183Y-50481358D01*
X90396157Y-50351522D01*
X90609375Y-50670625D01*
X91100582Y-50998839D01*
X91533744Y-51085000D01*
X91826256Y-51085000D01*
X92259418Y-50998839D01*
X92750625Y-50670625D01*
X92950000Y-50372239D01*
X93149375Y-50670625D01*
X93640582Y-50998839D01*
X94073744Y-51085000D01*
X94366256Y-51085000D01*
X94799418Y-50998839D01*
X95290625Y-50670625D01*
X95490000Y-50372239D01*
X95689375Y-50670625D01*
X96180582Y-50998839D01*
X96613744Y-51085000D01*
X96906256Y-51085000D01*
X97339418Y-50998839D01*
X97830625Y-50670625D01*
X97842816Y-50652381D01*
X97851843Y-50697765D01*
X97992191Y-50907809D01*
X98202235Y-51048157D01*
X98450000Y-51097440D01*
X100150000Y-51097440D01*
X100397765Y-51048157D01*
X100607809Y-50907809D01*
X100748157Y-50697765D01*
X100797440Y-50450000D01*
X100797440Y-48750000D01*
X100748157Y-48502235D01*
X100607809Y-48292191D01*
X100397765Y-48151843D01*
X100150000Y-48102560D01*
X98450000Y-48102560D01*
X98202235Y-48151843D01*
X97992191Y-48292191D01*
X97851843Y-48502235D01*
X97842816Y-48547619D01*
X97830625Y-48529375D01*
X97339418Y-48201161D01*
X96906256Y-48115000D01*
X96613744Y-48115000D01*
X96180582Y-48201161D01*
X95689375Y-48529375D01*
X95490000Y-48827761D01*
X95290625Y-48529375D01*
X94799418Y-48201161D01*
X94366256Y-48115000D01*
X94073744Y-48115000D01*
X93640582Y-48201161D01*
X93149375Y-48529375D01*
X92950000Y-48827761D01*
X92750625Y-48529375D01*
X92259418Y-48201161D01*
X91826256Y-48115000D01*
X91533744Y-48115000D01*
X91100582Y-48201161D01*
X90609375Y-48529375D01*
X90396157Y-48848478D01*
X90335183Y-48718642D01*
X89906924Y-48328355D01*
X89496890Y-48158524D01*
X89267000Y-48279845D01*
X89013000Y-48279845D01*
X88783110Y-48158524D01*
X88373076Y-48328355D01*
X87944817Y-48718642D01*
X87883843Y-48848478D01*
X87670625Y-48529375D01*
X87179418Y-48201161D01*
X86746256Y-48115000D01*
X86453744Y-48115000D01*
X86020582Y-48201161D01*
X85529375Y-48529375D01*
X85330000Y-48827761D01*
X85130625Y-48529375D01*
X84639418Y-48201161D01*
X84206256Y-48115000D01*
X83913744Y-48115000D01*
X83480582Y-48201161D01*
X82989375Y-48529375D01*
X82790000Y-48827761D01*
X82590625Y-48529375D01*
X82099418Y-48201161D01*
X81666256Y-48115000D01*
X81373744Y-48115000D01*
X80940582Y-48201161D01*
X80449375Y-48529375D01*
X80250000Y-48827761D01*
X80050625Y-48529375D01*
X79559418Y-48201161D01*
X79126256Y-48115000D01*
X78833744Y-48115000D01*
X78400582Y-48201161D01*
X77909375Y-48529375D01*
X77710000Y-48827761D01*
X77510625Y-48529375D01*
X77019418Y-48201161D01*
X76586256Y-48115000D01*
X76293744Y-48115000D01*
X75860582Y-48201161D01*
X75369375Y-48529375D01*
X75170000Y-48827761D01*
X74970625Y-48529375D01*
X74479418Y-48201161D01*
X74046256Y-48115000D01*
X73753744Y-48115000D01*
X73320582Y-48201161D01*
X72829375Y-48529375D01*
X72630000Y-48827761D01*
X72430625Y-48529375D01*
X71939418Y-48201161D01*
X71506256Y-48115000D01*
X71213744Y-48115000D01*
X70780582Y-48201161D01*
X70289375Y-48529375D01*
X70090000Y-48827761D01*
X69890625Y-48529375D01*
X69399418Y-48201161D01*
X68966256Y-48115000D01*
X68673744Y-48115000D01*
X68240582Y-48201161D01*
X67749375Y-48529375D01*
X67550000Y-48827761D01*
X67350625Y-48529375D01*
X66859418Y-48201161D01*
X66426256Y-48115000D01*
X66133744Y-48115000D01*
X65700582Y-48201161D01*
X65209375Y-48529375D01*
X64996157Y-48848478D01*
X64935183Y-48718642D01*
X64506924Y-48328355D01*
X64096890Y-48158524D01*
X63867000Y-48279845D01*
X63867000Y-49473000D01*
X63887000Y-49473000D01*
X63887000Y-49727000D01*
X63867000Y-49727000D01*
X63867000Y-50920155D01*
X64096890Y-51041476D01*
X64506924Y-50871645D01*
X64935183Y-50481358D01*
X64996157Y-50351522D01*
X65209375Y-50670625D01*
X65700582Y-50998839D01*
X66133744Y-51085000D01*
X66426256Y-51085000D01*
X66859418Y-50998839D01*
X67350625Y-50670625D01*
X67550000Y-50372239D01*
X67749375Y-50670625D01*
X67998922Y-50837367D01*
X67922569Y-50913720D01*
X67765000Y-51294126D01*
X67765000Y-51705874D01*
X67922569Y-52086280D01*
X67965000Y-52128711D01*
X67965000Y-52201769D01*
X67948643Y-52284002D01*
X67965000Y-52366235D01*
X67965000Y-52366238D01*
X68013448Y-52609802D01*
X68197999Y-52886003D01*
X68267720Y-52932589D01*
X70967413Y-55632283D01*
X71013997Y-55702001D01*
X71290197Y-55886552D01*
X71533761Y-55935000D01*
X71615998Y-55951358D01*
X71698235Y-55935000D01*
X71871289Y-55935000D01*
X71913720Y-55977431D01*
X72294126Y-56135000D01*
X72354133Y-56135000D01*
X72384133Y-56165000D01*
X64798711Y-56165000D01*
X65077431Y-55886280D01*
X65235000Y-55505874D01*
X65235000Y-55445867D01*
X66445869Y-54235000D01*
X66605874Y-54235000D01*
X66986280Y-54077431D01*
X67277431Y-53786280D01*
X67435000Y-53405874D01*
X67435000Y-52994126D01*
X67277431Y-52613720D01*
X66986280Y-52322569D01*
X66605874Y-52165000D01*
X66194126Y-52165000D01*
X65813720Y-52322569D01*
X65522569Y-52613720D01*
X65393280Y-52925851D01*
X64054133Y-54265000D01*
X63994126Y-54265000D01*
X63613720Y-54422569D01*
X63322569Y-54713720D01*
X63165000Y-55094126D01*
X63165000Y-55505874D01*
X63322569Y-55886280D01*
X63601289Y-56165000D01*
X60682237Y-56165000D01*
X60600000Y-56148642D01*
X60517763Y-56165000D01*
X60274199Y-56213448D01*
X59997999Y-56397999D01*
X59951415Y-56467717D01*
X57554133Y-58865000D01*
X56987974Y-58865000D01*
X56870625Y-58689375D01*
X56551522Y-58476157D01*
X56681358Y-58415183D01*
X57071645Y-57986924D01*
X57241476Y-57576890D01*
X57120155Y-57347000D01*
X55927000Y-57347000D01*
X55927000Y-57367000D01*
X55673000Y-57367000D01*
X55673000Y-57347000D01*
X54479845Y-57347000D01*
X54358524Y-57576890D01*
X54528355Y-57986924D01*
X54918642Y-58415183D01*
X55048478Y-58476157D01*
X54729375Y-58689375D01*
X54585000Y-58905447D01*
X54585000Y-58525594D01*
X54221905Y-57649006D01*
X53550994Y-56978095D01*
X52674406Y-56615000D01*
X51725594Y-56615000D01*
X51121399Y-56865266D01*
X51121399Y-52140000D01*
X54285908Y-52140000D01*
X54401161Y-52719418D01*
X54729375Y-53210625D01*
X55027761Y-53410000D01*
X54729375Y-53609375D01*
X54401161Y-54100582D01*
X54285908Y-54680000D01*
X54401161Y-55259418D01*
X54729375Y-55750625D01*
X55048478Y-55963843D01*
X54918642Y-56024817D01*
X54528355Y-56453076D01*
X54358524Y-56863110D01*
X54479845Y-57093000D01*
X55673000Y-57093000D01*
X55673000Y-57073000D01*
X55927000Y-57073000D01*
X55927000Y-57093000D01*
X57120155Y-57093000D01*
X57241476Y-56863110D01*
X57071645Y-56453076D01*
X56681358Y-56024817D01*
X56551522Y-55963843D01*
X56870625Y-55750625D01*
X57198839Y-55259418D01*
X57314092Y-54680000D01*
X57198839Y-54100582D01*
X56870625Y-53609375D01*
X56572239Y-53410000D01*
X56870625Y-53210625D01*
X57198839Y-52719418D01*
X57314092Y-52140000D01*
X57198839Y-51560582D01*
X56870625Y-51069375D01*
X56852381Y-51057184D01*
X56897765Y-51048157D01*
X57107809Y-50907809D01*
X57248157Y-50697765D01*
X57297440Y-50450000D01*
X57297440Y-49600000D01*
X59685908Y-49600000D01*
X59801161Y-50179418D01*
X60129375Y-50670625D01*
X60620582Y-50998839D01*
X61053744Y-51085000D01*
X61346256Y-51085000D01*
X61779418Y-50998839D01*
X62270625Y-50670625D01*
X62483843Y-50351522D01*
X62544817Y-50481358D01*
X62973076Y-50871645D01*
X63383110Y-51041476D01*
X63613000Y-50920155D01*
X63613000Y-49727000D01*
X63593000Y-49727000D01*
X63593000Y-49473000D01*
X63613000Y-49473000D01*
X63613000Y-48279845D01*
X63383110Y-48158524D01*
X62973076Y-48328355D01*
X62544817Y-48718642D01*
X62483843Y-48848478D01*
X62270625Y-48529375D01*
X61779418Y-48201161D01*
X61346256Y-48115000D01*
X61053744Y-48115000D01*
X60620582Y-48201161D01*
X60129375Y-48529375D01*
X59801161Y-49020582D01*
X59685908Y-49600000D01*
X57297440Y-49600000D01*
X57297440Y-48750000D01*
X57248157Y-48502235D01*
X57107809Y-48292191D01*
X56897765Y-48151843D01*
X56650000Y-48102560D01*
X54950000Y-48102560D01*
X54702235Y-48151843D01*
X54492191Y-48292191D01*
X54351843Y-48502235D01*
X54302560Y-48750000D01*
X54302560Y-50450000D01*
X54351843Y-50697765D01*
X54492191Y-50907809D01*
X54702235Y-51048157D01*
X54747619Y-51057184D01*
X54729375Y-51069375D01*
X54401161Y-51560582D01*
X54285908Y-52140000D01*
X51121399Y-52140000D01*
X51121399Y-46127000D01*
X104867399Y-46127000D01*
X104867399Y-56694941D01*
X104867399Y-56694941D01*
G37*
X104867399Y-56694941D02*
X104674406Y-56615000D01*
X103725594Y-56615000D01*
X102849006Y-56978095D01*
X102178095Y-57649006D01*
X101815000Y-58525594D01*
X101815000Y-59474406D01*
X102178095Y-60350994D01*
X102849006Y-61021905D01*
X103725594Y-61385000D01*
X104674406Y-61385000D01*
X104867399Y-61305059D01*
X104867399Y-100694940D01*
X104674406Y-100615000D01*
X103725594Y-100615000D01*
X102849006Y-100978095D01*
X102178095Y-101649006D01*
X101815000Y-102525594D01*
X101815000Y-103474406D01*
X102178095Y-104350994D01*
X102849006Y-105021905D01*
X103725594Y-105385000D01*
X104674406Y-105385000D01*
X104867399Y-105305060D01*
X104867399Y-107873000D01*
X99027000Y-107873000D01*
X99027000Y-102853867D01*
X102882284Y-98998584D01*
X102952002Y-98952000D01*
X103136553Y-98675800D01*
X103185001Y-98432236D01*
X103201359Y-98349999D01*
X103185001Y-98267762D01*
X103185001Y-94025000D01*
X103346256Y-94025000D01*
X103779418Y-93938839D01*
X104270625Y-93610625D01*
X104598839Y-93119418D01*
X104714092Y-92540000D01*
X104598839Y-91960582D01*
X104270625Y-91469375D01*
X104252381Y-91457184D01*
X104297765Y-91448157D01*
X104507809Y-91307809D01*
X104648157Y-91097765D01*
X104697440Y-90850000D01*
X104697440Y-89150000D01*
X104648157Y-88902235D01*
X104507809Y-88692191D01*
X104297765Y-88551843D01*
X104050000Y-88502560D01*
X102350000Y-88502560D01*
X102102235Y-88551843D01*
X101892191Y-88692191D01*
X101751843Y-88902235D01*
X101702560Y-89150000D01*
X101702560Y-89197861D01*
X101624199Y-89213448D01*
X101347999Y-89397999D01*
X101301415Y-89467717D01*
X98767718Y-92001415D01*
X98698000Y-92047999D01*
X98651416Y-92117717D01*
X98513448Y-92324200D01*
X98448643Y-92650000D01*
X98465001Y-92732238D01*
X98465000Y-96973000D01*
X87207868Y-96973000D01*
X87858428Y-96322440D01*
X88056250Y-96322440D01*
X88397294Y-96254602D01*
X88686416Y-96061416D01*
X88879602Y-95772294D01*
X88947440Y-95431250D01*
X88947440Y-94943750D01*
X88879602Y-94602706D01*
X88686416Y-94313584D01*
X88591256Y-94250000D01*
X88686416Y-94186416D01*
X88879602Y-93897294D01*
X88947440Y-93556250D01*
X88947440Y-93068750D01*
X88879602Y-92727706D01*
X88699259Y-92457805D01*
X88747765Y-92448157D01*
X88957809Y-92307809D01*
X89098157Y-92097765D01*
X89147440Y-91850000D01*
X89147440Y-90050000D01*
X89098157Y-89802235D01*
X88957809Y-89592191D01*
X88747765Y-89451843D01*
X88732092Y-89448725D01*
X88901310Y-89279507D01*
X89130748Y-88725594D01*
X91015000Y-88725594D01*
X91015000Y-89674406D01*
X91378095Y-90550994D01*
X92049006Y-91221905D01*
X92358254Y-91350000D01*
X92049006Y-91478095D01*
X91378095Y-92149006D01*
X91015000Y-93025594D01*
X91015000Y-93974406D01*
X91378095Y-94850994D01*
X92049006Y-95521905D01*
X92925594Y-95885000D01*
X93874406Y-95885000D01*
X94750994Y-95521905D01*
X95421905Y-94850994D01*
X95785000Y-93974406D01*
X95785000Y-93025594D01*
X95421905Y-92149006D01*
X94750994Y-91478095D01*
X94441746Y-91350000D01*
X94750994Y-91221905D01*
X95421905Y-90550994D01*
X95785000Y-89674406D01*
X95785000Y-88725594D01*
X95421905Y-87849006D01*
X94750994Y-87178095D01*
X93874406Y-86815000D01*
X92925594Y-86815000D01*
X92049006Y-87178095D01*
X91378095Y-87849006D01*
X91015000Y-88725594D01*
X89130748Y-88725594D01*
X89135000Y-88715330D01*
X89135000Y-88104670D01*
X88901310Y-87540493D01*
X88469507Y-87108690D01*
X87905330Y-86875000D01*
X87294670Y-86875000D01*
X86730493Y-87108690D01*
X86298690Y-87540493D01*
X86065000Y-88104670D01*
X86065000Y-88715330D01*
X86298690Y-89279507D01*
X86467908Y-89448725D01*
X86452235Y-89451843D01*
X86242191Y-89592191D01*
X86101843Y-89802235D01*
X86052560Y-90050000D01*
X86052560Y-91850000D01*
X86101843Y-92097765D01*
X86242191Y-92307809D01*
X86452235Y-92448157D01*
X86500741Y-92457805D01*
X86320398Y-92727706D01*
X86252560Y-93068750D01*
X86252560Y-93556250D01*
X86320398Y-93897294D01*
X86513584Y-94186416D01*
X86608744Y-94250000D01*
X86513584Y-94313584D01*
X86479229Y-94365000D01*
X79187362Y-94365000D01*
X79186416Y-94363584D01*
X79091256Y-94300000D01*
X79186416Y-94236416D01*
X79379602Y-93947294D01*
X79447440Y-93606250D01*
X79447440Y-93118750D01*
X79379602Y-92777706D01*
X79186416Y-92488584D01*
X79176209Y-92481764D01*
X79271765Y-92462757D01*
X79481809Y-92322409D01*
X79622157Y-92112365D01*
X79671440Y-91864600D01*
X79671440Y-90064600D01*
X79622157Y-89816835D01*
X79481809Y-89606791D01*
X79271765Y-89466443D01*
X79256092Y-89463325D01*
X79425310Y-89294107D01*
X79659000Y-88729930D01*
X79659000Y-88119270D01*
X79425310Y-87555093D01*
X78993507Y-87123290D01*
X78429330Y-86889600D01*
X77818670Y-86889600D01*
X77254493Y-87123290D01*
X76822690Y-87555093D01*
X76777165Y-87665000D01*
X71545868Y-87665000D01*
X68415867Y-84535000D01*
X72602560Y-84535000D01*
X72602560Y-84550000D01*
X72651843Y-84797765D01*
X72792191Y-85007809D01*
X73002235Y-85148157D01*
X73250000Y-85197440D01*
X74950000Y-85197440D01*
X75197765Y-85148157D01*
X75407809Y-85007809D01*
X75548157Y-84797765D01*
X75557184Y-84752381D01*
X75569375Y-84770625D01*
X76060582Y-85098839D01*
X76493744Y-85185000D01*
X76786256Y-85185000D01*
X77219418Y-85098839D01*
X77710625Y-84770625D01*
X77910000Y-84472239D01*
X78109375Y-84770625D01*
X78600582Y-85098839D01*
X79033744Y-85185000D01*
X79326256Y-85185000D01*
X79759418Y-85098839D01*
X80250625Y-84770625D01*
X80408065Y-84535000D01*
X88717767Y-84535000D01*
X88800000Y-84551357D01*
X88882233Y-84535000D01*
X88882237Y-84535000D01*
X89125801Y-84486552D01*
X89402001Y-84302001D01*
X89448587Y-84232280D01*
X94332283Y-79348585D01*
X94402001Y-79302001D01*
X94586552Y-79025801D01*
X94635000Y-78782237D01*
X94635000Y-78782236D01*
X94651358Y-78700000D01*
X94635000Y-78617763D01*
X94635000Y-68305533D01*
X94797765Y-68273157D01*
X95007809Y-68132809D01*
X95148157Y-67922765D01*
X95197440Y-67675000D01*
X95197440Y-67125000D01*
X95176783Y-67021148D01*
X95185000Y-67001310D01*
X95185000Y-66885750D01*
X95091112Y-66791862D01*
X95007809Y-66667191D01*
X94907251Y-66600000D01*
X95007809Y-66532809D01*
X95091112Y-66408138D01*
X95185000Y-66314250D01*
X95185000Y-66285750D01*
X98715000Y-66285750D01*
X98715000Y-66976310D01*
X98811673Y-67209699D01*
X98990302Y-67388327D01*
X99223691Y-67485000D01*
X99914250Y-67485000D01*
X100073000Y-67326250D01*
X100073000Y-66127000D01*
X100327000Y-66127000D01*
X100327000Y-67326250D01*
X100485750Y-67485000D01*
X101176309Y-67485000D01*
X101409698Y-67388327D01*
X101588327Y-67209699D01*
X101685000Y-66976310D01*
X101685000Y-66285750D01*
X101526250Y-66127000D01*
X100327000Y-66127000D01*
X100073000Y-66127000D01*
X98873750Y-66127000D01*
X98715000Y-66285750D01*
X95185000Y-66285750D01*
X95185000Y-66198690D01*
X95176783Y-66178852D01*
X95197440Y-66075000D01*
X95197440Y-65835000D01*
X95605874Y-65835000D01*
X95986280Y-65677431D01*
X96277431Y-65386280D01*
X96435000Y-65005874D01*
X96435000Y-64594126D01*
X96311098Y-64295000D01*
X98971935Y-64295000D01*
X99129375Y-64530625D01*
X99151033Y-64545096D01*
X98990302Y-64611673D01*
X98811673Y-64790301D01*
X98715000Y-65023690D01*
X98715000Y-65714250D01*
X98873750Y-65873000D01*
X100073000Y-65873000D01*
X100073000Y-65853000D01*
X100327000Y-65853000D01*
X100327000Y-65873000D01*
X101526250Y-65873000D01*
X101685000Y-65714250D01*
X101685000Y-65023690D01*
X101588327Y-64790301D01*
X101409698Y-64611673D01*
X101248967Y-64545096D01*
X101270625Y-64530625D01*
X101598839Y-64039418D01*
X101714092Y-63460000D01*
X101598839Y-62880582D01*
X101270625Y-62389375D01*
X100779418Y-62061161D01*
X100346256Y-61975000D01*
X100053744Y-61975000D01*
X99620582Y-62061161D01*
X99129375Y-62389375D01*
X98971935Y-62625000D01*
X95197440Y-62625000D01*
X95197440Y-62325000D01*
X95172576Y-62199999D01*
X95197440Y-62075000D01*
X95197440Y-61525000D01*
X95148157Y-61277235D01*
X95007809Y-61067191D01*
X94797765Y-60926843D01*
X94550000Y-60877560D01*
X93222440Y-60877560D01*
X93222440Y-59550000D01*
X93173157Y-59302235D01*
X93032809Y-59092191D01*
X92822765Y-58951843D01*
X92575000Y-58902560D01*
X92128308Y-58902560D01*
X92395869Y-58635000D01*
X93317767Y-58635000D01*
X93400000Y-58651357D01*
X93482233Y-58635000D01*
X93482237Y-58635000D01*
X93725801Y-58586552D01*
X94002001Y-58402001D01*
X94048587Y-58332280D01*
X94345867Y-58035000D01*
X94405874Y-58035000D01*
X94786280Y-57877431D01*
X95077431Y-57586280D01*
X95235000Y-57205874D01*
X95235000Y-56794126D01*
X95077431Y-56413720D01*
X94786280Y-56122569D01*
X94405874Y-55965000D01*
X93994126Y-55965000D01*
X93613720Y-56122569D01*
X93322569Y-56413720D01*
X93165000Y-56794126D01*
X93165000Y-56854133D01*
X93054133Y-56965000D01*
X92735000Y-56965000D01*
X92735000Y-56694126D01*
X92577431Y-56313720D01*
X92286280Y-56022569D01*
X91905874Y-55865000D01*
X91494126Y-55865000D01*
X91113720Y-56022569D01*
X90822569Y-56313720D01*
X90665000Y-56694126D01*
X90665000Y-56754132D01*
X90400153Y-57018979D01*
X90447440Y-56781250D01*
X90447440Y-56293750D01*
X90379602Y-55952706D01*
X90186416Y-55663584D01*
X90185233Y-55662793D01*
X90338327Y-55509698D01*
X90435000Y-55276309D01*
X90435000Y-54948250D01*
X90276250Y-54789500D01*
X89227000Y-54789500D01*
X89227000Y-54809500D01*
X88973000Y-54809500D01*
X88973000Y-54789500D01*
X87923750Y-54789500D01*
X87765000Y-54948250D01*
X87765000Y-55262569D01*
X87691486Y-55213448D01*
X87447922Y-55165000D01*
X87447918Y-55165000D01*
X87423942Y-55160231D01*
X87386280Y-55122569D01*
X87005874Y-54965000D01*
X86594126Y-54965000D01*
X86213720Y-55122569D01*
X85922569Y-55413720D01*
X85870439Y-55539572D01*
X84379558Y-54048691D01*
X87765000Y-54048691D01*
X87765000Y-54376750D01*
X87923750Y-54535500D01*
X88973000Y-54535500D01*
X88973000Y-53698750D01*
X89227000Y-53698750D01*
X89227000Y-54535500D01*
X90276250Y-54535500D01*
X90435000Y-54376750D01*
X90435000Y-54048691D01*
X90338327Y-53815302D01*
X90159699Y-53636673D01*
X89926310Y-53540000D01*
X89385750Y-53540000D01*
X89227000Y-53698750D01*
X88973000Y-53698750D01*
X88814250Y-53540000D01*
X88273690Y-53540000D01*
X88040301Y-53636673D01*
X87861673Y-53815302D01*
X87765000Y-54048691D01*
X84379558Y-54048691D01*
X82998587Y-52667720D01*
X82952001Y-52597999D01*
X82675801Y-52413448D01*
X82432237Y-52365000D01*
X82432233Y-52365000D01*
X82350000Y-52348643D01*
X82267767Y-52365000D01*
X75305868Y-52365000D01*
X74025868Y-51085000D01*
X74046256Y-51085000D01*
X74479418Y-50998839D01*
X74970625Y-50670625D01*
X75170000Y-50372239D01*
X75369375Y-50670625D01*
X75860582Y-50998839D01*
X76293744Y-51085000D01*
X76586256Y-51085000D01*
X77019418Y-50998839D01*
X77510625Y-50670625D01*
X77710000Y-50372239D01*
X77909375Y-50670625D01*
X78400582Y-50998839D01*
X78833744Y-51085000D01*
X79126256Y-51085000D01*
X79559418Y-50998839D01*
X80050625Y-50670625D01*
X80250000Y-50372239D01*
X80449375Y-50670625D01*
X80940582Y-50998839D01*
X81373744Y-51085000D01*
X81666256Y-51085000D01*
X82099418Y-50998839D01*
X82590625Y-50670625D01*
X82790000Y-50372239D01*
X82989375Y-50670625D01*
X83480582Y-50998839D01*
X83913744Y-51085000D01*
X84206256Y-51085000D01*
X84639418Y-50998839D01*
X85130625Y-50670625D01*
X85330000Y-50372239D01*
X85529375Y-50670625D01*
X86020582Y-50998839D01*
X86453744Y-51085000D01*
X86746256Y-51085000D01*
X87179418Y-50998839D01*
X87670625Y-50670625D01*
X87883843Y-50351522D01*
X87944817Y-50481358D01*
X88373076Y-50871645D01*
X88783110Y-51041476D01*
X89013000Y-50920155D01*
X89013000Y-49727000D01*
X88993000Y-49727000D01*
X88993000Y-49473000D01*
X89013000Y-49473000D01*
X89013000Y-48279845D01*
X89267000Y-48279845D01*
X89267000Y-49473000D01*
X89287000Y-49473000D01*
X89287000Y-49727000D01*
X89267000Y-49727000D01*
X89267000Y-50920155D01*
X89496890Y-51041476D01*
X89906924Y-50871645D01*
X90335183Y-50481358D01*
X90396157Y-50351522D01*
X90609375Y-50670625D01*
X91100582Y-50998839D01*
X91533744Y-51085000D01*
X91826256Y-51085000D01*
X92259418Y-50998839D01*
X92750625Y-50670625D01*
X92950000Y-50372239D01*
X93149375Y-50670625D01*
X93640582Y-50998839D01*
X94073744Y-51085000D01*
X94366256Y-51085000D01*
X94799418Y-50998839D01*
X95290625Y-50670625D01*
X95490000Y-50372239D01*
X95689375Y-50670625D01*
X96180582Y-50998839D01*
X96613744Y-51085000D01*
X96906256Y-51085000D01*
X97339418Y-50998839D01*
X97830625Y-50670625D01*
X97842816Y-50652381D01*
X97851843Y-50697765D01*
X97992191Y-50907809D01*
X98202235Y-51048157D01*
X98450000Y-51097440D01*
X100150000Y-51097440D01*
X100397765Y-51048157D01*
X100607809Y-50907809D01*
X100748157Y-50697765D01*
X100797440Y-50450000D01*
X100797440Y-48750000D01*
X100748157Y-48502235D01*
X100607809Y-48292191D01*
X100397765Y-48151843D01*
X100150000Y-48102560D01*
X98450000Y-48102560D01*
X98202235Y-48151843D01*
X97992191Y-48292191D01*
X97851843Y-48502235D01*
X97842816Y-48547619D01*
X97830625Y-48529375D01*
X97339418Y-48201161D01*
X96906256Y-48115000D01*
X96613744Y-48115000D01*
X96180582Y-48201161D01*
X95689375Y-48529375D01*
X95490000Y-48827761D01*
X95290625Y-48529375D01*
X94799418Y-48201161D01*
X94366256Y-48115000D01*
X94073744Y-48115000D01*
X93640582Y-48201161D01*
X93149375Y-48529375D01*
X92950000Y-48827761D01*
X92750625Y-48529375D01*
X92259418Y-48201161D01*
X91826256Y-48115000D01*
X91533744Y-48115000D01*
X91100582Y-48201161D01*
X90609375Y-48529375D01*
X90396157Y-48848478D01*
X90335183Y-48718642D01*
X89906924Y-48328355D01*
X89496890Y-48158524D01*
X89267000Y-48279845D01*
X89013000Y-48279845D01*
X88783110Y-48158524D01*
X88373076Y-48328355D01*
X87944817Y-48718642D01*
X87883843Y-48848478D01*
X87670625Y-48529375D01*
X87179418Y-48201161D01*
X86746256Y-48115000D01*
X86453744Y-48115000D01*
X86020582Y-48201161D01*
X85529375Y-48529375D01*
X85330000Y-48827761D01*
X85130625Y-48529375D01*
X84639418Y-48201161D01*
X84206256Y-48115000D01*
X83913744Y-48115000D01*
X83480582Y-48201161D01*
X82989375Y-48529375D01*
X82790000Y-48827761D01*
X82590625Y-48529375D01*
X82099418Y-48201161D01*
X81666256Y-48115000D01*
X81373744Y-48115000D01*
X80940582Y-48201161D01*
X80449375Y-48529375D01*
X80250000Y-48827761D01*
X80050625Y-48529375D01*
X79559418Y-48201161D01*
X79126256Y-48115000D01*
X78833744Y-48115000D01*
X78400582Y-48201161D01*
X77909375Y-48529375D01*
X77710000Y-48827761D01*
X77510625Y-48529375D01*
X77019418Y-48201161D01*
X76586256Y-48115000D01*
X76293744Y-48115000D01*
X75860582Y-48201161D01*
X75369375Y-48529375D01*
X75170000Y-48827761D01*
X74970625Y-48529375D01*
X74479418Y-48201161D01*
X74046256Y-48115000D01*
X73753744Y-48115000D01*
X73320582Y-48201161D01*
X72829375Y-48529375D01*
X72630000Y-48827761D01*
X72430625Y-48529375D01*
X71939418Y-48201161D01*
X71506256Y-48115000D01*
X71213744Y-48115000D01*
X70780582Y-48201161D01*
X70289375Y-48529375D01*
X70090000Y-48827761D01*
X69890625Y-48529375D01*
X69399418Y-48201161D01*
X68966256Y-48115000D01*
X68673744Y-48115000D01*
X68240582Y-48201161D01*
X67749375Y-48529375D01*
X67550000Y-48827761D01*
X67350625Y-48529375D01*
X66859418Y-48201161D01*
X66426256Y-48115000D01*
X66133744Y-48115000D01*
X65700582Y-48201161D01*
X65209375Y-48529375D01*
X64996157Y-48848478D01*
X64935183Y-48718642D01*
X64506924Y-48328355D01*
X64096890Y-48158524D01*
X63867000Y-48279845D01*
X63867000Y-49473000D01*
X63887000Y-49473000D01*
X63887000Y-49727000D01*
X63867000Y-49727000D01*
X63867000Y-50920155D01*
X64096890Y-51041476D01*
X64506924Y-50871645D01*
X64935183Y-50481358D01*
X64996157Y-50351522D01*
X65209375Y-50670625D01*
X65700582Y-50998839D01*
X66133744Y-51085000D01*
X66426256Y-51085000D01*
X66859418Y-50998839D01*
X67350625Y-50670625D01*
X67550000Y-50372239D01*
X67749375Y-50670625D01*
X67998922Y-50837367D01*
X67922569Y-50913720D01*
X67765000Y-51294126D01*
X67765000Y-51705874D01*
X67922569Y-52086280D01*
X67965000Y-52128711D01*
X67965000Y-52201769D01*
X67948643Y-52284002D01*
X67965000Y-52366235D01*
X67965000Y-52366238D01*
X68013448Y-52609802D01*
X68197999Y-52886003D01*
X68267720Y-52932589D01*
X70967413Y-55632283D01*
X71013997Y-55702001D01*
X71290197Y-55886552D01*
X71533761Y-55935000D01*
X71615998Y-55951358D01*
X71698235Y-55935000D01*
X71871289Y-55935000D01*
X71913720Y-55977431D01*
X72294126Y-56135000D01*
X72354133Y-56135000D01*
X72384133Y-56165000D01*
X64798711Y-56165000D01*
X65077431Y-55886280D01*
X65235000Y-55505874D01*
X65235000Y-55445867D01*
X66445869Y-54235000D01*
X66605874Y-54235000D01*
X66986280Y-54077431D01*
X67277431Y-53786280D01*
X67435000Y-53405874D01*
X67435000Y-52994126D01*
X67277431Y-52613720D01*
X66986280Y-52322569D01*
X66605874Y-52165000D01*
X66194126Y-52165000D01*
X65813720Y-52322569D01*
X65522569Y-52613720D01*
X65393280Y-52925851D01*
X64054133Y-54265000D01*
X63994126Y-54265000D01*
X63613720Y-54422569D01*
X63322569Y-54713720D01*
X63165000Y-55094126D01*
X63165000Y-55505874D01*
X63322569Y-55886280D01*
X63601289Y-56165000D01*
X60682237Y-56165000D01*
X60600000Y-56148642D01*
X60517763Y-56165000D01*
X60274199Y-56213448D01*
X59997999Y-56397999D01*
X59951415Y-56467717D01*
X57554133Y-58865000D01*
X56987974Y-58865000D01*
X56870625Y-58689375D01*
X56551522Y-58476157D01*
X56681358Y-58415183D01*
X57071645Y-57986924D01*
X57241476Y-57576890D01*
X57120155Y-57347000D01*
X55927000Y-57347000D01*
X55927000Y-57367000D01*
X55673000Y-57367000D01*
X55673000Y-57347000D01*
X54479845Y-57347000D01*
X54358524Y-57576890D01*
X54528355Y-57986924D01*
X54918642Y-58415183D01*
X55048478Y-58476157D01*
X54729375Y-58689375D01*
X54585000Y-58905447D01*
X54585000Y-58525594D01*
X54221905Y-57649006D01*
X53550994Y-56978095D01*
X52674406Y-56615000D01*
X51725594Y-56615000D01*
X51121399Y-56865266D01*
X51121399Y-52140000D01*
X54285908Y-52140000D01*
X54401161Y-52719418D01*
X54729375Y-53210625D01*
X55027761Y-53410000D01*
X54729375Y-53609375D01*
X54401161Y-54100582D01*
X54285908Y-54680000D01*
X54401161Y-55259418D01*
X54729375Y-55750625D01*
X55048478Y-55963843D01*
X54918642Y-56024817D01*
X54528355Y-56453076D01*
X54358524Y-56863110D01*
X54479845Y-57093000D01*
X55673000Y-57093000D01*
X55673000Y-57073000D01*
X55927000Y-57073000D01*
X55927000Y-57093000D01*
X57120155Y-57093000D01*
X57241476Y-56863110D01*
X57071645Y-56453076D01*
X56681358Y-56024817D01*
X56551522Y-55963843D01*
X56870625Y-55750625D01*
X57198839Y-55259418D01*
X57314092Y-54680000D01*
X57198839Y-54100582D01*
X56870625Y-53609375D01*
X56572239Y-53410000D01*
X56870625Y-53210625D01*
X57198839Y-52719418D01*
X57314092Y-52140000D01*
X57198839Y-51560582D01*
X56870625Y-51069375D01*
X56852381Y-51057184D01*
X56897765Y-51048157D01*
X57107809Y-50907809D01*
X57248157Y-50697765D01*
X57297440Y-50450000D01*
X57297440Y-49600000D01*
X59685908Y-49600000D01*
X59801161Y-50179418D01*
X60129375Y-50670625D01*
X60620582Y-50998839D01*
X61053744Y-51085000D01*
X61346256Y-51085000D01*
X61779418Y-50998839D01*
X62270625Y-50670625D01*
X62483843Y-50351522D01*
X62544817Y-50481358D01*
X62973076Y-50871645D01*
X63383110Y-51041476D01*
X63613000Y-50920155D01*
X63613000Y-49727000D01*
X63593000Y-49727000D01*
X63593000Y-49473000D01*
X63613000Y-49473000D01*
X63613000Y-48279845D01*
X63383110Y-48158524D01*
X62973076Y-48328355D01*
X62544817Y-48718642D01*
X62483843Y-48848478D01*
X62270625Y-48529375D01*
X61779418Y-48201161D01*
X61346256Y-48115000D01*
X61053744Y-48115000D01*
X60620582Y-48201161D01*
X60129375Y-48529375D01*
X59801161Y-49020582D01*
X59685908Y-49600000D01*
X57297440Y-49600000D01*
X57297440Y-48750000D01*
X57248157Y-48502235D01*
X57107809Y-48292191D01*
X56897765Y-48151843D01*
X56650000Y-48102560D01*
X54950000Y-48102560D01*
X54702235Y-48151843D01*
X54492191Y-48292191D01*
X54351843Y-48502235D01*
X54302560Y-48750000D01*
X54302560Y-50450000D01*
X54351843Y-50697765D01*
X54492191Y-50907809D01*
X54702235Y-51048157D01*
X54747619Y-51057184D01*
X54729375Y-51069375D01*
X54401161Y-51560582D01*
X54285908Y-52140000D01*
X51121399Y-52140000D01*
X51121399Y-46127000D01*
X104867399Y-46127000D01*
X104867399Y-56694941D01*
G36*
X86020623Y-59056489D02*
X85967191Y-59092191D01*
X85826843Y-59302235D01*
X85777560Y-59550000D01*
X85777560Y-60877560D01*
X84450000Y-60877560D01*
X84202235Y-60926843D01*
X83992191Y-61067191D01*
X83851843Y-61277235D01*
X83802560Y-61525000D01*
X83802560Y-62075000D01*
X83827424Y-62199999D01*
X83802560Y-62325000D01*
X83802560Y-62875000D01*
X83827424Y-63000000D01*
X83802560Y-63125000D01*
X83802560Y-63521693D01*
X83735000Y-63454133D01*
X83735000Y-63394126D01*
X83577431Y-63013720D01*
X83286280Y-62722569D01*
X82905874Y-62565000D01*
X82494126Y-62565000D01*
X82113720Y-62722569D01*
X81822569Y-63013720D01*
X81665000Y-63394126D01*
X81665000Y-63743473D01*
X79509247Y-61587720D01*
X79462661Y-61517999D01*
X79186461Y-61333448D01*
X78942897Y-61285000D01*
X78942893Y-61285000D01*
X78918918Y-61280231D01*
X78584540Y-60945853D01*
X78075494Y-60735000D01*
X77524506Y-60735000D01*
X77015460Y-60945853D01*
X76625853Y-61335460D01*
X76613617Y-61365000D01*
X74916993Y-61365000D01*
X74904602Y-61302706D01*
X74711416Y-61013584D01*
X74422294Y-60820398D01*
X74081250Y-60752560D01*
X73593750Y-60752560D01*
X73252706Y-60820398D01*
X72963584Y-61013584D01*
X72900000Y-61108744D01*
X72836416Y-61013584D01*
X72547294Y-60820398D01*
X72206250Y-60752560D01*
X71718750Y-60752560D01*
X71377706Y-60820398D01*
X71088584Y-61013584D01*
X70895398Y-61302706D01*
X70827560Y-61643750D01*
X70827560Y-62556250D01*
X70866602Y-62752529D01*
X70354132Y-63265000D01*
X70294126Y-63265000D01*
X69913720Y-63422569D01*
X69622569Y-63713720D01*
X69465000Y-64094126D01*
X69465000Y-64505874D01*
X69622569Y-64886280D01*
X69913720Y-65177431D01*
X70294126Y-65335000D01*
X70354132Y-65335000D01*
X71026152Y-66007020D01*
X70895398Y-66202706D01*
X70827560Y-66543750D01*
X70827560Y-67456250D01*
X70895398Y-67797294D01*
X71007456Y-67965000D01*
X68882237Y-67965000D01*
X68800000Y-67948642D01*
X68717763Y-67965000D01*
X68474199Y-68013448D01*
X68197999Y-68197999D01*
X68151415Y-68267717D01*
X63567718Y-72851415D01*
X63498000Y-72897999D01*
X63451416Y-72967717D01*
X63313448Y-73174200D01*
X63248643Y-73500000D01*
X63265001Y-73582238D01*
X63265001Y-77792102D01*
X62750994Y-77278095D01*
X61874406Y-76915000D01*
X60925594Y-76915000D01*
X60049006Y-77278095D01*
X59378095Y-77949006D01*
X59015000Y-78825594D01*
X59015000Y-79774406D01*
X59378095Y-80650994D01*
X60049006Y-81321905D01*
X60925594Y-81685000D01*
X61874406Y-81685000D01*
X62750994Y-81321905D01*
X63265000Y-80807899D01*
X63265000Y-82404975D01*
X63248643Y-82487208D01*
X63265000Y-82569441D01*
X63265000Y-82569444D01*
X63313448Y-82813008D01*
X63497999Y-83089209D01*
X63567720Y-83135795D01*
X67710554Y-87278629D01*
X67448690Y-87540493D01*
X67215000Y-88104670D01*
X67215000Y-88715330D01*
X67448690Y-89279507D01*
X67617908Y-89448725D01*
X67602235Y-89451843D01*
X67392191Y-89592191D01*
X67251843Y-89802235D01*
X67202560Y-90050000D01*
X67202560Y-91850000D01*
X67251843Y-92097765D01*
X67392191Y-92307809D01*
X67602235Y-92448157D01*
X67650741Y-92457805D01*
X67470398Y-92727706D01*
X67402560Y-93068750D01*
X67402560Y-93556250D01*
X67470398Y-93897294D01*
X67663584Y-94186416D01*
X67758744Y-94250000D01*
X67663584Y-94313584D01*
X67470398Y-94602706D01*
X67402560Y-94943750D01*
X67402560Y-95431250D01*
X67470398Y-95772294D01*
X67511029Y-95833103D01*
X65779133Y-97565000D01*
X64628711Y-97565000D01*
X64586280Y-97522569D01*
X64205874Y-97365000D01*
X63794126Y-97365000D01*
X63413720Y-97522569D01*
X63122569Y-97813720D01*
X62965000Y-98194126D01*
X62965000Y-98605874D01*
X63122569Y-98986280D01*
X63413720Y-99277431D01*
X63794126Y-99435000D01*
X64205874Y-99435000D01*
X64586280Y-99277431D01*
X64628711Y-99235000D01*
X66042767Y-99235000D01*
X66125000Y-99251357D01*
X66207233Y-99235000D01*
X66207237Y-99235000D01*
X66450801Y-99186552D01*
X66727001Y-99002001D01*
X66773587Y-98932280D01*
X69282283Y-96423585D01*
X69352001Y-96377001D01*
X69416387Y-96280641D01*
X69547294Y-96254602D01*
X69836416Y-96061416D01*
X69854067Y-96035000D01*
X76962524Y-96035000D01*
X77013584Y-96111416D01*
X77265001Y-96279408D01*
X77265000Y-96929131D01*
X77221131Y-96973000D01*
X72700000Y-96973000D01*
X72651399Y-96982667D01*
X72610197Y-97010197D01*
X72582667Y-97051399D01*
X72573000Y-97100000D01*
X72573000Y-107873000D01*
X70177054Y-107873000D01*
X70425000Y-107274406D01*
X70425000Y-106325594D01*
X70061905Y-105449006D01*
X69390994Y-104778095D01*
X68514406Y-104415000D01*
X67565594Y-104415000D01*
X66689006Y-104778095D01*
X66018095Y-105449006D01*
X65655000Y-106325594D01*
X65655000Y-107274406D01*
X65902946Y-107873000D01*
X51121399Y-107873000D01*
X51121399Y-105134734D01*
X51725594Y-105385000D01*
X52674406Y-105385000D01*
X53550994Y-105021905D01*
X54221905Y-104350994D01*
X54585000Y-103474406D01*
X54585000Y-102525594D01*
X54221905Y-101649006D01*
X53550994Y-100978095D01*
X52674406Y-100615000D01*
X51725594Y-100615000D01*
X51121399Y-100865266D01*
X51121399Y-61134734D01*
X51725594Y-61385000D01*
X52674406Y-61385000D01*
X53550994Y-61021905D01*
X54221905Y-60350994D01*
X54344562Y-60054874D01*
X54401161Y-60339418D01*
X54729375Y-60830625D01*
X55027761Y-61030000D01*
X54729375Y-61229375D01*
X54401161Y-61720582D01*
X54285908Y-62300000D01*
X54401161Y-62879418D01*
X54729375Y-63370625D01*
X55220582Y-63698839D01*
X55653744Y-63785000D01*
X55946256Y-63785000D01*
X56379418Y-63698839D01*
X56870625Y-63370625D01*
X57198839Y-62879418D01*
X57314092Y-62300000D01*
X57198839Y-61720582D01*
X56870625Y-61229375D01*
X56572239Y-61030000D01*
X56870625Y-60830625D01*
X57068155Y-60535000D01*
X57817767Y-60535000D01*
X57900000Y-60551357D01*
X57982233Y-60535000D01*
X57982237Y-60535000D01*
X58225801Y-60486552D01*
X58502001Y-60302001D01*
X58548587Y-60232280D01*
X60945868Y-57835000D01*
X76071289Y-57835000D01*
X76113720Y-57877431D01*
X76494126Y-58035000D01*
X76905874Y-58035000D01*
X77286280Y-57877431D01*
X77577431Y-57586280D01*
X77735000Y-57205874D01*
X77735000Y-57035000D01*
X83999135Y-57035000D01*
X86020623Y-59056489D01*
X86020623Y-59056489D01*
G37*
X86020623Y-59056489D02*
X85967191Y-59092191D01*
X85826843Y-59302235D01*
X85777560Y-59550000D01*
X85777560Y-60877560D01*
X84450000Y-60877560D01*
X84202235Y-60926843D01*
X83992191Y-61067191D01*
X83851843Y-61277235D01*
X83802560Y-61525000D01*
X83802560Y-62075000D01*
X83827424Y-62199999D01*
X83802560Y-62325000D01*
X83802560Y-62875000D01*
X83827424Y-63000000D01*
X83802560Y-63125000D01*
X83802560Y-63521693D01*
X83735000Y-63454133D01*
X83735000Y-63394126D01*
X83577431Y-63013720D01*
X83286280Y-62722569D01*
X82905874Y-62565000D01*
X82494126Y-62565000D01*
X82113720Y-62722569D01*
X81822569Y-63013720D01*
X81665000Y-63394126D01*
X81665000Y-63743473D01*
X79509247Y-61587720D01*
X79462661Y-61517999D01*
X79186461Y-61333448D01*
X78942897Y-61285000D01*
X78942893Y-61285000D01*
X78918918Y-61280231D01*
X78584540Y-60945853D01*
X78075494Y-60735000D01*
X77524506Y-60735000D01*
X77015460Y-60945853D01*
X76625853Y-61335460D01*
X76613617Y-61365000D01*
X74916993Y-61365000D01*
X74904602Y-61302706D01*
X74711416Y-61013584D01*
X74422294Y-60820398D01*
X74081250Y-60752560D01*
X73593750Y-60752560D01*
X73252706Y-60820398D01*
X72963584Y-61013584D01*
X72900000Y-61108744D01*
X72836416Y-61013584D01*
X72547294Y-60820398D01*
X72206250Y-60752560D01*
X71718750Y-60752560D01*
X71377706Y-60820398D01*
X71088584Y-61013584D01*
X70895398Y-61302706D01*
X70827560Y-61643750D01*
X70827560Y-62556250D01*
X70866602Y-62752529D01*
X70354132Y-63265000D01*
X70294126Y-63265000D01*
X69913720Y-63422569D01*
X69622569Y-63713720D01*
X69465000Y-64094126D01*
X69465000Y-64505874D01*
X69622569Y-64886280D01*
X69913720Y-65177431D01*
X70294126Y-65335000D01*
X70354132Y-65335000D01*
X71026152Y-66007020D01*
X70895398Y-66202706D01*
X70827560Y-66543750D01*
X70827560Y-67456250D01*
X70895398Y-67797294D01*
X71007456Y-67965000D01*
X68882237Y-67965000D01*
X68800000Y-67948642D01*
X68717763Y-67965000D01*
X68474199Y-68013448D01*
X68197999Y-68197999D01*
X68151415Y-68267717D01*
X63567718Y-72851415D01*
X63498000Y-72897999D01*
X63451416Y-72967717D01*
X63313448Y-73174200D01*
X63248643Y-73500000D01*
X63265001Y-73582238D01*
X63265001Y-77792102D01*
X62750994Y-77278095D01*
X61874406Y-76915000D01*
X60925594Y-76915000D01*
X60049006Y-77278095D01*
X59378095Y-77949006D01*
X59015000Y-78825594D01*
X59015000Y-79774406D01*
X59378095Y-80650994D01*
X60049006Y-81321905D01*
X60925594Y-81685000D01*
X61874406Y-81685000D01*
X62750994Y-81321905D01*
X63265000Y-80807899D01*
X63265000Y-82404975D01*
X63248643Y-82487208D01*
X63265000Y-82569441D01*
X63265000Y-82569444D01*
X63313448Y-82813008D01*
X63497999Y-83089209D01*
X63567720Y-83135795D01*
X67710554Y-87278629D01*
X67448690Y-87540493D01*
X67215000Y-88104670D01*
X67215000Y-88715330D01*
X67448690Y-89279507D01*
X67617908Y-89448725D01*
X67602235Y-89451843D01*
X67392191Y-89592191D01*
X67251843Y-89802235D01*
X67202560Y-90050000D01*
X67202560Y-91850000D01*
X67251843Y-92097765D01*
X67392191Y-92307809D01*
X67602235Y-92448157D01*
X67650741Y-92457805D01*
X67470398Y-92727706D01*
X67402560Y-93068750D01*
X67402560Y-93556250D01*
X67470398Y-93897294D01*
X67663584Y-94186416D01*
X67758744Y-94250000D01*
X67663584Y-94313584D01*
X67470398Y-94602706D01*
X67402560Y-94943750D01*
X67402560Y-95431250D01*
X67470398Y-95772294D01*
X67511029Y-95833103D01*
X65779133Y-97565000D01*
X64628711Y-97565000D01*
X64586280Y-97522569D01*
X64205874Y-97365000D01*
X63794126Y-97365000D01*
X63413720Y-97522569D01*
X63122569Y-97813720D01*
X62965000Y-98194126D01*
X62965000Y-98605874D01*
X63122569Y-98986280D01*
X63413720Y-99277431D01*
X63794126Y-99435000D01*
X64205874Y-99435000D01*
X64586280Y-99277431D01*
X64628711Y-99235000D01*
X66042767Y-99235000D01*
X66125000Y-99251357D01*
X66207233Y-99235000D01*
X66207237Y-99235000D01*
X66450801Y-99186552D01*
X66727001Y-99002001D01*
X66773587Y-98932280D01*
X69282283Y-96423585D01*
X69352001Y-96377001D01*
X69416387Y-96280641D01*
X69547294Y-96254602D01*
X69836416Y-96061416D01*
X69854067Y-96035000D01*
X76962524Y-96035000D01*
X77013584Y-96111416D01*
X77265001Y-96279408D01*
X77265000Y-96929131D01*
X77221131Y-96973000D01*
X72700000Y-96973000D01*
X72651399Y-96982667D01*
X72610197Y-97010197D01*
X72582667Y-97051399D01*
X72573000Y-97100000D01*
X72573000Y-107873000D01*
X70177054Y-107873000D01*
X70425000Y-107274406D01*
X70425000Y-106325594D01*
X70061905Y-105449006D01*
X69390994Y-104778095D01*
X68514406Y-104415000D01*
X67565594Y-104415000D01*
X66689006Y-104778095D01*
X66018095Y-105449006D01*
X65655000Y-106325594D01*
X65655000Y-107274406D01*
X65902946Y-107873000D01*
X51121399Y-107873000D01*
X51121399Y-105134734D01*
X51725594Y-105385000D01*
X52674406Y-105385000D01*
X53550994Y-105021905D01*
X54221905Y-104350994D01*
X54585000Y-103474406D01*
X54585000Y-102525594D01*
X54221905Y-101649006D01*
X53550994Y-100978095D01*
X52674406Y-100615000D01*
X51725594Y-100615000D01*
X51121399Y-100865266D01*
X51121399Y-61134734D01*
X51725594Y-61385000D01*
X52674406Y-61385000D01*
X53550994Y-61021905D01*
X54221905Y-60350994D01*
X54344562Y-60054874D01*
X54401161Y-60339418D01*
X54729375Y-60830625D01*
X55027761Y-61030000D01*
X54729375Y-61229375D01*
X54401161Y-61720582D01*
X54285908Y-62300000D01*
X54401161Y-62879418D01*
X54729375Y-63370625D01*
X55220582Y-63698839D01*
X55653744Y-63785000D01*
X55946256Y-63785000D01*
X56379418Y-63698839D01*
X56870625Y-63370625D01*
X57198839Y-62879418D01*
X57314092Y-62300000D01*
X57198839Y-61720582D01*
X56870625Y-61229375D01*
X56572239Y-61030000D01*
X56870625Y-60830625D01*
X57068155Y-60535000D01*
X57817767Y-60535000D01*
X57900000Y-60551357D01*
X57982233Y-60535000D01*
X57982237Y-60535000D01*
X58225801Y-60486552D01*
X58502001Y-60302001D01*
X58548587Y-60232280D01*
X60945868Y-57835000D01*
X76071289Y-57835000D01*
X76113720Y-57877431D01*
X76494126Y-58035000D01*
X76905874Y-58035000D01*
X77286280Y-57877431D01*
X77577431Y-57586280D01*
X77735000Y-57205874D01*
X77735000Y-57035000D01*
X83999135Y-57035000D01*
X86020623Y-59056489D01*
G36*
X81467720Y-75651413D02*
X81397999Y-75697999D01*
X81213448Y-75974200D01*
X81165000Y-76217764D01*
X81165000Y-76217767D01*
X81148643Y-76300000D01*
X81165000Y-76382233D01*
X81165001Y-77845208D01*
X80889375Y-78029375D01*
X80690000Y-78327761D01*
X80490625Y-78029375D01*
X79999418Y-77701161D01*
X79566256Y-77615000D01*
X79273744Y-77615000D01*
X78840582Y-77701161D01*
X78349375Y-78029375D01*
X78150000Y-78327761D01*
X77950625Y-78029375D01*
X77459418Y-77701161D01*
X77026256Y-77615000D01*
X76733744Y-77615000D01*
X76300582Y-77701161D01*
X75809375Y-78029375D01*
X75610000Y-78327761D01*
X75410625Y-78029375D01*
X74919418Y-77701161D01*
X74486256Y-77615000D01*
X74193744Y-77615000D01*
X73760582Y-77701161D01*
X73269375Y-78029375D01*
X73056157Y-78348478D01*
X72995183Y-78218642D01*
X72566924Y-77828355D01*
X72156890Y-77658524D01*
X71927000Y-77779845D01*
X71927000Y-78973000D01*
X71947000Y-78973000D01*
X71947000Y-79227000D01*
X71927000Y-79227000D01*
X71927000Y-80420155D01*
X72156890Y-80541476D01*
X72566924Y-80371645D01*
X72995183Y-79981358D01*
X73056157Y-79851522D01*
X73269375Y-80170625D01*
X73760582Y-80498839D01*
X74193744Y-80585000D01*
X74486256Y-80585000D01*
X74919418Y-80498839D01*
X75410625Y-80170625D01*
X75610000Y-79872239D01*
X75809375Y-80170625D01*
X76300582Y-80498839D01*
X76733744Y-80585000D01*
X77026256Y-80585000D01*
X77459418Y-80498839D01*
X77950625Y-80170625D01*
X78005001Y-80089246D01*
X78005000Y-81154132D01*
X76917939Y-82241193D01*
X76786256Y-82215000D01*
X76493744Y-82215000D01*
X76060582Y-82301161D01*
X75569375Y-82629375D01*
X75557184Y-82647619D01*
X75548157Y-82602235D01*
X75407809Y-82392191D01*
X75197765Y-82251843D01*
X74950000Y-82202560D01*
X73250000Y-82202560D01*
X73002235Y-82251843D01*
X72792191Y-82392191D01*
X72651843Y-82602235D01*
X72602560Y-82850000D01*
X72602560Y-82865000D01*
X67594410Y-82865000D01*
X66135020Y-81405611D01*
X66135020Y-78250000D01*
X67762560Y-78250000D01*
X67762560Y-79950000D01*
X67811843Y-80197765D01*
X67952191Y-80407809D01*
X68162235Y-80548157D01*
X68410000Y-80597440D01*
X70110000Y-80597440D01*
X70357765Y-80548157D01*
X70567809Y-80407809D01*
X70708157Y-80197765D01*
X70728739Y-80094292D01*
X71033076Y-80371645D01*
X71443110Y-80541476D01*
X71673000Y-80420155D01*
X71673000Y-79227000D01*
X71653000Y-79227000D01*
X71653000Y-78973000D01*
X71673000Y-78973000D01*
X71673000Y-77779845D01*
X71443110Y-77658524D01*
X71033076Y-77828355D01*
X70728739Y-78105708D01*
X70708157Y-78002235D01*
X70567809Y-77792191D01*
X70357765Y-77651843D01*
X70110000Y-77602560D01*
X68410000Y-77602560D01*
X68162235Y-77651843D01*
X67952191Y-77792191D01*
X67811843Y-78002235D01*
X67762560Y-78250000D01*
X66135020Y-78250000D01*
X66135020Y-74342931D01*
X68542942Y-71935010D01*
X85184122Y-71935010D01*
X81467720Y-75651413D01*
X81467720Y-75651413D01*
G37*
X81467720Y-75651413D02*
X81397999Y-75697999D01*
X81213448Y-75974200D01*
X81165000Y-76217764D01*
X81165000Y-76217767D01*
X81148643Y-76300000D01*
X81165000Y-76382233D01*
X81165001Y-77845208D01*
X80889375Y-78029375D01*
X80690000Y-78327761D01*
X80490625Y-78029375D01*
X79999418Y-77701161D01*
X79566256Y-77615000D01*
X79273744Y-77615000D01*
X78840582Y-77701161D01*
X78349375Y-78029375D01*
X78150000Y-78327761D01*
X77950625Y-78029375D01*
X77459418Y-77701161D01*
X77026256Y-77615000D01*
X76733744Y-77615000D01*
X76300582Y-77701161D01*
X75809375Y-78029375D01*
X75610000Y-78327761D01*
X75410625Y-78029375D01*
X74919418Y-77701161D01*
X74486256Y-77615000D01*
X74193744Y-77615000D01*
X73760582Y-77701161D01*
X73269375Y-78029375D01*
X73056157Y-78348478D01*
X72995183Y-78218642D01*
X72566924Y-77828355D01*
X72156890Y-77658524D01*
X71927000Y-77779845D01*
X71927000Y-78973000D01*
X71947000Y-78973000D01*
X71947000Y-79227000D01*
X71927000Y-79227000D01*
X71927000Y-80420155D01*
X72156890Y-80541476D01*
X72566924Y-80371645D01*
X72995183Y-79981358D01*
X73056157Y-79851522D01*
X73269375Y-80170625D01*
X73760582Y-80498839D01*
X74193744Y-80585000D01*
X74486256Y-80585000D01*
X74919418Y-80498839D01*
X75410625Y-80170625D01*
X75610000Y-79872239D01*
X75809375Y-80170625D01*
X76300582Y-80498839D01*
X76733744Y-80585000D01*
X77026256Y-80585000D01*
X77459418Y-80498839D01*
X77950625Y-80170625D01*
X78005001Y-80089246D01*
X78005000Y-81154132D01*
X76917939Y-82241193D01*
X76786256Y-82215000D01*
X76493744Y-82215000D01*
X76060582Y-82301161D01*
X75569375Y-82629375D01*
X75557184Y-82647619D01*
X75548157Y-82602235D01*
X75407809Y-82392191D01*
X75197765Y-82251843D01*
X74950000Y-82202560D01*
X73250000Y-82202560D01*
X73002235Y-82251843D01*
X72792191Y-82392191D01*
X72651843Y-82602235D01*
X72602560Y-82850000D01*
X72602560Y-82865000D01*
X67594410Y-82865000D01*
X66135020Y-81405611D01*
X66135020Y-78250000D01*
X67762560Y-78250000D01*
X67762560Y-79950000D01*
X67811843Y-80197765D01*
X67952191Y-80407809D01*
X68162235Y-80548157D01*
X68410000Y-80597440D01*
X70110000Y-80597440D01*
X70357765Y-80548157D01*
X70567809Y-80407809D01*
X70708157Y-80197765D01*
X70728739Y-80094292D01*
X71033076Y-80371645D01*
X71443110Y-80541476D01*
X71673000Y-80420155D01*
X71673000Y-79227000D01*
X71653000Y-79227000D01*
X71653000Y-78973000D01*
X71673000Y-78973000D01*
X71673000Y-77779845D01*
X71443110Y-77658524D01*
X71033076Y-77828355D01*
X70728739Y-78105708D01*
X70708157Y-78002235D01*
X70567809Y-77792191D01*
X70357765Y-77651843D01*
X70110000Y-77602560D01*
X68410000Y-77602560D01*
X68162235Y-77651843D01*
X67952191Y-77792191D01*
X67811843Y-78002235D01*
X67762560Y-78250000D01*
X66135020Y-78250000D01*
X66135020Y-74342931D01*
X68542942Y-71935010D01*
X85184122Y-71935010D01*
X81467720Y-75651413D01*
G36*
X92025000Y-61797440D02*
X92302560Y-61797440D01*
X92302560Y-62075000D01*
X92327424Y-62199999D01*
X92302560Y-62325000D01*
X92302560Y-62875000D01*
X92327424Y-63000000D01*
X92302560Y-63125000D01*
X92302560Y-63675000D01*
X92327424Y-63800000D01*
X92302560Y-63925000D01*
X92302560Y-64475000D01*
X92327424Y-64600000D01*
X92302560Y-64725000D01*
X92302560Y-65275000D01*
X92327424Y-65400000D01*
X92302560Y-65525000D01*
X92302560Y-66075000D01*
X92323217Y-66178852D01*
X92315000Y-66198690D01*
X92315000Y-66314250D01*
X92408888Y-66408138D01*
X92492191Y-66532809D01*
X92592749Y-66600000D01*
X92492191Y-66667191D01*
X92408888Y-66791862D01*
X92315000Y-66885750D01*
X92315000Y-67001310D01*
X92323217Y-67021148D01*
X92302560Y-67125000D01*
X92302560Y-67402560D01*
X92025000Y-67402560D01*
X91900000Y-67427424D01*
X91775000Y-67402560D01*
X91225000Y-67402560D01*
X91100000Y-67427424D01*
X90975000Y-67402560D01*
X90425000Y-67402560D01*
X90300000Y-67427424D01*
X90175000Y-67402560D01*
X89625000Y-67402560D01*
X89500000Y-67427424D01*
X89375000Y-67402560D01*
X88825000Y-67402560D01*
X88700000Y-67427424D01*
X88575000Y-67402560D01*
X88025000Y-67402560D01*
X87900000Y-67427424D01*
X87775000Y-67402560D01*
X87225000Y-67402560D01*
X87100000Y-67427424D01*
X86975000Y-67402560D01*
X86697440Y-67402560D01*
X86697440Y-67125000D01*
X86672576Y-67000000D01*
X86697440Y-66875000D01*
X86697440Y-66325000D01*
X86672576Y-66200000D01*
X86697440Y-66075000D01*
X86697440Y-65525000D01*
X86672576Y-65400000D01*
X86697440Y-65275000D01*
X86697440Y-64725000D01*
X86676783Y-64621148D01*
X86685000Y-64601310D01*
X86685000Y-64485750D01*
X86591112Y-64391862D01*
X86507809Y-64267191D01*
X86407251Y-64200000D01*
X86507809Y-64132809D01*
X86591112Y-64008138D01*
X86685000Y-63914250D01*
X86685000Y-63798690D01*
X86676783Y-63778852D01*
X86697440Y-63675000D01*
X86697440Y-63125000D01*
X86672576Y-63000000D01*
X86697440Y-62875000D01*
X86697440Y-62325000D01*
X86672576Y-62199999D01*
X86697440Y-62075000D01*
X86697440Y-61797440D01*
X86975000Y-61797440D01*
X87100000Y-61772576D01*
X87225000Y-61797440D01*
X87775000Y-61797440D01*
X87900000Y-61772576D01*
X88025000Y-61797440D01*
X88575000Y-61797440D01*
X88700000Y-61772576D01*
X88825000Y-61797440D01*
X89375000Y-61797440D01*
X89500000Y-61772576D01*
X89625000Y-61797440D01*
X90175000Y-61797440D01*
X90300000Y-61772576D01*
X90425000Y-61797440D01*
X90975000Y-61797440D01*
X91100000Y-61772576D01*
X91225000Y-61797440D01*
X91775000Y-61797440D01*
X91900000Y-61772576D01*
X92025000Y-61797440D01*
X92025000Y-61797440D01*
G37*
X92025000Y-61797440D02*
X92302560Y-61797440D01*
X92302560Y-62075000D01*
X92327424Y-62199999D01*
X92302560Y-62325000D01*
X92302560Y-62875000D01*
X92327424Y-63000000D01*
X92302560Y-63125000D01*
X92302560Y-63675000D01*
X92327424Y-63800000D01*
X92302560Y-63925000D01*
X92302560Y-64475000D01*
X92327424Y-64600000D01*
X92302560Y-64725000D01*
X92302560Y-65275000D01*
X92327424Y-65400000D01*
X92302560Y-65525000D01*
X92302560Y-66075000D01*
X92323217Y-66178852D01*
X92315000Y-66198690D01*
X92315000Y-66314250D01*
X92408888Y-66408138D01*
X92492191Y-66532809D01*
X92592749Y-66600000D01*
X92492191Y-66667191D01*
X92408888Y-66791862D01*
X92315000Y-66885750D01*
X92315000Y-67001310D01*
X92323217Y-67021148D01*
X92302560Y-67125000D01*
X92302560Y-67402560D01*
X92025000Y-67402560D01*
X91900000Y-67427424D01*
X91775000Y-67402560D01*
X91225000Y-67402560D01*
X91100000Y-67427424D01*
X90975000Y-67402560D01*
X90425000Y-67402560D01*
X90300000Y-67427424D01*
X90175000Y-67402560D01*
X89625000Y-67402560D01*
X89500000Y-67427424D01*
X89375000Y-67402560D01*
X88825000Y-67402560D01*
X88700000Y-67427424D01*
X88575000Y-67402560D01*
X88025000Y-67402560D01*
X87900000Y-67427424D01*
X87775000Y-67402560D01*
X87225000Y-67402560D01*
X87100000Y-67427424D01*
X86975000Y-67402560D01*
X86697440Y-67402560D01*
X86697440Y-67125000D01*
X86672576Y-67000000D01*
X86697440Y-66875000D01*
X86697440Y-66325000D01*
X86672576Y-66200000D01*
X86697440Y-66075000D01*
X86697440Y-65525000D01*
X86672576Y-65400000D01*
X86697440Y-65275000D01*
X86697440Y-64725000D01*
X86676783Y-64621148D01*
X86685000Y-64601310D01*
X86685000Y-64485750D01*
X86591112Y-64391862D01*
X86507809Y-64267191D01*
X86407251Y-64200000D01*
X86507809Y-64132809D01*
X86591112Y-64008138D01*
X86685000Y-63914250D01*
X86685000Y-63798690D01*
X86676783Y-63778852D01*
X86697440Y-63675000D01*
X86697440Y-63125000D01*
X86672576Y-63000000D01*
X86697440Y-62875000D01*
X86697440Y-62325000D01*
X86672576Y-62199999D01*
X86697440Y-62075000D01*
X86697440Y-61797440D01*
X86975000Y-61797440D01*
X87100000Y-61772576D01*
X87225000Y-61797440D01*
X87775000Y-61797440D01*
X87900000Y-61772576D01*
X88025000Y-61797440D01*
X88575000Y-61797440D01*
X88700000Y-61772576D01*
X88825000Y-61797440D01*
X89375000Y-61797440D01*
X89500000Y-61772576D01*
X89625000Y-61797440D01*
X90175000Y-61797440D01*
X90300000Y-61772576D01*
X90425000Y-61797440D01*
X90975000Y-61797440D01*
X91100000Y-61772576D01*
X91225000Y-61797440D01*
X91775000Y-61797440D01*
X91900000Y-61772576D01*
X92025000Y-61797440D01*
G04 #@! TD*
M02*
