M48
;DRILL file {KiCad (5.0.2)-1} date 28/02/2019 10:09:55
;FORMAT={-:-/ absolute / metric / decimal}
FMAT,2
METRIC,TZ
T1C0.400
T2C0.800
T3C0.900
T4C1.000
T5C2.200
T6C2.500
%
G90
G05
T1
X64.Y-98.4
X64.2Y-55.3
X64.7Y-70.5
X66.4Y-53.2
X68.8Y-51.5
X70.5Y-64.3
X70.9Y-53.2
X72.5Y-55.1
X76.7Y-57.
X82.7Y-63.6
X83.Y-61.3
X86.8Y-56.
X88.8Y-70.3
X90.7Y-74.4
X91.7Y-56.9
X94.2Y-57.
X95.4Y-64.8
X95.5Y-99.1
T2
X77.8Y-62.12
X77.8Y-67.
T3
X78.124Y-88.425
X78.124Y-90.965
X68.75Y-88.41
X68.75Y-90.95
X87.6Y-88.41
X87.6Y-90.95
T4
X100.2Y-63.46
X100.2Y-66.
X69.26Y-79.1
X71.8Y-79.1
X74.34Y-79.1
X76.88Y-79.1
X79.42Y-79.1
X81.96Y-79.1
X84.5Y-79.1
X87.04Y-79.1
X74.1Y-83.7
X76.64Y-83.7
X79.18Y-83.7
X55.8Y-49.6
X55.8Y-52.14
X55.8Y-54.68
X55.8Y-57.22
X55.8Y-59.76
X55.8Y-62.3
X61.2Y-49.6
X63.74Y-49.6
X66.28Y-49.6
X68.82Y-49.6
X71.36Y-49.6
X73.9Y-49.6
X76.44Y-49.6
X78.98Y-49.6
X81.52Y-49.6
X84.06Y-49.6
X86.6Y-49.6
X89.14Y-49.6
X91.68Y-49.6
X94.22Y-49.6
X96.76Y-49.6
X99.3Y-49.6
X103.2Y-90.
X103.2Y-92.54
T5
X52.2Y-59.
X93.4Y-93.5
X61.4Y-79.3
X68.04Y-106.8
X104.2Y-59.
X88.36Y-106.8
X93.4Y-89.2
T6
X104.2Y-103.
X52.2Y-103.
T0
M30
