M48
;DRILL file {KiCad (5.0.2)-1} date 19/02/2019 09:57:20
;FORMAT={-:-/ absolute / metric / decimal}
FMAT,2
METRIC,TZ
T1C0.400
T2C0.800
T3C0.900
T4C1.000
T5C2.200
%
G90
G05
T1
X64.Y-98.4
X64.2Y-55.3
X64.6Y-96.3
X67.2Y-52.3
X70.3Y-98.4
X70.5Y-64.3
X70.9Y-53.2
X72.5Y-55.1
X74.1Y-81.2
X76.7Y-57.
X76.7Y-81.4
X79.2Y-81.5
X82.7Y-63.6
X83.Y-61.3
X84.6Y-71.2
X85.9Y-71.5
X86.8Y-56.
X91.7Y-56.9
X94.2Y-57.
X95.5Y-99.1
X95.6Y-65.7
X95.6Y-69.3
X97.Y-83.8
X100.2Y-72.9
T2
X77.8Y-62.12
X77.8Y-67.
T3
X68.75Y-88.41
X68.75Y-90.95
X87.6Y-88.41
X87.6Y-90.95
X78.124Y-88.425
X78.124Y-90.965
T4
X103.2Y-96.26
X103.2Y-98.8
X61.2Y-49.6
X63.74Y-49.6
X66.28Y-49.6
X68.82Y-49.6
X71.36Y-49.6
X73.9Y-49.6
X76.44Y-49.6
X78.98Y-49.6
X81.52Y-49.6
X84.06Y-49.6
X86.6Y-49.6
X89.14Y-49.6
X91.68Y-49.6
X94.22Y-49.6
X96.76Y-49.6
X99.3Y-49.6
X100.2Y-63.46
X100.2Y-66.
X69.02Y-79.13
X71.56Y-79.13
X74.1Y-79.13
X76.64Y-79.13
X79.18Y-79.13
X81.72Y-79.13
X84.26Y-79.13
X86.8Y-79.13
X56.3Y-49.6
X56.3Y-52.14
X56.3Y-54.68
X56.3Y-57.22
X56.3Y-59.76
X74.1Y-83.7
X76.64Y-83.7
X79.18Y-83.7
T5
X52.2Y-103.
X61.4Y-79.06
X104.2Y-59.
X52.2Y-59.
X88.36Y-106.8
X68.04Y-106.8
X104.2Y-103.
T0
M30
