G04 #@! TF.GenerationSoftware,KiCad,Pcbnew,(5.0.2)-1*
G04 #@! TF.CreationDate,2019-02-19T09:56:42+00:00*
G04 #@! TF.ProjectId,AircraftDataLogger,41697263-7261-4667-9444-6174614c6f67,rev?*
G04 #@! TF.SameCoordinates,Original*
G04 #@! TF.FileFunction,Soldermask,Top*
G04 #@! TF.FilePolarity,Negative*
%FSLAX46Y46*%
G04 Gerber Fmt 4.6, Leading zero omitted, Abs format (unit mm)*
G04 Created by KiCad (PCBNEW (5.0.2)-1) date 19/02/2019 09:56:42*
%MOMM*%
%LPD*%
G01*
G04 APERTURE LIST*
%ADD10C,0.100000*%
G04 APERTURE END LIST*
D10*
G36*
X88885331Y-105068211D02*
X89213092Y-105203974D01*
X89508073Y-105401074D01*
X89758926Y-105651927D01*
X89956026Y-105946908D01*
X90091789Y-106274669D01*
X90161000Y-106622616D01*
X90161000Y-106977384D01*
X90091789Y-107325331D01*
X89956026Y-107653092D01*
X89758926Y-107948073D01*
X89508073Y-108198926D01*
X89213092Y-108396026D01*
X88885331Y-108531789D01*
X88537384Y-108601000D01*
X88182616Y-108601000D01*
X87834669Y-108531789D01*
X87506908Y-108396026D01*
X87211927Y-108198926D01*
X86961074Y-107948073D01*
X86763974Y-107653092D01*
X86628211Y-107325331D01*
X86559000Y-106977384D01*
X86559000Y-106622616D01*
X86628211Y-106274669D01*
X86763974Y-105946908D01*
X86961074Y-105651927D01*
X87211927Y-105401074D01*
X87506908Y-105203974D01*
X87834669Y-105068211D01*
X88182616Y-104999000D01*
X88537384Y-104999000D01*
X88885331Y-105068211D01*
X88885331Y-105068211D01*
G37*
G36*
X68565331Y-105068211D02*
X68893092Y-105203974D01*
X69188073Y-105401074D01*
X69438926Y-105651927D01*
X69636026Y-105946908D01*
X69771789Y-106274669D01*
X69841000Y-106622616D01*
X69841000Y-106977384D01*
X69771789Y-107325331D01*
X69636026Y-107653092D01*
X69438926Y-107948073D01*
X69188073Y-108198926D01*
X68893092Y-108396026D01*
X68565331Y-108531789D01*
X68217384Y-108601000D01*
X67862616Y-108601000D01*
X67514669Y-108531789D01*
X67186908Y-108396026D01*
X66891927Y-108198926D01*
X66641074Y-107948073D01*
X66443974Y-107653092D01*
X66308211Y-107325331D01*
X66239000Y-106977384D01*
X66239000Y-106622616D01*
X66308211Y-106274669D01*
X66443974Y-105946908D01*
X66641074Y-105651927D01*
X66891927Y-105401074D01*
X67186908Y-105203974D01*
X67514669Y-105068211D01*
X67862616Y-104999000D01*
X68217384Y-104999000D01*
X68565331Y-105068211D01*
X68565331Y-105068211D01*
G37*
G36*
X104725331Y-101268211D02*
X105053092Y-101403974D01*
X105348073Y-101601074D01*
X105598926Y-101851927D01*
X105796026Y-102146908D01*
X105931789Y-102474669D01*
X106001000Y-102822616D01*
X106001000Y-103177384D01*
X105931789Y-103525331D01*
X105796026Y-103853092D01*
X105598926Y-104148073D01*
X105348073Y-104398926D01*
X105053092Y-104596026D01*
X104725331Y-104731789D01*
X104377384Y-104801000D01*
X104022616Y-104801000D01*
X103674669Y-104731789D01*
X103346908Y-104596026D01*
X103051927Y-104398926D01*
X102801074Y-104148073D01*
X102603974Y-103853092D01*
X102468211Y-103525331D01*
X102399000Y-103177384D01*
X102399000Y-102822616D01*
X102468211Y-102474669D01*
X102603974Y-102146908D01*
X102801074Y-101851927D01*
X103051927Y-101601074D01*
X103346908Y-101403974D01*
X103674669Y-101268211D01*
X104022616Y-101199000D01*
X104377384Y-101199000D01*
X104725331Y-101268211D01*
X104725331Y-101268211D01*
G37*
G36*
X52725331Y-101268211D02*
X53053092Y-101403974D01*
X53348073Y-101601074D01*
X53598926Y-101851927D01*
X53796026Y-102146908D01*
X53931789Y-102474669D01*
X54001000Y-102822616D01*
X54001000Y-103177384D01*
X53931789Y-103525331D01*
X53796026Y-103853092D01*
X53598926Y-104148073D01*
X53348073Y-104398926D01*
X53053092Y-104596026D01*
X52725331Y-104731789D01*
X52377384Y-104801000D01*
X52022616Y-104801000D01*
X51674669Y-104731789D01*
X51346908Y-104596026D01*
X51051927Y-104398926D01*
X50801074Y-104148073D01*
X50603974Y-103853092D01*
X50468211Y-103525331D01*
X50399000Y-103177384D01*
X50399000Y-102822616D01*
X50468211Y-102474669D01*
X50603974Y-102146908D01*
X50801074Y-101851927D01*
X51051927Y-101601074D01*
X51346908Y-101403974D01*
X51674669Y-101268211D01*
X52022616Y-101199000D01*
X52377384Y-101199000D01*
X52725331Y-101268211D01*
X52725331Y-101268211D01*
G37*
G36*
X85684466Y-103503565D02*
X85723137Y-103515296D01*
X85758779Y-103534348D01*
X85790017Y-103559983D01*
X85815652Y-103591221D01*
X85834704Y-103626863D01*
X85846435Y-103665534D01*
X85851000Y-103711888D01*
X85851000Y-104363112D01*
X85846435Y-104409466D01*
X85834704Y-104448137D01*
X85815652Y-104483779D01*
X85790017Y-104515017D01*
X85758779Y-104540652D01*
X85723137Y-104559704D01*
X85684466Y-104571435D01*
X85638112Y-104576000D01*
X84561888Y-104576000D01*
X84515534Y-104571435D01*
X84476863Y-104559704D01*
X84441221Y-104540652D01*
X84409983Y-104515017D01*
X84384348Y-104483779D01*
X84365296Y-104448137D01*
X84353565Y-104409466D01*
X84349000Y-104363112D01*
X84349000Y-103711888D01*
X84353565Y-103665534D01*
X84365296Y-103626863D01*
X84384348Y-103591221D01*
X84409983Y-103559983D01*
X84441221Y-103534348D01*
X84476863Y-103515296D01*
X84515534Y-103503565D01*
X84561888Y-103499000D01*
X85638112Y-103499000D01*
X85684466Y-103503565D01*
X85684466Y-103503565D01*
G37*
G36*
X98218604Y-102828347D02*
X98255145Y-102839432D01*
X98288820Y-102857431D01*
X98318341Y-102881659D01*
X98342569Y-102911180D01*
X98360568Y-102944855D01*
X98371653Y-102981396D01*
X98376000Y-103025538D01*
X98376000Y-103974462D01*
X98371653Y-104018604D01*
X98360568Y-104055145D01*
X98342569Y-104088820D01*
X98318341Y-104118341D01*
X98288820Y-104142569D01*
X98255145Y-104160568D01*
X98218604Y-104171653D01*
X98174462Y-104176000D01*
X95825538Y-104176000D01*
X95781396Y-104171653D01*
X95744855Y-104160568D01*
X95711180Y-104142569D01*
X95681659Y-104118341D01*
X95657431Y-104088820D01*
X95639432Y-104055145D01*
X95628347Y-104018604D01*
X95624000Y-103974462D01*
X95624000Y-103025538D01*
X95628347Y-102981396D01*
X95639432Y-102944855D01*
X95657431Y-102911180D01*
X95681659Y-102881659D01*
X95711180Y-102857431D01*
X95744855Y-102839432D01*
X95781396Y-102828347D01*
X95825538Y-102824000D01*
X98174462Y-102824000D01*
X98218604Y-102828347D01*
X98218604Y-102828347D01*
G37*
G36*
X77218604Y-102228347D02*
X77255145Y-102239432D01*
X77288820Y-102257431D01*
X77318341Y-102281659D01*
X77342569Y-102311180D01*
X77360568Y-102344855D01*
X77371653Y-102381396D01*
X77376000Y-102425538D01*
X77376000Y-103374462D01*
X77371653Y-103418604D01*
X77360568Y-103455145D01*
X77342569Y-103488820D01*
X77318341Y-103518341D01*
X77288820Y-103542569D01*
X77255145Y-103560568D01*
X77218604Y-103571653D01*
X77174462Y-103576000D01*
X74825538Y-103576000D01*
X74781396Y-103571653D01*
X74744855Y-103560568D01*
X74711180Y-103542569D01*
X74681659Y-103518341D01*
X74657431Y-103488820D01*
X74639432Y-103455145D01*
X74628347Y-103418604D01*
X74624000Y-103374462D01*
X74624000Y-102425538D01*
X74628347Y-102381396D01*
X74639432Y-102344855D01*
X74657431Y-102311180D01*
X74681659Y-102281659D01*
X74711180Y-102257431D01*
X74744855Y-102239432D01*
X74781396Y-102228347D01*
X74825538Y-102224000D01*
X77174462Y-102224000D01*
X77218604Y-102228347D01*
X77218604Y-102228347D01*
G37*
G36*
X79484466Y-102403565D02*
X79523137Y-102415296D01*
X79558779Y-102434348D01*
X79590017Y-102459983D01*
X79615652Y-102491221D01*
X79634704Y-102526863D01*
X79646435Y-102565534D01*
X79651000Y-102611888D01*
X79651000Y-103263112D01*
X79646435Y-103309466D01*
X79634704Y-103348137D01*
X79615652Y-103383779D01*
X79590017Y-103415017D01*
X79558779Y-103440652D01*
X79523137Y-103459704D01*
X79484466Y-103471435D01*
X79438112Y-103476000D01*
X78361888Y-103476000D01*
X78315534Y-103471435D01*
X78276863Y-103459704D01*
X78241221Y-103440652D01*
X78209983Y-103415017D01*
X78184348Y-103383779D01*
X78165296Y-103348137D01*
X78153565Y-103309466D01*
X78149000Y-103263112D01*
X78149000Y-102611888D01*
X78153565Y-102565534D01*
X78165296Y-102526863D01*
X78184348Y-102491221D01*
X78209983Y-102459983D01*
X78241221Y-102434348D01*
X78276863Y-102415296D01*
X78315534Y-102403565D01*
X78361888Y-102399000D01*
X79438112Y-102399000D01*
X79484466Y-102403565D01*
X79484466Y-102403565D01*
G37*
G36*
X85684466Y-101628565D02*
X85723137Y-101640296D01*
X85758779Y-101659348D01*
X85790017Y-101684983D01*
X85815652Y-101716221D01*
X85834704Y-101751863D01*
X85846435Y-101790534D01*
X85851000Y-101836888D01*
X85851000Y-102488112D01*
X85846435Y-102534466D01*
X85834704Y-102573137D01*
X85815652Y-102608779D01*
X85790017Y-102640017D01*
X85758779Y-102665652D01*
X85723137Y-102684704D01*
X85684466Y-102696435D01*
X85638112Y-102701000D01*
X84561888Y-102701000D01*
X84515534Y-102696435D01*
X84476863Y-102684704D01*
X84441221Y-102665652D01*
X84409983Y-102640017D01*
X84384348Y-102608779D01*
X84365296Y-102573137D01*
X84353565Y-102534466D01*
X84349000Y-102488112D01*
X84349000Y-101836888D01*
X84353565Y-101790534D01*
X84365296Y-101751863D01*
X84384348Y-101716221D01*
X84409983Y-101684983D01*
X84441221Y-101659348D01*
X84476863Y-101640296D01*
X84515534Y-101628565D01*
X84561888Y-101624000D01*
X85638112Y-101624000D01*
X85684466Y-101628565D01*
X85684466Y-101628565D01*
G37*
G36*
X72151000Y-102566000D02*
X70799000Y-102566000D01*
X70799000Y-101704000D01*
X72151000Y-101704000D01*
X72151000Y-102566000D01*
X72151000Y-102566000D01*
G37*
G36*
X66001000Y-102566000D02*
X64649000Y-102566000D01*
X64649000Y-101704000D01*
X66001000Y-101704000D01*
X66001000Y-102566000D01*
X66001000Y-102566000D01*
G37*
G36*
X81396966Y-100353565D02*
X81435637Y-100365296D01*
X81471279Y-100384348D01*
X81502517Y-100409983D01*
X81528152Y-100441221D01*
X81547204Y-100476863D01*
X81558935Y-100515534D01*
X81563500Y-100561888D01*
X81563500Y-101638112D01*
X81558935Y-101684466D01*
X81547204Y-101723137D01*
X81528152Y-101758779D01*
X81502517Y-101790017D01*
X81471279Y-101815652D01*
X81435637Y-101834704D01*
X81396966Y-101846435D01*
X81350612Y-101851000D01*
X80699388Y-101851000D01*
X80653034Y-101846435D01*
X80614363Y-101834704D01*
X80578721Y-101815652D01*
X80547483Y-101790017D01*
X80521848Y-101758779D01*
X80502796Y-101723137D01*
X80491065Y-101684466D01*
X80486500Y-101638112D01*
X80486500Y-100561888D01*
X80491065Y-100515534D01*
X80502796Y-100476863D01*
X80521848Y-100441221D01*
X80547483Y-100409983D01*
X80578721Y-100384348D01*
X80614363Y-100365296D01*
X80653034Y-100353565D01*
X80699388Y-100349000D01*
X81350612Y-100349000D01*
X81396966Y-100353565D01*
X81396966Y-100353565D01*
G37*
G36*
X83271966Y-100353565D02*
X83310637Y-100365296D01*
X83346279Y-100384348D01*
X83377517Y-100409983D01*
X83403152Y-100441221D01*
X83422204Y-100476863D01*
X83433935Y-100515534D01*
X83438500Y-100561888D01*
X83438500Y-101638112D01*
X83433935Y-101684466D01*
X83422204Y-101723137D01*
X83403152Y-101758779D01*
X83377517Y-101790017D01*
X83346279Y-101815652D01*
X83310637Y-101834704D01*
X83271966Y-101846435D01*
X83225612Y-101851000D01*
X82574388Y-101851000D01*
X82528034Y-101846435D01*
X82489363Y-101834704D01*
X82453721Y-101815652D01*
X82422483Y-101790017D01*
X82396848Y-101758779D01*
X82377796Y-101723137D01*
X82366065Y-101684466D01*
X82361500Y-101638112D01*
X82361500Y-100561888D01*
X82366065Y-100515534D01*
X82377796Y-100476863D01*
X82396848Y-100441221D01*
X82422483Y-100409983D01*
X82453721Y-100384348D01*
X82489363Y-100365296D01*
X82528034Y-100353565D01*
X82574388Y-100349000D01*
X83225612Y-100349000D01*
X83271966Y-100353565D01*
X83271966Y-100353565D01*
G37*
G36*
X79484466Y-100528565D02*
X79523137Y-100540296D01*
X79558779Y-100559348D01*
X79590017Y-100584983D01*
X79615652Y-100616221D01*
X79634704Y-100651863D01*
X79646435Y-100690534D01*
X79651000Y-100736888D01*
X79651000Y-101388112D01*
X79646435Y-101434466D01*
X79634704Y-101473137D01*
X79615652Y-101508779D01*
X79590017Y-101540017D01*
X79558779Y-101565652D01*
X79523137Y-101584704D01*
X79484466Y-101596435D01*
X79438112Y-101601000D01*
X78361888Y-101601000D01*
X78315534Y-101596435D01*
X78276863Y-101584704D01*
X78241221Y-101565652D01*
X78209983Y-101540017D01*
X78184348Y-101508779D01*
X78165296Y-101473137D01*
X78153565Y-101434466D01*
X78149000Y-101388112D01*
X78149000Y-100736888D01*
X78153565Y-100690534D01*
X78165296Y-100651863D01*
X78184348Y-100616221D01*
X78209983Y-100584983D01*
X78241221Y-100559348D01*
X78276863Y-100540296D01*
X78315534Y-100528565D01*
X78361888Y-100524000D01*
X79438112Y-100524000D01*
X79484466Y-100528565D01*
X79484466Y-100528565D01*
G37*
G36*
X98218604Y-100028347D02*
X98255145Y-100039432D01*
X98288820Y-100057431D01*
X98318341Y-100081659D01*
X98342569Y-100111180D01*
X98360568Y-100144855D01*
X98371653Y-100181396D01*
X98376000Y-100225538D01*
X98376000Y-101174462D01*
X98371653Y-101218604D01*
X98360568Y-101255145D01*
X98342569Y-101288820D01*
X98318341Y-101318341D01*
X98288820Y-101342569D01*
X98255145Y-101360568D01*
X98218604Y-101371653D01*
X98174462Y-101376000D01*
X95825538Y-101376000D01*
X95781396Y-101371653D01*
X95744855Y-101360568D01*
X95711180Y-101342569D01*
X95681659Y-101318341D01*
X95657431Y-101288820D01*
X95639432Y-101255145D01*
X95628347Y-101218604D01*
X95624000Y-101174462D01*
X95624000Y-100225538D01*
X95628347Y-100181396D01*
X95639432Y-100144855D01*
X95657431Y-100111180D01*
X95681659Y-100081659D01*
X95711180Y-100057431D01*
X95744855Y-100039432D01*
X95781396Y-100028347D01*
X95825538Y-100024000D01*
X98174462Y-100024000D01*
X98218604Y-100028347D01*
X98218604Y-100028347D01*
G37*
G36*
X66001000Y-101296000D02*
X64649000Y-101296000D01*
X64649000Y-100434000D01*
X66001000Y-100434000D01*
X66001000Y-101296000D01*
X66001000Y-101296000D01*
G37*
G36*
X72151000Y-101296000D02*
X70799000Y-101296000D01*
X70799000Y-100434000D01*
X72151000Y-100434000D01*
X72151000Y-101296000D01*
X72151000Y-101296000D01*
G37*
G36*
X77218604Y-99428347D02*
X77255145Y-99439432D01*
X77288820Y-99457431D01*
X77318341Y-99481659D01*
X77342569Y-99511180D01*
X77360568Y-99544855D01*
X77371653Y-99581396D01*
X77376000Y-99625538D01*
X77376000Y-100574462D01*
X77371653Y-100618604D01*
X77360568Y-100655145D01*
X77342569Y-100688820D01*
X77318341Y-100718341D01*
X77288820Y-100742569D01*
X77255145Y-100760568D01*
X77218604Y-100771653D01*
X77174462Y-100776000D01*
X74825538Y-100776000D01*
X74781396Y-100771653D01*
X74744855Y-100760568D01*
X74711180Y-100742569D01*
X74681659Y-100718341D01*
X74657431Y-100688820D01*
X74639432Y-100655145D01*
X74628347Y-100618604D01*
X74624000Y-100574462D01*
X74624000Y-99625538D01*
X74628347Y-99581396D01*
X74639432Y-99544855D01*
X74657431Y-99511180D01*
X74681659Y-99481659D01*
X74711180Y-99457431D01*
X74744855Y-99439432D01*
X74781396Y-99428347D01*
X74825538Y-99424000D01*
X77174462Y-99424000D01*
X77218604Y-99428347D01*
X77218604Y-99428347D01*
G37*
G36*
X94475000Y-100426000D02*
X93153000Y-100426000D01*
X93153000Y-97774000D01*
X94475000Y-97774000D01*
X94475000Y-100426000D01*
X94475000Y-100426000D01*
G37*
G36*
X91855000Y-100426000D02*
X90533000Y-100426000D01*
X90533000Y-99674000D01*
X91855000Y-99674000D01*
X91855000Y-100426000D01*
X91855000Y-100426000D01*
G37*
G36*
X85684466Y-99203565D02*
X85723137Y-99215296D01*
X85758779Y-99234348D01*
X85790017Y-99259983D01*
X85815652Y-99291221D01*
X85834704Y-99326863D01*
X85846435Y-99365534D01*
X85851000Y-99411888D01*
X85851000Y-100063112D01*
X85846435Y-100109466D01*
X85834704Y-100148137D01*
X85815652Y-100183779D01*
X85790017Y-100215017D01*
X85758779Y-100240652D01*
X85723137Y-100259704D01*
X85684466Y-100271435D01*
X85638112Y-100276000D01*
X84561888Y-100276000D01*
X84515534Y-100271435D01*
X84476863Y-100259704D01*
X84441221Y-100240652D01*
X84409983Y-100215017D01*
X84384348Y-100183779D01*
X84365296Y-100148137D01*
X84353565Y-100109466D01*
X84349000Y-100063112D01*
X84349000Y-99411888D01*
X84353565Y-99365534D01*
X84365296Y-99326863D01*
X84384348Y-99291221D01*
X84409983Y-99259983D01*
X84441221Y-99234348D01*
X84476863Y-99215296D01*
X84515534Y-99203565D01*
X84561888Y-99199000D01*
X85638112Y-99199000D01*
X85684466Y-99203565D01*
X85684466Y-99203565D01*
G37*
G36*
X103310443Y-97905519D02*
X103376627Y-97912037D01*
X103489853Y-97946384D01*
X103546467Y-97963557D01*
X103685087Y-98037652D01*
X103702991Y-98047222D01*
X103738729Y-98076552D01*
X103840186Y-98159814D01*
X103923448Y-98261271D01*
X103952778Y-98297009D01*
X103952779Y-98297011D01*
X104036443Y-98453533D01*
X104036443Y-98453534D01*
X104087963Y-98623373D01*
X104105359Y-98800000D01*
X104087963Y-98976627D01*
X104053616Y-99089853D01*
X104036443Y-99146467D01*
X103966210Y-99277861D01*
X103952778Y-99302991D01*
X103923448Y-99338729D01*
X103840186Y-99440186D01*
X103753678Y-99511180D01*
X103702991Y-99552778D01*
X103702989Y-99552779D01*
X103546467Y-99636443D01*
X103489853Y-99653616D01*
X103376627Y-99687963D01*
X103311270Y-99694400D01*
X103244260Y-99701000D01*
X103155740Y-99701000D01*
X103088730Y-99694400D01*
X103023373Y-99687963D01*
X102910147Y-99653616D01*
X102853533Y-99636443D01*
X102697011Y-99552779D01*
X102697009Y-99552778D01*
X102646322Y-99511180D01*
X102559814Y-99440186D01*
X102476552Y-99338729D01*
X102447222Y-99302991D01*
X102433790Y-99277861D01*
X102363557Y-99146467D01*
X102346384Y-99089853D01*
X102312037Y-98976627D01*
X102294641Y-98800000D01*
X102312037Y-98623373D01*
X102363557Y-98453534D01*
X102363557Y-98453533D01*
X102447221Y-98297011D01*
X102447222Y-98297009D01*
X102476552Y-98261271D01*
X102559814Y-98159814D01*
X102661271Y-98076552D01*
X102697009Y-98047222D01*
X102714913Y-98037652D01*
X102853533Y-97963557D01*
X102910147Y-97946384D01*
X103023373Y-97912037D01*
X103089557Y-97905519D01*
X103155740Y-97899000D01*
X103244260Y-97899000D01*
X103310443Y-97905519D01*
X103310443Y-97905519D01*
G37*
G36*
X91855000Y-98526000D02*
X90533000Y-98526000D01*
X90533000Y-97774000D01*
X91855000Y-97774000D01*
X91855000Y-98526000D01*
X91855000Y-98526000D01*
G37*
G36*
X85684466Y-97328565D02*
X85723137Y-97340296D01*
X85758779Y-97359348D01*
X85790017Y-97384983D01*
X85815652Y-97416221D01*
X85834704Y-97451863D01*
X85846435Y-97490534D01*
X85851000Y-97536888D01*
X85851000Y-98188112D01*
X85846435Y-98234466D01*
X85834704Y-98273137D01*
X85815652Y-98308779D01*
X85790017Y-98340017D01*
X85758779Y-98365652D01*
X85723137Y-98384704D01*
X85684466Y-98396435D01*
X85638112Y-98401000D01*
X84561888Y-98401000D01*
X84515534Y-98396435D01*
X84476863Y-98384704D01*
X84441221Y-98365652D01*
X84409983Y-98340017D01*
X84384348Y-98308779D01*
X84365296Y-98273137D01*
X84353565Y-98234466D01*
X84349000Y-98188112D01*
X84349000Y-97536888D01*
X84353565Y-97490534D01*
X84365296Y-97451863D01*
X84384348Y-97416221D01*
X84409983Y-97384983D01*
X84441221Y-97359348D01*
X84476863Y-97340296D01*
X84515534Y-97328565D01*
X84561888Y-97324000D01*
X85638112Y-97324000D01*
X85684466Y-97328565D01*
X85684466Y-97328565D01*
G37*
G36*
X104101000Y-97161000D02*
X102299000Y-97161000D01*
X102299000Y-95359000D01*
X104101000Y-95359000D01*
X104101000Y-97161000D01*
X104101000Y-97161000D01*
G37*
G36*
X78684466Y-94703565D02*
X78723137Y-94715296D01*
X78758779Y-94734348D01*
X78790017Y-94759983D01*
X78815652Y-94791221D01*
X78834704Y-94826863D01*
X78846435Y-94865534D01*
X78851000Y-94911888D01*
X78851000Y-95563112D01*
X78846435Y-95609466D01*
X78834704Y-95648137D01*
X78815652Y-95683779D01*
X78790017Y-95715017D01*
X78758779Y-95740652D01*
X78723137Y-95759704D01*
X78684466Y-95771435D01*
X78638112Y-95776000D01*
X77561888Y-95776000D01*
X77515534Y-95771435D01*
X77476863Y-95759704D01*
X77441221Y-95740652D01*
X77409983Y-95715017D01*
X77384348Y-95683779D01*
X77365296Y-95648137D01*
X77353565Y-95609466D01*
X77349000Y-95563112D01*
X77349000Y-94911888D01*
X77353565Y-94865534D01*
X77365296Y-94826863D01*
X77384348Y-94791221D01*
X77409983Y-94759983D01*
X77441221Y-94734348D01*
X77476863Y-94715296D01*
X77515534Y-94703565D01*
X77561888Y-94699000D01*
X78638112Y-94699000D01*
X78684466Y-94703565D01*
X78684466Y-94703565D01*
G37*
G36*
X69334466Y-94653565D02*
X69373137Y-94665296D01*
X69408779Y-94684348D01*
X69440017Y-94709983D01*
X69465652Y-94741221D01*
X69484704Y-94776863D01*
X69496435Y-94815534D01*
X69501000Y-94861888D01*
X69501000Y-95513112D01*
X69496435Y-95559466D01*
X69484704Y-95598137D01*
X69465652Y-95633779D01*
X69440017Y-95665017D01*
X69408779Y-95690652D01*
X69373137Y-95709704D01*
X69334466Y-95721435D01*
X69288112Y-95726000D01*
X68211888Y-95726000D01*
X68165534Y-95721435D01*
X68126863Y-95709704D01*
X68091221Y-95690652D01*
X68059983Y-95665017D01*
X68034348Y-95633779D01*
X68015296Y-95598137D01*
X68003565Y-95559466D01*
X67999000Y-95513112D01*
X67999000Y-94861888D01*
X68003565Y-94815534D01*
X68015296Y-94776863D01*
X68034348Y-94741221D01*
X68059983Y-94709983D01*
X68091221Y-94684348D01*
X68126863Y-94665296D01*
X68165534Y-94653565D01*
X68211888Y-94649000D01*
X69288112Y-94649000D01*
X69334466Y-94653565D01*
X69334466Y-94653565D01*
G37*
G36*
X88184466Y-94653565D02*
X88223137Y-94665296D01*
X88258779Y-94684348D01*
X88290017Y-94709983D01*
X88315652Y-94741221D01*
X88334704Y-94776863D01*
X88346435Y-94815534D01*
X88351000Y-94861888D01*
X88351000Y-95513112D01*
X88346435Y-95559466D01*
X88334704Y-95598137D01*
X88315652Y-95633779D01*
X88290017Y-95665017D01*
X88258779Y-95690652D01*
X88223137Y-95709704D01*
X88184466Y-95721435D01*
X88138112Y-95726000D01*
X87061888Y-95726000D01*
X87015534Y-95721435D01*
X86976863Y-95709704D01*
X86941221Y-95690652D01*
X86909983Y-95665017D01*
X86884348Y-95633779D01*
X86865296Y-95598137D01*
X86853565Y-95559466D01*
X86849000Y-95513112D01*
X86849000Y-94861888D01*
X86853565Y-94815534D01*
X86865296Y-94776863D01*
X86884348Y-94741221D01*
X86909983Y-94709983D01*
X86941221Y-94684348D01*
X86976863Y-94665296D01*
X87015534Y-94653565D01*
X87061888Y-94649000D01*
X88138112Y-94649000D01*
X88184466Y-94653565D01*
X88184466Y-94653565D01*
G37*
G36*
X78684466Y-92828565D02*
X78723137Y-92840296D01*
X78758779Y-92859348D01*
X78790017Y-92884983D01*
X78815652Y-92916221D01*
X78834704Y-92951863D01*
X78846435Y-92990534D01*
X78851000Y-93036888D01*
X78851000Y-93688112D01*
X78846435Y-93734466D01*
X78834704Y-93773137D01*
X78815652Y-93808779D01*
X78790017Y-93840017D01*
X78758779Y-93865652D01*
X78723137Y-93884704D01*
X78684466Y-93896435D01*
X78638112Y-93901000D01*
X77561888Y-93901000D01*
X77515534Y-93896435D01*
X77476863Y-93884704D01*
X77441221Y-93865652D01*
X77409983Y-93840017D01*
X77384348Y-93808779D01*
X77365296Y-93773137D01*
X77353565Y-93734466D01*
X77349000Y-93688112D01*
X77349000Y-93036888D01*
X77353565Y-92990534D01*
X77365296Y-92951863D01*
X77384348Y-92916221D01*
X77409983Y-92884983D01*
X77441221Y-92859348D01*
X77476863Y-92840296D01*
X77515534Y-92828565D01*
X77561888Y-92824000D01*
X78638112Y-92824000D01*
X78684466Y-92828565D01*
X78684466Y-92828565D01*
G37*
G36*
X88184466Y-92778565D02*
X88223137Y-92790296D01*
X88258779Y-92809348D01*
X88290017Y-92834983D01*
X88315652Y-92866221D01*
X88334704Y-92901863D01*
X88346435Y-92940534D01*
X88351000Y-92986888D01*
X88351000Y-93638112D01*
X88346435Y-93684466D01*
X88334704Y-93723137D01*
X88315652Y-93758779D01*
X88290017Y-93790017D01*
X88258779Y-93815652D01*
X88223137Y-93834704D01*
X88184466Y-93846435D01*
X88138112Y-93851000D01*
X87061888Y-93851000D01*
X87015534Y-93846435D01*
X86976863Y-93834704D01*
X86941221Y-93815652D01*
X86909983Y-93790017D01*
X86884348Y-93758779D01*
X86865296Y-93723137D01*
X86853565Y-93684466D01*
X86849000Y-93638112D01*
X86849000Y-92986888D01*
X86853565Y-92940534D01*
X86865296Y-92901863D01*
X86884348Y-92866221D01*
X86909983Y-92834983D01*
X86941221Y-92809348D01*
X86976863Y-92790296D01*
X87015534Y-92778565D01*
X87061888Y-92774000D01*
X88138112Y-92774000D01*
X88184466Y-92778565D01*
X88184466Y-92778565D01*
G37*
G36*
X69334466Y-92778565D02*
X69373137Y-92790296D01*
X69408779Y-92809348D01*
X69440017Y-92834983D01*
X69465652Y-92866221D01*
X69484704Y-92901863D01*
X69496435Y-92940534D01*
X69501000Y-92986888D01*
X69501000Y-93638112D01*
X69496435Y-93684466D01*
X69484704Y-93723137D01*
X69465652Y-93758779D01*
X69440017Y-93790017D01*
X69408779Y-93815652D01*
X69373137Y-93834704D01*
X69334466Y-93846435D01*
X69288112Y-93851000D01*
X68211888Y-93851000D01*
X68165534Y-93846435D01*
X68126863Y-93834704D01*
X68091221Y-93815652D01*
X68059983Y-93790017D01*
X68034348Y-93758779D01*
X68015296Y-93723137D01*
X68003565Y-93684466D01*
X67999000Y-93638112D01*
X67999000Y-92986888D01*
X68003565Y-92940534D01*
X68015296Y-92901863D01*
X68034348Y-92866221D01*
X68059983Y-92834983D01*
X68091221Y-92809348D01*
X68126863Y-92790296D01*
X68165534Y-92778565D01*
X68211888Y-92774000D01*
X69288112Y-92774000D01*
X69334466Y-92778565D01*
X69334466Y-92778565D01*
G37*
G36*
X79075000Y-91915600D02*
X77173000Y-91915600D01*
X77173000Y-90013600D01*
X79075000Y-90013600D01*
X79075000Y-91915600D01*
X79075000Y-91915600D01*
G37*
G36*
X69701000Y-91901000D02*
X67799000Y-91901000D01*
X67799000Y-89999000D01*
X69701000Y-89999000D01*
X69701000Y-91901000D01*
X69701000Y-91901000D01*
G37*
G36*
X88551000Y-91901000D02*
X86649000Y-91901000D01*
X86649000Y-89999000D01*
X88551000Y-89999000D01*
X88551000Y-91901000D01*
X88551000Y-91901000D01*
G37*
G36*
X78401396Y-87510146D02*
X78574466Y-87581834D01*
X78730230Y-87685912D01*
X78862688Y-87818370D01*
X78966766Y-87974134D01*
X79038454Y-88147204D01*
X79075000Y-88330933D01*
X79075000Y-88518267D01*
X79038454Y-88701996D01*
X78966766Y-88875066D01*
X78862688Y-89030830D01*
X78730230Y-89163288D01*
X78574466Y-89267366D01*
X78401396Y-89339054D01*
X78217667Y-89375600D01*
X78030333Y-89375600D01*
X77846604Y-89339054D01*
X77673534Y-89267366D01*
X77517770Y-89163288D01*
X77385312Y-89030830D01*
X77281234Y-88875066D01*
X77209546Y-88701996D01*
X77173000Y-88518267D01*
X77173000Y-88330933D01*
X77209546Y-88147204D01*
X77281234Y-87974134D01*
X77385312Y-87818370D01*
X77517770Y-87685912D01*
X77673534Y-87581834D01*
X77846604Y-87510146D01*
X78030333Y-87473600D01*
X78217667Y-87473600D01*
X78401396Y-87510146D01*
X78401396Y-87510146D01*
G37*
G36*
X87877396Y-87495546D02*
X88050466Y-87567234D01*
X88206230Y-87671312D01*
X88338688Y-87803770D01*
X88442766Y-87959534D01*
X88514454Y-88132604D01*
X88551000Y-88316333D01*
X88551000Y-88503667D01*
X88514454Y-88687396D01*
X88442766Y-88860466D01*
X88338688Y-89016230D01*
X88206230Y-89148688D01*
X88050466Y-89252766D01*
X87877396Y-89324454D01*
X87693667Y-89361000D01*
X87506333Y-89361000D01*
X87322604Y-89324454D01*
X87149534Y-89252766D01*
X86993770Y-89148688D01*
X86861312Y-89016230D01*
X86757234Y-88860466D01*
X86685546Y-88687396D01*
X86649000Y-88503667D01*
X86649000Y-88316333D01*
X86685546Y-88132604D01*
X86757234Y-87959534D01*
X86861312Y-87803770D01*
X86993770Y-87671312D01*
X87149534Y-87567234D01*
X87322604Y-87495546D01*
X87506333Y-87459000D01*
X87693667Y-87459000D01*
X87877396Y-87495546D01*
X87877396Y-87495546D01*
G37*
G36*
X69027396Y-87495546D02*
X69200466Y-87567234D01*
X69356230Y-87671312D01*
X69488688Y-87803770D01*
X69592766Y-87959534D01*
X69664454Y-88132604D01*
X69701000Y-88316333D01*
X69701000Y-88503667D01*
X69664454Y-88687396D01*
X69592766Y-88860466D01*
X69488688Y-89016230D01*
X69356230Y-89148688D01*
X69200466Y-89252766D01*
X69027396Y-89324454D01*
X68843667Y-89361000D01*
X68656333Y-89361000D01*
X68472604Y-89324454D01*
X68299534Y-89252766D01*
X68143770Y-89148688D01*
X68011312Y-89016230D01*
X67907234Y-88860466D01*
X67835546Y-88687396D01*
X67799000Y-88503667D01*
X67799000Y-88316333D01*
X67835546Y-88132604D01*
X67907234Y-87959534D01*
X68011312Y-87803770D01*
X68143770Y-87671312D01*
X68299534Y-87567234D01*
X68472604Y-87495546D01*
X68656333Y-87459000D01*
X68843667Y-87459000D01*
X69027396Y-87495546D01*
X69027396Y-87495546D01*
G37*
G36*
X79290443Y-82805519D02*
X79356627Y-82812037D01*
X79469853Y-82846384D01*
X79526467Y-82863557D01*
X79665087Y-82937652D01*
X79682991Y-82947222D01*
X79718729Y-82976552D01*
X79820186Y-83059814D01*
X79903448Y-83161271D01*
X79932778Y-83197009D01*
X79932779Y-83197011D01*
X80016443Y-83353533D01*
X80016443Y-83353534D01*
X80067963Y-83523373D01*
X80085359Y-83700000D01*
X80067963Y-83876627D01*
X80033616Y-83989853D01*
X80016443Y-84046467D01*
X79942348Y-84185087D01*
X79932778Y-84202991D01*
X79903448Y-84238729D01*
X79820186Y-84340186D01*
X79718729Y-84423448D01*
X79682991Y-84452778D01*
X79682989Y-84452779D01*
X79526467Y-84536443D01*
X79469853Y-84553616D01*
X79356627Y-84587963D01*
X79290442Y-84594482D01*
X79224260Y-84601000D01*
X79135740Y-84601000D01*
X79069558Y-84594482D01*
X79003373Y-84587963D01*
X78890147Y-84553616D01*
X78833533Y-84536443D01*
X78677011Y-84452779D01*
X78677009Y-84452778D01*
X78641271Y-84423448D01*
X78539814Y-84340186D01*
X78456552Y-84238729D01*
X78427222Y-84202991D01*
X78417652Y-84185087D01*
X78343557Y-84046467D01*
X78326384Y-83989853D01*
X78292037Y-83876627D01*
X78274641Y-83700000D01*
X78292037Y-83523373D01*
X78343557Y-83353534D01*
X78343557Y-83353533D01*
X78427221Y-83197011D01*
X78427222Y-83197009D01*
X78456552Y-83161271D01*
X78539814Y-83059814D01*
X78641271Y-82976552D01*
X78677009Y-82947222D01*
X78694913Y-82937652D01*
X78833533Y-82863557D01*
X78890147Y-82846384D01*
X79003373Y-82812037D01*
X79069557Y-82805519D01*
X79135740Y-82799000D01*
X79224260Y-82799000D01*
X79290443Y-82805519D01*
X79290443Y-82805519D01*
G37*
G36*
X75001000Y-84601000D02*
X73199000Y-84601000D01*
X73199000Y-82799000D01*
X75001000Y-82799000D01*
X75001000Y-84601000D01*
X75001000Y-84601000D01*
G37*
G36*
X76750443Y-82805519D02*
X76816627Y-82812037D01*
X76929853Y-82846384D01*
X76986467Y-82863557D01*
X77125087Y-82937652D01*
X77142991Y-82947222D01*
X77178729Y-82976552D01*
X77280186Y-83059814D01*
X77363448Y-83161271D01*
X77392778Y-83197009D01*
X77392779Y-83197011D01*
X77476443Y-83353533D01*
X77476443Y-83353534D01*
X77527963Y-83523373D01*
X77545359Y-83700000D01*
X77527963Y-83876627D01*
X77493616Y-83989853D01*
X77476443Y-84046467D01*
X77402348Y-84185087D01*
X77392778Y-84202991D01*
X77363448Y-84238729D01*
X77280186Y-84340186D01*
X77178729Y-84423448D01*
X77142991Y-84452778D01*
X77142989Y-84452779D01*
X76986467Y-84536443D01*
X76929853Y-84553616D01*
X76816627Y-84587963D01*
X76750442Y-84594482D01*
X76684260Y-84601000D01*
X76595740Y-84601000D01*
X76529558Y-84594482D01*
X76463373Y-84587963D01*
X76350147Y-84553616D01*
X76293533Y-84536443D01*
X76137011Y-84452779D01*
X76137009Y-84452778D01*
X76101271Y-84423448D01*
X75999814Y-84340186D01*
X75916552Y-84238729D01*
X75887222Y-84202991D01*
X75877652Y-84185087D01*
X75803557Y-84046467D01*
X75786384Y-83989853D01*
X75752037Y-83876627D01*
X75734641Y-83700000D01*
X75752037Y-83523373D01*
X75803557Y-83353534D01*
X75803557Y-83353533D01*
X75887221Y-83197011D01*
X75887222Y-83197009D01*
X75916552Y-83161271D01*
X75999814Y-83059814D01*
X76101271Y-82976552D01*
X76137009Y-82947222D01*
X76154913Y-82937652D01*
X76293533Y-82863557D01*
X76350147Y-82846384D01*
X76463373Y-82812037D01*
X76529557Y-82805519D01*
X76595740Y-82799000D01*
X76684260Y-82799000D01*
X76750443Y-82805519D01*
X76750443Y-82805519D01*
G37*
G36*
X61925331Y-77328211D02*
X62253092Y-77463974D01*
X62548073Y-77661074D01*
X62798926Y-77911927D01*
X62996026Y-78206908D01*
X63131789Y-78534669D01*
X63201000Y-78882616D01*
X63201000Y-79237384D01*
X63131789Y-79585331D01*
X62996026Y-79913092D01*
X62798926Y-80208073D01*
X62548073Y-80458926D01*
X62253092Y-80656026D01*
X61925331Y-80791789D01*
X61577384Y-80861000D01*
X61222616Y-80861000D01*
X60874669Y-80791789D01*
X60546908Y-80656026D01*
X60251927Y-80458926D01*
X60001074Y-80208073D01*
X59803974Y-79913092D01*
X59668211Y-79585331D01*
X59599000Y-79237384D01*
X59599000Y-78882616D01*
X59668211Y-78534669D01*
X59803974Y-78206908D01*
X60001074Y-77911927D01*
X60251927Y-77661074D01*
X60546908Y-77463974D01*
X60874669Y-77328211D01*
X61222616Y-77259000D01*
X61577384Y-77259000D01*
X61925331Y-77328211D01*
X61925331Y-77328211D01*
G37*
G36*
X87701000Y-80031000D02*
X85899000Y-80031000D01*
X85899000Y-78229000D01*
X87701000Y-78229000D01*
X87701000Y-80031000D01*
X87701000Y-80031000D01*
G37*
G36*
X84370443Y-78235519D02*
X84436627Y-78242037D01*
X84549853Y-78276384D01*
X84606467Y-78293557D01*
X84745087Y-78367652D01*
X84762991Y-78377222D01*
X84798729Y-78406552D01*
X84900186Y-78489814D01*
X84983448Y-78591271D01*
X85012778Y-78627009D01*
X85012779Y-78627011D01*
X85096443Y-78783533D01*
X85096443Y-78783534D01*
X85147963Y-78953373D01*
X85165359Y-79130000D01*
X85147963Y-79306627D01*
X85113616Y-79419853D01*
X85096443Y-79476467D01*
X85022348Y-79615087D01*
X85012778Y-79632991D01*
X84983448Y-79668729D01*
X84900186Y-79770186D01*
X84798729Y-79853448D01*
X84762991Y-79882778D01*
X84762989Y-79882779D01*
X84606467Y-79966443D01*
X84549853Y-79983616D01*
X84436627Y-80017963D01*
X84370443Y-80024481D01*
X84304260Y-80031000D01*
X84215740Y-80031000D01*
X84149557Y-80024481D01*
X84083373Y-80017963D01*
X83970147Y-79983616D01*
X83913533Y-79966443D01*
X83757011Y-79882779D01*
X83757009Y-79882778D01*
X83721271Y-79853448D01*
X83619814Y-79770186D01*
X83536552Y-79668729D01*
X83507222Y-79632991D01*
X83497652Y-79615087D01*
X83423557Y-79476467D01*
X83406384Y-79419853D01*
X83372037Y-79306627D01*
X83354641Y-79130000D01*
X83372037Y-78953373D01*
X83423557Y-78783534D01*
X83423557Y-78783533D01*
X83507221Y-78627011D01*
X83507222Y-78627009D01*
X83536552Y-78591271D01*
X83619814Y-78489814D01*
X83721271Y-78406552D01*
X83757009Y-78377222D01*
X83774913Y-78367652D01*
X83913533Y-78293557D01*
X83970147Y-78276384D01*
X84083373Y-78242037D01*
X84149557Y-78235519D01*
X84215740Y-78229000D01*
X84304260Y-78229000D01*
X84370443Y-78235519D01*
X84370443Y-78235519D01*
G37*
G36*
X74210443Y-78235519D02*
X74276627Y-78242037D01*
X74389853Y-78276384D01*
X74446467Y-78293557D01*
X74585087Y-78367652D01*
X74602991Y-78377222D01*
X74638729Y-78406552D01*
X74740186Y-78489814D01*
X74823448Y-78591271D01*
X74852778Y-78627009D01*
X74852779Y-78627011D01*
X74936443Y-78783533D01*
X74936443Y-78783534D01*
X74987963Y-78953373D01*
X75005359Y-79130000D01*
X74987963Y-79306627D01*
X74953616Y-79419853D01*
X74936443Y-79476467D01*
X74862348Y-79615087D01*
X74852778Y-79632991D01*
X74823448Y-79668729D01*
X74740186Y-79770186D01*
X74638729Y-79853448D01*
X74602991Y-79882778D01*
X74602989Y-79882779D01*
X74446467Y-79966443D01*
X74389853Y-79983616D01*
X74276627Y-80017963D01*
X74210443Y-80024481D01*
X74144260Y-80031000D01*
X74055740Y-80031000D01*
X73989557Y-80024481D01*
X73923373Y-80017963D01*
X73810147Y-79983616D01*
X73753533Y-79966443D01*
X73597011Y-79882779D01*
X73597009Y-79882778D01*
X73561271Y-79853448D01*
X73459814Y-79770186D01*
X73376552Y-79668729D01*
X73347222Y-79632991D01*
X73337652Y-79615087D01*
X73263557Y-79476467D01*
X73246384Y-79419853D01*
X73212037Y-79306627D01*
X73194641Y-79130000D01*
X73212037Y-78953373D01*
X73263557Y-78783534D01*
X73263557Y-78783533D01*
X73347221Y-78627011D01*
X73347222Y-78627009D01*
X73376552Y-78591271D01*
X73459814Y-78489814D01*
X73561271Y-78406552D01*
X73597009Y-78377222D01*
X73614913Y-78367652D01*
X73753533Y-78293557D01*
X73810147Y-78276384D01*
X73923373Y-78242037D01*
X73989557Y-78235519D01*
X74055740Y-78229000D01*
X74144260Y-78229000D01*
X74210443Y-78235519D01*
X74210443Y-78235519D01*
G37*
G36*
X81830443Y-78235519D02*
X81896627Y-78242037D01*
X82009853Y-78276384D01*
X82066467Y-78293557D01*
X82205087Y-78367652D01*
X82222991Y-78377222D01*
X82258729Y-78406552D01*
X82360186Y-78489814D01*
X82443448Y-78591271D01*
X82472778Y-78627009D01*
X82472779Y-78627011D01*
X82556443Y-78783533D01*
X82556443Y-78783534D01*
X82607963Y-78953373D01*
X82625359Y-79130000D01*
X82607963Y-79306627D01*
X82573616Y-79419853D01*
X82556443Y-79476467D01*
X82482348Y-79615087D01*
X82472778Y-79632991D01*
X82443448Y-79668729D01*
X82360186Y-79770186D01*
X82258729Y-79853448D01*
X82222991Y-79882778D01*
X82222989Y-79882779D01*
X82066467Y-79966443D01*
X82009853Y-79983616D01*
X81896627Y-80017963D01*
X81830443Y-80024481D01*
X81764260Y-80031000D01*
X81675740Y-80031000D01*
X81609557Y-80024481D01*
X81543373Y-80017963D01*
X81430147Y-79983616D01*
X81373533Y-79966443D01*
X81217011Y-79882779D01*
X81217009Y-79882778D01*
X81181271Y-79853448D01*
X81079814Y-79770186D01*
X80996552Y-79668729D01*
X80967222Y-79632991D01*
X80957652Y-79615087D01*
X80883557Y-79476467D01*
X80866384Y-79419853D01*
X80832037Y-79306627D01*
X80814641Y-79130000D01*
X80832037Y-78953373D01*
X80883557Y-78783534D01*
X80883557Y-78783533D01*
X80967221Y-78627011D01*
X80967222Y-78627009D01*
X80996552Y-78591271D01*
X81079814Y-78489814D01*
X81181271Y-78406552D01*
X81217009Y-78377222D01*
X81234913Y-78367652D01*
X81373533Y-78293557D01*
X81430147Y-78276384D01*
X81543373Y-78242037D01*
X81609557Y-78235519D01*
X81675740Y-78229000D01*
X81764260Y-78229000D01*
X81830443Y-78235519D01*
X81830443Y-78235519D01*
G37*
G36*
X76750443Y-78235519D02*
X76816627Y-78242037D01*
X76929853Y-78276384D01*
X76986467Y-78293557D01*
X77125087Y-78367652D01*
X77142991Y-78377222D01*
X77178729Y-78406552D01*
X77280186Y-78489814D01*
X77363448Y-78591271D01*
X77392778Y-78627009D01*
X77392779Y-78627011D01*
X77476443Y-78783533D01*
X77476443Y-78783534D01*
X77527963Y-78953373D01*
X77545359Y-79130000D01*
X77527963Y-79306627D01*
X77493616Y-79419853D01*
X77476443Y-79476467D01*
X77402348Y-79615087D01*
X77392778Y-79632991D01*
X77363448Y-79668729D01*
X77280186Y-79770186D01*
X77178729Y-79853448D01*
X77142991Y-79882778D01*
X77142989Y-79882779D01*
X76986467Y-79966443D01*
X76929853Y-79983616D01*
X76816627Y-80017963D01*
X76750443Y-80024481D01*
X76684260Y-80031000D01*
X76595740Y-80031000D01*
X76529557Y-80024481D01*
X76463373Y-80017963D01*
X76350147Y-79983616D01*
X76293533Y-79966443D01*
X76137011Y-79882779D01*
X76137009Y-79882778D01*
X76101271Y-79853448D01*
X75999814Y-79770186D01*
X75916552Y-79668729D01*
X75887222Y-79632991D01*
X75877652Y-79615087D01*
X75803557Y-79476467D01*
X75786384Y-79419853D01*
X75752037Y-79306627D01*
X75734641Y-79130000D01*
X75752037Y-78953373D01*
X75803557Y-78783534D01*
X75803557Y-78783533D01*
X75887221Y-78627011D01*
X75887222Y-78627009D01*
X75916552Y-78591271D01*
X75999814Y-78489814D01*
X76101271Y-78406552D01*
X76137009Y-78377222D01*
X76154913Y-78367652D01*
X76293533Y-78293557D01*
X76350147Y-78276384D01*
X76463373Y-78242037D01*
X76529557Y-78235519D01*
X76595740Y-78229000D01*
X76684260Y-78229000D01*
X76750443Y-78235519D01*
X76750443Y-78235519D01*
G37*
G36*
X79290443Y-78235519D02*
X79356627Y-78242037D01*
X79469853Y-78276384D01*
X79526467Y-78293557D01*
X79665087Y-78367652D01*
X79682991Y-78377222D01*
X79718729Y-78406552D01*
X79820186Y-78489814D01*
X79903448Y-78591271D01*
X79932778Y-78627009D01*
X79932779Y-78627011D01*
X80016443Y-78783533D01*
X80016443Y-78783534D01*
X80067963Y-78953373D01*
X80085359Y-79130000D01*
X80067963Y-79306627D01*
X80033616Y-79419853D01*
X80016443Y-79476467D01*
X79942348Y-79615087D01*
X79932778Y-79632991D01*
X79903448Y-79668729D01*
X79820186Y-79770186D01*
X79718729Y-79853448D01*
X79682991Y-79882778D01*
X79682989Y-79882779D01*
X79526467Y-79966443D01*
X79469853Y-79983616D01*
X79356627Y-80017963D01*
X79290443Y-80024481D01*
X79224260Y-80031000D01*
X79135740Y-80031000D01*
X79069557Y-80024481D01*
X79003373Y-80017963D01*
X78890147Y-79983616D01*
X78833533Y-79966443D01*
X78677011Y-79882779D01*
X78677009Y-79882778D01*
X78641271Y-79853448D01*
X78539814Y-79770186D01*
X78456552Y-79668729D01*
X78427222Y-79632991D01*
X78417652Y-79615087D01*
X78343557Y-79476467D01*
X78326384Y-79419853D01*
X78292037Y-79306627D01*
X78274641Y-79130000D01*
X78292037Y-78953373D01*
X78343557Y-78783534D01*
X78343557Y-78783533D01*
X78427221Y-78627011D01*
X78427222Y-78627009D01*
X78456552Y-78591271D01*
X78539814Y-78489814D01*
X78641271Y-78406552D01*
X78677009Y-78377222D01*
X78694913Y-78367652D01*
X78833533Y-78293557D01*
X78890147Y-78276384D01*
X79003373Y-78242037D01*
X79069557Y-78235519D01*
X79135740Y-78229000D01*
X79224260Y-78229000D01*
X79290443Y-78235519D01*
X79290443Y-78235519D01*
G37*
G36*
X69130443Y-78235519D02*
X69196627Y-78242037D01*
X69309853Y-78276384D01*
X69366467Y-78293557D01*
X69505087Y-78367652D01*
X69522991Y-78377222D01*
X69558729Y-78406552D01*
X69660186Y-78489814D01*
X69743448Y-78591271D01*
X69772778Y-78627009D01*
X69772779Y-78627011D01*
X69856443Y-78783533D01*
X69856443Y-78783534D01*
X69907963Y-78953373D01*
X69925359Y-79130000D01*
X69907963Y-79306627D01*
X69873616Y-79419853D01*
X69856443Y-79476467D01*
X69782348Y-79615087D01*
X69772778Y-79632991D01*
X69743448Y-79668729D01*
X69660186Y-79770186D01*
X69558729Y-79853448D01*
X69522991Y-79882778D01*
X69522989Y-79882779D01*
X69366467Y-79966443D01*
X69309853Y-79983616D01*
X69196627Y-80017963D01*
X69130443Y-80024481D01*
X69064260Y-80031000D01*
X68975740Y-80031000D01*
X68909557Y-80024481D01*
X68843373Y-80017963D01*
X68730147Y-79983616D01*
X68673533Y-79966443D01*
X68517011Y-79882779D01*
X68517009Y-79882778D01*
X68481271Y-79853448D01*
X68379814Y-79770186D01*
X68296552Y-79668729D01*
X68267222Y-79632991D01*
X68257652Y-79615087D01*
X68183557Y-79476467D01*
X68166384Y-79419853D01*
X68132037Y-79306627D01*
X68114641Y-79130000D01*
X68132037Y-78953373D01*
X68183557Y-78783534D01*
X68183557Y-78783533D01*
X68267221Y-78627011D01*
X68267222Y-78627009D01*
X68296552Y-78591271D01*
X68379814Y-78489814D01*
X68481271Y-78406552D01*
X68517009Y-78377222D01*
X68534913Y-78367652D01*
X68673533Y-78293557D01*
X68730147Y-78276384D01*
X68843373Y-78242037D01*
X68909557Y-78235519D01*
X68975740Y-78229000D01*
X69064260Y-78229000D01*
X69130443Y-78235519D01*
X69130443Y-78235519D01*
G37*
G36*
X71670443Y-78235519D02*
X71736627Y-78242037D01*
X71849853Y-78276384D01*
X71906467Y-78293557D01*
X72045087Y-78367652D01*
X72062991Y-78377222D01*
X72098729Y-78406552D01*
X72200186Y-78489814D01*
X72283448Y-78591271D01*
X72312778Y-78627009D01*
X72312779Y-78627011D01*
X72396443Y-78783533D01*
X72396443Y-78783534D01*
X72447963Y-78953373D01*
X72465359Y-79130000D01*
X72447963Y-79306627D01*
X72413616Y-79419853D01*
X72396443Y-79476467D01*
X72322348Y-79615087D01*
X72312778Y-79632991D01*
X72283448Y-79668729D01*
X72200186Y-79770186D01*
X72098729Y-79853448D01*
X72062991Y-79882778D01*
X72062989Y-79882779D01*
X71906467Y-79966443D01*
X71849853Y-79983616D01*
X71736627Y-80017963D01*
X71670443Y-80024481D01*
X71604260Y-80031000D01*
X71515740Y-80031000D01*
X71449557Y-80024481D01*
X71383373Y-80017963D01*
X71270147Y-79983616D01*
X71213533Y-79966443D01*
X71057011Y-79882779D01*
X71057009Y-79882778D01*
X71021271Y-79853448D01*
X70919814Y-79770186D01*
X70836552Y-79668729D01*
X70807222Y-79632991D01*
X70797652Y-79615087D01*
X70723557Y-79476467D01*
X70706384Y-79419853D01*
X70672037Y-79306627D01*
X70654641Y-79130000D01*
X70672037Y-78953373D01*
X70723557Y-78783534D01*
X70723557Y-78783533D01*
X70807221Y-78627011D01*
X70807222Y-78627009D01*
X70836552Y-78591271D01*
X70919814Y-78489814D01*
X71021271Y-78406552D01*
X71057009Y-78377222D01*
X71074913Y-78367652D01*
X71213533Y-78293557D01*
X71270147Y-78276384D01*
X71383373Y-78242037D01*
X71449557Y-78235519D01*
X71515740Y-78229000D01*
X71604260Y-78229000D01*
X71670443Y-78235519D01*
X71670443Y-78235519D01*
G37*
G36*
X92626000Y-69701000D02*
X86374000Y-69701000D01*
X86374000Y-67999000D01*
X92626000Y-67999000D01*
X92626000Y-69701000D01*
X92626000Y-69701000D01*
G37*
G36*
X78033643Y-66229781D02*
X78179415Y-66290162D01*
X78310611Y-66377824D01*
X78422176Y-66489389D01*
X78509838Y-66620585D01*
X78570219Y-66766357D01*
X78601000Y-66921107D01*
X78601000Y-67078893D01*
X78570219Y-67233643D01*
X78509838Y-67379415D01*
X78422176Y-67510611D01*
X78310611Y-67622176D01*
X78179415Y-67709838D01*
X78033643Y-67770219D01*
X77878893Y-67801000D01*
X77721107Y-67801000D01*
X77566357Y-67770219D01*
X77420585Y-67709838D01*
X77289389Y-67622176D01*
X77177824Y-67510611D01*
X77090162Y-67379415D01*
X77029781Y-67233643D01*
X76999000Y-67078893D01*
X76999000Y-66921107D01*
X77029781Y-66766357D01*
X77090162Y-66620585D01*
X77177824Y-66489389D01*
X77289389Y-66377824D01*
X77420585Y-66290162D01*
X77566357Y-66229781D01*
X77721107Y-66199000D01*
X77878893Y-66199000D01*
X78033643Y-66229781D01*
X78033643Y-66229781D01*
G37*
G36*
X72334466Y-66253565D02*
X72373137Y-66265296D01*
X72408779Y-66284348D01*
X72440017Y-66309983D01*
X72465652Y-66341221D01*
X72484704Y-66376863D01*
X72496435Y-66415534D01*
X72501000Y-66461888D01*
X72501000Y-67538112D01*
X72496435Y-67584466D01*
X72484704Y-67623137D01*
X72465652Y-67658779D01*
X72440017Y-67690017D01*
X72408779Y-67715652D01*
X72373137Y-67734704D01*
X72334466Y-67746435D01*
X72288112Y-67751000D01*
X71636888Y-67751000D01*
X71590534Y-67746435D01*
X71551863Y-67734704D01*
X71516221Y-67715652D01*
X71484983Y-67690017D01*
X71459348Y-67658779D01*
X71440296Y-67623137D01*
X71428565Y-67584466D01*
X71424000Y-67538112D01*
X71424000Y-66461888D01*
X71428565Y-66415534D01*
X71440296Y-66376863D01*
X71459348Y-66341221D01*
X71484983Y-66309983D01*
X71516221Y-66284348D01*
X71551863Y-66265296D01*
X71590534Y-66253565D01*
X71636888Y-66249000D01*
X72288112Y-66249000D01*
X72334466Y-66253565D01*
X72334466Y-66253565D01*
G37*
G36*
X74209466Y-66253565D02*
X74248137Y-66265296D01*
X74283779Y-66284348D01*
X74315017Y-66309983D01*
X74340652Y-66341221D01*
X74359704Y-66376863D01*
X74371435Y-66415534D01*
X74376000Y-66461888D01*
X74376000Y-67538112D01*
X74371435Y-67584466D01*
X74359704Y-67623137D01*
X74340652Y-67658779D01*
X74315017Y-67690017D01*
X74283779Y-67715652D01*
X74248137Y-67734704D01*
X74209466Y-67746435D01*
X74163112Y-67751000D01*
X73511888Y-67751000D01*
X73465534Y-67746435D01*
X73426863Y-67734704D01*
X73391221Y-67715652D01*
X73359983Y-67690017D01*
X73334348Y-67658779D01*
X73315296Y-67623137D01*
X73303565Y-67584466D01*
X73299000Y-67538112D01*
X73299000Y-66461888D01*
X73303565Y-66415534D01*
X73315296Y-66376863D01*
X73334348Y-66341221D01*
X73359983Y-66309983D01*
X73391221Y-66284348D01*
X73426863Y-66265296D01*
X73465534Y-66253565D01*
X73511888Y-66249000D01*
X74163112Y-66249000D01*
X74209466Y-66253565D01*
X74209466Y-66253565D01*
G37*
G36*
X86101000Y-67726000D02*
X84399000Y-67726000D01*
X84399000Y-61474000D01*
X86101000Y-61474000D01*
X86101000Y-67726000D01*
X86101000Y-67726000D01*
G37*
G36*
X94601000Y-67726000D02*
X92899000Y-67726000D01*
X92899000Y-61474000D01*
X94601000Y-61474000D01*
X94601000Y-67726000D01*
X94601000Y-67726000D01*
G37*
G36*
X101101000Y-66901000D02*
X99299000Y-66901000D01*
X99299000Y-65099000D01*
X101101000Y-65099000D01*
X101101000Y-66901000D01*
X101101000Y-66901000D01*
G37*
G36*
X100310443Y-62565519D02*
X100376627Y-62572037D01*
X100489853Y-62606384D01*
X100546467Y-62623557D01*
X100660418Y-62684466D01*
X100702991Y-62707222D01*
X100722383Y-62723137D01*
X100840186Y-62819814D01*
X100923226Y-62921000D01*
X100952778Y-62957009D01*
X100952779Y-62957011D01*
X101036443Y-63113533D01*
X101036443Y-63113534D01*
X101087963Y-63283373D01*
X101105359Y-63460000D01*
X101087963Y-63636627D01*
X101060852Y-63726000D01*
X101036443Y-63806467D01*
X101000345Y-63874000D01*
X100952778Y-63962991D01*
X100923448Y-63998729D01*
X100840186Y-64100186D01*
X100738729Y-64183448D01*
X100702991Y-64212778D01*
X100702989Y-64212779D01*
X100546467Y-64296443D01*
X100489853Y-64313616D01*
X100376627Y-64347963D01*
X100310442Y-64354482D01*
X100244260Y-64361000D01*
X100155740Y-64361000D01*
X100089558Y-64354482D01*
X100023373Y-64347963D01*
X99910147Y-64313616D01*
X99853533Y-64296443D01*
X99697011Y-64212779D01*
X99697009Y-64212778D01*
X99661271Y-64183448D01*
X99559814Y-64100186D01*
X99476552Y-63998729D01*
X99447222Y-63962991D01*
X99399655Y-63874000D01*
X99363557Y-63806467D01*
X99339148Y-63726000D01*
X99312037Y-63636627D01*
X99294641Y-63460000D01*
X99312037Y-63283373D01*
X99363557Y-63113534D01*
X99363557Y-63113533D01*
X99447221Y-62957011D01*
X99447222Y-62957009D01*
X99476774Y-62921000D01*
X99559814Y-62819814D01*
X99677617Y-62723137D01*
X99697009Y-62707222D01*
X99739582Y-62684466D01*
X99853533Y-62623557D01*
X99910147Y-62606384D01*
X100023373Y-62572037D01*
X100089557Y-62565519D01*
X100155740Y-62559000D01*
X100244260Y-62559000D01*
X100310443Y-62565519D01*
X100310443Y-62565519D01*
G37*
G36*
X78033643Y-61349781D02*
X78179415Y-61410162D01*
X78310611Y-61497824D01*
X78422176Y-61609389D01*
X78509838Y-61740585D01*
X78570219Y-61886357D01*
X78601000Y-62041107D01*
X78601000Y-62198893D01*
X78570219Y-62353643D01*
X78509838Y-62499415D01*
X78422176Y-62630611D01*
X78310611Y-62742176D01*
X78179415Y-62829838D01*
X78033643Y-62890219D01*
X77878893Y-62921000D01*
X77721107Y-62921000D01*
X77566357Y-62890219D01*
X77420585Y-62829838D01*
X77289389Y-62742176D01*
X77177824Y-62630611D01*
X77090162Y-62499415D01*
X77029781Y-62353643D01*
X76999000Y-62198893D01*
X76999000Y-62041107D01*
X77029781Y-61886357D01*
X77090162Y-61740585D01*
X77177824Y-61609389D01*
X77289389Y-61497824D01*
X77420585Y-61410162D01*
X77566357Y-61349781D01*
X77721107Y-61319000D01*
X77878893Y-61319000D01*
X78033643Y-61349781D01*
X78033643Y-61349781D01*
G37*
G36*
X72334466Y-61353565D02*
X72373137Y-61365296D01*
X72408779Y-61384348D01*
X72440017Y-61409983D01*
X72465652Y-61441221D01*
X72484704Y-61476863D01*
X72496435Y-61515534D01*
X72501000Y-61561888D01*
X72501000Y-62638112D01*
X72496435Y-62684466D01*
X72484704Y-62723137D01*
X72465652Y-62758779D01*
X72440017Y-62790017D01*
X72408779Y-62815652D01*
X72373137Y-62834704D01*
X72334466Y-62846435D01*
X72288112Y-62851000D01*
X71636888Y-62851000D01*
X71590534Y-62846435D01*
X71551863Y-62834704D01*
X71516221Y-62815652D01*
X71484983Y-62790017D01*
X71459348Y-62758779D01*
X71440296Y-62723137D01*
X71428565Y-62684466D01*
X71424000Y-62638112D01*
X71424000Y-61561888D01*
X71428565Y-61515534D01*
X71440296Y-61476863D01*
X71459348Y-61441221D01*
X71484983Y-61409983D01*
X71516221Y-61384348D01*
X71551863Y-61365296D01*
X71590534Y-61353565D01*
X71636888Y-61349000D01*
X72288112Y-61349000D01*
X72334466Y-61353565D01*
X72334466Y-61353565D01*
G37*
G36*
X74209466Y-61353565D02*
X74248137Y-61365296D01*
X74283779Y-61384348D01*
X74315017Y-61409983D01*
X74340652Y-61441221D01*
X74359704Y-61476863D01*
X74371435Y-61515534D01*
X74376000Y-61561888D01*
X74376000Y-62638112D01*
X74371435Y-62684466D01*
X74359704Y-62723137D01*
X74340652Y-62758779D01*
X74315017Y-62790017D01*
X74283779Y-62815652D01*
X74248137Y-62834704D01*
X74209466Y-62846435D01*
X74163112Y-62851000D01*
X73511888Y-62851000D01*
X73465534Y-62846435D01*
X73426863Y-62834704D01*
X73391221Y-62815652D01*
X73359983Y-62790017D01*
X73334348Y-62758779D01*
X73315296Y-62723137D01*
X73303565Y-62684466D01*
X73299000Y-62638112D01*
X73299000Y-61561888D01*
X73303565Y-61515534D01*
X73315296Y-61476863D01*
X73334348Y-61441221D01*
X73359983Y-61409983D01*
X73391221Y-61384348D01*
X73426863Y-61365296D01*
X73465534Y-61353565D01*
X73511888Y-61349000D01*
X74163112Y-61349000D01*
X74209466Y-61353565D01*
X74209466Y-61353565D01*
G37*
G36*
X92626000Y-61201000D02*
X86374000Y-61201000D01*
X86374000Y-59499000D01*
X92626000Y-59499000D01*
X92626000Y-61201000D01*
X92626000Y-61201000D01*
G37*
G36*
X52725331Y-57268211D02*
X53053092Y-57403974D01*
X53348073Y-57601074D01*
X53598926Y-57851927D01*
X53796026Y-58146908D01*
X53931789Y-58474669D01*
X54001000Y-58822616D01*
X54001000Y-59177384D01*
X53931789Y-59525331D01*
X53796026Y-59853092D01*
X53598926Y-60148073D01*
X53348073Y-60398926D01*
X53053092Y-60596026D01*
X52725331Y-60731789D01*
X52377384Y-60801000D01*
X52022616Y-60801000D01*
X51674669Y-60731789D01*
X51346908Y-60596026D01*
X51051927Y-60398926D01*
X50801074Y-60148073D01*
X50603974Y-59853092D01*
X50468211Y-59525331D01*
X50399000Y-59177384D01*
X50399000Y-58822616D01*
X50468211Y-58474669D01*
X50603974Y-58146908D01*
X50801074Y-57851927D01*
X51051927Y-57601074D01*
X51346908Y-57403974D01*
X51674669Y-57268211D01*
X52022616Y-57199000D01*
X52377384Y-57199000D01*
X52725331Y-57268211D01*
X52725331Y-57268211D01*
G37*
G36*
X104725331Y-57268211D02*
X105053092Y-57403974D01*
X105348073Y-57601074D01*
X105598926Y-57851927D01*
X105796026Y-58146908D01*
X105931789Y-58474669D01*
X106001000Y-58822616D01*
X106001000Y-59177384D01*
X105931789Y-59525331D01*
X105796026Y-59853092D01*
X105598926Y-60148073D01*
X105348073Y-60398926D01*
X105053092Y-60596026D01*
X104725331Y-60731789D01*
X104377384Y-60801000D01*
X104022616Y-60801000D01*
X103674669Y-60731789D01*
X103346908Y-60596026D01*
X103051927Y-60398926D01*
X102801074Y-60148073D01*
X102603974Y-59853092D01*
X102468211Y-59525331D01*
X102399000Y-59177384D01*
X102399000Y-58822616D01*
X102468211Y-58474669D01*
X102603974Y-58146908D01*
X102801074Y-57851927D01*
X103051927Y-57601074D01*
X103346908Y-57403974D01*
X103674669Y-57268211D01*
X104022616Y-57199000D01*
X104377384Y-57199000D01*
X104725331Y-57268211D01*
X104725331Y-57268211D01*
G37*
G36*
X56410443Y-58865519D02*
X56476627Y-58872037D01*
X56589853Y-58906384D01*
X56646467Y-58923557D01*
X56785087Y-58997652D01*
X56802991Y-59007222D01*
X56838729Y-59036552D01*
X56940186Y-59119814D01*
X57023448Y-59221271D01*
X57052778Y-59257009D01*
X57052779Y-59257011D01*
X57136443Y-59413533D01*
X57136443Y-59413534D01*
X57187963Y-59583373D01*
X57205359Y-59760000D01*
X57187963Y-59936627D01*
X57153616Y-60049853D01*
X57136443Y-60106467D01*
X57062348Y-60245087D01*
X57052778Y-60262991D01*
X57023448Y-60298729D01*
X56940186Y-60400186D01*
X56838729Y-60483448D01*
X56802991Y-60512778D01*
X56802989Y-60512779D01*
X56646467Y-60596443D01*
X56589853Y-60613616D01*
X56476627Y-60647963D01*
X56410442Y-60654482D01*
X56344260Y-60661000D01*
X56255740Y-60661000D01*
X56189558Y-60654482D01*
X56123373Y-60647963D01*
X56010147Y-60613616D01*
X55953533Y-60596443D01*
X55797011Y-60512779D01*
X55797009Y-60512778D01*
X55761271Y-60483448D01*
X55659814Y-60400186D01*
X55576552Y-60298729D01*
X55547222Y-60262991D01*
X55537652Y-60245087D01*
X55463557Y-60106467D01*
X55446384Y-60049853D01*
X55412037Y-59936627D01*
X55394641Y-59760000D01*
X55412037Y-59583373D01*
X55463557Y-59413534D01*
X55463557Y-59413533D01*
X55547221Y-59257011D01*
X55547222Y-59257009D01*
X55576552Y-59221271D01*
X55659814Y-59119814D01*
X55761271Y-59036552D01*
X55797009Y-59007222D01*
X55814913Y-58997652D01*
X55953533Y-58923557D01*
X56010147Y-58906384D01*
X56123373Y-58872037D01*
X56189557Y-58865519D01*
X56255740Y-58859000D01*
X56344260Y-58859000D01*
X56410443Y-58865519D01*
X56410443Y-58865519D01*
G37*
G36*
X56410442Y-56325518D02*
X56476627Y-56332037D01*
X56589853Y-56366384D01*
X56646467Y-56383557D01*
X56785087Y-56457652D01*
X56802991Y-56467222D01*
X56838729Y-56496552D01*
X56940186Y-56579814D01*
X57023448Y-56681271D01*
X57052778Y-56717009D01*
X57052779Y-56717011D01*
X57136443Y-56873533D01*
X57136443Y-56873534D01*
X57187963Y-57043373D01*
X57205359Y-57220000D01*
X57187963Y-57396627D01*
X57153616Y-57509853D01*
X57136443Y-57566467D01*
X57062348Y-57705087D01*
X57052778Y-57722991D01*
X57023448Y-57758729D01*
X56940186Y-57860186D01*
X56838729Y-57943448D01*
X56802991Y-57972778D01*
X56802989Y-57972779D01*
X56646467Y-58056443D01*
X56589853Y-58073616D01*
X56476627Y-58107963D01*
X56410443Y-58114481D01*
X56344260Y-58121000D01*
X56255740Y-58121000D01*
X56189557Y-58114481D01*
X56123373Y-58107963D01*
X56010147Y-58073616D01*
X55953533Y-58056443D01*
X55797011Y-57972779D01*
X55797009Y-57972778D01*
X55761271Y-57943448D01*
X55659814Y-57860186D01*
X55576552Y-57758729D01*
X55547222Y-57722991D01*
X55537652Y-57705087D01*
X55463557Y-57566467D01*
X55446384Y-57509853D01*
X55412037Y-57396627D01*
X55394641Y-57220000D01*
X55412037Y-57043373D01*
X55463557Y-56873534D01*
X55463557Y-56873533D01*
X55547221Y-56717011D01*
X55547222Y-56717009D01*
X55576552Y-56681271D01*
X55659814Y-56579814D01*
X55761271Y-56496552D01*
X55797009Y-56467222D01*
X55814913Y-56457652D01*
X55953533Y-56383557D01*
X56010147Y-56366384D01*
X56123373Y-56332037D01*
X56189558Y-56325518D01*
X56255740Y-56319000D01*
X56344260Y-56319000D01*
X56410442Y-56325518D01*
X56410442Y-56325518D01*
G37*
G36*
X89684466Y-56003565D02*
X89723137Y-56015296D01*
X89758779Y-56034348D01*
X89790017Y-56059983D01*
X89815652Y-56091221D01*
X89834704Y-56126863D01*
X89846435Y-56165534D01*
X89851000Y-56211888D01*
X89851000Y-56863112D01*
X89846435Y-56909466D01*
X89834704Y-56948137D01*
X89815652Y-56983779D01*
X89790017Y-57015017D01*
X89758779Y-57040652D01*
X89723137Y-57059704D01*
X89684466Y-57071435D01*
X89638112Y-57076000D01*
X88561888Y-57076000D01*
X88515534Y-57071435D01*
X88476863Y-57059704D01*
X88441221Y-57040652D01*
X88409983Y-57015017D01*
X88384348Y-56983779D01*
X88365296Y-56948137D01*
X88353565Y-56909466D01*
X88349000Y-56863112D01*
X88349000Y-56211888D01*
X88353565Y-56165534D01*
X88365296Y-56126863D01*
X88384348Y-56091221D01*
X88409983Y-56059983D01*
X88441221Y-56034348D01*
X88476863Y-56015296D01*
X88515534Y-56003565D01*
X88561888Y-55999000D01*
X89638112Y-55999000D01*
X89684466Y-56003565D01*
X89684466Y-56003565D01*
G37*
G36*
X56410442Y-53785518D02*
X56476627Y-53792037D01*
X56589853Y-53826384D01*
X56646467Y-53843557D01*
X56785087Y-53917652D01*
X56802991Y-53927222D01*
X56838729Y-53956552D01*
X56940186Y-54039814D01*
X57013021Y-54128565D01*
X57052778Y-54177009D01*
X57052779Y-54177011D01*
X57136443Y-54333533D01*
X57153616Y-54390147D01*
X57187963Y-54503373D01*
X57205359Y-54680000D01*
X57187963Y-54856627D01*
X57165175Y-54931750D01*
X57136443Y-55026467D01*
X57085304Y-55122139D01*
X57052778Y-55182991D01*
X57037998Y-55201000D01*
X56940186Y-55320186D01*
X56838729Y-55403448D01*
X56802991Y-55432778D01*
X56802989Y-55432779D01*
X56646467Y-55516443D01*
X56589853Y-55533616D01*
X56476627Y-55567963D01*
X56410442Y-55574482D01*
X56344260Y-55581000D01*
X56255740Y-55581000D01*
X56189558Y-55574482D01*
X56123373Y-55567963D01*
X56010147Y-55533616D01*
X55953533Y-55516443D01*
X55797011Y-55432779D01*
X55797009Y-55432778D01*
X55761271Y-55403448D01*
X55659814Y-55320186D01*
X55562002Y-55201000D01*
X55547222Y-55182991D01*
X55514696Y-55122139D01*
X55463557Y-55026467D01*
X55434825Y-54931750D01*
X55412037Y-54856627D01*
X55394641Y-54680000D01*
X55412037Y-54503373D01*
X55446384Y-54390147D01*
X55463557Y-54333533D01*
X55547221Y-54177011D01*
X55547222Y-54177009D01*
X55586979Y-54128565D01*
X55659814Y-54039814D01*
X55761271Y-53956552D01*
X55797009Y-53927222D01*
X55814913Y-53917652D01*
X55953533Y-53843557D01*
X56010147Y-53826384D01*
X56123373Y-53792037D01*
X56189558Y-53785518D01*
X56255740Y-53779000D01*
X56344260Y-53779000D01*
X56410442Y-53785518D01*
X56410442Y-53785518D01*
G37*
G36*
X89684466Y-54128565D02*
X89723137Y-54140296D01*
X89758779Y-54159348D01*
X89790017Y-54184983D01*
X89815652Y-54216221D01*
X89834704Y-54251863D01*
X89846435Y-54290534D01*
X89851000Y-54336888D01*
X89851000Y-54988112D01*
X89846435Y-55034466D01*
X89834704Y-55073137D01*
X89815652Y-55108779D01*
X89790017Y-55140017D01*
X89758779Y-55165652D01*
X89723137Y-55184704D01*
X89684466Y-55196435D01*
X89638112Y-55201000D01*
X88561888Y-55201000D01*
X88515534Y-55196435D01*
X88476863Y-55184704D01*
X88441221Y-55165652D01*
X88409983Y-55140017D01*
X88384348Y-55108779D01*
X88365296Y-55073137D01*
X88353565Y-55034466D01*
X88349000Y-54988112D01*
X88349000Y-54336888D01*
X88353565Y-54290534D01*
X88365296Y-54251863D01*
X88384348Y-54216221D01*
X88409983Y-54184983D01*
X88441221Y-54159348D01*
X88476863Y-54140296D01*
X88515534Y-54128565D01*
X88561888Y-54124000D01*
X89638112Y-54124000D01*
X89684466Y-54128565D01*
X89684466Y-54128565D01*
G37*
G36*
X56410442Y-51245518D02*
X56476627Y-51252037D01*
X56589853Y-51286384D01*
X56646467Y-51303557D01*
X56785087Y-51377652D01*
X56802991Y-51387222D01*
X56838729Y-51416552D01*
X56940186Y-51499814D01*
X57023448Y-51601271D01*
X57052778Y-51637009D01*
X57052779Y-51637011D01*
X57136443Y-51793533D01*
X57136443Y-51793534D01*
X57187963Y-51963373D01*
X57205359Y-52140000D01*
X57187963Y-52316627D01*
X57153616Y-52429853D01*
X57136443Y-52486467D01*
X57062348Y-52625087D01*
X57052778Y-52642991D01*
X57023448Y-52678729D01*
X56940186Y-52780186D01*
X56838729Y-52863448D01*
X56802991Y-52892778D01*
X56802989Y-52892779D01*
X56646467Y-52976443D01*
X56589853Y-52993616D01*
X56476627Y-53027963D01*
X56410443Y-53034481D01*
X56344260Y-53041000D01*
X56255740Y-53041000D01*
X56189557Y-53034481D01*
X56123373Y-53027963D01*
X56010147Y-52993616D01*
X55953533Y-52976443D01*
X55797011Y-52892779D01*
X55797009Y-52892778D01*
X55761271Y-52863448D01*
X55659814Y-52780186D01*
X55576552Y-52678729D01*
X55547222Y-52642991D01*
X55537652Y-52625087D01*
X55463557Y-52486467D01*
X55446384Y-52429853D01*
X55412037Y-52316627D01*
X55394641Y-52140000D01*
X55412037Y-51963373D01*
X55463557Y-51793534D01*
X55463557Y-51793533D01*
X55547221Y-51637011D01*
X55547222Y-51637009D01*
X55576552Y-51601271D01*
X55659814Y-51499814D01*
X55761271Y-51416552D01*
X55797009Y-51387222D01*
X55814913Y-51377652D01*
X55953533Y-51303557D01*
X56010147Y-51286384D01*
X56123373Y-51252037D01*
X56189557Y-51245519D01*
X56255740Y-51239000D01*
X56344260Y-51239000D01*
X56410442Y-51245518D01*
X56410442Y-51245518D01*
G37*
G36*
X84170443Y-48705519D02*
X84236627Y-48712037D01*
X84349853Y-48746384D01*
X84406467Y-48763557D01*
X84545087Y-48837652D01*
X84562991Y-48847222D01*
X84598729Y-48876552D01*
X84700186Y-48959814D01*
X84783448Y-49061271D01*
X84812778Y-49097009D01*
X84812779Y-49097011D01*
X84896443Y-49253533D01*
X84896443Y-49253534D01*
X84947963Y-49423373D01*
X84965359Y-49600000D01*
X84947963Y-49776627D01*
X84913616Y-49889853D01*
X84896443Y-49946467D01*
X84822348Y-50085087D01*
X84812778Y-50102991D01*
X84783448Y-50138729D01*
X84700186Y-50240186D01*
X84598729Y-50323448D01*
X84562991Y-50352778D01*
X84562989Y-50352779D01*
X84406467Y-50436443D01*
X84349853Y-50453616D01*
X84236627Y-50487963D01*
X84170443Y-50494481D01*
X84104260Y-50501000D01*
X84015740Y-50501000D01*
X83949557Y-50494481D01*
X83883373Y-50487963D01*
X83770147Y-50453616D01*
X83713533Y-50436443D01*
X83557011Y-50352779D01*
X83557009Y-50352778D01*
X83521271Y-50323448D01*
X83419814Y-50240186D01*
X83336552Y-50138729D01*
X83307222Y-50102991D01*
X83297652Y-50085087D01*
X83223557Y-49946467D01*
X83206384Y-49889853D01*
X83172037Y-49776627D01*
X83154641Y-49600000D01*
X83172037Y-49423373D01*
X83223557Y-49253534D01*
X83223557Y-49253533D01*
X83307221Y-49097011D01*
X83307222Y-49097009D01*
X83336552Y-49061271D01*
X83419814Y-48959814D01*
X83521271Y-48876552D01*
X83557009Y-48847222D01*
X83574913Y-48837652D01*
X83713533Y-48763557D01*
X83770147Y-48746384D01*
X83883373Y-48712037D01*
X83949557Y-48705519D01*
X84015740Y-48699000D01*
X84104260Y-48699000D01*
X84170443Y-48705519D01*
X84170443Y-48705519D01*
G37*
G36*
X66390443Y-48705519D02*
X66456627Y-48712037D01*
X66569853Y-48746384D01*
X66626467Y-48763557D01*
X66765087Y-48837652D01*
X66782991Y-48847222D01*
X66818729Y-48876552D01*
X66920186Y-48959814D01*
X67003448Y-49061271D01*
X67032778Y-49097009D01*
X67032779Y-49097011D01*
X67116443Y-49253533D01*
X67116443Y-49253534D01*
X67167963Y-49423373D01*
X67185359Y-49600000D01*
X67167963Y-49776627D01*
X67133616Y-49889853D01*
X67116443Y-49946467D01*
X67042348Y-50085087D01*
X67032778Y-50102991D01*
X67003448Y-50138729D01*
X66920186Y-50240186D01*
X66818729Y-50323448D01*
X66782991Y-50352778D01*
X66782989Y-50352779D01*
X66626467Y-50436443D01*
X66569853Y-50453616D01*
X66456627Y-50487963D01*
X66390443Y-50494481D01*
X66324260Y-50501000D01*
X66235740Y-50501000D01*
X66169557Y-50494481D01*
X66103373Y-50487963D01*
X65990147Y-50453616D01*
X65933533Y-50436443D01*
X65777011Y-50352779D01*
X65777009Y-50352778D01*
X65741271Y-50323448D01*
X65639814Y-50240186D01*
X65556552Y-50138729D01*
X65527222Y-50102991D01*
X65517652Y-50085087D01*
X65443557Y-49946467D01*
X65426384Y-49889853D01*
X65392037Y-49776627D01*
X65374641Y-49600000D01*
X65392037Y-49423373D01*
X65443557Y-49253534D01*
X65443557Y-49253533D01*
X65527221Y-49097011D01*
X65527222Y-49097009D01*
X65556552Y-49061271D01*
X65639814Y-48959814D01*
X65741271Y-48876552D01*
X65777009Y-48847222D01*
X65794913Y-48837652D01*
X65933533Y-48763557D01*
X65990147Y-48746384D01*
X66103373Y-48712037D01*
X66169557Y-48705519D01*
X66235740Y-48699000D01*
X66324260Y-48699000D01*
X66390443Y-48705519D01*
X66390443Y-48705519D01*
G37*
G36*
X68930443Y-48705519D02*
X68996627Y-48712037D01*
X69109853Y-48746384D01*
X69166467Y-48763557D01*
X69305087Y-48837652D01*
X69322991Y-48847222D01*
X69358729Y-48876552D01*
X69460186Y-48959814D01*
X69543448Y-49061271D01*
X69572778Y-49097009D01*
X69572779Y-49097011D01*
X69656443Y-49253533D01*
X69656443Y-49253534D01*
X69707963Y-49423373D01*
X69725359Y-49600000D01*
X69707963Y-49776627D01*
X69673616Y-49889853D01*
X69656443Y-49946467D01*
X69582348Y-50085087D01*
X69572778Y-50102991D01*
X69543448Y-50138729D01*
X69460186Y-50240186D01*
X69358729Y-50323448D01*
X69322991Y-50352778D01*
X69322989Y-50352779D01*
X69166467Y-50436443D01*
X69109853Y-50453616D01*
X68996627Y-50487963D01*
X68930443Y-50494481D01*
X68864260Y-50501000D01*
X68775740Y-50501000D01*
X68709557Y-50494481D01*
X68643373Y-50487963D01*
X68530147Y-50453616D01*
X68473533Y-50436443D01*
X68317011Y-50352779D01*
X68317009Y-50352778D01*
X68281271Y-50323448D01*
X68179814Y-50240186D01*
X68096552Y-50138729D01*
X68067222Y-50102991D01*
X68057652Y-50085087D01*
X67983557Y-49946467D01*
X67966384Y-49889853D01*
X67932037Y-49776627D01*
X67914641Y-49600000D01*
X67932037Y-49423373D01*
X67983557Y-49253534D01*
X67983557Y-49253533D01*
X68067221Y-49097011D01*
X68067222Y-49097009D01*
X68096552Y-49061271D01*
X68179814Y-48959814D01*
X68281271Y-48876552D01*
X68317009Y-48847222D01*
X68334913Y-48837652D01*
X68473533Y-48763557D01*
X68530147Y-48746384D01*
X68643373Y-48712037D01*
X68709557Y-48705519D01*
X68775740Y-48699000D01*
X68864260Y-48699000D01*
X68930443Y-48705519D01*
X68930443Y-48705519D01*
G37*
G36*
X71470443Y-48705519D02*
X71536627Y-48712037D01*
X71649853Y-48746384D01*
X71706467Y-48763557D01*
X71845087Y-48837652D01*
X71862991Y-48847222D01*
X71898729Y-48876552D01*
X72000186Y-48959814D01*
X72083448Y-49061271D01*
X72112778Y-49097009D01*
X72112779Y-49097011D01*
X72196443Y-49253533D01*
X72196443Y-49253534D01*
X72247963Y-49423373D01*
X72265359Y-49600000D01*
X72247963Y-49776627D01*
X72213616Y-49889853D01*
X72196443Y-49946467D01*
X72122348Y-50085087D01*
X72112778Y-50102991D01*
X72083448Y-50138729D01*
X72000186Y-50240186D01*
X71898729Y-50323448D01*
X71862991Y-50352778D01*
X71862989Y-50352779D01*
X71706467Y-50436443D01*
X71649853Y-50453616D01*
X71536627Y-50487963D01*
X71470443Y-50494481D01*
X71404260Y-50501000D01*
X71315740Y-50501000D01*
X71249557Y-50494481D01*
X71183373Y-50487963D01*
X71070147Y-50453616D01*
X71013533Y-50436443D01*
X70857011Y-50352779D01*
X70857009Y-50352778D01*
X70821271Y-50323448D01*
X70719814Y-50240186D01*
X70636552Y-50138729D01*
X70607222Y-50102991D01*
X70597652Y-50085087D01*
X70523557Y-49946467D01*
X70506384Y-49889853D01*
X70472037Y-49776627D01*
X70454641Y-49600000D01*
X70472037Y-49423373D01*
X70523557Y-49253534D01*
X70523557Y-49253533D01*
X70607221Y-49097011D01*
X70607222Y-49097009D01*
X70636552Y-49061271D01*
X70719814Y-48959814D01*
X70821271Y-48876552D01*
X70857009Y-48847222D01*
X70874913Y-48837652D01*
X71013533Y-48763557D01*
X71070147Y-48746384D01*
X71183373Y-48712037D01*
X71249557Y-48705519D01*
X71315740Y-48699000D01*
X71404260Y-48699000D01*
X71470443Y-48705519D01*
X71470443Y-48705519D01*
G37*
G36*
X74010443Y-48705519D02*
X74076627Y-48712037D01*
X74189853Y-48746384D01*
X74246467Y-48763557D01*
X74385087Y-48837652D01*
X74402991Y-48847222D01*
X74438729Y-48876552D01*
X74540186Y-48959814D01*
X74623448Y-49061271D01*
X74652778Y-49097009D01*
X74652779Y-49097011D01*
X74736443Y-49253533D01*
X74736443Y-49253534D01*
X74787963Y-49423373D01*
X74805359Y-49600000D01*
X74787963Y-49776627D01*
X74753616Y-49889853D01*
X74736443Y-49946467D01*
X74662348Y-50085087D01*
X74652778Y-50102991D01*
X74623448Y-50138729D01*
X74540186Y-50240186D01*
X74438729Y-50323448D01*
X74402991Y-50352778D01*
X74402989Y-50352779D01*
X74246467Y-50436443D01*
X74189853Y-50453616D01*
X74076627Y-50487963D01*
X74010443Y-50494481D01*
X73944260Y-50501000D01*
X73855740Y-50501000D01*
X73789557Y-50494481D01*
X73723373Y-50487963D01*
X73610147Y-50453616D01*
X73553533Y-50436443D01*
X73397011Y-50352779D01*
X73397009Y-50352778D01*
X73361271Y-50323448D01*
X73259814Y-50240186D01*
X73176552Y-50138729D01*
X73147222Y-50102991D01*
X73137652Y-50085087D01*
X73063557Y-49946467D01*
X73046384Y-49889853D01*
X73012037Y-49776627D01*
X72994641Y-49600000D01*
X73012037Y-49423373D01*
X73063557Y-49253534D01*
X73063557Y-49253533D01*
X73147221Y-49097011D01*
X73147222Y-49097009D01*
X73176552Y-49061271D01*
X73259814Y-48959814D01*
X73361271Y-48876552D01*
X73397009Y-48847222D01*
X73414913Y-48837652D01*
X73553533Y-48763557D01*
X73610147Y-48746384D01*
X73723373Y-48712037D01*
X73789557Y-48705519D01*
X73855740Y-48699000D01*
X73944260Y-48699000D01*
X74010443Y-48705519D01*
X74010443Y-48705519D01*
G37*
G36*
X76550443Y-48705519D02*
X76616627Y-48712037D01*
X76729853Y-48746384D01*
X76786467Y-48763557D01*
X76925087Y-48837652D01*
X76942991Y-48847222D01*
X76978729Y-48876552D01*
X77080186Y-48959814D01*
X77163448Y-49061271D01*
X77192778Y-49097009D01*
X77192779Y-49097011D01*
X77276443Y-49253533D01*
X77276443Y-49253534D01*
X77327963Y-49423373D01*
X77345359Y-49600000D01*
X77327963Y-49776627D01*
X77293616Y-49889853D01*
X77276443Y-49946467D01*
X77202348Y-50085087D01*
X77192778Y-50102991D01*
X77163448Y-50138729D01*
X77080186Y-50240186D01*
X76978729Y-50323448D01*
X76942991Y-50352778D01*
X76942989Y-50352779D01*
X76786467Y-50436443D01*
X76729853Y-50453616D01*
X76616627Y-50487963D01*
X76550443Y-50494481D01*
X76484260Y-50501000D01*
X76395740Y-50501000D01*
X76329557Y-50494481D01*
X76263373Y-50487963D01*
X76150147Y-50453616D01*
X76093533Y-50436443D01*
X75937011Y-50352779D01*
X75937009Y-50352778D01*
X75901271Y-50323448D01*
X75799814Y-50240186D01*
X75716552Y-50138729D01*
X75687222Y-50102991D01*
X75677652Y-50085087D01*
X75603557Y-49946467D01*
X75586384Y-49889853D01*
X75552037Y-49776627D01*
X75534641Y-49600000D01*
X75552037Y-49423373D01*
X75603557Y-49253534D01*
X75603557Y-49253533D01*
X75687221Y-49097011D01*
X75687222Y-49097009D01*
X75716552Y-49061271D01*
X75799814Y-48959814D01*
X75901271Y-48876552D01*
X75937009Y-48847222D01*
X75954913Y-48837652D01*
X76093533Y-48763557D01*
X76150147Y-48746384D01*
X76263373Y-48712037D01*
X76329557Y-48705519D01*
X76395740Y-48699000D01*
X76484260Y-48699000D01*
X76550443Y-48705519D01*
X76550443Y-48705519D01*
G37*
G36*
X79090443Y-48705519D02*
X79156627Y-48712037D01*
X79269853Y-48746384D01*
X79326467Y-48763557D01*
X79465087Y-48837652D01*
X79482991Y-48847222D01*
X79518729Y-48876552D01*
X79620186Y-48959814D01*
X79703448Y-49061271D01*
X79732778Y-49097009D01*
X79732779Y-49097011D01*
X79816443Y-49253533D01*
X79816443Y-49253534D01*
X79867963Y-49423373D01*
X79885359Y-49600000D01*
X79867963Y-49776627D01*
X79833616Y-49889853D01*
X79816443Y-49946467D01*
X79742348Y-50085087D01*
X79732778Y-50102991D01*
X79703448Y-50138729D01*
X79620186Y-50240186D01*
X79518729Y-50323448D01*
X79482991Y-50352778D01*
X79482989Y-50352779D01*
X79326467Y-50436443D01*
X79269853Y-50453616D01*
X79156627Y-50487963D01*
X79090443Y-50494481D01*
X79024260Y-50501000D01*
X78935740Y-50501000D01*
X78869557Y-50494481D01*
X78803373Y-50487963D01*
X78690147Y-50453616D01*
X78633533Y-50436443D01*
X78477011Y-50352779D01*
X78477009Y-50352778D01*
X78441271Y-50323448D01*
X78339814Y-50240186D01*
X78256552Y-50138729D01*
X78227222Y-50102991D01*
X78217652Y-50085087D01*
X78143557Y-49946467D01*
X78126384Y-49889853D01*
X78092037Y-49776627D01*
X78074641Y-49600000D01*
X78092037Y-49423373D01*
X78143557Y-49253534D01*
X78143557Y-49253533D01*
X78227221Y-49097011D01*
X78227222Y-49097009D01*
X78256552Y-49061271D01*
X78339814Y-48959814D01*
X78441271Y-48876552D01*
X78477009Y-48847222D01*
X78494913Y-48837652D01*
X78633533Y-48763557D01*
X78690147Y-48746384D01*
X78803373Y-48712037D01*
X78869557Y-48705519D01*
X78935740Y-48699000D01*
X79024260Y-48699000D01*
X79090443Y-48705519D01*
X79090443Y-48705519D01*
G37*
G36*
X81630443Y-48705519D02*
X81696627Y-48712037D01*
X81809853Y-48746384D01*
X81866467Y-48763557D01*
X82005087Y-48837652D01*
X82022991Y-48847222D01*
X82058729Y-48876552D01*
X82160186Y-48959814D01*
X82243448Y-49061271D01*
X82272778Y-49097009D01*
X82272779Y-49097011D01*
X82356443Y-49253533D01*
X82356443Y-49253534D01*
X82407963Y-49423373D01*
X82425359Y-49600000D01*
X82407963Y-49776627D01*
X82373616Y-49889853D01*
X82356443Y-49946467D01*
X82282348Y-50085087D01*
X82272778Y-50102991D01*
X82243448Y-50138729D01*
X82160186Y-50240186D01*
X82058729Y-50323448D01*
X82022991Y-50352778D01*
X82022989Y-50352779D01*
X81866467Y-50436443D01*
X81809853Y-50453616D01*
X81696627Y-50487963D01*
X81630443Y-50494481D01*
X81564260Y-50501000D01*
X81475740Y-50501000D01*
X81409557Y-50494481D01*
X81343373Y-50487963D01*
X81230147Y-50453616D01*
X81173533Y-50436443D01*
X81017011Y-50352779D01*
X81017009Y-50352778D01*
X80981271Y-50323448D01*
X80879814Y-50240186D01*
X80796552Y-50138729D01*
X80767222Y-50102991D01*
X80757652Y-50085087D01*
X80683557Y-49946467D01*
X80666384Y-49889853D01*
X80632037Y-49776627D01*
X80614641Y-49600000D01*
X80632037Y-49423373D01*
X80683557Y-49253534D01*
X80683557Y-49253533D01*
X80767221Y-49097011D01*
X80767222Y-49097009D01*
X80796552Y-49061271D01*
X80879814Y-48959814D01*
X80981271Y-48876552D01*
X81017009Y-48847222D01*
X81034913Y-48837652D01*
X81173533Y-48763557D01*
X81230147Y-48746384D01*
X81343373Y-48712037D01*
X81409557Y-48705519D01*
X81475740Y-48699000D01*
X81564260Y-48699000D01*
X81630443Y-48705519D01*
X81630443Y-48705519D01*
G37*
G36*
X94330443Y-48705519D02*
X94396627Y-48712037D01*
X94509853Y-48746384D01*
X94566467Y-48763557D01*
X94705087Y-48837652D01*
X94722991Y-48847222D01*
X94758729Y-48876552D01*
X94860186Y-48959814D01*
X94943448Y-49061271D01*
X94972778Y-49097009D01*
X94972779Y-49097011D01*
X95056443Y-49253533D01*
X95056443Y-49253534D01*
X95107963Y-49423373D01*
X95125359Y-49600000D01*
X95107963Y-49776627D01*
X95073616Y-49889853D01*
X95056443Y-49946467D01*
X94982348Y-50085087D01*
X94972778Y-50102991D01*
X94943448Y-50138729D01*
X94860186Y-50240186D01*
X94758729Y-50323448D01*
X94722991Y-50352778D01*
X94722989Y-50352779D01*
X94566467Y-50436443D01*
X94509853Y-50453616D01*
X94396627Y-50487963D01*
X94330443Y-50494481D01*
X94264260Y-50501000D01*
X94175740Y-50501000D01*
X94109557Y-50494481D01*
X94043373Y-50487963D01*
X93930147Y-50453616D01*
X93873533Y-50436443D01*
X93717011Y-50352779D01*
X93717009Y-50352778D01*
X93681271Y-50323448D01*
X93579814Y-50240186D01*
X93496552Y-50138729D01*
X93467222Y-50102991D01*
X93457652Y-50085087D01*
X93383557Y-49946467D01*
X93366384Y-49889853D01*
X93332037Y-49776627D01*
X93314641Y-49600000D01*
X93332037Y-49423373D01*
X93383557Y-49253534D01*
X93383557Y-49253533D01*
X93467221Y-49097011D01*
X93467222Y-49097009D01*
X93496552Y-49061271D01*
X93579814Y-48959814D01*
X93681271Y-48876552D01*
X93717009Y-48847222D01*
X93734913Y-48837652D01*
X93873533Y-48763557D01*
X93930147Y-48746384D01*
X94043373Y-48712037D01*
X94109557Y-48705519D01*
X94175740Y-48699000D01*
X94264260Y-48699000D01*
X94330443Y-48705519D01*
X94330443Y-48705519D01*
G37*
G36*
X91790443Y-48705519D02*
X91856627Y-48712037D01*
X91969853Y-48746384D01*
X92026467Y-48763557D01*
X92165087Y-48837652D01*
X92182991Y-48847222D01*
X92218729Y-48876552D01*
X92320186Y-48959814D01*
X92403448Y-49061271D01*
X92432778Y-49097009D01*
X92432779Y-49097011D01*
X92516443Y-49253533D01*
X92516443Y-49253534D01*
X92567963Y-49423373D01*
X92585359Y-49600000D01*
X92567963Y-49776627D01*
X92533616Y-49889853D01*
X92516443Y-49946467D01*
X92442348Y-50085087D01*
X92432778Y-50102991D01*
X92403448Y-50138729D01*
X92320186Y-50240186D01*
X92218729Y-50323448D01*
X92182991Y-50352778D01*
X92182989Y-50352779D01*
X92026467Y-50436443D01*
X91969853Y-50453616D01*
X91856627Y-50487963D01*
X91790443Y-50494481D01*
X91724260Y-50501000D01*
X91635740Y-50501000D01*
X91569557Y-50494481D01*
X91503373Y-50487963D01*
X91390147Y-50453616D01*
X91333533Y-50436443D01*
X91177011Y-50352779D01*
X91177009Y-50352778D01*
X91141271Y-50323448D01*
X91039814Y-50240186D01*
X90956552Y-50138729D01*
X90927222Y-50102991D01*
X90917652Y-50085087D01*
X90843557Y-49946467D01*
X90826384Y-49889853D01*
X90792037Y-49776627D01*
X90774641Y-49600000D01*
X90792037Y-49423373D01*
X90843557Y-49253534D01*
X90843557Y-49253533D01*
X90927221Y-49097011D01*
X90927222Y-49097009D01*
X90956552Y-49061271D01*
X91039814Y-48959814D01*
X91141271Y-48876552D01*
X91177009Y-48847222D01*
X91194913Y-48837652D01*
X91333533Y-48763557D01*
X91390147Y-48746384D01*
X91503373Y-48712037D01*
X91569557Y-48705519D01*
X91635740Y-48699000D01*
X91724260Y-48699000D01*
X91790443Y-48705519D01*
X91790443Y-48705519D01*
G37*
G36*
X89250443Y-48705519D02*
X89316627Y-48712037D01*
X89429853Y-48746384D01*
X89486467Y-48763557D01*
X89625087Y-48837652D01*
X89642991Y-48847222D01*
X89678729Y-48876552D01*
X89780186Y-48959814D01*
X89863448Y-49061271D01*
X89892778Y-49097009D01*
X89892779Y-49097011D01*
X89976443Y-49253533D01*
X89976443Y-49253534D01*
X90027963Y-49423373D01*
X90045359Y-49600000D01*
X90027963Y-49776627D01*
X89993616Y-49889853D01*
X89976443Y-49946467D01*
X89902348Y-50085087D01*
X89892778Y-50102991D01*
X89863448Y-50138729D01*
X89780186Y-50240186D01*
X89678729Y-50323448D01*
X89642991Y-50352778D01*
X89642989Y-50352779D01*
X89486467Y-50436443D01*
X89429853Y-50453616D01*
X89316627Y-50487963D01*
X89250443Y-50494481D01*
X89184260Y-50501000D01*
X89095740Y-50501000D01*
X89029557Y-50494481D01*
X88963373Y-50487963D01*
X88850147Y-50453616D01*
X88793533Y-50436443D01*
X88637011Y-50352779D01*
X88637009Y-50352778D01*
X88601271Y-50323448D01*
X88499814Y-50240186D01*
X88416552Y-50138729D01*
X88387222Y-50102991D01*
X88377652Y-50085087D01*
X88303557Y-49946467D01*
X88286384Y-49889853D01*
X88252037Y-49776627D01*
X88234641Y-49600000D01*
X88252037Y-49423373D01*
X88303557Y-49253534D01*
X88303557Y-49253533D01*
X88387221Y-49097011D01*
X88387222Y-49097009D01*
X88416552Y-49061271D01*
X88499814Y-48959814D01*
X88601271Y-48876552D01*
X88637009Y-48847222D01*
X88654913Y-48837652D01*
X88793533Y-48763557D01*
X88850147Y-48746384D01*
X88963373Y-48712037D01*
X89029557Y-48705519D01*
X89095740Y-48699000D01*
X89184260Y-48699000D01*
X89250443Y-48705519D01*
X89250443Y-48705519D01*
G37*
G36*
X86710443Y-48705519D02*
X86776627Y-48712037D01*
X86889853Y-48746384D01*
X86946467Y-48763557D01*
X87085087Y-48837652D01*
X87102991Y-48847222D01*
X87138729Y-48876552D01*
X87240186Y-48959814D01*
X87323448Y-49061271D01*
X87352778Y-49097009D01*
X87352779Y-49097011D01*
X87436443Y-49253533D01*
X87436443Y-49253534D01*
X87487963Y-49423373D01*
X87505359Y-49600000D01*
X87487963Y-49776627D01*
X87453616Y-49889853D01*
X87436443Y-49946467D01*
X87362348Y-50085087D01*
X87352778Y-50102991D01*
X87323448Y-50138729D01*
X87240186Y-50240186D01*
X87138729Y-50323448D01*
X87102991Y-50352778D01*
X87102989Y-50352779D01*
X86946467Y-50436443D01*
X86889853Y-50453616D01*
X86776627Y-50487963D01*
X86710443Y-50494481D01*
X86644260Y-50501000D01*
X86555740Y-50501000D01*
X86489557Y-50494481D01*
X86423373Y-50487963D01*
X86310147Y-50453616D01*
X86253533Y-50436443D01*
X86097011Y-50352779D01*
X86097009Y-50352778D01*
X86061271Y-50323448D01*
X85959814Y-50240186D01*
X85876552Y-50138729D01*
X85847222Y-50102991D01*
X85837652Y-50085087D01*
X85763557Y-49946467D01*
X85746384Y-49889853D01*
X85712037Y-49776627D01*
X85694641Y-49600000D01*
X85712037Y-49423373D01*
X85763557Y-49253534D01*
X85763557Y-49253533D01*
X85847221Y-49097011D01*
X85847222Y-49097009D01*
X85876552Y-49061271D01*
X85959814Y-48959814D01*
X86061271Y-48876552D01*
X86097009Y-48847222D01*
X86114913Y-48837652D01*
X86253533Y-48763557D01*
X86310147Y-48746384D01*
X86423373Y-48712037D01*
X86489557Y-48705519D01*
X86555740Y-48699000D01*
X86644260Y-48699000D01*
X86710443Y-48705519D01*
X86710443Y-48705519D01*
G37*
G36*
X96870443Y-48705519D02*
X96936627Y-48712037D01*
X97049853Y-48746384D01*
X97106467Y-48763557D01*
X97245087Y-48837652D01*
X97262991Y-48847222D01*
X97298729Y-48876552D01*
X97400186Y-48959814D01*
X97483448Y-49061271D01*
X97512778Y-49097009D01*
X97512779Y-49097011D01*
X97596443Y-49253533D01*
X97596443Y-49253534D01*
X97647963Y-49423373D01*
X97665359Y-49600000D01*
X97647963Y-49776627D01*
X97613616Y-49889853D01*
X97596443Y-49946467D01*
X97522348Y-50085087D01*
X97512778Y-50102991D01*
X97483448Y-50138729D01*
X97400186Y-50240186D01*
X97298729Y-50323448D01*
X97262991Y-50352778D01*
X97262989Y-50352779D01*
X97106467Y-50436443D01*
X97049853Y-50453616D01*
X96936627Y-50487963D01*
X96870443Y-50494481D01*
X96804260Y-50501000D01*
X96715740Y-50501000D01*
X96649557Y-50494481D01*
X96583373Y-50487963D01*
X96470147Y-50453616D01*
X96413533Y-50436443D01*
X96257011Y-50352779D01*
X96257009Y-50352778D01*
X96221271Y-50323448D01*
X96119814Y-50240186D01*
X96036552Y-50138729D01*
X96007222Y-50102991D01*
X95997652Y-50085087D01*
X95923557Y-49946467D01*
X95906384Y-49889853D01*
X95872037Y-49776627D01*
X95854641Y-49600000D01*
X95872037Y-49423373D01*
X95923557Y-49253534D01*
X95923557Y-49253533D01*
X96007221Y-49097011D01*
X96007222Y-49097009D01*
X96036552Y-49061271D01*
X96119814Y-48959814D01*
X96221271Y-48876552D01*
X96257009Y-48847222D01*
X96274913Y-48837652D01*
X96413533Y-48763557D01*
X96470147Y-48746384D01*
X96583373Y-48712037D01*
X96649557Y-48705519D01*
X96715740Y-48699000D01*
X96804260Y-48699000D01*
X96870443Y-48705519D01*
X96870443Y-48705519D01*
G37*
G36*
X100201000Y-50501000D02*
X98399000Y-50501000D01*
X98399000Y-48699000D01*
X100201000Y-48699000D01*
X100201000Y-50501000D01*
X100201000Y-50501000D01*
G37*
G36*
X57201000Y-50501000D02*
X55399000Y-50501000D01*
X55399000Y-48699000D01*
X57201000Y-48699000D01*
X57201000Y-50501000D01*
X57201000Y-50501000D01*
G37*
G36*
X61310443Y-48705519D02*
X61376627Y-48712037D01*
X61489853Y-48746384D01*
X61546467Y-48763557D01*
X61685087Y-48837652D01*
X61702991Y-48847222D01*
X61738729Y-48876552D01*
X61840186Y-48959814D01*
X61923448Y-49061271D01*
X61952778Y-49097009D01*
X61952779Y-49097011D01*
X62036443Y-49253533D01*
X62036443Y-49253534D01*
X62087963Y-49423373D01*
X62105359Y-49600000D01*
X62087963Y-49776627D01*
X62053616Y-49889853D01*
X62036443Y-49946467D01*
X61962348Y-50085087D01*
X61952778Y-50102991D01*
X61923448Y-50138729D01*
X61840186Y-50240186D01*
X61738729Y-50323448D01*
X61702991Y-50352778D01*
X61702989Y-50352779D01*
X61546467Y-50436443D01*
X61489853Y-50453616D01*
X61376627Y-50487963D01*
X61310443Y-50494481D01*
X61244260Y-50501000D01*
X61155740Y-50501000D01*
X61089557Y-50494481D01*
X61023373Y-50487963D01*
X60910147Y-50453616D01*
X60853533Y-50436443D01*
X60697011Y-50352779D01*
X60697009Y-50352778D01*
X60661271Y-50323448D01*
X60559814Y-50240186D01*
X60476552Y-50138729D01*
X60447222Y-50102991D01*
X60437652Y-50085087D01*
X60363557Y-49946467D01*
X60346384Y-49889853D01*
X60312037Y-49776627D01*
X60294641Y-49600000D01*
X60312037Y-49423373D01*
X60363557Y-49253534D01*
X60363557Y-49253533D01*
X60447221Y-49097011D01*
X60447222Y-49097009D01*
X60476552Y-49061271D01*
X60559814Y-48959814D01*
X60661271Y-48876552D01*
X60697009Y-48847222D01*
X60714913Y-48837652D01*
X60853533Y-48763557D01*
X60910147Y-48746384D01*
X61023373Y-48712037D01*
X61089557Y-48705519D01*
X61155740Y-48699000D01*
X61244260Y-48699000D01*
X61310443Y-48705519D01*
X61310443Y-48705519D01*
G37*
G36*
X63850443Y-48705519D02*
X63916627Y-48712037D01*
X64029853Y-48746384D01*
X64086467Y-48763557D01*
X64225087Y-48837652D01*
X64242991Y-48847222D01*
X64278729Y-48876552D01*
X64380186Y-48959814D01*
X64463448Y-49061271D01*
X64492778Y-49097009D01*
X64492779Y-49097011D01*
X64576443Y-49253533D01*
X64576443Y-49253534D01*
X64627963Y-49423373D01*
X64645359Y-49600000D01*
X64627963Y-49776627D01*
X64593616Y-49889853D01*
X64576443Y-49946467D01*
X64502348Y-50085087D01*
X64492778Y-50102991D01*
X64463448Y-50138729D01*
X64380186Y-50240186D01*
X64278729Y-50323448D01*
X64242991Y-50352778D01*
X64242989Y-50352779D01*
X64086467Y-50436443D01*
X64029853Y-50453616D01*
X63916627Y-50487963D01*
X63850443Y-50494481D01*
X63784260Y-50501000D01*
X63695740Y-50501000D01*
X63629557Y-50494481D01*
X63563373Y-50487963D01*
X63450147Y-50453616D01*
X63393533Y-50436443D01*
X63237011Y-50352779D01*
X63237009Y-50352778D01*
X63201271Y-50323448D01*
X63099814Y-50240186D01*
X63016552Y-50138729D01*
X62987222Y-50102991D01*
X62977652Y-50085087D01*
X62903557Y-49946467D01*
X62886384Y-49889853D01*
X62852037Y-49776627D01*
X62834641Y-49600000D01*
X62852037Y-49423373D01*
X62903557Y-49253534D01*
X62903557Y-49253533D01*
X62987221Y-49097011D01*
X62987222Y-49097009D01*
X63016552Y-49061271D01*
X63099814Y-48959814D01*
X63201271Y-48876552D01*
X63237009Y-48847222D01*
X63254913Y-48837652D01*
X63393533Y-48763557D01*
X63450147Y-48746384D01*
X63563373Y-48712037D01*
X63629557Y-48705519D01*
X63695740Y-48699000D01*
X63784260Y-48699000D01*
X63850443Y-48705519D01*
X63850443Y-48705519D01*
G37*
M02*
