G04 #@! TF.GenerationSoftware,KiCad,Pcbnew,(5.0.2)-1*
G04 #@! TF.CreationDate,2019-02-19T09:56:42+00:00*
G04 #@! TF.ProjectId,AircraftDataLogger,41697263-7261-4667-9444-6174614c6f67,rev?*
G04 #@! TF.SameCoordinates,Original*
G04 #@! TF.FileFunction,Copper,L2,Bot*
G04 #@! TF.FilePolarity,Positive*
%FSLAX46Y46*%
G04 Gerber Fmt 4.6, Leading zero omitted, Abs format (unit mm)*
G04 Created by KiCad (PCBNEW (5.0.2)-1) date 19/02/2019 09:56:42*
%MOMM*%
%LPD*%
G01*
G04 APERTURE LIST*
G04 #@! TA.AperFunction,ComponentPad*
%ADD10C,3.500000*%
G04 #@! TD*
G04 #@! TA.AperFunction,ComponentPad*
%ADD11C,1.800000*%
G04 #@! TD*
G04 #@! TA.AperFunction,ComponentPad*
%ADD12R,1.800000X1.800000*%
G04 #@! TD*
G04 #@! TA.AperFunction,ComponentPad*
%ADD13R,1.700000X1.700000*%
G04 #@! TD*
G04 #@! TA.AperFunction,ComponentPad*
%ADD14O,1.700000X1.700000*%
G04 #@! TD*
G04 #@! TA.AperFunction,ComponentPad*
%ADD15C,1.500000*%
G04 #@! TD*
G04 #@! TA.AperFunction,ViaPad*
%ADD16C,0.800000*%
G04 #@! TD*
G04 #@! TA.AperFunction,Conductor*
%ADD17C,0.400000*%
G04 #@! TD*
G04 #@! TA.AperFunction,Conductor*
%ADD18C,0.254000*%
G04 #@! TD*
G04 APERTURE END LIST*
D10*
G04 #@! TO.P,TL,1*
G04 #@! TO.N,N/C*
X52200000Y-59000000D03*
G04 #@! TD*
G04 #@! TO.P,uSDR,1*
G04 #@! TO.N,N/C*
X88360000Y-106800000D03*
G04 #@! TD*
G04 #@! TO.P,uSDL,1*
G04 #@! TO.N,N/C*
X68040000Y-106800000D03*
G04 #@! TD*
G04 #@! TO.P,BL,1*
G04 #@! TO.N,N/C*
X104200000Y-103000000D03*
G04 #@! TD*
G04 #@! TO.P,TR,1*
G04 #@! TO.N,N/C*
X104200000Y-59000000D03*
G04 #@! TD*
G04 #@! TO.P,GPS,1*
G04 #@! TO.N,N/C*
X61400000Y-79060000D03*
G04 #@! TD*
D11*
G04 #@! TO.P,D1,2*
G04 #@! TO.N,FIX*
X87600000Y-88410000D03*
D12*
G04 #@! TO.P,D1,1*
G04 #@! TO.N,Net-(D1-Pad1)*
X87600000Y-90950000D03*
G04 #@! TD*
G04 #@! TO.P,D2,1*
G04 #@! TO.N,Net-(D2-Pad1)*
X68750000Y-90950000D03*
D11*
G04 #@! TO.P,D2,2*
G04 #@! TO.N,STABLE*
X68750000Y-88410000D03*
G04 #@! TD*
D12*
G04 #@! TO.P,D3,1*
G04 #@! TO.N,Net-(D3-Pad1)*
X78124000Y-90964600D03*
D11*
G04 #@! TO.P,D3,2*
G04 #@! TO.N,REC*
X78124000Y-88424600D03*
G04 #@! TD*
D13*
G04 #@! TO.P,J1,1*
G04 #@! TO.N,Net-(J1-Pad1)*
X86800000Y-79130000D03*
D14*
G04 #@! TO.P,J1,2*
G04 #@! TO.N,GND*
X84260000Y-79130000D03*
G04 #@! TO.P,J1,3*
G04 #@! TO.N,3V3*
X81720000Y-79130000D03*
G04 #@! TO.P,J1,4*
G04 #@! TO.N,SCK*
X79180000Y-79130000D03*
G04 #@! TO.P,J1,5*
G04 #@! TO.N,MISO*
X76640000Y-79130000D03*
G04 #@! TO.P,J1,6*
G04 #@! TO.N,MOSI*
X74100000Y-79130000D03*
G04 #@! TO.P,J1,7*
G04 #@! TO.N,CS*
X71560000Y-79130000D03*
G04 #@! TO.P,J1,8*
G04 #@! TO.N,Net-(J1-Pad8)*
X69020000Y-79130000D03*
G04 #@! TD*
D15*
G04 #@! TO.P,Y1,1*
G04 #@! TO.N,Net-(C2-Pad2)*
X77800000Y-67000000D03*
G04 #@! TO.P,Y1,2*
G04 #@! TO.N,Net-(C1-Pad2)*
X77800000Y-62120000D03*
G04 #@! TD*
D10*
G04 #@! TO.P,BL,1*
G04 #@! TO.N,N/C*
X52200000Y-103000000D03*
G04 #@! TD*
D13*
G04 #@! TO.P,J2,1*
G04 #@! TO.N,Net-(J2-Pad1)*
X99300000Y-49600000D03*
D14*
G04 #@! TO.P,J2,2*
G04 #@! TO.N,Net-(J2-Pad2)*
X96760000Y-49600000D03*
G04 #@! TO.P,J2,3*
G04 #@! TO.N,SDA*
X94220000Y-49600000D03*
G04 #@! TO.P,J2,4*
G04 #@! TO.N,SCL*
X91680000Y-49600000D03*
G04 #@! TO.P,J2,5*
G04 #@! TO.N,3V3*
X89140000Y-49600000D03*
G04 #@! TO.P,J2,6*
G04 #@! TO.N,GND*
X86600000Y-49600000D03*
G04 #@! TO.P,J2,7*
G04 #@! TO.N,Net-(J2-Pad7)*
X84060000Y-49600000D03*
G04 #@! TO.P,J2,8*
G04 #@! TO.N,3V3*
X81520000Y-49600000D03*
G04 #@! TO.P,J2,9*
G04 #@! TO.N,ENABLE*
X78980000Y-49600000D03*
G04 #@! TO.P,J2,10*
G04 #@! TO.N,Net-(J2-Pad10)*
X76440000Y-49600000D03*
G04 #@! TO.P,J2,11*
G04 #@! TO.N,FIX*
X73900000Y-49600000D03*
G04 #@! TO.P,J2,12*
G04 #@! TO.N,TXD*
X71360000Y-49600000D03*
G04 #@! TO.P,J2,13*
G04 #@! TO.N,RXD*
X68820000Y-49600000D03*
G04 #@! TO.P,J2,14*
G04 #@! TO.N,GND*
X66280000Y-49600000D03*
G04 #@! TO.P,J2,15*
G04 #@! TO.N,Net-(J2-Pad15)*
X63740000Y-49600000D03*
G04 #@! TO.P,J2,16*
G04 #@! TO.N,Net-(J2-Pad16)*
X61200000Y-49600000D03*
G04 #@! TD*
G04 #@! TO.P,J4,2*
G04 #@! TO.N,Net-(J4-Pad2)*
X100200000Y-63460000D03*
D13*
G04 #@! TO.P,J4,1*
G04 #@! TO.N,3V3*
X100200000Y-66000000D03*
G04 #@! TD*
G04 #@! TO.P,J5,1*
G04 #@! TO.N,+9V*
X103200000Y-96260000D03*
D14*
G04 #@! TO.P,J5,2*
G04 #@! TO.N,GND*
X103200000Y-98800000D03*
G04 #@! TD*
D13*
G04 #@! TO.P,J6,1*
G04 #@! TO.N,MOSI*
X74100000Y-83700000D03*
D14*
G04 #@! TO.P,J6,2*
G04 #@! TO.N,MISO*
X76640000Y-83700000D03*
G04 #@! TO.P,J6,3*
G04 #@! TO.N,SCK*
X79180000Y-83700000D03*
G04 #@! TD*
D13*
G04 #@! TO.P,J3,1*
G04 #@! TO.N,TXD*
X56300000Y-49600000D03*
D14*
G04 #@! TO.P,J3,2*
G04 #@! TO.N,RXD*
X56300000Y-52140000D03*
G04 #@! TO.P,J3,3*
G04 #@! TO.N,RESET*
X56300000Y-54680000D03*
G04 #@! TO.P,J3,4*
G04 #@! TO.N,5V*
X56300000Y-57220000D03*
G04 #@! TO.P,J3,5*
G04 #@! TO.N,GND*
X56300000Y-59760000D03*
G04 #@! TD*
D16*
G04 #@! TO.N,GND*
X95500000Y-99100000D03*
X64000000Y-98400000D03*
X70500000Y-64300000D03*
X95600000Y-65700000D03*
X95600000Y-69300000D03*
X100200000Y-72900000D03*
X82700000Y-63600000D03*
X97000000Y-83800000D03*
G04 #@! TO.N,3V3*
X83000000Y-61300000D03*
G04 #@! TO.N,STABLE*
X84600000Y-71200000D03*
G04 #@! TO.N,REC*
X85900000Y-71500000D03*
G04 #@! TO.N,RXD*
X70900000Y-53200000D03*
X64200000Y-55300000D03*
X67200000Y-52300000D03*
G04 #@! TO.N,TXD*
X72500000Y-55100000D03*
G04 #@! TO.N,MOSI*
X74100000Y-81200000D03*
G04 #@! TO.N,MISO*
X76700000Y-81400000D03*
G04 #@! TO.N,SCK*
X79200000Y-81500000D03*
G04 #@! TO.N,SDA*
X94200000Y-57000000D03*
G04 #@! TO.N,SCL*
X91700000Y-56900000D03*
G04 #@! TO.N,ENABLE*
X76700000Y-57000000D03*
X64600000Y-96300000D03*
X70300000Y-98400000D03*
G04 #@! TO.N,RESET*
X86800000Y-56000000D03*
G04 #@! TD*
D17*
G04 #@! TO.N,GND*
X69934315Y-64300000D02*
X67134315Y-67100000D01*
X70500000Y-64300000D02*
X69934315Y-64300000D01*
X67134315Y-67100000D02*
X56600000Y-67100000D01*
X95600000Y-65700000D02*
X95600000Y-66265685D01*
X95600000Y-66265685D02*
X95600000Y-69300000D01*
G04 #@! TO.N,FIX*
X73900000Y-49600000D02*
X76500000Y-47000000D01*
X76500000Y-47000000D02*
X102100000Y-47000000D01*
X102100000Y-47000000D02*
X103800000Y-48700000D01*
X103800000Y-48700000D02*
X103800000Y-53200000D01*
X103800000Y-53200000D02*
X96500000Y-60500000D01*
X96500000Y-60500000D02*
X96500000Y-79400000D01*
X96500000Y-79400000D02*
X87500000Y-88400000D01*
G04 #@! TO.N,STABLE*
X70035401Y-87124599D02*
X79675401Y-87124599D01*
X68750000Y-88410000D02*
X70035401Y-87124599D01*
X82970001Y-83829999D02*
X82970001Y-77329999D01*
X79675401Y-87124599D02*
X82970001Y-83829999D01*
X82970001Y-77329999D02*
X84600000Y-75700000D01*
X84600000Y-75700000D02*
X84600000Y-71200000D01*
G04 #@! TO.N,REC*
X85510001Y-72455684D02*
X85510001Y-82189999D01*
X85900000Y-71500000D02*
X85900000Y-72065685D01*
X85900000Y-72065685D02*
X85510001Y-72455684D01*
X85510001Y-82189999D02*
X79200000Y-88500000D01*
X79200000Y-88500000D02*
X78200000Y-88500000D01*
X78200000Y-88500000D02*
X78100000Y-88400000D01*
G04 #@! TO.N,RXD*
X70900000Y-53200000D02*
X69800000Y-53200000D01*
X69800000Y-53200000D02*
X68800000Y-52200000D01*
X68800000Y-52200000D02*
X68800000Y-49800000D01*
X56300000Y-52140000D02*
X59460000Y-55300000D01*
X59460000Y-55300000D02*
X64200000Y-55300000D01*
X68700000Y-52300000D02*
X68800000Y-52200000D01*
X67200000Y-52300000D02*
X68700000Y-52300000D01*
G04 #@! TO.N,TXD*
X72500000Y-50900000D02*
X71300000Y-49700000D01*
X62050000Y-54100000D02*
X72500000Y-54100000D01*
X57550000Y-49600000D02*
X62050000Y-54100000D01*
X56300000Y-49600000D02*
X57550000Y-49600000D01*
X72500000Y-55100000D02*
X72500000Y-54100000D01*
X72500000Y-54100000D02*
X72500000Y-50900000D01*
G04 #@! TO.N,MOSI*
X74100000Y-81200000D02*
X74100000Y-83700000D01*
G04 #@! TO.N,MISO*
X76700000Y-81400000D02*
X76700000Y-83600000D01*
X76700000Y-83600000D02*
X76600000Y-83700000D01*
G04 #@! TO.N,SCK*
X79200000Y-81500000D02*
X79200000Y-83700000D01*
G04 #@! TO.N,SDA*
X94200000Y-57000000D02*
X94200000Y-49600000D01*
G04 #@! TO.N,SCL*
X91700000Y-56900000D02*
X91700000Y-49700000D01*
G04 #@! TO.N,ENABLE*
X78980000Y-49600000D02*
X78980000Y-54720000D01*
X78980000Y-54720000D02*
X76700000Y-57000000D01*
X64600000Y-96300000D02*
X66700000Y-98400000D01*
X66700000Y-98400000D02*
X70300000Y-98400000D01*
G04 #@! TO.N,RESET*
X56300000Y-54680000D02*
X59420000Y-57800000D01*
X59420000Y-57800000D02*
X85000000Y-57800000D01*
X85000000Y-57800000D02*
X86800000Y-56000000D01*
G04 #@! TD*
D18*
G04 #@! TO.N,GND*
G36*
X104873000Y-56697261D02*
X104674406Y-56615000D01*
X103725594Y-56615000D01*
X102849006Y-56978095D01*
X102178095Y-57649006D01*
X101815000Y-58525594D01*
X101815000Y-59474406D01*
X102178095Y-60350994D01*
X102849006Y-61021905D01*
X103725594Y-61385000D01*
X104674406Y-61385000D01*
X104873000Y-61302739D01*
X104873000Y-100697260D01*
X104674406Y-100615000D01*
X103725594Y-100615000D01*
X102849006Y-100978095D01*
X102178095Y-101649006D01*
X101815000Y-102525594D01*
X101815000Y-103474406D01*
X102178095Y-104350994D01*
X102849006Y-105021905D01*
X103725594Y-105385000D01*
X104674406Y-105385000D01*
X104873000Y-105302740D01*
X104873000Y-107873000D01*
X90497054Y-107873000D01*
X90745000Y-107274406D01*
X90745000Y-106325594D01*
X90381905Y-105449006D01*
X89710994Y-104778095D01*
X88834406Y-104415000D01*
X87885594Y-104415000D01*
X87009006Y-104778095D01*
X86338095Y-105449006D01*
X85975000Y-106325594D01*
X85975000Y-107274406D01*
X86222946Y-107873000D01*
X70177054Y-107873000D01*
X70425000Y-107274406D01*
X70425000Y-106325594D01*
X70061905Y-105449006D01*
X69390994Y-104778095D01*
X68514406Y-104415000D01*
X67565594Y-104415000D01*
X66689006Y-104778095D01*
X66018095Y-105449006D01*
X65655000Y-106325594D01*
X65655000Y-107274406D01*
X65902946Y-107873000D01*
X51127000Y-107873000D01*
X51127000Y-105137054D01*
X51725594Y-105385000D01*
X52674406Y-105385000D01*
X53550994Y-105021905D01*
X54221905Y-104350994D01*
X54585000Y-103474406D01*
X54585000Y-102525594D01*
X54221905Y-101649006D01*
X53550994Y-100978095D01*
X52674406Y-100615000D01*
X51725594Y-100615000D01*
X51127000Y-100862946D01*
X51127000Y-96094126D01*
X63565000Y-96094126D01*
X63565000Y-96505874D01*
X63722569Y-96886280D01*
X64013720Y-97177431D01*
X64394126Y-97335000D01*
X64454133Y-97335000D01*
X66051417Y-98932285D01*
X66097999Y-99002001D01*
X66374199Y-99186552D01*
X66617763Y-99235000D01*
X66617766Y-99235000D01*
X66699999Y-99251357D01*
X66782232Y-99235000D01*
X69671289Y-99235000D01*
X69713720Y-99277431D01*
X70094126Y-99435000D01*
X70505874Y-99435000D01*
X70886280Y-99277431D01*
X71006821Y-99156890D01*
X101758524Y-99156890D01*
X101928355Y-99566924D01*
X102318642Y-99995183D01*
X102843108Y-100241486D01*
X103073000Y-100120819D01*
X103073000Y-98927000D01*
X103327000Y-98927000D01*
X103327000Y-100120819D01*
X103556892Y-100241486D01*
X104081358Y-99995183D01*
X104471645Y-99566924D01*
X104641476Y-99156890D01*
X104520155Y-98927000D01*
X103327000Y-98927000D01*
X103073000Y-98927000D01*
X101879845Y-98927000D01*
X101758524Y-99156890D01*
X71006821Y-99156890D01*
X71177431Y-98986280D01*
X71335000Y-98605874D01*
X71335000Y-98194126D01*
X71177431Y-97813720D01*
X70886280Y-97522569D01*
X70505874Y-97365000D01*
X70094126Y-97365000D01*
X69713720Y-97522569D01*
X69671289Y-97565000D01*
X67045869Y-97565000D01*
X65635000Y-96154133D01*
X65635000Y-96094126D01*
X65477431Y-95713720D01*
X65186280Y-95422569D01*
X65155936Y-95410000D01*
X101702560Y-95410000D01*
X101702560Y-97110000D01*
X101751843Y-97357765D01*
X101892191Y-97567809D01*
X102102235Y-97708157D01*
X102205708Y-97728739D01*
X101928355Y-98033076D01*
X101758524Y-98443110D01*
X101879845Y-98673000D01*
X103073000Y-98673000D01*
X103073000Y-98653000D01*
X103327000Y-98653000D01*
X103327000Y-98673000D01*
X104520155Y-98673000D01*
X104641476Y-98443110D01*
X104471645Y-98033076D01*
X104194292Y-97728739D01*
X104297765Y-97708157D01*
X104507809Y-97567809D01*
X104648157Y-97357765D01*
X104697440Y-97110000D01*
X104697440Y-95410000D01*
X104648157Y-95162235D01*
X104507809Y-94952191D01*
X104297765Y-94811843D01*
X104050000Y-94762560D01*
X102350000Y-94762560D01*
X102102235Y-94811843D01*
X101892191Y-94952191D01*
X101751843Y-95162235D01*
X101702560Y-95410000D01*
X65155936Y-95410000D01*
X64805874Y-95265000D01*
X64394126Y-95265000D01*
X64013720Y-95422569D01*
X63722569Y-95713720D01*
X63565000Y-96094126D01*
X51127000Y-96094126D01*
X51127000Y-90050000D01*
X67202560Y-90050000D01*
X67202560Y-91850000D01*
X67251843Y-92097765D01*
X67392191Y-92307809D01*
X67602235Y-92448157D01*
X67850000Y-92497440D01*
X69650000Y-92497440D01*
X69897765Y-92448157D01*
X70107809Y-92307809D01*
X70248157Y-92097765D01*
X70297440Y-91850000D01*
X70297440Y-90050000D01*
X70248157Y-89802235D01*
X70107809Y-89592191D01*
X69897765Y-89451843D01*
X69882092Y-89448725D01*
X70051310Y-89279507D01*
X70285000Y-88715330D01*
X70285000Y-88104670D01*
X70270706Y-88070162D01*
X70381269Y-87959599D01*
X76655138Y-87959599D01*
X76589000Y-88119270D01*
X76589000Y-88729930D01*
X76822690Y-89294107D01*
X76991908Y-89463325D01*
X76976235Y-89466443D01*
X76766191Y-89606791D01*
X76625843Y-89816835D01*
X76576560Y-90064600D01*
X76576560Y-91864600D01*
X76625843Y-92112365D01*
X76766191Y-92322409D01*
X76976235Y-92462757D01*
X77224000Y-92512040D01*
X79024000Y-92512040D01*
X79271765Y-92462757D01*
X79481809Y-92322409D01*
X79622157Y-92112365D01*
X79671440Y-91864600D01*
X79671440Y-90064600D01*
X79622157Y-89816835D01*
X79481809Y-89606791D01*
X79271765Y-89466443D01*
X79256092Y-89463325D01*
X79409789Y-89309628D01*
X79525801Y-89286552D01*
X79802001Y-89102001D01*
X79848587Y-89032280D01*
X86042284Y-82838584D01*
X86112002Y-82792000D01*
X86296553Y-82515800D01*
X86345001Y-82272236D01*
X86345001Y-82272232D01*
X86361358Y-82189999D01*
X86345001Y-82107766D01*
X86345001Y-80627440D01*
X87650000Y-80627440D01*
X87897765Y-80578157D01*
X88107809Y-80437809D01*
X88248157Y-80227765D01*
X88297440Y-79980000D01*
X88297440Y-78280000D01*
X88248157Y-78032235D01*
X88107809Y-77822191D01*
X87897765Y-77681843D01*
X87650000Y-77632560D01*
X86345001Y-77632560D01*
X86345001Y-72801551D01*
X86432280Y-72714272D01*
X86502001Y-72667686D01*
X86686552Y-72391486D01*
X86735000Y-72147922D01*
X86739770Y-72123941D01*
X86777431Y-72086280D01*
X86935000Y-71705874D01*
X86935000Y-71294126D01*
X86777431Y-70913720D01*
X86486280Y-70622569D01*
X86105874Y-70465000D01*
X85694126Y-70465000D01*
X85435738Y-70572027D01*
X85186280Y-70322569D01*
X84805874Y-70165000D01*
X84394126Y-70165000D01*
X84013720Y-70322569D01*
X83722569Y-70613720D01*
X83565000Y-70994126D01*
X83565000Y-71405874D01*
X83722569Y-71786280D01*
X83765001Y-71828712D01*
X83765000Y-75354132D01*
X82437719Y-76681414D01*
X82368001Y-76727998D01*
X82321417Y-76797716D01*
X82183449Y-77004199D01*
X82118644Y-77329999D01*
X82135002Y-77412237D01*
X82135002Y-77698457D01*
X81866256Y-77645000D01*
X81573744Y-77645000D01*
X81140582Y-77731161D01*
X80649375Y-78059375D01*
X80450000Y-78357761D01*
X80250625Y-78059375D01*
X79759418Y-77731161D01*
X79326256Y-77645000D01*
X79033744Y-77645000D01*
X78600582Y-77731161D01*
X78109375Y-78059375D01*
X77910000Y-78357761D01*
X77710625Y-78059375D01*
X77219418Y-77731161D01*
X76786256Y-77645000D01*
X76493744Y-77645000D01*
X76060582Y-77731161D01*
X75569375Y-78059375D01*
X75370000Y-78357761D01*
X75170625Y-78059375D01*
X74679418Y-77731161D01*
X74246256Y-77645000D01*
X73953744Y-77645000D01*
X73520582Y-77731161D01*
X73029375Y-78059375D01*
X72830000Y-78357761D01*
X72630625Y-78059375D01*
X72139418Y-77731161D01*
X71706256Y-77645000D01*
X71413744Y-77645000D01*
X70980582Y-77731161D01*
X70489375Y-78059375D01*
X70290000Y-78357761D01*
X70090625Y-78059375D01*
X69599418Y-77731161D01*
X69166256Y-77645000D01*
X68873744Y-77645000D01*
X68440582Y-77731161D01*
X67949375Y-78059375D01*
X67621161Y-78550582D01*
X67505908Y-79130000D01*
X67621161Y-79709418D01*
X67949375Y-80200625D01*
X68440582Y-80528839D01*
X68873744Y-80615000D01*
X69166256Y-80615000D01*
X69599418Y-80528839D01*
X70090625Y-80200625D01*
X70290000Y-79902239D01*
X70489375Y-80200625D01*
X70980582Y-80528839D01*
X71413744Y-80615000D01*
X71706256Y-80615000D01*
X72139418Y-80528839D01*
X72630625Y-80200625D01*
X72830000Y-79902239D01*
X73029375Y-80200625D01*
X73392819Y-80443470D01*
X73222569Y-80613720D01*
X73065000Y-80994126D01*
X73065000Y-81405874D01*
X73222569Y-81786280D01*
X73265000Y-81828711D01*
X73265000Y-82202560D01*
X73250000Y-82202560D01*
X73002235Y-82251843D01*
X72792191Y-82392191D01*
X72651843Y-82602235D01*
X72602560Y-82850000D01*
X72602560Y-84550000D01*
X72651843Y-84797765D01*
X72792191Y-85007809D01*
X73002235Y-85148157D01*
X73250000Y-85197440D01*
X74950000Y-85197440D01*
X75197765Y-85148157D01*
X75407809Y-85007809D01*
X75548157Y-84797765D01*
X75557184Y-84752381D01*
X75569375Y-84770625D01*
X76060582Y-85098839D01*
X76493744Y-85185000D01*
X76786256Y-85185000D01*
X77219418Y-85098839D01*
X77710625Y-84770625D01*
X77910000Y-84472239D01*
X78109375Y-84770625D01*
X78600582Y-85098839D01*
X79033744Y-85185000D01*
X79326256Y-85185000D01*
X79759418Y-85098839D01*
X80250625Y-84770625D01*
X80578839Y-84279418D01*
X80694092Y-83700000D01*
X80578839Y-83120582D01*
X80250625Y-82629375D01*
X80035000Y-82485299D01*
X80035000Y-82128711D01*
X80077431Y-82086280D01*
X80235000Y-81705874D01*
X80235000Y-81294126D01*
X80077431Y-80913720D01*
X79786280Y-80622569D01*
X79624693Y-80555637D01*
X79759418Y-80528839D01*
X80250625Y-80200625D01*
X80450000Y-79902239D01*
X80649375Y-80200625D01*
X81140582Y-80528839D01*
X81573744Y-80615000D01*
X81866256Y-80615000D01*
X82135002Y-80561543D01*
X82135001Y-83484131D01*
X79329534Y-86289599D01*
X70117638Y-86289599D01*
X70035401Y-86273241D01*
X69953164Y-86289599D01*
X69709600Y-86338047D01*
X69433400Y-86522598D01*
X69386816Y-86592316D01*
X69089838Y-86889294D01*
X69055330Y-86875000D01*
X68444670Y-86875000D01*
X67880493Y-87108690D01*
X67448690Y-87540493D01*
X67215000Y-88104670D01*
X67215000Y-88715330D01*
X67448690Y-89279507D01*
X67617908Y-89448725D01*
X67602235Y-89451843D01*
X67392191Y-89592191D01*
X67251843Y-89802235D01*
X67202560Y-90050000D01*
X51127000Y-90050000D01*
X51127000Y-78585594D01*
X59015000Y-78585594D01*
X59015000Y-79534406D01*
X59378095Y-80410994D01*
X60049006Y-81081905D01*
X60925594Y-81445000D01*
X61874406Y-81445000D01*
X62750994Y-81081905D01*
X63421905Y-80410994D01*
X63785000Y-79534406D01*
X63785000Y-78585594D01*
X63421905Y-77709006D01*
X62750994Y-77038095D01*
X61874406Y-76675000D01*
X60925594Y-76675000D01*
X60049006Y-77038095D01*
X59378095Y-77709006D01*
X59015000Y-78585594D01*
X51127000Y-78585594D01*
X51127000Y-66724506D01*
X76415000Y-66724506D01*
X76415000Y-67275494D01*
X76625853Y-67784540D01*
X77015460Y-68174147D01*
X77524506Y-68385000D01*
X78075494Y-68385000D01*
X78584540Y-68174147D01*
X78974147Y-67784540D01*
X79185000Y-67275494D01*
X79185000Y-66724506D01*
X78974147Y-66215460D01*
X78584540Y-65825853D01*
X78075494Y-65615000D01*
X77524506Y-65615000D01*
X77015460Y-65825853D01*
X76625853Y-66215460D01*
X76415000Y-66724506D01*
X51127000Y-66724506D01*
X51127000Y-61844506D01*
X76415000Y-61844506D01*
X76415000Y-62395494D01*
X76625853Y-62904540D01*
X77015460Y-63294147D01*
X77524506Y-63505000D01*
X78075494Y-63505000D01*
X78584540Y-63294147D01*
X78974147Y-62904540D01*
X79185000Y-62395494D01*
X79185000Y-61844506D01*
X78974147Y-61335460D01*
X78732813Y-61094126D01*
X81965000Y-61094126D01*
X81965000Y-61505874D01*
X82122569Y-61886280D01*
X82413720Y-62177431D01*
X82794126Y-62335000D01*
X83205874Y-62335000D01*
X83586280Y-62177431D01*
X83877431Y-61886280D01*
X84035000Y-61505874D01*
X84035000Y-61094126D01*
X83877431Y-60713720D01*
X83586280Y-60422569D01*
X83205874Y-60265000D01*
X82794126Y-60265000D01*
X82413720Y-60422569D01*
X82122569Y-60713720D01*
X81965000Y-61094126D01*
X78732813Y-61094126D01*
X78584540Y-60945853D01*
X78075494Y-60735000D01*
X77524506Y-60735000D01*
X77015460Y-60945853D01*
X76625853Y-61335460D01*
X76415000Y-61844506D01*
X51127000Y-61844506D01*
X51127000Y-61137054D01*
X51725594Y-61385000D01*
X52674406Y-61385000D01*
X53550994Y-61021905D01*
X54221905Y-60350994D01*
X54318874Y-60116890D01*
X54858524Y-60116890D01*
X55028355Y-60526924D01*
X55418642Y-60955183D01*
X55943108Y-61201486D01*
X56173000Y-61080819D01*
X56173000Y-59887000D01*
X56427000Y-59887000D01*
X56427000Y-61080819D01*
X56656892Y-61201486D01*
X57181358Y-60955183D01*
X57571645Y-60526924D01*
X57741476Y-60116890D01*
X57620155Y-59887000D01*
X56427000Y-59887000D01*
X56173000Y-59887000D01*
X54979845Y-59887000D01*
X54858524Y-60116890D01*
X54318874Y-60116890D01*
X54585000Y-59474406D01*
X54585000Y-58525594D01*
X54221905Y-57649006D01*
X53550994Y-56978095D01*
X52674406Y-56615000D01*
X51725594Y-56615000D01*
X51127000Y-56862946D01*
X51127000Y-52140000D01*
X54785908Y-52140000D01*
X54901161Y-52719418D01*
X55229375Y-53210625D01*
X55527761Y-53410000D01*
X55229375Y-53609375D01*
X54901161Y-54100582D01*
X54785908Y-54680000D01*
X54901161Y-55259418D01*
X55229375Y-55750625D01*
X55527761Y-55950000D01*
X55229375Y-56149375D01*
X54901161Y-56640582D01*
X54785908Y-57220000D01*
X54901161Y-57799418D01*
X55229375Y-58290625D01*
X55548478Y-58503843D01*
X55418642Y-58564817D01*
X55028355Y-58993076D01*
X54858524Y-59403110D01*
X54979845Y-59633000D01*
X56173000Y-59633000D01*
X56173000Y-59613000D01*
X56427000Y-59613000D01*
X56427000Y-59633000D01*
X57620155Y-59633000D01*
X57741476Y-59403110D01*
X57571645Y-58993076D01*
X57181358Y-58564817D01*
X57051522Y-58503843D01*
X57370625Y-58290625D01*
X57698839Y-57799418D01*
X57788383Y-57349251D01*
X58771417Y-58332286D01*
X58817999Y-58402001D01*
X59094199Y-58586552D01*
X59337763Y-58635000D01*
X59337766Y-58635000D01*
X59419999Y-58651357D01*
X59502232Y-58635000D01*
X84917767Y-58635000D01*
X85000000Y-58651357D01*
X85082233Y-58635000D01*
X85082237Y-58635000D01*
X85325801Y-58586552D01*
X85602001Y-58402001D01*
X85648587Y-58332280D01*
X86945868Y-57035000D01*
X87005874Y-57035000D01*
X87386280Y-56877431D01*
X87677431Y-56586280D01*
X87835000Y-56205874D01*
X87835000Y-55794126D01*
X87677431Y-55413720D01*
X87386280Y-55122569D01*
X87005874Y-54965000D01*
X86594126Y-54965000D01*
X86213720Y-55122569D01*
X85922569Y-55413720D01*
X85765000Y-55794126D01*
X85765000Y-55854132D01*
X84654133Y-56965000D01*
X77915867Y-56965000D01*
X79512283Y-55368585D01*
X79582001Y-55322001D01*
X79766552Y-55045801D01*
X79815000Y-54802237D01*
X79831358Y-54720000D01*
X79815000Y-54637763D01*
X79815000Y-50828065D01*
X80050625Y-50670625D01*
X80250000Y-50372239D01*
X80449375Y-50670625D01*
X80940582Y-50998839D01*
X81373744Y-51085000D01*
X81666256Y-51085000D01*
X82099418Y-50998839D01*
X82590625Y-50670625D01*
X82790000Y-50372239D01*
X82989375Y-50670625D01*
X83480582Y-50998839D01*
X83913744Y-51085000D01*
X84206256Y-51085000D01*
X84639418Y-50998839D01*
X85130625Y-50670625D01*
X85343843Y-50351522D01*
X85404817Y-50481358D01*
X85833076Y-50871645D01*
X86243110Y-51041476D01*
X86473000Y-50920155D01*
X86473000Y-49727000D01*
X86453000Y-49727000D01*
X86453000Y-49473000D01*
X86473000Y-49473000D01*
X86473000Y-48279845D01*
X86727000Y-48279845D01*
X86727000Y-49473000D01*
X86747000Y-49473000D01*
X86747000Y-49727000D01*
X86727000Y-49727000D01*
X86727000Y-50920155D01*
X86956890Y-51041476D01*
X87366924Y-50871645D01*
X87795183Y-50481358D01*
X87856157Y-50351522D01*
X88069375Y-50670625D01*
X88560582Y-50998839D01*
X88993744Y-51085000D01*
X89286256Y-51085000D01*
X89719418Y-50998839D01*
X90210625Y-50670625D01*
X90410000Y-50372239D01*
X90609375Y-50670625D01*
X90865001Y-50841429D01*
X90865000Y-56271289D01*
X90822569Y-56313720D01*
X90665000Y-56694126D01*
X90665000Y-57105874D01*
X90822569Y-57486280D01*
X91113720Y-57777431D01*
X91494126Y-57935000D01*
X91905874Y-57935000D01*
X92286280Y-57777431D01*
X92577431Y-57486280D01*
X92735000Y-57105874D01*
X92735000Y-56694126D01*
X92577431Y-56313720D01*
X92535000Y-56271289D01*
X92535000Y-50814701D01*
X92750625Y-50670625D01*
X92950000Y-50372239D01*
X93149375Y-50670625D01*
X93365001Y-50814702D01*
X93365000Y-56371289D01*
X93322569Y-56413720D01*
X93165000Y-56794126D01*
X93165000Y-57205874D01*
X93322569Y-57586280D01*
X93613720Y-57877431D01*
X93994126Y-58035000D01*
X94405874Y-58035000D01*
X94786280Y-57877431D01*
X95077431Y-57586280D01*
X95235000Y-57205874D01*
X95235000Y-56794126D01*
X95077431Y-56413720D01*
X95035000Y-56371289D01*
X95035000Y-50841428D01*
X95290625Y-50670625D01*
X95490000Y-50372239D01*
X95689375Y-50670625D01*
X96180582Y-50998839D01*
X96613744Y-51085000D01*
X96906256Y-51085000D01*
X97339418Y-50998839D01*
X97830625Y-50670625D01*
X97842816Y-50652381D01*
X97851843Y-50697765D01*
X97992191Y-50907809D01*
X98202235Y-51048157D01*
X98450000Y-51097440D01*
X100150000Y-51097440D01*
X100397765Y-51048157D01*
X100607809Y-50907809D01*
X100748157Y-50697765D01*
X100797440Y-50450000D01*
X100797440Y-48750000D01*
X100748157Y-48502235D01*
X100607809Y-48292191D01*
X100397765Y-48151843D01*
X100150000Y-48102560D01*
X98450000Y-48102560D01*
X98202235Y-48151843D01*
X97992191Y-48292191D01*
X97851843Y-48502235D01*
X97842816Y-48547619D01*
X97830625Y-48529375D01*
X97339418Y-48201161D01*
X96906256Y-48115000D01*
X96613744Y-48115000D01*
X96180582Y-48201161D01*
X95689375Y-48529375D01*
X95490000Y-48827761D01*
X95290625Y-48529375D01*
X94799418Y-48201161D01*
X94366256Y-48115000D01*
X94073744Y-48115000D01*
X93640582Y-48201161D01*
X93149375Y-48529375D01*
X92950000Y-48827761D01*
X92750625Y-48529375D01*
X92259418Y-48201161D01*
X91826256Y-48115000D01*
X91533744Y-48115000D01*
X91100582Y-48201161D01*
X90609375Y-48529375D01*
X90410000Y-48827761D01*
X90210625Y-48529375D01*
X89719418Y-48201161D01*
X89286256Y-48115000D01*
X88993744Y-48115000D01*
X88560582Y-48201161D01*
X88069375Y-48529375D01*
X87856157Y-48848478D01*
X87795183Y-48718642D01*
X87366924Y-48328355D01*
X86956890Y-48158524D01*
X86727000Y-48279845D01*
X86473000Y-48279845D01*
X86243110Y-48158524D01*
X85833076Y-48328355D01*
X85404817Y-48718642D01*
X85343843Y-48848478D01*
X85130625Y-48529375D01*
X84639418Y-48201161D01*
X84206256Y-48115000D01*
X83913744Y-48115000D01*
X83480582Y-48201161D01*
X82989375Y-48529375D01*
X82790000Y-48827761D01*
X82590625Y-48529375D01*
X82099418Y-48201161D01*
X81666256Y-48115000D01*
X81373744Y-48115000D01*
X80940582Y-48201161D01*
X80449375Y-48529375D01*
X80250000Y-48827761D01*
X80050625Y-48529375D01*
X79559418Y-48201161D01*
X79126256Y-48115000D01*
X78833744Y-48115000D01*
X78400582Y-48201161D01*
X77909375Y-48529375D01*
X77710000Y-48827761D01*
X77510625Y-48529375D01*
X77019418Y-48201161D01*
X76586256Y-48115000D01*
X76565869Y-48115000D01*
X76845869Y-47835000D01*
X101754133Y-47835000D01*
X102965000Y-49045868D01*
X102965001Y-52854131D01*
X95967720Y-59851413D01*
X95897999Y-59897999D01*
X95713448Y-60174200D01*
X95665000Y-60417764D01*
X95665000Y-60417767D01*
X95648643Y-60500000D01*
X95665000Y-60582233D01*
X95665001Y-79054131D01*
X87844133Y-86875000D01*
X87294670Y-86875000D01*
X86730493Y-87108690D01*
X86298690Y-87540493D01*
X86065000Y-88104670D01*
X86065000Y-88715330D01*
X86298690Y-89279507D01*
X86467908Y-89448725D01*
X86452235Y-89451843D01*
X86242191Y-89592191D01*
X86101843Y-89802235D01*
X86052560Y-90050000D01*
X86052560Y-91850000D01*
X86101843Y-92097765D01*
X86242191Y-92307809D01*
X86452235Y-92448157D01*
X86700000Y-92497440D01*
X88500000Y-92497440D01*
X88747765Y-92448157D01*
X88957809Y-92307809D01*
X89098157Y-92097765D01*
X89147440Y-91850000D01*
X89147440Y-90050000D01*
X89098157Y-89802235D01*
X88957809Y-89592191D01*
X88747765Y-89451843D01*
X88732092Y-89448725D01*
X88901310Y-89279507D01*
X89135000Y-88715330D01*
X89135000Y-88104670D01*
X89088488Y-87992379D01*
X97032283Y-80048585D01*
X97102001Y-80002001D01*
X97286552Y-79725801D01*
X97335000Y-79482237D01*
X97335000Y-79482234D01*
X97351357Y-79400001D01*
X97335000Y-79317768D01*
X97335000Y-63460000D01*
X98685908Y-63460000D01*
X98801161Y-64039418D01*
X99129375Y-64530625D01*
X99147619Y-64542816D01*
X99102235Y-64551843D01*
X98892191Y-64692191D01*
X98751843Y-64902235D01*
X98702560Y-65150000D01*
X98702560Y-66850000D01*
X98751843Y-67097765D01*
X98892191Y-67307809D01*
X99102235Y-67448157D01*
X99350000Y-67497440D01*
X101050000Y-67497440D01*
X101297765Y-67448157D01*
X101507809Y-67307809D01*
X101648157Y-67097765D01*
X101697440Y-66850000D01*
X101697440Y-65150000D01*
X101648157Y-64902235D01*
X101507809Y-64692191D01*
X101297765Y-64551843D01*
X101252381Y-64542816D01*
X101270625Y-64530625D01*
X101598839Y-64039418D01*
X101714092Y-63460000D01*
X101598839Y-62880582D01*
X101270625Y-62389375D01*
X100779418Y-62061161D01*
X100346256Y-61975000D01*
X100053744Y-61975000D01*
X99620582Y-62061161D01*
X99129375Y-62389375D01*
X98801161Y-62880582D01*
X98685908Y-63460000D01*
X97335000Y-63460000D01*
X97335000Y-60845867D01*
X104332283Y-53848585D01*
X104402001Y-53802001D01*
X104586552Y-53525801D01*
X104635000Y-53282237D01*
X104635000Y-53282234D01*
X104651357Y-53200001D01*
X104635000Y-53117768D01*
X104635000Y-48782232D01*
X104651357Y-48699999D01*
X104635000Y-48617764D01*
X104635000Y-48617763D01*
X104586552Y-48374199D01*
X104402001Y-48097999D01*
X104332283Y-48051415D01*
X102748587Y-46467720D01*
X102702001Y-46397999D01*
X102425801Y-46213448D01*
X102182237Y-46165000D01*
X102182233Y-46165000D01*
X102100000Y-46148643D01*
X102017767Y-46165000D01*
X76582232Y-46165000D01*
X76499999Y-46148643D01*
X76417766Y-46165000D01*
X76417763Y-46165000D01*
X76174199Y-46213448D01*
X75897999Y-46397999D01*
X75851417Y-46467715D01*
X74177939Y-48141193D01*
X74046256Y-48115000D01*
X73753744Y-48115000D01*
X73320582Y-48201161D01*
X72829375Y-48529375D01*
X72630000Y-48827761D01*
X72430625Y-48529375D01*
X71939418Y-48201161D01*
X71506256Y-48115000D01*
X71213744Y-48115000D01*
X70780582Y-48201161D01*
X70289375Y-48529375D01*
X70090000Y-48827761D01*
X69890625Y-48529375D01*
X69399418Y-48201161D01*
X68966256Y-48115000D01*
X68673744Y-48115000D01*
X68240582Y-48201161D01*
X67749375Y-48529375D01*
X67536157Y-48848478D01*
X67475183Y-48718642D01*
X67046924Y-48328355D01*
X66636890Y-48158524D01*
X66407000Y-48279845D01*
X66407000Y-49473000D01*
X66427000Y-49473000D01*
X66427000Y-49727000D01*
X66407000Y-49727000D01*
X66407000Y-50920155D01*
X66636890Y-51041476D01*
X67046924Y-50871645D01*
X67475183Y-50481358D01*
X67536157Y-50351522D01*
X67749375Y-50670625D01*
X67965001Y-50814701D01*
X67965000Y-51465000D01*
X67828711Y-51465000D01*
X67786280Y-51422569D01*
X67405874Y-51265000D01*
X66994126Y-51265000D01*
X66613720Y-51422569D01*
X66322569Y-51713720D01*
X66165000Y-52094126D01*
X66165000Y-52505874D01*
X66322569Y-52886280D01*
X66613720Y-53177431D01*
X66825131Y-53265000D01*
X62395868Y-53265000D01*
X58730868Y-49600000D01*
X59685908Y-49600000D01*
X59801161Y-50179418D01*
X60129375Y-50670625D01*
X60620582Y-50998839D01*
X61053744Y-51085000D01*
X61346256Y-51085000D01*
X61779418Y-50998839D01*
X62270625Y-50670625D01*
X62470000Y-50372239D01*
X62669375Y-50670625D01*
X63160582Y-50998839D01*
X63593744Y-51085000D01*
X63886256Y-51085000D01*
X64319418Y-50998839D01*
X64810625Y-50670625D01*
X65023843Y-50351522D01*
X65084817Y-50481358D01*
X65513076Y-50871645D01*
X65923110Y-51041476D01*
X66153000Y-50920155D01*
X66153000Y-49727000D01*
X66133000Y-49727000D01*
X66133000Y-49473000D01*
X66153000Y-49473000D01*
X66153000Y-48279845D01*
X65923110Y-48158524D01*
X65513076Y-48328355D01*
X65084817Y-48718642D01*
X65023843Y-48848478D01*
X64810625Y-48529375D01*
X64319418Y-48201161D01*
X63886256Y-48115000D01*
X63593744Y-48115000D01*
X63160582Y-48201161D01*
X62669375Y-48529375D01*
X62470000Y-48827761D01*
X62270625Y-48529375D01*
X61779418Y-48201161D01*
X61346256Y-48115000D01*
X61053744Y-48115000D01*
X60620582Y-48201161D01*
X60129375Y-48529375D01*
X59801161Y-49020582D01*
X59685908Y-49600000D01*
X58730868Y-49600000D01*
X58198587Y-49067720D01*
X58152001Y-48997999D01*
X57875801Y-48813448D01*
X57797440Y-48797861D01*
X57797440Y-48750000D01*
X57748157Y-48502235D01*
X57607809Y-48292191D01*
X57397765Y-48151843D01*
X57150000Y-48102560D01*
X55450000Y-48102560D01*
X55202235Y-48151843D01*
X54992191Y-48292191D01*
X54851843Y-48502235D01*
X54802560Y-48750000D01*
X54802560Y-50450000D01*
X54851843Y-50697765D01*
X54992191Y-50907809D01*
X55202235Y-51048157D01*
X55247619Y-51057184D01*
X55229375Y-51069375D01*
X54901161Y-51560582D01*
X54785908Y-52140000D01*
X51127000Y-52140000D01*
X51127000Y-46127000D01*
X104873000Y-46127000D01*
X104873000Y-56697261D01*
X104873000Y-56697261D01*
G37*
X104873000Y-56697261D02*
X104674406Y-56615000D01*
X103725594Y-56615000D01*
X102849006Y-56978095D01*
X102178095Y-57649006D01*
X101815000Y-58525594D01*
X101815000Y-59474406D01*
X102178095Y-60350994D01*
X102849006Y-61021905D01*
X103725594Y-61385000D01*
X104674406Y-61385000D01*
X104873000Y-61302739D01*
X104873000Y-100697260D01*
X104674406Y-100615000D01*
X103725594Y-100615000D01*
X102849006Y-100978095D01*
X102178095Y-101649006D01*
X101815000Y-102525594D01*
X101815000Y-103474406D01*
X102178095Y-104350994D01*
X102849006Y-105021905D01*
X103725594Y-105385000D01*
X104674406Y-105385000D01*
X104873000Y-105302740D01*
X104873000Y-107873000D01*
X90497054Y-107873000D01*
X90745000Y-107274406D01*
X90745000Y-106325594D01*
X90381905Y-105449006D01*
X89710994Y-104778095D01*
X88834406Y-104415000D01*
X87885594Y-104415000D01*
X87009006Y-104778095D01*
X86338095Y-105449006D01*
X85975000Y-106325594D01*
X85975000Y-107274406D01*
X86222946Y-107873000D01*
X70177054Y-107873000D01*
X70425000Y-107274406D01*
X70425000Y-106325594D01*
X70061905Y-105449006D01*
X69390994Y-104778095D01*
X68514406Y-104415000D01*
X67565594Y-104415000D01*
X66689006Y-104778095D01*
X66018095Y-105449006D01*
X65655000Y-106325594D01*
X65655000Y-107274406D01*
X65902946Y-107873000D01*
X51127000Y-107873000D01*
X51127000Y-105137054D01*
X51725594Y-105385000D01*
X52674406Y-105385000D01*
X53550994Y-105021905D01*
X54221905Y-104350994D01*
X54585000Y-103474406D01*
X54585000Y-102525594D01*
X54221905Y-101649006D01*
X53550994Y-100978095D01*
X52674406Y-100615000D01*
X51725594Y-100615000D01*
X51127000Y-100862946D01*
X51127000Y-96094126D01*
X63565000Y-96094126D01*
X63565000Y-96505874D01*
X63722569Y-96886280D01*
X64013720Y-97177431D01*
X64394126Y-97335000D01*
X64454133Y-97335000D01*
X66051417Y-98932285D01*
X66097999Y-99002001D01*
X66374199Y-99186552D01*
X66617763Y-99235000D01*
X66617766Y-99235000D01*
X66699999Y-99251357D01*
X66782232Y-99235000D01*
X69671289Y-99235000D01*
X69713720Y-99277431D01*
X70094126Y-99435000D01*
X70505874Y-99435000D01*
X70886280Y-99277431D01*
X71006821Y-99156890D01*
X101758524Y-99156890D01*
X101928355Y-99566924D01*
X102318642Y-99995183D01*
X102843108Y-100241486D01*
X103073000Y-100120819D01*
X103073000Y-98927000D01*
X103327000Y-98927000D01*
X103327000Y-100120819D01*
X103556892Y-100241486D01*
X104081358Y-99995183D01*
X104471645Y-99566924D01*
X104641476Y-99156890D01*
X104520155Y-98927000D01*
X103327000Y-98927000D01*
X103073000Y-98927000D01*
X101879845Y-98927000D01*
X101758524Y-99156890D01*
X71006821Y-99156890D01*
X71177431Y-98986280D01*
X71335000Y-98605874D01*
X71335000Y-98194126D01*
X71177431Y-97813720D01*
X70886280Y-97522569D01*
X70505874Y-97365000D01*
X70094126Y-97365000D01*
X69713720Y-97522569D01*
X69671289Y-97565000D01*
X67045869Y-97565000D01*
X65635000Y-96154133D01*
X65635000Y-96094126D01*
X65477431Y-95713720D01*
X65186280Y-95422569D01*
X65155936Y-95410000D01*
X101702560Y-95410000D01*
X101702560Y-97110000D01*
X101751843Y-97357765D01*
X101892191Y-97567809D01*
X102102235Y-97708157D01*
X102205708Y-97728739D01*
X101928355Y-98033076D01*
X101758524Y-98443110D01*
X101879845Y-98673000D01*
X103073000Y-98673000D01*
X103073000Y-98653000D01*
X103327000Y-98653000D01*
X103327000Y-98673000D01*
X104520155Y-98673000D01*
X104641476Y-98443110D01*
X104471645Y-98033076D01*
X104194292Y-97728739D01*
X104297765Y-97708157D01*
X104507809Y-97567809D01*
X104648157Y-97357765D01*
X104697440Y-97110000D01*
X104697440Y-95410000D01*
X104648157Y-95162235D01*
X104507809Y-94952191D01*
X104297765Y-94811843D01*
X104050000Y-94762560D01*
X102350000Y-94762560D01*
X102102235Y-94811843D01*
X101892191Y-94952191D01*
X101751843Y-95162235D01*
X101702560Y-95410000D01*
X65155936Y-95410000D01*
X64805874Y-95265000D01*
X64394126Y-95265000D01*
X64013720Y-95422569D01*
X63722569Y-95713720D01*
X63565000Y-96094126D01*
X51127000Y-96094126D01*
X51127000Y-90050000D01*
X67202560Y-90050000D01*
X67202560Y-91850000D01*
X67251843Y-92097765D01*
X67392191Y-92307809D01*
X67602235Y-92448157D01*
X67850000Y-92497440D01*
X69650000Y-92497440D01*
X69897765Y-92448157D01*
X70107809Y-92307809D01*
X70248157Y-92097765D01*
X70297440Y-91850000D01*
X70297440Y-90050000D01*
X70248157Y-89802235D01*
X70107809Y-89592191D01*
X69897765Y-89451843D01*
X69882092Y-89448725D01*
X70051310Y-89279507D01*
X70285000Y-88715330D01*
X70285000Y-88104670D01*
X70270706Y-88070162D01*
X70381269Y-87959599D01*
X76655138Y-87959599D01*
X76589000Y-88119270D01*
X76589000Y-88729930D01*
X76822690Y-89294107D01*
X76991908Y-89463325D01*
X76976235Y-89466443D01*
X76766191Y-89606791D01*
X76625843Y-89816835D01*
X76576560Y-90064600D01*
X76576560Y-91864600D01*
X76625843Y-92112365D01*
X76766191Y-92322409D01*
X76976235Y-92462757D01*
X77224000Y-92512040D01*
X79024000Y-92512040D01*
X79271765Y-92462757D01*
X79481809Y-92322409D01*
X79622157Y-92112365D01*
X79671440Y-91864600D01*
X79671440Y-90064600D01*
X79622157Y-89816835D01*
X79481809Y-89606791D01*
X79271765Y-89466443D01*
X79256092Y-89463325D01*
X79409789Y-89309628D01*
X79525801Y-89286552D01*
X79802001Y-89102001D01*
X79848587Y-89032280D01*
X86042284Y-82838584D01*
X86112002Y-82792000D01*
X86296553Y-82515800D01*
X86345001Y-82272236D01*
X86345001Y-82272232D01*
X86361358Y-82189999D01*
X86345001Y-82107766D01*
X86345001Y-80627440D01*
X87650000Y-80627440D01*
X87897765Y-80578157D01*
X88107809Y-80437809D01*
X88248157Y-80227765D01*
X88297440Y-79980000D01*
X88297440Y-78280000D01*
X88248157Y-78032235D01*
X88107809Y-77822191D01*
X87897765Y-77681843D01*
X87650000Y-77632560D01*
X86345001Y-77632560D01*
X86345001Y-72801551D01*
X86432280Y-72714272D01*
X86502001Y-72667686D01*
X86686552Y-72391486D01*
X86735000Y-72147922D01*
X86739770Y-72123941D01*
X86777431Y-72086280D01*
X86935000Y-71705874D01*
X86935000Y-71294126D01*
X86777431Y-70913720D01*
X86486280Y-70622569D01*
X86105874Y-70465000D01*
X85694126Y-70465000D01*
X85435738Y-70572027D01*
X85186280Y-70322569D01*
X84805874Y-70165000D01*
X84394126Y-70165000D01*
X84013720Y-70322569D01*
X83722569Y-70613720D01*
X83565000Y-70994126D01*
X83565000Y-71405874D01*
X83722569Y-71786280D01*
X83765001Y-71828712D01*
X83765000Y-75354132D01*
X82437719Y-76681414D01*
X82368001Y-76727998D01*
X82321417Y-76797716D01*
X82183449Y-77004199D01*
X82118644Y-77329999D01*
X82135002Y-77412237D01*
X82135002Y-77698457D01*
X81866256Y-77645000D01*
X81573744Y-77645000D01*
X81140582Y-77731161D01*
X80649375Y-78059375D01*
X80450000Y-78357761D01*
X80250625Y-78059375D01*
X79759418Y-77731161D01*
X79326256Y-77645000D01*
X79033744Y-77645000D01*
X78600582Y-77731161D01*
X78109375Y-78059375D01*
X77910000Y-78357761D01*
X77710625Y-78059375D01*
X77219418Y-77731161D01*
X76786256Y-77645000D01*
X76493744Y-77645000D01*
X76060582Y-77731161D01*
X75569375Y-78059375D01*
X75370000Y-78357761D01*
X75170625Y-78059375D01*
X74679418Y-77731161D01*
X74246256Y-77645000D01*
X73953744Y-77645000D01*
X73520582Y-77731161D01*
X73029375Y-78059375D01*
X72830000Y-78357761D01*
X72630625Y-78059375D01*
X72139418Y-77731161D01*
X71706256Y-77645000D01*
X71413744Y-77645000D01*
X70980582Y-77731161D01*
X70489375Y-78059375D01*
X70290000Y-78357761D01*
X70090625Y-78059375D01*
X69599418Y-77731161D01*
X69166256Y-77645000D01*
X68873744Y-77645000D01*
X68440582Y-77731161D01*
X67949375Y-78059375D01*
X67621161Y-78550582D01*
X67505908Y-79130000D01*
X67621161Y-79709418D01*
X67949375Y-80200625D01*
X68440582Y-80528839D01*
X68873744Y-80615000D01*
X69166256Y-80615000D01*
X69599418Y-80528839D01*
X70090625Y-80200625D01*
X70290000Y-79902239D01*
X70489375Y-80200625D01*
X70980582Y-80528839D01*
X71413744Y-80615000D01*
X71706256Y-80615000D01*
X72139418Y-80528839D01*
X72630625Y-80200625D01*
X72830000Y-79902239D01*
X73029375Y-80200625D01*
X73392819Y-80443470D01*
X73222569Y-80613720D01*
X73065000Y-80994126D01*
X73065000Y-81405874D01*
X73222569Y-81786280D01*
X73265000Y-81828711D01*
X73265000Y-82202560D01*
X73250000Y-82202560D01*
X73002235Y-82251843D01*
X72792191Y-82392191D01*
X72651843Y-82602235D01*
X72602560Y-82850000D01*
X72602560Y-84550000D01*
X72651843Y-84797765D01*
X72792191Y-85007809D01*
X73002235Y-85148157D01*
X73250000Y-85197440D01*
X74950000Y-85197440D01*
X75197765Y-85148157D01*
X75407809Y-85007809D01*
X75548157Y-84797765D01*
X75557184Y-84752381D01*
X75569375Y-84770625D01*
X76060582Y-85098839D01*
X76493744Y-85185000D01*
X76786256Y-85185000D01*
X77219418Y-85098839D01*
X77710625Y-84770625D01*
X77910000Y-84472239D01*
X78109375Y-84770625D01*
X78600582Y-85098839D01*
X79033744Y-85185000D01*
X79326256Y-85185000D01*
X79759418Y-85098839D01*
X80250625Y-84770625D01*
X80578839Y-84279418D01*
X80694092Y-83700000D01*
X80578839Y-83120582D01*
X80250625Y-82629375D01*
X80035000Y-82485299D01*
X80035000Y-82128711D01*
X80077431Y-82086280D01*
X80235000Y-81705874D01*
X80235000Y-81294126D01*
X80077431Y-80913720D01*
X79786280Y-80622569D01*
X79624693Y-80555637D01*
X79759418Y-80528839D01*
X80250625Y-80200625D01*
X80450000Y-79902239D01*
X80649375Y-80200625D01*
X81140582Y-80528839D01*
X81573744Y-80615000D01*
X81866256Y-80615000D01*
X82135002Y-80561543D01*
X82135001Y-83484131D01*
X79329534Y-86289599D01*
X70117638Y-86289599D01*
X70035401Y-86273241D01*
X69953164Y-86289599D01*
X69709600Y-86338047D01*
X69433400Y-86522598D01*
X69386816Y-86592316D01*
X69089838Y-86889294D01*
X69055330Y-86875000D01*
X68444670Y-86875000D01*
X67880493Y-87108690D01*
X67448690Y-87540493D01*
X67215000Y-88104670D01*
X67215000Y-88715330D01*
X67448690Y-89279507D01*
X67617908Y-89448725D01*
X67602235Y-89451843D01*
X67392191Y-89592191D01*
X67251843Y-89802235D01*
X67202560Y-90050000D01*
X51127000Y-90050000D01*
X51127000Y-78585594D01*
X59015000Y-78585594D01*
X59015000Y-79534406D01*
X59378095Y-80410994D01*
X60049006Y-81081905D01*
X60925594Y-81445000D01*
X61874406Y-81445000D01*
X62750994Y-81081905D01*
X63421905Y-80410994D01*
X63785000Y-79534406D01*
X63785000Y-78585594D01*
X63421905Y-77709006D01*
X62750994Y-77038095D01*
X61874406Y-76675000D01*
X60925594Y-76675000D01*
X60049006Y-77038095D01*
X59378095Y-77709006D01*
X59015000Y-78585594D01*
X51127000Y-78585594D01*
X51127000Y-66724506D01*
X76415000Y-66724506D01*
X76415000Y-67275494D01*
X76625853Y-67784540D01*
X77015460Y-68174147D01*
X77524506Y-68385000D01*
X78075494Y-68385000D01*
X78584540Y-68174147D01*
X78974147Y-67784540D01*
X79185000Y-67275494D01*
X79185000Y-66724506D01*
X78974147Y-66215460D01*
X78584540Y-65825853D01*
X78075494Y-65615000D01*
X77524506Y-65615000D01*
X77015460Y-65825853D01*
X76625853Y-66215460D01*
X76415000Y-66724506D01*
X51127000Y-66724506D01*
X51127000Y-61844506D01*
X76415000Y-61844506D01*
X76415000Y-62395494D01*
X76625853Y-62904540D01*
X77015460Y-63294147D01*
X77524506Y-63505000D01*
X78075494Y-63505000D01*
X78584540Y-63294147D01*
X78974147Y-62904540D01*
X79185000Y-62395494D01*
X79185000Y-61844506D01*
X78974147Y-61335460D01*
X78732813Y-61094126D01*
X81965000Y-61094126D01*
X81965000Y-61505874D01*
X82122569Y-61886280D01*
X82413720Y-62177431D01*
X82794126Y-62335000D01*
X83205874Y-62335000D01*
X83586280Y-62177431D01*
X83877431Y-61886280D01*
X84035000Y-61505874D01*
X84035000Y-61094126D01*
X83877431Y-60713720D01*
X83586280Y-60422569D01*
X83205874Y-60265000D01*
X82794126Y-60265000D01*
X82413720Y-60422569D01*
X82122569Y-60713720D01*
X81965000Y-61094126D01*
X78732813Y-61094126D01*
X78584540Y-60945853D01*
X78075494Y-60735000D01*
X77524506Y-60735000D01*
X77015460Y-60945853D01*
X76625853Y-61335460D01*
X76415000Y-61844506D01*
X51127000Y-61844506D01*
X51127000Y-61137054D01*
X51725594Y-61385000D01*
X52674406Y-61385000D01*
X53550994Y-61021905D01*
X54221905Y-60350994D01*
X54318874Y-60116890D01*
X54858524Y-60116890D01*
X55028355Y-60526924D01*
X55418642Y-60955183D01*
X55943108Y-61201486D01*
X56173000Y-61080819D01*
X56173000Y-59887000D01*
X56427000Y-59887000D01*
X56427000Y-61080819D01*
X56656892Y-61201486D01*
X57181358Y-60955183D01*
X57571645Y-60526924D01*
X57741476Y-60116890D01*
X57620155Y-59887000D01*
X56427000Y-59887000D01*
X56173000Y-59887000D01*
X54979845Y-59887000D01*
X54858524Y-60116890D01*
X54318874Y-60116890D01*
X54585000Y-59474406D01*
X54585000Y-58525594D01*
X54221905Y-57649006D01*
X53550994Y-56978095D01*
X52674406Y-56615000D01*
X51725594Y-56615000D01*
X51127000Y-56862946D01*
X51127000Y-52140000D01*
X54785908Y-52140000D01*
X54901161Y-52719418D01*
X55229375Y-53210625D01*
X55527761Y-53410000D01*
X55229375Y-53609375D01*
X54901161Y-54100582D01*
X54785908Y-54680000D01*
X54901161Y-55259418D01*
X55229375Y-55750625D01*
X55527761Y-55950000D01*
X55229375Y-56149375D01*
X54901161Y-56640582D01*
X54785908Y-57220000D01*
X54901161Y-57799418D01*
X55229375Y-58290625D01*
X55548478Y-58503843D01*
X55418642Y-58564817D01*
X55028355Y-58993076D01*
X54858524Y-59403110D01*
X54979845Y-59633000D01*
X56173000Y-59633000D01*
X56173000Y-59613000D01*
X56427000Y-59613000D01*
X56427000Y-59633000D01*
X57620155Y-59633000D01*
X57741476Y-59403110D01*
X57571645Y-58993076D01*
X57181358Y-58564817D01*
X57051522Y-58503843D01*
X57370625Y-58290625D01*
X57698839Y-57799418D01*
X57788383Y-57349251D01*
X58771417Y-58332286D01*
X58817999Y-58402001D01*
X59094199Y-58586552D01*
X59337763Y-58635000D01*
X59337766Y-58635000D01*
X59419999Y-58651357D01*
X59502232Y-58635000D01*
X84917767Y-58635000D01*
X85000000Y-58651357D01*
X85082233Y-58635000D01*
X85082237Y-58635000D01*
X85325801Y-58586552D01*
X85602001Y-58402001D01*
X85648587Y-58332280D01*
X86945868Y-57035000D01*
X87005874Y-57035000D01*
X87386280Y-56877431D01*
X87677431Y-56586280D01*
X87835000Y-56205874D01*
X87835000Y-55794126D01*
X87677431Y-55413720D01*
X87386280Y-55122569D01*
X87005874Y-54965000D01*
X86594126Y-54965000D01*
X86213720Y-55122569D01*
X85922569Y-55413720D01*
X85765000Y-55794126D01*
X85765000Y-55854132D01*
X84654133Y-56965000D01*
X77915867Y-56965000D01*
X79512283Y-55368585D01*
X79582001Y-55322001D01*
X79766552Y-55045801D01*
X79815000Y-54802237D01*
X79831358Y-54720000D01*
X79815000Y-54637763D01*
X79815000Y-50828065D01*
X80050625Y-50670625D01*
X80250000Y-50372239D01*
X80449375Y-50670625D01*
X80940582Y-50998839D01*
X81373744Y-51085000D01*
X81666256Y-51085000D01*
X82099418Y-50998839D01*
X82590625Y-50670625D01*
X82790000Y-50372239D01*
X82989375Y-50670625D01*
X83480582Y-50998839D01*
X83913744Y-51085000D01*
X84206256Y-51085000D01*
X84639418Y-50998839D01*
X85130625Y-50670625D01*
X85343843Y-50351522D01*
X85404817Y-50481358D01*
X85833076Y-50871645D01*
X86243110Y-51041476D01*
X86473000Y-50920155D01*
X86473000Y-49727000D01*
X86453000Y-49727000D01*
X86453000Y-49473000D01*
X86473000Y-49473000D01*
X86473000Y-48279845D01*
X86727000Y-48279845D01*
X86727000Y-49473000D01*
X86747000Y-49473000D01*
X86747000Y-49727000D01*
X86727000Y-49727000D01*
X86727000Y-50920155D01*
X86956890Y-51041476D01*
X87366924Y-50871645D01*
X87795183Y-50481358D01*
X87856157Y-50351522D01*
X88069375Y-50670625D01*
X88560582Y-50998839D01*
X88993744Y-51085000D01*
X89286256Y-51085000D01*
X89719418Y-50998839D01*
X90210625Y-50670625D01*
X90410000Y-50372239D01*
X90609375Y-50670625D01*
X90865001Y-50841429D01*
X90865000Y-56271289D01*
X90822569Y-56313720D01*
X90665000Y-56694126D01*
X90665000Y-57105874D01*
X90822569Y-57486280D01*
X91113720Y-57777431D01*
X91494126Y-57935000D01*
X91905874Y-57935000D01*
X92286280Y-57777431D01*
X92577431Y-57486280D01*
X92735000Y-57105874D01*
X92735000Y-56694126D01*
X92577431Y-56313720D01*
X92535000Y-56271289D01*
X92535000Y-50814701D01*
X92750625Y-50670625D01*
X92950000Y-50372239D01*
X93149375Y-50670625D01*
X93365001Y-50814702D01*
X93365000Y-56371289D01*
X93322569Y-56413720D01*
X93165000Y-56794126D01*
X93165000Y-57205874D01*
X93322569Y-57586280D01*
X93613720Y-57877431D01*
X93994126Y-58035000D01*
X94405874Y-58035000D01*
X94786280Y-57877431D01*
X95077431Y-57586280D01*
X95235000Y-57205874D01*
X95235000Y-56794126D01*
X95077431Y-56413720D01*
X95035000Y-56371289D01*
X95035000Y-50841428D01*
X95290625Y-50670625D01*
X95490000Y-50372239D01*
X95689375Y-50670625D01*
X96180582Y-50998839D01*
X96613744Y-51085000D01*
X96906256Y-51085000D01*
X97339418Y-50998839D01*
X97830625Y-50670625D01*
X97842816Y-50652381D01*
X97851843Y-50697765D01*
X97992191Y-50907809D01*
X98202235Y-51048157D01*
X98450000Y-51097440D01*
X100150000Y-51097440D01*
X100397765Y-51048157D01*
X100607809Y-50907809D01*
X100748157Y-50697765D01*
X100797440Y-50450000D01*
X100797440Y-48750000D01*
X100748157Y-48502235D01*
X100607809Y-48292191D01*
X100397765Y-48151843D01*
X100150000Y-48102560D01*
X98450000Y-48102560D01*
X98202235Y-48151843D01*
X97992191Y-48292191D01*
X97851843Y-48502235D01*
X97842816Y-48547619D01*
X97830625Y-48529375D01*
X97339418Y-48201161D01*
X96906256Y-48115000D01*
X96613744Y-48115000D01*
X96180582Y-48201161D01*
X95689375Y-48529375D01*
X95490000Y-48827761D01*
X95290625Y-48529375D01*
X94799418Y-48201161D01*
X94366256Y-48115000D01*
X94073744Y-48115000D01*
X93640582Y-48201161D01*
X93149375Y-48529375D01*
X92950000Y-48827761D01*
X92750625Y-48529375D01*
X92259418Y-48201161D01*
X91826256Y-48115000D01*
X91533744Y-48115000D01*
X91100582Y-48201161D01*
X90609375Y-48529375D01*
X90410000Y-48827761D01*
X90210625Y-48529375D01*
X89719418Y-48201161D01*
X89286256Y-48115000D01*
X88993744Y-48115000D01*
X88560582Y-48201161D01*
X88069375Y-48529375D01*
X87856157Y-48848478D01*
X87795183Y-48718642D01*
X87366924Y-48328355D01*
X86956890Y-48158524D01*
X86727000Y-48279845D01*
X86473000Y-48279845D01*
X86243110Y-48158524D01*
X85833076Y-48328355D01*
X85404817Y-48718642D01*
X85343843Y-48848478D01*
X85130625Y-48529375D01*
X84639418Y-48201161D01*
X84206256Y-48115000D01*
X83913744Y-48115000D01*
X83480582Y-48201161D01*
X82989375Y-48529375D01*
X82790000Y-48827761D01*
X82590625Y-48529375D01*
X82099418Y-48201161D01*
X81666256Y-48115000D01*
X81373744Y-48115000D01*
X80940582Y-48201161D01*
X80449375Y-48529375D01*
X80250000Y-48827761D01*
X80050625Y-48529375D01*
X79559418Y-48201161D01*
X79126256Y-48115000D01*
X78833744Y-48115000D01*
X78400582Y-48201161D01*
X77909375Y-48529375D01*
X77710000Y-48827761D01*
X77510625Y-48529375D01*
X77019418Y-48201161D01*
X76586256Y-48115000D01*
X76565869Y-48115000D01*
X76845869Y-47835000D01*
X101754133Y-47835000D01*
X102965000Y-49045868D01*
X102965001Y-52854131D01*
X95967720Y-59851413D01*
X95897999Y-59897999D01*
X95713448Y-60174200D01*
X95665000Y-60417764D01*
X95665000Y-60417767D01*
X95648643Y-60500000D01*
X95665000Y-60582233D01*
X95665001Y-79054131D01*
X87844133Y-86875000D01*
X87294670Y-86875000D01*
X86730493Y-87108690D01*
X86298690Y-87540493D01*
X86065000Y-88104670D01*
X86065000Y-88715330D01*
X86298690Y-89279507D01*
X86467908Y-89448725D01*
X86452235Y-89451843D01*
X86242191Y-89592191D01*
X86101843Y-89802235D01*
X86052560Y-90050000D01*
X86052560Y-91850000D01*
X86101843Y-92097765D01*
X86242191Y-92307809D01*
X86452235Y-92448157D01*
X86700000Y-92497440D01*
X88500000Y-92497440D01*
X88747765Y-92448157D01*
X88957809Y-92307809D01*
X89098157Y-92097765D01*
X89147440Y-91850000D01*
X89147440Y-90050000D01*
X89098157Y-89802235D01*
X88957809Y-89592191D01*
X88747765Y-89451843D01*
X88732092Y-89448725D01*
X88901310Y-89279507D01*
X89135000Y-88715330D01*
X89135000Y-88104670D01*
X89088488Y-87992379D01*
X97032283Y-80048585D01*
X97102001Y-80002001D01*
X97286552Y-79725801D01*
X97335000Y-79482237D01*
X97335000Y-79482234D01*
X97351357Y-79400001D01*
X97335000Y-79317768D01*
X97335000Y-63460000D01*
X98685908Y-63460000D01*
X98801161Y-64039418D01*
X99129375Y-64530625D01*
X99147619Y-64542816D01*
X99102235Y-64551843D01*
X98892191Y-64692191D01*
X98751843Y-64902235D01*
X98702560Y-65150000D01*
X98702560Y-66850000D01*
X98751843Y-67097765D01*
X98892191Y-67307809D01*
X99102235Y-67448157D01*
X99350000Y-67497440D01*
X101050000Y-67497440D01*
X101297765Y-67448157D01*
X101507809Y-67307809D01*
X101648157Y-67097765D01*
X101697440Y-66850000D01*
X101697440Y-65150000D01*
X101648157Y-64902235D01*
X101507809Y-64692191D01*
X101297765Y-64551843D01*
X101252381Y-64542816D01*
X101270625Y-64530625D01*
X101598839Y-64039418D01*
X101714092Y-63460000D01*
X101598839Y-62880582D01*
X101270625Y-62389375D01*
X100779418Y-62061161D01*
X100346256Y-61975000D01*
X100053744Y-61975000D01*
X99620582Y-62061161D01*
X99129375Y-62389375D01*
X98801161Y-62880582D01*
X98685908Y-63460000D01*
X97335000Y-63460000D01*
X97335000Y-60845867D01*
X104332283Y-53848585D01*
X104402001Y-53802001D01*
X104586552Y-53525801D01*
X104635000Y-53282237D01*
X104635000Y-53282234D01*
X104651357Y-53200001D01*
X104635000Y-53117768D01*
X104635000Y-48782232D01*
X104651357Y-48699999D01*
X104635000Y-48617764D01*
X104635000Y-48617763D01*
X104586552Y-48374199D01*
X104402001Y-48097999D01*
X104332283Y-48051415D01*
X102748587Y-46467720D01*
X102702001Y-46397999D01*
X102425801Y-46213448D01*
X102182237Y-46165000D01*
X102182233Y-46165000D01*
X102100000Y-46148643D01*
X102017767Y-46165000D01*
X76582232Y-46165000D01*
X76499999Y-46148643D01*
X76417766Y-46165000D01*
X76417763Y-46165000D01*
X76174199Y-46213448D01*
X75897999Y-46397999D01*
X75851417Y-46467715D01*
X74177939Y-48141193D01*
X74046256Y-48115000D01*
X73753744Y-48115000D01*
X73320582Y-48201161D01*
X72829375Y-48529375D01*
X72630000Y-48827761D01*
X72430625Y-48529375D01*
X71939418Y-48201161D01*
X71506256Y-48115000D01*
X71213744Y-48115000D01*
X70780582Y-48201161D01*
X70289375Y-48529375D01*
X70090000Y-48827761D01*
X69890625Y-48529375D01*
X69399418Y-48201161D01*
X68966256Y-48115000D01*
X68673744Y-48115000D01*
X68240582Y-48201161D01*
X67749375Y-48529375D01*
X67536157Y-48848478D01*
X67475183Y-48718642D01*
X67046924Y-48328355D01*
X66636890Y-48158524D01*
X66407000Y-48279845D01*
X66407000Y-49473000D01*
X66427000Y-49473000D01*
X66427000Y-49727000D01*
X66407000Y-49727000D01*
X66407000Y-50920155D01*
X66636890Y-51041476D01*
X67046924Y-50871645D01*
X67475183Y-50481358D01*
X67536157Y-50351522D01*
X67749375Y-50670625D01*
X67965001Y-50814701D01*
X67965000Y-51465000D01*
X67828711Y-51465000D01*
X67786280Y-51422569D01*
X67405874Y-51265000D01*
X66994126Y-51265000D01*
X66613720Y-51422569D01*
X66322569Y-51713720D01*
X66165000Y-52094126D01*
X66165000Y-52505874D01*
X66322569Y-52886280D01*
X66613720Y-53177431D01*
X66825131Y-53265000D01*
X62395868Y-53265000D01*
X58730868Y-49600000D01*
X59685908Y-49600000D01*
X59801161Y-50179418D01*
X60129375Y-50670625D01*
X60620582Y-50998839D01*
X61053744Y-51085000D01*
X61346256Y-51085000D01*
X61779418Y-50998839D01*
X62270625Y-50670625D01*
X62470000Y-50372239D01*
X62669375Y-50670625D01*
X63160582Y-50998839D01*
X63593744Y-51085000D01*
X63886256Y-51085000D01*
X64319418Y-50998839D01*
X64810625Y-50670625D01*
X65023843Y-50351522D01*
X65084817Y-50481358D01*
X65513076Y-50871645D01*
X65923110Y-51041476D01*
X66153000Y-50920155D01*
X66153000Y-49727000D01*
X66133000Y-49727000D01*
X66133000Y-49473000D01*
X66153000Y-49473000D01*
X66153000Y-48279845D01*
X65923110Y-48158524D01*
X65513076Y-48328355D01*
X65084817Y-48718642D01*
X65023843Y-48848478D01*
X64810625Y-48529375D01*
X64319418Y-48201161D01*
X63886256Y-48115000D01*
X63593744Y-48115000D01*
X63160582Y-48201161D01*
X62669375Y-48529375D01*
X62470000Y-48827761D01*
X62270625Y-48529375D01*
X61779418Y-48201161D01*
X61346256Y-48115000D01*
X61053744Y-48115000D01*
X60620582Y-48201161D01*
X60129375Y-48529375D01*
X59801161Y-49020582D01*
X59685908Y-49600000D01*
X58730868Y-49600000D01*
X58198587Y-49067720D01*
X58152001Y-48997999D01*
X57875801Y-48813448D01*
X57797440Y-48797861D01*
X57797440Y-48750000D01*
X57748157Y-48502235D01*
X57607809Y-48292191D01*
X57397765Y-48151843D01*
X57150000Y-48102560D01*
X55450000Y-48102560D01*
X55202235Y-48151843D01*
X54992191Y-48292191D01*
X54851843Y-48502235D01*
X54802560Y-48750000D01*
X54802560Y-50450000D01*
X54851843Y-50697765D01*
X54992191Y-50907809D01*
X55202235Y-51048157D01*
X55247619Y-51057184D01*
X55229375Y-51069375D01*
X54901161Y-51560582D01*
X54785908Y-52140000D01*
X51127000Y-52140000D01*
X51127000Y-46127000D01*
X104873000Y-46127000D01*
X104873000Y-56697261D01*
G36*
X84675002Y-77712593D02*
X84616890Y-77688524D01*
X84387000Y-77809845D01*
X84387000Y-79003000D01*
X84407000Y-79003000D01*
X84407000Y-79257000D01*
X84387000Y-79257000D01*
X84387000Y-80450155D01*
X84616890Y-80571476D01*
X84675002Y-80547407D01*
X84675002Y-81844130D01*
X83805001Y-82714131D01*
X83805001Y-80530840D01*
X83903110Y-80571476D01*
X84133000Y-80450155D01*
X84133000Y-79257000D01*
X84113000Y-79257000D01*
X84113000Y-79003000D01*
X84133000Y-79003000D01*
X84133000Y-77809845D01*
X83903110Y-77688524D01*
X83805001Y-77729160D01*
X83805001Y-77675866D01*
X84675001Y-76805866D01*
X84675002Y-77712593D01*
X84675002Y-77712593D01*
G37*
X84675002Y-77712593D02*
X84616890Y-77688524D01*
X84387000Y-77809845D01*
X84387000Y-79003000D01*
X84407000Y-79003000D01*
X84407000Y-79257000D01*
X84387000Y-79257000D01*
X84387000Y-80450155D01*
X84616890Y-80571476D01*
X84675002Y-80547407D01*
X84675002Y-81844130D01*
X83805001Y-82714131D01*
X83805001Y-80530840D01*
X83903110Y-80571476D01*
X84133000Y-80450155D01*
X84133000Y-79257000D01*
X84113000Y-79257000D01*
X84113000Y-79003000D01*
X84133000Y-79003000D01*
X84133000Y-77809845D01*
X83903110Y-77688524D01*
X83805001Y-77729160D01*
X83805001Y-77675866D01*
X84675001Y-76805866D01*
X84675002Y-77712593D01*
G04 #@! TD*
M02*
