M48
;DRILL file {KiCad (5.0.2)-1} date 11/02/2019 10:40:27
;FORMAT={-:-/ absolute / metric / decimal}
FMAT,2
METRIC,TZ
T1C0.400
T2C0.800
T3C0.900
T4C1.000
T5C2.200
%
G90
G05
T1
X56.6Y-87.8
X58.2Y-49.3
X60.5Y-55.
X69.9Y-52.3
X71.Y-86.3
X71.4Y-53.7
X72.7Y-103.
X74.8Y-47.2
X79.5Y-86.5
X79.9Y-97.8
X80.1Y-69.3
X81.15Y-63.7
X82.3Y-62.8
X85.4Y-72.5
X87.6Y-86.3
X89.3Y-52.5
X91.7Y-52.9
X92.2Y-95.9
X93.4Y-96.65
X94.3Y-52.8
X95.6Y-65.
X95.6Y-66.6
X96.5Y-98.2
X98.7Y-96.6
X100.5Y-102.9
T2
X62.2Y-85.52
X62.2Y-90.4
T3
X78.124Y-88.425
X78.124Y-90.965
X68.75Y-88.41
X68.75Y-90.95
X87.6Y-88.41
X87.6Y-90.95
T4
X61.2Y-49.6
X63.74Y-49.6
X66.28Y-49.6
X68.82Y-49.6
X71.36Y-49.6
X73.9Y-49.6
X76.44Y-49.6
X78.98Y-49.6
X81.52Y-49.6
X84.06Y-49.6
X86.6Y-49.6
X89.14Y-49.6
X91.68Y-49.6
X94.22Y-49.6
X96.76Y-49.6
X99.3Y-49.6
X58.31Y-106.15
X60.85Y-106.15
X103.2Y-96.26
X103.2Y-98.8
X79.06Y-72.5
X81.6Y-72.5
X69.02Y-79.13
X71.56Y-79.13
X74.1Y-79.13
X76.64Y-79.13
X79.18Y-79.13
X81.72Y-79.13
X84.26Y-79.13
X86.8Y-79.13
T5
X104.2Y-103.
X88.36Y-106.8
X104.2Y-59.
X52.2Y-103.
X52.2Y-59.
X61.4Y-79.06
X68.04Y-106.8
T0
M30
