G04 #@! TF.GenerationSoftware,KiCad,Pcbnew,(5.0.2)-1*
G04 #@! TF.CreationDate,2019-02-11T10:40:24+00:00*
G04 #@! TF.ProjectId,AircraftDataLogger,41697263-7261-4667-9444-6174614c6f67,rev?*
G04 #@! TF.SameCoordinates,Original*
G04 #@! TF.FileFunction,Copper,L2,Bot*
G04 #@! TF.FilePolarity,Positive*
%FSLAX46Y46*%
G04 Gerber Fmt 4.6, Leading zero omitted, Abs format (unit mm)*
G04 Created by KiCad (PCBNEW (5.0.2)-1) date 11/02/2019 10:40:24*
%MOMM*%
%LPD*%
G01*
G04 APERTURE LIST*
G04 #@! TA.AperFunction,ComponentPad*
%ADD10C,3.500000*%
G04 #@! TD*
G04 #@! TA.AperFunction,ComponentPad*
%ADD11C,1.800000*%
G04 #@! TD*
G04 #@! TA.AperFunction,ComponentPad*
%ADD12R,1.800000X1.800000*%
G04 #@! TD*
G04 #@! TA.AperFunction,ComponentPad*
%ADD13R,1.700000X1.700000*%
G04 #@! TD*
G04 #@! TA.AperFunction,ComponentPad*
%ADD14O,1.700000X1.700000*%
G04 #@! TD*
G04 #@! TA.AperFunction,ComponentPad*
%ADD15C,1.500000*%
G04 #@! TD*
G04 #@! TA.AperFunction,ViaPad*
%ADD16C,0.800000*%
G04 #@! TD*
G04 #@! TA.AperFunction,Conductor*
%ADD17C,0.250000*%
G04 #@! TD*
G04 #@! TA.AperFunction,Conductor*
%ADD18C,0.300000*%
G04 #@! TD*
G04 #@! TA.AperFunction,Conductor*
%ADD19C,0.254000*%
G04 #@! TD*
G04 APERTURE END LIST*
D10*
G04 #@! TO.P,TL,1*
G04 #@! TO.N,N/C*
X52200000Y-59000000D03*
G04 #@! TD*
G04 #@! TO.P,uSDR,1*
G04 #@! TO.N,N/C*
X88360000Y-106800000D03*
G04 #@! TD*
G04 #@! TO.P,uSDL,1*
G04 #@! TO.N,N/C*
X68040000Y-106800000D03*
G04 #@! TD*
G04 #@! TO.P,BL,1*
G04 #@! TO.N,N/C*
X104200000Y-103000000D03*
G04 #@! TD*
G04 #@! TO.P,TR,1*
G04 #@! TO.N,N/C*
X104200000Y-59000000D03*
G04 #@! TD*
G04 #@! TO.P,GPS,1*
G04 #@! TO.N,N/C*
X61400000Y-79060000D03*
G04 #@! TD*
D11*
G04 #@! TO.P,D1,2*
G04 #@! TO.N,FIX*
X87600000Y-88410000D03*
D12*
G04 #@! TO.P,D1,1*
G04 #@! TO.N,Net-(D1-Pad1)*
X87600000Y-90950000D03*
G04 #@! TD*
G04 #@! TO.P,D2,1*
G04 #@! TO.N,Net-(D2-Pad1)*
X68750000Y-90950000D03*
D11*
G04 #@! TO.P,D2,2*
G04 #@! TO.N,STABLE*
X68750000Y-88410000D03*
G04 #@! TD*
D12*
G04 #@! TO.P,D3,1*
G04 #@! TO.N,Net-(D3-Pad1)*
X78124000Y-90964600D03*
D11*
G04 #@! TO.P,D3,2*
G04 #@! TO.N,REC*
X78124000Y-88424600D03*
G04 #@! TD*
D13*
G04 #@! TO.P,J1,1*
G04 #@! TO.N,Net-(J1-Pad1)*
X86800000Y-79130000D03*
D14*
G04 #@! TO.P,J1,2*
G04 #@! TO.N,GND*
X84260000Y-79130000D03*
G04 #@! TO.P,J1,3*
G04 #@! TO.N,3V3*
X81720000Y-79130000D03*
G04 #@! TO.P,J1,4*
G04 #@! TO.N,SCK*
X79180000Y-79130000D03*
G04 #@! TO.P,J1,5*
G04 #@! TO.N,MISO*
X76640000Y-79130000D03*
G04 #@! TO.P,J1,6*
G04 #@! TO.N,MOSI*
X74100000Y-79130000D03*
G04 #@! TO.P,J1,7*
G04 #@! TO.N,CS*
X71560000Y-79130000D03*
G04 #@! TO.P,J1,8*
G04 #@! TO.N,Net-(J1-Pad8)*
X69020000Y-79130000D03*
G04 #@! TD*
D13*
G04 #@! TO.P,J3,1*
G04 #@! TO.N,TXD*
X60850000Y-106150000D03*
D14*
G04 #@! TO.P,J3,2*
G04 #@! TO.N,RXD*
X58310000Y-106150000D03*
G04 #@! TD*
D15*
G04 #@! TO.P,Y1,1*
G04 #@! TO.N,Net-(C2-Pad2)*
X62200000Y-90400000D03*
G04 #@! TO.P,Y1,2*
G04 #@! TO.N,Net-(C1-Pad2)*
X62200000Y-85520000D03*
G04 #@! TD*
D10*
G04 #@! TO.P,BL,1*
G04 #@! TO.N,N/C*
X52200000Y-103000000D03*
G04 #@! TD*
D13*
G04 #@! TO.P,J2,1*
G04 #@! TO.N,Net-(J2-Pad1)*
X99300000Y-49600000D03*
D14*
G04 #@! TO.P,J2,2*
G04 #@! TO.N,Net-(J2-Pad2)*
X96760000Y-49600000D03*
G04 #@! TO.P,J2,3*
G04 #@! TO.N,SDA*
X94220000Y-49600000D03*
G04 #@! TO.P,J2,4*
G04 #@! TO.N,SCL*
X91680000Y-49600000D03*
G04 #@! TO.P,J2,5*
G04 #@! TO.N,3V3*
X89140000Y-49600000D03*
G04 #@! TO.P,J2,6*
G04 #@! TO.N,GND*
X86600000Y-49600000D03*
G04 #@! TO.P,J2,7*
G04 #@! TO.N,Net-(J2-Pad7)*
X84060000Y-49600000D03*
G04 #@! TO.P,J2,8*
G04 #@! TO.N,3V3*
X81520000Y-49600000D03*
G04 #@! TO.P,J2,9*
G04 #@! TO.N,Net-(J2-Pad9)*
X78980000Y-49600000D03*
G04 #@! TO.P,J2,10*
G04 #@! TO.N,Net-(J2-Pad10)*
X76440000Y-49600000D03*
G04 #@! TO.P,J2,11*
G04 #@! TO.N,FIX*
X73900000Y-49600000D03*
G04 #@! TO.P,J2,12*
G04 #@! TO.N,TXD*
X71360000Y-49600000D03*
G04 #@! TO.P,J2,13*
G04 #@! TO.N,RXD*
X68820000Y-49600000D03*
G04 #@! TO.P,J2,14*
G04 #@! TO.N,Net-(J2-Pad14)*
X66280000Y-49600000D03*
G04 #@! TO.P,J2,15*
G04 #@! TO.N,Net-(J2-Pad15)*
X63740000Y-49600000D03*
G04 #@! TO.P,J2,16*
G04 #@! TO.N,Net-(J2-Pad16)*
X61200000Y-49600000D03*
G04 #@! TD*
G04 #@! TO.P,J4,2*
G04 #@! TO.N,3V3*
X79060000Y-72500000D03*
D13*
G04 #@! TO.P,J4,1*
G04 #@! TO.N,Net-(J4-Pad1)*
X81600000Y-72500000D03*
G04 #@! TD*
G04 #@! TO.P,J5,1*
G04 #@! TO.N,+9V*
X103200000Y-96260000D03*
D14*
G04 #@! TO.P,J5,2*
G04 #@! TO.N,GND*
X103200000Y-98800000D03*
G04 #@! TD*
D16*
G04 #@! TO.N,GND*
X92200000Y-95900000D03*
X56600000Y-87800000D03*
X95600000Y-65000000D03*
X81150000Y-63700000D03*
X79900000Y-97800000D03*
X58200000Y-49300000D03*
X100500000Y-102900000D03*
X96500000Y-98200000D03*
G04 #@! TO.N,3V3*
X82300000Y-62800000D03*
X95600000Y-66600000D03*
X80100000Y-69300000D03*
X72700000Y-103000000D03*
X89300000Y-52500000D03*
G04 #@! TO.N,FIX*
X74800000Y-47200000D03*
X87600000Y-86300000D03*
G04 #@! TO.N,STABLE*
X71000000Y-86300000D03*
G04 #@! TO.N,REC*
X79500000Y-86500000D03*
G04 #@! TO.N,RXD*
X69900000Y-52300000D03*
G04 #@! TO.N,TXD*
X71400000Y-53700000D03*
G04 #@! TO.N,SDA*
X94300000Y-52800000D03*
G04 #@! TO.N,SCL*
X91700000Y-52900000D03*
G04 #@! TO.N,+9V*
X93400000Y-96650000D03*
X98700000Y-96600000D03*
G04 #@! TO.N,Net-(J2-Pad9)*
X60500000Y-55000000D03*
G04 #@! TO.N,Net-(J4-Pad1)*
X85400000Y-72500000D03*
G04 #@! TD*
D17*
G04 #@! TO.N,FIX*
X74800000Y-47200000D02*
X74800000Y-48700000D01*
X74800000Y-48700000D02*
X73900000Y-49600000D01*
D18*
X87600000Y-86300000D02*
X87600000Y-88300000D01*
G04 #@! TO.N,STABLE*
X71000000Y-86300000D02*
X68900000Y-88400000D01*
G04 #@! TO.N,REC*
X79100001Y-86899999D02*
X79100001Y-87399999D01*
X79500000Y-86500000D02*
X79100001Y-86899999D01*
X79100001Y-87399999D02*
X78200000Y-88300000D01*
G04 #@! TO.N,RXD*
X69900000Y-52300000D02*
X69900000Y-50700000D01*
X69900000Y-50700000D02*
X68900000Y-49700000D01*
G04 #@! TO.N,TXD*
X71400000Y-53700000D02*
X71400000Y-53134315D01*
X71400000Y-53134315D02*
X71400000Y-49700000D01*
G04 #@! TO.N,SDA*
X94300000Y-52800000D02*
X94300000Y-52234315D01*
X94300000Y-52234315D02*
X94300000Y-49600000D01*
G04 #@! TO.N,SCL*
X91700000Y-52900000D02*
X91700000Y-52334315D01*
X91700000Y-52334315D02*
X91700000Y-49600000D01*
G04 #@! TO.N,+9V*
X93400000Y-96650000D02*
X98650000Y-96650000D01*
X98650000Y-96650000D02*
X98700000Y-96600000D01*
G04 #@! TO.N,Net-(J2-Pad9)*
X60500000Y-55000000D02*
X63300000Y-57800000D01*
X63300000Y-57800000D02*
X71000000Y-57800000D01*
X71000000Y-57800000D02*
X79100000Y-49700000D01*
G04 #@! TO.N,Net-(J4-Pad1)*
X85400000Y-72500000D02*
X81600000Y-72500000D01*
G04 #@! TD*
D19*
G04 #@! TO.N,GND*
G36*
X104873000Y-56697260D02*
X104674406Y-56615000D01*
X103725594Y-56615000D01*
X102849006Y-56978095D01*
X102178095Y-57649006D01*
X101815000Y-58525594D01*
X101815000Y-59474406D01*
X102178095Y-60350994D01*
X102849006Y-61021905D01*
X103725594Y-61385000D01*
X104674406Y-61385000D01*
X104873000Y-61302740D01*
X104873000Y-100697260D01*
X104674406Y-100615000D01*
X103725594Y-100615000D01*
X102849006Y-100978095D01*
X102178095Y-101649006D01*
X101815000Y-102525594D01*
X101815000Y-103474406D01*
X102178095Y-104350994D01*
X102849006Y-105021905D01*
X103725594Y-105385000D01*
X104674406Y-105385000D01*
X104873000Y-105302740D01*
X104873000Y-107873000D01*
X90497054Y-107873000D01*
X90745000Y-107274406D01*
X90745000Y-106325594D01*
X90381905Y-105449006D01*
X89710994Y-104778095D01*
X88834406Y-104415000D01*
X87885594Y-104415000D01*
X87009006Y-104778095D01*
X86338095Y-105449006D01*
X85975000Y-106325594D01*
X85975000Y-107274406D01*
X86222946Y-107873000D01*
X70177054Y-107873000D01*
X70425000Y-107274406D01*
X70425000Y-106325594D01*
X70061905Y-105449006D01*
X69390994Y-104778095D01*
X68514406Y-104415000D01*
X67565594Y-104415000D01*
X66689006Y-104778095D01*
X66018095Y-105449006D01*
X65655000Y-106325594D01*
X65655000Y-107274406D01*
X65902946Y-107873000D01*
X51127000Y-107873000D01*
X51127000Y-106150000D01*
X56795908Y-106150000D01*
X56911161Y-106729418D01*
X57239375Y-107220625D01*
X57730582Y-107548839D01*
X58163744Y-107635000D01*
X58456256Y-107635000D01*
X58889418Y-107548839D01*
X59380625Y-107220625D01*
X59392816Y-107202381D01*
X59401843Y-107247765D01*
X59542191Y-107457809D01*
X59752235Y-107598157D01*
X60000000Y-107647440D01*
X61700000Y-107647440D01*
X61947765Y-107598157D01*
X62157809Y-107457809D01*
X62298157Y-107247765D01*
X62347440Y-107000000D01*
X62347440Y-105300000D01*
X62298157Y-105052235D01*
X62157809Y-104842191D01*
X61947765Y-104701843D01*
X61700000Y-104652560D01*
X60000000Y-104652560D01*
X59752235Y-104701843D01*
X59542191Y-104842191D01*
X59401843Y-105052235D01*
X59392816Y-105097619D01*
X59380625Y-105079375D01*
X58889418Y-104751161D01*
X58456256Y-104665000D01*
X58163744Y-104665000D01*
X57730582Y-104751161D01*
X57239375Y-105079375D01*
X56911161Y-105570582D01*
X56795908Y-106150000D01*
X51127000Y-106150000D01*
X51127000Y-105137054D01*
X51725594Y-105385000D01*
X52674406Y-105385000D01*
X53550994Y-105021905D01*
X54221905Y-104350994D01*
X54585000Y-103474406D01*
X54585000Y-102794126D01*
X71665000Y-102794126D01*
X71665000Y-103205874D01*
X71822569Y-103586280D01*
X72113720Y-103877431D01*
X72494126Y-104035000D01*
X72905874Y-104035000D01*
X73286280Y-103877431D01*
X73577431Y-103586280D01*
X73735000Y-103205874D01*
X73735000Y-102794126D01*
X73577431Y-102413720D01*
X73286280Y-102122569D01*
X72905874Y-101965000D01*
X72494126Y-101965000D01*
X72113720Y-102122569D01*
X71822569Y-102413720D01*
X71665000Y-102794126D01*
X54585000Y-102794126D01*
X54585000Y-102525594D01*
X54221905Y-101649006D01*
X53550994Y-100978095D01*
X52674406Y-100615000D01*
X51725594Y-100615000D01*
X51127000Y-100862946D01*
X51127000Y-99156890D01*
X101758524Y-99156890D01*
X101928355Y-99566924D01*
X102318642Y-99995183D01*
X102843108Y-100241486D01*
X103073000Y-100120819D01*
X103073000Y-98927000D01*
X103327000Y-98927000D01*
X103327000Y-100120819D01*
X103556892Y-100241486D01*
X104081358Y-99995183D01*
X104471645Y-99566924D01*
X104641476Y-99156890D01*
X104520155Y-98927000D01*
X103327000Y-98927000D01*
X103073000Y-98927000D01*
X101879845Y-98927000D01*
X101758524Y-99156890D01*
X51127000Y-99156890D01*
X51127000Y-96444126D01*
X92365000Y-96444126D01*
X92365000Y-96855874D01*
X92522569Y-97236280D01*
X92813720Y-97527431D01*
X93194126Y-97685000D01*
X93605874Y-97685000D01*
X93986280Y-97527431D01*
X94078711Y-97435000D01*
X98071289Y-97435000D01*
X98113720Y-97477431D01*
X98494126Y-97635000D01*
X98905874Y-97635000D01*
X99286280Y-97477431D01*
X99577431Y-97186280D01*
X99735000Y-96805874D01*
X99735000Y-96394126D01*
X99577431Y-96013720D01*
X99286280Y-95722569D01*
X98905874Y-95565000D01*
X98494126Y-95565000D01*
X98113720Y-95722569D01*
X97971289Y-95865000D01*
X94078711Y-95865000D01*
X93986280Y-95772569D01*
X93605874Y-95615000D01*
X93194126Y-95615000D01*
X92813720Y-95772569D01*
X92522569Y-96063720D01*
X92365000Y-96444126D01*
X51127000Y-96444126D01*
X51127000Y-95410000D01*
X101702560Y-95410000D01*
X101702560Y-97110000D01*
X101751843Y-97357765D01*
X101892191Y-97567809D01*
X102102235Y-97708157D01*
X102205708Y-97728739D01*
X101928355Y-98033076D01*
X101758524Y-98443110D01*
X101879845Y-98673000D01*
X103073000Y-98673000D01*
X103073000Y-98653000D01*
X103327000Y-98653000D01*
X103327000Y-98673000D01*
X104520155Y-98673000D01*
X104641476Y-98443110D01*
X104471645Y-98033076D01*
X104194292Y-97728739D01*
X104297765Y-97708157D01*
X104507809Y-97567809D01*
X104648157Y-97357765D01*
X104697440Y-97110000D01*
X104697440Y-95410000D01*
X104648157Y-95162235D01*
X104507809Y-94952191D01*
X104297765Y-94811843D01*
X104050000Y-94762560D01*
X102350000Y-94762560D01*
X102102235Y-94811843D01*
X101892191Y-94952191D01*
X101751843Y-95162235D01*
X101702560Y-95410000D01*
X51127000Y-95410000D01*
X51127000Y-90124506D01*
X60815000Y-90124506D01*
X60815000Y-90675494D01*
X61025853Y-91184540D01*
X61415460Y-91574147D01*
X61924506Y-91785000D01*
X62475494Y-91785000D01*
X62984540Y-91574147D01*
X63374147Y-91184540D01*
X63585000Y-90675494D01*
X63585000Y-90124506D01*
X63554139Y-90050000D01*
X67202560Y-90050000D01*
X67202560Y-91850000D01*
X67251843Y-92097765D01*
X67392191Y-92307809D01*
X67602235Y-92448157D01*
X67850000Y-92497440D01*
X69650000Y-92497440D01*
X69897765Y-92448157D01*
X70107809Y-92307809D01*
X70248157Y-92097765D01*
X70297440Y-91850000D01*
X70297440Y-90064600D01*
X76576560Y-90064600D01*
X76576560Y-91864600D01*
X76625843Y-92112365D01*
X76766191Y-92322409D01*
X76976235Y-92462757D01*
X77224000Y-92512040D01*
X79024000Y-92512040D01*
X79271765Y-92462757D01*
X79481809Y-92322409D01*
X79622157Y-92112365D01*
X79671440Y-91864600D01*
X79671440Y-90064600D01*
X79668536Y-90050000D01*
X86052560Y-90050000D01*
X86052560Y-91850000D01*
X86101843Y-92097765D01*
X86242191Y-92307809D01*
X86452235Y-92448157D01*
X86700000Y-92497440D01*
X88500000Y-92497440D01*
X88747765Y-92448157D01*
X88957809Y-92307809D01*
X89098157Y-92097765D01*
X89147440Y-91850000D01*
X89147440Y-90050000D01*
X89098157Y-89802235D01*
X88957809Y-89592191D01*
X88747765Y-89451843D01*
X88732092Y-89448725D01*
X88901310Y-89279507D01*
X89135000Y-88715330D01*
X89135000Y-88104670D01*
X88901310Y-87540493D01*
X88469507Y-87108690D01*
X88385000Y-87073686D01*
X88385000Y-86978711D01*
X88477431Y-86886280D01*
X88635000Y-86505874D01*
X88635000Y-86094126D01*
X88477431Y-85713720D01*
X88186280Y-85422569D01*
X87805874Y-85265000D01*
X87394126Y-85265000D01*
X87013720Y-85422569D01*
X86722569Y-85713720D01*
X86565000Y-86094126D01*
X86565000Y-86505874D01*
X86722569Y-86886280D01*
X86815000Y-86978711D01*
X86815000Y-87073686D01*
X86730493Y-87108690D01*
X86298690Y-87540493D01*
X86065000Y-88104670D01*
X86065000Y-88715330D01*
X86298690Y-89279507D01*
X86467908Y-89448725D01*
X86452235Y-89451843D01*
X86242191Y-89592191D01*
X86101843Y-89802235D01*
X86052560Y-90050000D01*
X79668536Y-90050000D01*
X79622157Y-89816835D01*
X79481809Y-89606791D01*
X79271765Y-89466443D01*
X79256092Y-89463325D01*
X79425310Y-89294107D01*
X79659000Y-88729930D01*
X79659000Y-88119270D01*
X79610768Y-88002827D01*
X79665954Y-87965952D01*
X79839455Y-87706291D01*
X79885001Y-87477315D01*
X79885001Y-87477311D01*
X79888579Y-87459321D01*
X80086280Y-87377431D01*
X80377431Y-87086280D01*
X80535000Y-86705874D01*
X80535000Y-86294126D01*
X80377431Y-85913720D01*
X80086280Y-85622569D01*
X79705874Y-85465000D01*
X79294126Y-85465000D01*
X78913720Y-85622569D01*
X78622569Y-85913720D01*
X78465000Y-86294126D01*
X78465000Y-86437383D01*
X78360547Y-86593708D01*
X78315001Y-86822684D01*
X78315001Y-86822687D01*
X78301691Y-86889600D01*
X77818670Y-86889600D01*
X77254493Y-87123290D01*
X76822690Y-87555093D01*
X76589000Y-88119270D01*
X76589000Y-88729930D01*
X76822690Y-89294107D01*
X76991908Y-89463325D01*
X76976235Y-89466443D01*
X76766191Y-89606791D01*
X76625843Y-89816835D01*
X76576560Y-90064600D01*
X70297440Y-90064600D01*
X70297440Y-90050000D01*
X70248157Y-89802235D01*
X70107809Y-89592191D01*
X69897765Y-89451843D01*
X69882092Y-89448725D01*
X70051310Y-89279507D01*
X70285000Y-88715330D01*
X70285000Y-88125157D01*
X71075158Y-87335000D01*
X71205874Y-87335000D01*
X71586280Y-87177431D01*
X71877431Y-86886280D01*
X72035000Y-86505874D01*
X72035000Y-86094126D01*
X71877431Y-85713720D01*
X71586280Y-85422569D01*
X71205874Y-85265000D01*
X70794126Y-85265000D01*
X70413720Y-85422569D01*
X70122569Y-85713720D01*
X69965000Y-86094126D01*
X69965000Y-86224842D01*
X69238833Y-86951010D01*
X69055330Y-86875000D01*
X68444670Y-86875000D01*
X67880493Y-87108690D01*
X67448690Y-87540493D01*
X67215000Y-88104670D01*
X67215000Y-88715330D01*
X67448690Y-89279507D01*
X67617908Y-89448725D01*
X67602235Y-89451843D01*
X67392191Y-89592191D01*
X67251843Y-89802235D01*
X67202560Y-90050000D01*
X63554139Y-90050000D01*
X63374147Y-89615460D01*
X62984540Y-89225853D01*
X62475494Y-89015000D01*
X61924506Y-89015000D01*
X61415460Y-89225853D01*
X61025853Y-89615460D01*
X60815000Y-90124506D01*
X51127000Y-90124506D01*
X51127000Y-85244506D01*
X60815000Y-85244506D01*
X60815000Y-85795494D01*
X61025853Y-86304540D01*
X61415460Y-86694147D01*
X61924506Y-86905000D01*
X62475494Y-86905000D01*
X62984540Y-86694147D01*
X63374147Y-86304540D01*
X63585000Y-85795494D01*
X63585000Y-85244506D01*
X63374147Y-84735460D01*
X62984540Y-84345853D01*
X62475494Y-84135000D01*
X61924506Y-84135000D01*
X61415460Y-84345853D01*
X61025853Y-84735460D01*
X60815000Y-85244506D01*
X51127000Y-85244506D01*
X51127000Y-78585594D01*
X59015000Y-78585594D01*
X59015000Y-79534406D01*
X59378095Y-80410994D01*
X60049006Y-81081905D01*
X60925594Y-81445000D01*
X61874406Y-81445000D01*
X62750994Y-81081905D01*
X63421905Y-80410994D01*
X63785000Y-79534406D01*
X63785000Y-79130000D01*
X67505908Y-79130000D01*
X67621161Y-79709418D01*
X67949375Y-80200625D01*
X68440582Y-80528839D01*
X68873744Y-80615000D01*
X69166256Y-80615000D01*
X69599418Y-80528839D01*
X70090625Y-80200625D01*
X70290000Y-79902239D01*
X70489375Y-80200625D01*
X70980582Y-80528839D01*
X71413744Y-80615000D01*
X71706256Y-80615000D01*
X72139418Y-80528839D01*
X72630625Y-80200625D01*
X72830000Y-79902239D01*
X73029375Y-80200625D01*
X73520582Y-80528839D01*
X73953744Y-80615000D01*
X74246256Y-80615000D01*
X74679418Y-80528839D01*
X75170625Y-80200625D01*
X75370000Y-79902239D01*
X75569375Y-80200625D01*
X76060582Y-80528839D01*
X76493744Y-80615000D01*
X76786256Y-80615000D01*
X77219418Y-80528839D01*
X77710625Y-80200625D01*
X77910000Y-79902239D01*
X78109375Y-80200625D01*
X78600582Y-80528839D01*
X79033744Y-80615000D01*
X79326256Y-80615000D01*
X79759418Y-80528839D01*
X80250625Y-80200625D01*
X80450000Y-79902239D01*
X80649375Y-80200625D01*
X81140582Y-80528839D01*
X81573744Y-80615000D01*
X81866256Y-80615000D01*
X82299418Y-80528839D01*
X82790625Y-80200625D01*
X83003843Y-79881522D01*
X83064817Y-80011358D01*
X83493076Y-80401645D01*
X83903110Y-80571476D01*
X84133000Y-80450155D01*
X84133000Y-79257000D01*
X84113000Y-79257000D01*
X84113000Y-79003000D01*
X84133000Y-79003000D01*
X84133000Y-77809845D01*
X84387000Y-77809845D01*
X84387000Y-79003000D01*
X84407000Y-79003000D01*
X84407000Y-79257000D01*
X84387000Y-79257000D01*
X84387000Y-80450155D01*
X84616890Y-80571476D01*
X85026924Y-80401645D01*
X85331261Y-80124292D01*
X85351843Y-80227765D01*
X85492191Y-80437809D01*
X85702235Y-80578157D01*
X85950000Y-80627440D01*
X87650000Y-80627440D01*
X87897765Y-80578157D01*
X88107809Y-80437809D01*
X88248157Y-80227765D01*
X88297440Y-79980000D01*
X88297440Y-78280000D01*
X88248157Y-78032235D01*
X88107809Y-77822191D01*
X87897765Y-77681843D01*
X87650000Y-77632560D01*
X85950000Y-77632560D01*
X85702235Y-77681843D01*
X85492191Y-77822191D01*
X85351843Y-78032235D01*
X85331261Y-78135708D01*
X85026924Y-77858355D01*
X84616890Y-77688524D01*
X84387000Y-77809845D01*
X84133000Y-77809845D01*
X83903110Y-77688524D01*
X83493076Y-77858355D01*
X83064817Y-78248642D01*
X83003843Y-78378478D01*
X82790625Y-78059375D01*
X82299418Y-77731161D01*
X81866256Y-77645000D01*
X81573744Y-77645000D01*
X81140582Y-77731161D01*
X80649375Y-78059375D01*
X80450000Y-78357761D01*
X80250625Y-78059375D01*
X79759418Y-77731161D01*
X79326256Y-77645000D01*
X79033744Y-77645000D01*
X78600582Y-77731161D01*
X78109375Y-78059375D01*
X77910000Y-78357761D01*
X77710625Y-78059375D01*
X77219418Y-77731161D01*
X76786256Y-77645000D01*
X76493744Y-77645000D01*
X76060582Y-77731161D01*
X75569375Y-78059375D01*
X75370000Y-78357761D01*
X75170625Y-78059375D01*
X74679418Y-77731161D01*
X74246256Y-77645000D01*
X73953744Y-77645000D01*
X73520582Y-77731161D01*
X73029375Y-78059375D01*
X72830000Y-78357761D01*
X72630625Y-78059375D01*
X72139418Y-77731161D01*
X71706256Y-77645000D01*
X71413744Y-77645000D01*
X70980582Y-77731161D01*
X70489375Y-78059375D01*
X70290000Y-78357761D01*
X70090625Y-78059375D01*
X69599418Y-77731161D01*
X69166256Y-77645000D01*
X68873744Y-77645000D01*
X68440582Y-77731161D01*
X67949375Y-78059375D01*
X67621161Y-78550582D01*
X67505908Y-79130000D01*
X63785000Y-79130000D01*
X63785000Y-78585594D01*
X63421905Y-77709006D01*
X62750994Y-77038095D01*
X61874406Y-76675000D01*
X60925594Y-76675000D01*
X60049006Y-77038095D01*
X59378095Y-77709006D01*
X59015000Y-78585594D01*
X51127000Y-78585594D01*
X51127000Y-72500000D01*
X77545908Y-72500000D01*
X77661161Y-73079418D01*
X77989375Y-73570625D01*
X78480582Y-73898839D01*
X78913744Y-73985000D01*
X79206256Y-73985000D01*
X79639418Y-73898839D01*
X80130625Y-73570625D01*
X80142816Y-73552381D01*
X80151843Y-73597765D01*
X80292191Y-73807809D01*
X80502235Y-73948157D01*
X80750000Y-73997440D01*
X82450000Y-73997440D01*
X82697765Y-73948157D01*
X82907809Y-73807809D01*
X83048157Y-73597765D01*
X83097440Y-73350000D01*
X83097440Y-73285000D01*
X84721289Y-73285000D01*
X84813720Y-73377431D01*
X85194126Y-73535000D01*
X85605874Y-73535000D01*
X85986280Y-73377431D01*
X86277431Y-73086280D01*
X86435000Y-72705874D01*
X86435000Y-72294126D01*
X86277431Y-71913720D01*
X85986280Y-71622569D01*
X85605874Y-71465000D01*
X85194126Y-71465000D01*
X84813720Y-71622569D01*
X84721289Y-71715000D01*
X83097440Y-71715000D01*
X83097440Y-71650000D01*
X83048157Y-71402235D01*
X82907809Y-71192191D01*
X82697765Y-71051843D01*
X82450000Y-71002560D01*
X80750000Y-71002560D01*
X80502235Y-71051843D01*
X80292191Y-71192191D01*
X80151843Y-71402235D01*
X80142816Y-71447619D01*
X80130625Y-71429375D01*
X79639418Y-71101161D01*
X79206256Y-71015000D01*
X78913744Y-71015000D01*
X78480582Y-71101161D01*
X77989375Y-71429375D01*
X77661161Y-71920582D01*
X77545908Y-72500000D01*
X51127000Y-72500000D01*
X51127000Y-69094126D01*
X79065000Y-69094126D01*
X79065000Y-69505874D01*
X79222569Y-69886280D01*
X79513720Y-70177431D01*
X79894126Y-70335000D01*
X80305874Y-70335000D01*
X80686280Y-70177431D01*
X80977431Y-69886280D01*
X81135000Y-69505874D01*
X81135000Y-69094126D01*
X80977431Y-68713720D01*
X80686280Y-68422569D01*
X80305874Y-68265000D01*
X79894126Y-68265000D01*
X79513720Y-68422569D01*
X79222569Y-68713720D01*
X79065000Y-69094126D01*
X51127000Y-69094126D01*
X51127000Y-66394126D01*
X94565000Y-66394126D01*
X94565000Y-66805874D01*
X94722569Y-67186280D01*
X95013720Y-67477431D01*
X95394126Y-67635000D01*
X95805874Y-67635000D01*
X96186280Y-67477431D01*
X96477431Y-67186280D01*
X96635000Y-66805874D01*
X96635000Y-66394126D01*
X96477431Y-66013720D01*
X96186280Y-65722569D01*
X95805874Y-65565000D01*
X95394126Y-65565000D01*
X95013720Y-65722569D01*
X94722569Y-66013720D01*
X94565000Y-66394126D01*
X51127000Y-66394126D01*
X51127000Y-62594126D01*
X81265000Y-62594126D01*
X81265000Y-63005874D01*
X81422569Y-63386280D01*
X81713720Y-63677431D01*
X82094126Y-63835000D01*
X82505874Y-63835000D01*
X82886280Y-63677431D01*
X83177431Y-63386280D01*
X83335000Y-63005874D01*
X83335000Y-62594126D01*
X83177431Y-62213720D01*
X82886280Y-61922569D01*
X82505874Y-61765000D01*
X82094126Y-61765000D01*
X81713720Y-61922569D01*
X81422569Y-62213720D01*
X81265000Y-62594126D01*
X51127000Y-62594126D01*
X51127000Y-61137054D01*
X51725594Y-61385000D01*
X52674406Y-61385000D01*
X53550994Y-61021905D01*
X54221905Y-60350994D01*
X54585000Y-59474406D01*
X54585000Y-58525594D01*
X54221905Y-57649006D01*
X53550994Y-56978095D01*
X52674406Y-56615000D01*
X51725594Y-56615000D01*
X51127000Y-56862946D01*
X51127000Y-54384180D01*
X51215000Y-54384180D01*
X51215000Y-54815820D01*
X51380182Y-55214603D01*
X51685397Y-55519818D01*
X52084180Y-55685000D01*
X52515820Y-55685000D01*
X52914603Y-55519818D01*
X53219818Y-55214603D01*
X53385000Y-54815820D01*
X53385000Y-54794126D01*
X59465000Y-54794126D01*
X59465000Y-55205874D01*
X59622569Y-55586280D01*
X59913720Y-55877431D01*
X60294126Y-56035000D01*
X60424843Y-56035000D01*
X62690253Y-58300411D01*
X62734047Y-58365953D01*
X62799589Y-58409747D01*
X62799591Y-58409749D01*
X62972965Y-58525594D01*
X62993708Y-58539454D01*
X63222684Y-58585000D01*
X63222688Y-58585000D01*
X63300000Y-58600378D01*
X63377312Y-58585000D01*
X70922688Y-58585000D01*
X71000000Y-58600378D01*
X71077312Y-58585000D01*
X71077316Y-58585000D01*
X71306292Y-58539454D01*
X71565953Y-58365953D01*
X71609749Y-58300408D01*
X77616031Y-52294126D01*
X88265000Y-52294126D01*
X88265000Y-52705874D01*
X88422569Y-53086280D01*
X88713720Y-53377431D01*
X89094126Y-53535000D01*
X89505874Y-53535000D01*
X89886280Y-53377431D01*
X90177431Y-53086280D01*
X90335000Y-52705874D01*
X90335000Y-52294126D01*
X90177431Y-51913720D01*
X89886280Y-51622569D01*
X89505874Y-51465000D01*
X89094126Y-51465000D01*
X88713720Y-51622569D01*
X88422569Y-51913720D01*
X88265000Y-52294126D01*
X77616031Y-52294126D01*
X78826582Y-51083575D01*
X78833744Y-51085000D01*
X79126256Y-51085000D01*
X79559418Y-50998839D01*
X80050625Y-50670625D01*
X80250000Y-50372239D01*
X80449375Y-50670625D01*
X80940582Y-50998839D01*
X81373744Y-51085000D01*
X81666256Y-51085000D01*
X82099418Y-50998839D01*
X82590625Y-50670625D01*
X82790000Y-50372239D01*
X82989375Y-50670625D01*
X83480582Y-50998839D01*
X83913744Y-51085000D01*
X84206256Y-51085000D01*
X84639418Y-50998839D01*
X85130625Y-50670625D01*
X85343843Y-50351522D01*
X85404817Y-50481358D01*
X85833076Y-50871645D01*
X86243110Y-51041476D01*
X86473000Y-50920155D01*
X86473000Y-49727000D01*
X86453000Y-49727000D01*
X86453000Y-49473000D01*
X86473000Y-49473000D01*
X86473000Y-48279845D01*
X86727000Y-48279845D01*
X86727000Y-49473000D01*
X86747000Y-49473000D01*
X86747000Y-49727000D01*
X86727000Y-49727000D01*
X86727000Y-50920155D01*
X86956890Y-51041476D01*
X87366924Y-50871645D01*
X87795183Y-50481358D01*
X87856157Y-50351522D01*
X88069375Y-50670625D01*
X88560582Y-50998839D01*
X88993744Y-51085000D01*
X89286256Y-51085000D01*
X89719418Y-50998839D01*
X90210625Y-50670625D01*
X90410000Y-50372239D01*
X90609375Y-50670625D01*
X90915001Y-50874837D01*
X90915000Y-52221289D01*
X90822569Y-52313720D01*
X90665000Y-52694126D01*
X90665000Y-53105874D01*
X90822569Y-53486280D01*
X91113720Y-53777431D01*
X91494126Y-53935000D01*
X91905874Y-53935000D01*
X92286280Y-53777431D01*
X92577431Y-53486280D01*
X92735000Y-53105874D01*
X92735000Y-52694126D01*
X92577431Y-52313720D01*
X92485000Y-52221289D01*
X92485000Y-50848110D01*
X92750625Y-50670625D01*
X92950000Y-50372239D01*
X93149375Y-50670625D01*
X93515001Y-50914928D01*
X93515000Y-52121289D01*
X93422569Y-52213720D01*
X93265000Y-52594126D01*
X93265000Y-53005874D01*
X93422569Y-53386280D01*
X93713720Y-53677431D01*
X94094126Y-53835000D01*
X94505874Y-53835000D01*
X94886280Y-53677431D01*
X95177431Y-53386280D01*
X95335000Y-53005874D01*
X95335000Y-52594126D01*
X95177431Y-52213720D01*
X95085000Y-52121289D01*
X95085000Y-50808019D01*
X95290625Y-50670625D01*
X95490000Y-50372239D01*
X95689375Y-50670625D01*
X96180582Y-50998839D01*
X96613744Y-51085000D01*
X96906256Y-51085000D01*
X97339418Y-50998839D01*
X97830625Y-50670625D01*
X97842816Y-50652381D01*
X97851843Y-50697765D01*
X97992191Y-50907809D01*
X98202235Y-51048157D01*
X98450000Y-51097440D01*
X100150000Y-51097440D01*
X100397765Y-51048157D01*
X100607809Y-50907809D01*
X100748157Y-50697765D01*
X100797440Y-50450000D01*
X100797440Y-48750000D01*
X100748157Y-48502235D01*
X100607809Y-48292191D01*
X100397765Y-48151843D01*
X100150000Y-48102560D01*
X98450000Y-48102560D01*
X98202235Y-48151843D01*
X97992191Y-48292191D01*
X97851843Y-48502235D01*
X97842816Y-48547619D01*
X97830625Y-48529375D01*
X97339418Y-48201161D01*
X96906256Y-48115000D01*
X96613744Y-48115000D01*
X96180582Y-48201161D01*
X95689375Y-48529375D01*
X95490000Y-48827761D01*
X95290625Y-48529375D01*
X94799418Y-48201161D01*
X94366256Y-48115000D01*
X94073744Y-48115000D01*
X93640582Y-48201161D01*
X93149375Y-48529375D01*
X92950000Y-48827761D01*
X92750625Y-48529375D01*
X92259418Y-48201161D01*
X91826256Y-48115000D01*
X91533744Y-48115000D01*
X91100582Y-48201161D01*
X90609375Y-48529375D01*
X90410000Y-48827761D01*
X90210625Y-48529375D01*
X89719418Y-48201161D01*
X89286256Y-48115000D01*
X88993744Y-48115000D01*
X88560582Y-48201161D01*
X88069375Y-48529375D01*
X87856157Y-48848478D01*
X87795183Y-48718642D01*
X87366924Y-48328355D01*
X86956890Y-48158524D01*
X86727000Y-48279845D01*
X86473000Y-48279845D01*
X86243110Y-48158524D01*
X85833076Y-48328355D01*
X85404817Y-48718642D01*
X85343843Y-48848478D01*
X85130625Y-48529375D01*
X84639418Y-48201161D01*
X84206256Y-48115000D01*
X83913744Y-48115000D01*
X83480582Y-48201161D01*
X82989375Y-48529375D01*
X82790000Y-48827761D01*
X82590625Y-48529375D01*
X82099418Y-48201161D01*
X81666256Y-48115000D01*
X81373744Y-48115000D01*
X80940582Y-48201161D01*
X80449375Y-48529375D01*
X80250000Y-48827761D01*
X80050625Y-48529375D01*
X79559418Y-48201161D01*
X79126256Y-48115000D01*
X78833744Y-48115000D01*
X78400582Y-48201161D01*
X77909375Y-48529375D01*
X77710000Y-48827761D01*
X77510625Y-48529375D01*
X77019418Y-48201161D01*
X76586256Y-48115000D01*
X76293744Y-48115000D01*
X75860582Y-48201161D01*
X75560000Y-48402003D01*
X75560000Y-47903711D01*
X75677431Y-47786280D01*
X75835000Y-47405874D01*
X75835000Y-46994126D01*
X75677431Y-46613720D01*
X75386280Y-46322569D01*
X75005874Y-46165000D01*
X74594126Y-46165000D01*
X74213720Y-46322569D01*
X73922569Y-46613720D01*
X73765000Y-46994126D01*
X73765000Y-47405874D01*
X73922569Y-47786280D01*
X74040000Y-47903711D01*
X74040001Y-48115000D01*
X73753744Y-48115000D01*
X73320582Y-48201161D01*
X72829375Y-48529375D01*
X72630000Y-48827761D01*
X72430625Y-48529375D01*
X71939418Y-48201161D01*
X71506256Y-48115000D01*
X71213744Y-48115000D01*
X70780582Y-48201161D01*
X70289375Y-48529375D01*
X70090000Y-48827761D01*
X69890625Y-48529375D01*
X69399418Y-48201161D01*
X68966256Y-48115000D01*
X68673744Y-48115000D01*
X68240582Y-48201161D01*
X67749375Y-48529375D01*
X67550000Y-48827761D01*
X67350625Y-48529375D01*
X66859418Y-48201161D01*
X66426256Y-48115000D01*
X66133744Y-48115000D01*
X65700582Y-48201161D01*
X65209375Y-48529375D01*
X65010000Y-48827761D01*
X64810625Y-48529375D01*
X64319418Y-48201161D01*
X63886256Y-48115000D01*
X63593744Y-48115000D01*
X63160582Y-48201161D01*
X62669375Y-48529375D01*
X62470000Y-48827761D01*
X62270625Y-48529375D01*
X61779418Y-48201161D01*
X61346256Y-48115000D01*
X61053744Y-48115000D01*
X60620582Y-48201161D01*
X60129375Y-48529375D01*
X59801161Y-49020582D01*
X59685908Y-49600000D01*
X59801161Y-50179418D01*
X60129375Y-50670625D01*
X60620582Y-50998839D01*
X61053744Y-51085000D01*
X61346256Y-51085000D01*
X61779418Y-50998839D01*
X62270625Y-50670625D01*
X62470000Y-50372239D01*
X62669375Y-50670625D01*
X63160582Y-50998839D01*
X63593744Y-51085000D01*
X63886256Y-51085000D01*
X64319418Y-50998839D01*
X64810625Y-50670625D01*
X65010000Y-50372239D01*
X65209375Y-50670625D01*
X65700582Y-50998839D01*
X66133744Y-51085000D01*
X66426256Y-51085000D01*
X66859418Y-50998839D01*
X67350625Y-50670625D01*
X67550000Y-50372239D01*
X67749375Y-50670625D01*
X68240582Y-50998839D01*
X68673744Y-51085000D01*
X68966256Y-51085000D01*
X69115001Y-51055413D01*
X69115000Y-51621289D01*
X69022569Y-51713720D01*
X68865000Y-52094126D01*
X68865000Y-52505874D01*
X69022569Y-52886280D01*
X69313720Y-53177431D01*
X69694126Y-53335000D01*
X70105874Y-53335000D01*
X70486280Y-53177431D01*
X70503179Y-53160532D01*
X70365000Y-53494126D01*
X70365000Y-53905874D01*
X70522569Y-54286280D01*
X70813720Y-54577431D01*
X71194126Y-54735000D01*
X71605874Y-54735000D01*
X71986280Y-54577431D01*
X72277431Y-54286280D01*
X72435000Y-53905874D01*
X72435000Y-53494126D01*
X72277431Y-53113720D01*
X72185000Y-53021289D01*
X72185000Y-50834746D01*
X72430625Y-50670625D01*
X72630000Y-50372239D01*
X72829375Y-50670625D01*
X73320582Y-50998839D01*
X73753744Y-51085000D01*
X74046256Y-51085000D01*
X74479418Y-50998839D01*
X74970625Y-50670625D01*
X75170000Y-50372239D01*
X75369375Y-50670625D01*
X75860582Y-50998839D01*
X76293744Y-51085000D01*
X76586256Y-51085000D01*
X76609457Y-51080385D01*
X70674843Y-57015000D01*
X63625158Y-57015000D01*
X61535000Y-54924843D01*
X61535000Y-54794126D01*
X61377431Y-54413720D01*
X61086280Y-54122569D01*
X60705874Y-53965000D01*
X60294126Y-53965000D01*
X59913720Y-54122569D01*
X59622569Y-54413720D01*
X59465000Y-54794126D01*
X53385000Y-54794126D01*
X53385000Y-54384180D01*
X53219818Y-53985397D01*
X52914603Y-53680182D01*
X52515820Y-53515000D01*
X52084180Y-53515000D01*
X51685397Y-53680182D01*
X51380182Y-53985397D01*
X51215000Y-54384180D01*
X51127000Y-54384180D01*
X51127000Y-47584180D01*
X51215000Y-47584180D01*
X51215000Y-48015820D01*
X51380182Y-48414603D01*
X51685397Y-48719818D01*
X52084180Y-48885000D01*
X52515820Y-48885000D01*
X52914603Y-48719818D01*
X53219818Y-48414603D01*
X53385000Y-48015820D01*
X53385000Y-47584180D01*
X53219818Y-47185397D01*
X52914603Y-46880182D01*
X52515820Y-46715000D01*
X52084180Y-46715000D01*
X51685397Y-46880182D01*
X51380182Y-47185397D01*
X51215000Y-47584180D01*
X51127000Y-47584180D01*
X51127000Y-46127000D01*
X104873000Y-46127000D01*
X104873000Y-56697260D01*
X104873000Y-56697260D01*
G37*
X104873000Y-56697260D02*
X104674406Y-56615000D01*
X103725594Y-56615000D01*
X102849006Y-56978095D01*
X102178095Y-57649006D01*
X101815000Y-58525594D01*
X101815000Y-59474406D01*
X102178095Y-60350994D01*
X102849006Y-61021905D01*
X103725594Y-61385000D01*
X104674406Y-61385000D01*
X104873000Y-61302740D01*
X104873000Y-100697260D01*
X104674406Y-100615000D01*
X103725594Y-100615000D01*
X102849006Y-100978095D01*
X102178095Y-101649006D01*
X101815000Y-102525594D01*
X101815000Y-103474406D01*
X102178095Y-104350994D01*
X102849006Y-105021905D01*
X103725594Y-105385000D01*
X104674406Y-105385000D01*
X104873000Y-105302740D01*
X104873000Y-107873000D01*
X90497054Y-107873000D01*
X90745000Y-107274406D01*
X90745000Y-106325594D01*
X90381905Y-105449006D01*
X89710994Y-104778095D01*
X88834406Y-104415000D01*
X87885594Y-104415000D01*
X87009006Y-104778095D01*
X86338095Y-105449006D01*
X85975000Y-106325594D01*
X85975000Y-107274406D01*
X86222946Y-107873000D01*
X70177054Y-107873000D01*
X70425000Y-107274406D01*
X70425000Y-106325594D01*
X70061905Y-105449006D01*
X69390994Y-104778095D01*
X68514406Y-104415000D01*
X67565594Y-104415000D01*
X66689006Y-104778095D01*
X66018095Y-105449006D01*
X65655000Y-106325594D01*
X65655000Y-107274406D01*
X65902946Y-107873000D01*
X51127000Y-107873000D01*
X51127000Y-106150000D01*
X56795908Y-106150000D01*
X56911161Y-106729418D01*
X57239375Y-107220625D01*
X57730582Y-107548839D01*
X58163744Y-107635000D01*
X58456256Y-107635000D01*
X58889418Y-107548839D01*
X59380625Y-107220625D01*
X59392816Y-107202381D01*
X59401843Y-107247765D01*
X59542191Y-107457809D01*
X59752235Y-107598157D01*
X60000000Y-107647440D01*
X61700000Y-107647440D01*
X61947765Y-107598157D01*
X62157809Y-107457809D01*
X62298157Y-107247765D01*
X62347440Y-107000000D01*
X62347440Y-105300000D01*
X62298157Y-105052235D01*
X62157809Y-104842191D01*
X61947765Y-104701843D01*
X61700000Y-104652560D01*
X60000000Y-104652560D01*
X59752235Y-104701843D01*
X59542191Y-104842191D01*
X59401843Y-105052235D01*
X59392816Y-105097619D01*
X59380625Y-105079375D01*
X58889418Y-104751161D01*
X58456256Y-104665000D01*
X58163744Y-104665000D01*
X57730582Y-104751161D01*
X57239375Y-105079375D01*
X56911161Y-105570582D01*
X56795908Y-106150000D01*
X51127000Y-106150000D01*
X51127000Y-105137054D01*
X51725594Y-105385000D01*
X52674406Y-105385000D01*
X53550994Y-105021905D01*
X54221905Y-104350994D01*
X54585000Y-103474406D01*
X54585000Y-102794126D01*
X71665000Y-102794126D01*
X71665000Y-103205874D01*
X71822569Y-103586280D01*
X72113720Y-103877431D01*
X72494126Y-104035000D01*
X72905874Y-104035000D01*
X73286280Y-103877431D01*
X73577431Y-103586280D01*
X73735000Y-103205874D01*
X73735000Y-102794126D01*
X73577431Y-102413720D01*
X73286280Y-102122569D01*
X72905874Y-101965000D01*
X72494126Y-101965000D01*
X72113720Y-102122569D01*
X71822569Y-102413720D01*
X71665000Y-102794126D01*
X54585000Y-102794126D01*
X54585000Y-102525594D01*
X54221905Y-101649006D01*
X53550994Y-100978095D01*
X52674406Y-100615000D01*
X51725594Y-100615000D01*
X51127000Y-100862946D01*
X51127000Y-99156890D01*
X101758524Y-99156890D01*
X101928355Y-99566924D01*
X102318642Y-99995183D01*
X102843108Y-100241486D01*
X103073000Y-100120819D01*
X103073000Y-98927000D01*
X103327000Y-98927000D01*
X103327000Y-100120819D01*
X103556892Y-100241486D01*
X104081358Y-99995183D01*
X104471645Y-99566924D01*
X104641476Y-99156890D01*
X104520155Y-98927000D01*
X103327000Y-98927000D01*
X103073000Y-98927000D01*
X101879845Y-98927000D01*
X101758524Y-99156890D01*
X51127000Y-99156890D01*
X51127000Y-96444126D01*
X92365000Y-96444126D01*
X92365000Y-96855874D01*
X92522569Y-97236280D01*
X92813720Y-97527431D01*
X93194126Y-97685000D01*
X93605874Y-97685000D01*
X93986280Y-97527431D01*
X94078711Y-97435000D01*
X98071289Y-97435000D01*
X98113720Y-97477431D01*
X98494126Y-97635000D01*
X98905874Y-97635000D01*
X99286280Y-97477431D01*
X99577431Y-97186280D01*
X99735000Y-96805874D01*
X99735000Y-96394126D01*
X99577431Y-96013720D01*
X99286280Y-95722569D01*
X98905874Y-95565000D01*
X98494126Y-95565000D01*
X98113720Y-95722569D01*
X97971289Y-95865000D01*
X94078711Y-95865000D01*
X93986280Y-95772569D01*
X93605874Y-95615000D01*
X93194126Y-95615000D01*
X92813720Y-95772569D01*
X92522569Y-96063720D01*
X92365000Y-96444126D01*
X51127000Y-96444126D01*
X51127000Y-95410000D01*
X101702560Y-95410000D01*
X101702560Y-97110000D01*
X101751843Y-97357765D01*
X101892191Y-97567809D01*
X102102235Y-97708157D01*
X102205708Y-97728739D01*
X101928355Y-98033076D01*
X101758524Y-98443110D01*
X101879845Y-98673000D01*
X103073000Y-98673000D01*
X103073000Y-98653000D01*
X103327000Y-98653000D01*
X103327000Y-98673000D01*
X104520155Y-98673000D01*
X104641476Y-98443110D01*
X104471645Y-98033076D01*
X104194292Y-97728739D01*
X104297765Y-97708157D01*
X104507809Y-97567809D01*
X104648157Y-97357765D01*
X104697440Y-97110000D01*
X104697440Y-95410000D01*
X104648157Y-95162235D01*
X104507809Y-94952191D01*
X104297765Y-94811843D01*
X104050000Y-94762560D01*
X102350000Y-94762560D01*
X102102235Y-94811843D01*
X101892191Y-94952191D01*
X101751843Y-95162235D01*
X101702560Y-95410000D01*
X51127000Y-95410000D01*
X51127000Y-90124506D01*
X60815000Y-90124506D01*
X60815000Y-90675494D01*
X61025853Y-91184540D01*
X61415460Y-91574147D01*
X61924506Y-91785000D01*
X62475494Y-91785000D01*
X62984540Y-91574147D01*
X63374147Y-91184540D01*
X63585000Y-90675494D01*
X63585000Y-90124506D01*
X63554139Y-90050000D01*
X67202560Y-90050000D01*
X67202560Y-91850000D01*
X67251843Y-92097765D01*
X67392191Y-92307809D01*
X67602235Y-92448157D01*
X67850000Y-92497440D01*
X69650000Y-92497440D01*
X69897765Y-92448157D01*
X70107809Y-92307809D01*
X70248157Y-92097765D01*
X70297440Y-91850000D01*
X70297440Y-90064600D01*
X76576560Y-90064600D01*
X76576560Y-91864600D01*
X76625843Y-92112365D01*
X76766191Y-92322409D01*
X76976235Y-92462757D01*
X77224000Y-92512040D01*
X79024000Y-92512040D01*
X79271765Y-92462757D01*
X79481809Y-92322409D01*
X79622157Y-92112365D01*
X79671440Y-91864600D01*
X79671440Y-90064600D01*
X79668536Y-90050000D01*
X86052560Y-90050000D01*
X86052560Y-91850000D01*
X86101843Y-92097765D01*
X86242191Y-92307809D01*
X86452235Y-92448157D01*
X86700000Y-92497440D01*
X88500000Y-92497440D01*
X88747765Y-92448157D01*
X88957809Y-92307809D01*
X89098157Y-92097765D01*
X89147440Y-91850000D01*
X89147440Y-90050000D01*
X89098157Y-89802235D01*
X88957809Y-89592191D01*
X88747765Y-89451843D01*
X88732092Y-89448725D01*
X88901310Y-89279507D01*
X89135000Y-88715330D01*
X89135000Y-88104670D01*
X88901310Y-87540493D01*
X88469507Y-87108690D01*
X88385000Y-87073686D01*
X88385000Y-86978711D01*
X88477431Y-86886280D01*
X88635000Y-86505874D01*
X88635000Y-86094126D01*
X88477431Y-85713720D01*
X88186280Y-85422569D01*
X87805874Y-85265000D01*
X87394126Y-85265000D01*
X87013720Y-85422569D01*
X86722569Y-85713720D01*
X86565000Y-86094126D01*
X86565000Y-86505874D01*
X86722569Y-86886280D01*
X86815000Y-86978711D01*
X86815000Y-87073686D01*
X86730493Y-87108690D01*
X86298690Y-87540493D01*
X86065000Y-88104670D01*
X86065000Y-88715330D01*
X86298690Y-89279507D01*
X86467908Y-89448725D01*
X86452235Y-89451843D01*
X86242191Y-89592191D01*
X86101843Y-89802235D01*
X86052560Y-90050000D01*
X79668536Y-90050000D01*
X79622157Y-89816835D01*
X79481809Y-89606791D01*
X79271765Y-89466443D01*
X79256092Y-89463325D01*
X79425310Y-89294107D01*
X79659000Y-88729930D01*
X79659000Y-88119270D01*
X79610768Y-88002827D01*
X79665954Y-87965952D01*
X79839455Y-87706291D01*
X79885001Y-87477315D01*
X79885001Y-87477311D01*
X79888579Y-87459321D01*
X80086280Y-87377431D01*
X80377431Y-87086280D01*
X80535000Y-86705874D01*
X80535000Y-86294126D01*
X80377431Y-85913720D01*
X80086280Y-85622569D01*
X79705874Y-85465000D01*
X79294126Y-85465000D01*
X78913720Y-85622569D01*
X78622569Y-85913720D01*
X78465000Y-86294126D01*
X78465000Y-86437383D01*
X78360547Y-86593708D01*
X78315001Y-86822684D01*
X78315001Y-86822687D01*
X78301691Y-86889600D01*
X77818670Y-86889600D01*
X77254493Y-87123290D01*
X76822690Y-87555093D01*
X76589000Y-88119270D01*
X76589000Y-88729930D01*
X76822690Y-89294107D01*
X76991908Y-89463325D01*
X76976235Y-89466443D01*
X76766191Y-89606791D01*
X76625843Y-89816835D01*
X76576560Y-90064600D01*
X70297440Y-90064600D01*
X70297440Y-90050000D01*
X70248157Y-89802235D01*
X70107809Y-89592191D01*
X69897765Y-89451843D01*
X69882092Y-89448725D01*
X70051310Y-89279507D01*
X70285000Y-88715330D01*
X70285000Y-88125157D01*
X71075158Y-87335000D01*
X71205874Y-87335000D01*
X71586280Y-87177431D01*
X71877431Y-86886280D01*
X72035000Y-86505874D01*
X72035000Y-86094126D01*
X71877431Y-85713720D01*
X71586280Y-85422569D01*
X71205874Y-85265000D01*
X70794126Y-85265000D01*
X70413720Y-85422569D01*
X70122569Y-85713720D01*
X69965000Y-86094126D01*
X69965000Y-86224842D01*
X69238833Y-86951010D01*
X69055330Y-86875000D01*
X68444670Y-86875000D01*
X67880493Y-87108690D01*
X67448690Y-87540493D01*
X67215000Y-88104670D01*
X67215000Y-88715330D01*
X67448690Y-89279507D01*
X67617908Y-89448725D01*
X67602235Y-89451843D01*
X67392191Y-89592191D01*
X67251843Y-89802235D01*
X67202560Y-90050000D01*
X63554139Y-90050000D01*
X63374147Y-89615460D01*
X62984540Y-89225853D01*
X62475494Y-89015000D01*
X61924506Y-89015000D01*
X61415460Y-89225853D01*
X61025853Y-89615460D01*
X60815000Y-90124506D01*
X51127000Y-90124506D01*
X51127000Y-85244506D01*
X60815000Y-85244506D01*
X60815000Y-85795494D01*
X61025853Y-86304540D01*
X61415460Y-86694147D01*
X61924506Y-86905000D01*
X62475494Y-86905000D01*
X62984540Y-86694147D01*
X63374147Y-86304540D01*
X63585000Y-85795494D01*
X63585000Y-85244506D01*
X63374147Y-84735460D01*
X62984540Y-84345853D01*
X62475494Y-84135000D01*
X61924506Y-84135000D01*
X61415460Y-84345853D01*
X61025853Y-84735460D01*
X60815000Y-85244506D01*
X51127000Y-85244506D01*
X51127000Y-78585594D01*
X59015000Y-78585594D01*
X59015000Y-79534406D01*
X59378095Y-80410994D01*
X60049006Y-81081905D01*
X60925594Y-81445000D01*
X61874406Y-81445000D01*
X62750994Y-81081905D01*
X63421905Y-80410994D01*
X63785000Y-79534406D01*
X63785000Y-79130000D01*
X67505908Y-79130000D01*
X67621161Y-79709418D01*
X67949375Y-80200625D01*
X68440582Y-80528839D01*
X68873744Y-80615000D01*
X69166256Y-80615000D01*
X69599418Y-80528839D01*
X70090625Y-80200625D01*
X70290000Y-79902239D01*
X70489375Y-80200625D01*
X70980582Y-80528839D01*
X71413744Y-80615000D01*
X71706256Y-80615000D01*
X72139418Y-80528839D01*
X72630625Y-80200625D01*
X72830000Y-79902239D01*
X73029375Y-80200625D01*
X73520582Y-80528839D01*
X73953744Y-80615000D01*
X74246256Y-80615000D01*
X74679418Y-80528839D01*
X75170625Y-80200625D01*
X75370000Y-79902239D01*
X75569375Y-80200625D01*
X76060582Y-80528839D01*
X76493744Y-80615000D01*
X76786256Y-80615000D01*
X77219418Y-80528839D01*
X77710625Y-80200625D01*
X77910000Y-79902239D01*
X78109375Y-80200625D01*
X78600582Y-80528839D01*
X79033744Y-80615000D01*
X79326256Y-80615000D01*
X79759418Y-80528839D01*
X80250625Y-80200625D01*
X80450000Y-79902239D01*
X80649375Y-80200625D01*
X81140582Y-80528839D01*
X81573744Y-80615000D01*
X81866256Y-80615000D01*
X82299418Y-80528839D01*
X82790625Y-80200625D01*
X83003843Y-79881522D01*
X83064817Y-80011358D01*
X83493076Y-80401645D01*
X83903110Y-80571476D01*
X84133000Y-80450155D01*
X84133000Y-79257000D01*
X84113000Y-79257000D01*
X84113000Y-79003000D01*
X84133000Y-79003000D01*
X84133000Y-77809845D01*
X84387000Y-77809845D01*
X84387000Y-79003000D01*
X84407000Y-79003000D01*
X84407000Y-79257000D01*
X84387000Y-79257000D01*
X84387000Y-80450155D01*
X84616890Y-80571476D01*
X85026924Y-80401645D01*
X85331261Y-80124292D01*
X85351843Y-80227765D01*
X85492191Y-80437809D01*
X85702235Y-80578157D01*
X85950000Y-80627440D01*
X87650000Y-80627440D01*
X87897765Y-80578157D01*
X88107809Y-80437809D01*
X88248157Y-80227765D01*
X88297440Y-79980000D01*
X88297440Y-78280000D01*
X88248157Y-78032235D01*
X88107809Y-77822191D01*
X87897765Y-77681843D01*
X87650000Y-77632560D01*
X85950000Y-77632560D01*
X85702235Y-77681843D01*
X85492191Y-77822191D01*
X85351843Y-78032235D01*
X85331261Y-78135708D01*
X85026924Y-77858355D01*
X84616890Y-77688524D01*
X84387000Y-77809845D01*
X84133000Y-77809845D01*
X83903110Y-77688524D01*
X83493076Y-77858355D01*
X83064817Y-78248642D01*
X83003843Y-78378478D01*
X82790625Y-78059375D01*
X82299418Y-77731161D01*
X81866256Y-77645000D01*
X81573744Y-77645000D01*
X81140582Y-77731161D01*
X80649375Y-78059375D01*
X80450000Y-78357761D01*
X80250625Y-78059375D01*
X79759418Y-77731161D01*
X79326256Y-77645000D01*
X79033744Y-77645000D01*
X78600582Y-77731161D01*
X78109375Y-78059375D01*
X77910000Y-78357761D01*
X77710625Y-78059375D01*
X77219418Y-77731161D01*
X76786256Y-77645000D01*
X76493744Y-77645000D01*
X76060582Y-77731161D01*
X75569375Y-78059375D01*
X75370000Y-78357761D01*
X75170625Y-78059375D01*
X74679418Y-77731161D01*
X74246256Y-77645000D01*
X73953744Y-77645000D01*
X73520582Y-77731161D01*
X73029375Y-78059375D01*
X72830000Y-78357761D01*
X72630625Y-78059375D01*
X72139418Y-77731161D01*
X71706256Y-77645000D01*
X71413744Y-77645000D01*
X70980582Y-77731161D01*
X70489375Y-78059375D01*
X70290000Y-78357761D01*
X70090625Y-78059375D01*
X69599418Y-77731161D01*
X69166256Y-77645000D01*
X68873744Y-77645000D01*
X68440582Y-77731161D01*
X67949375Y-78059375D01*
X67621161Y-78550582D01*
X67505908Y-79130000D01*
X63785000Y-79130000D01*
X63785000Y-78585594D01*
X63421905Y-77709006D01*
X62750994Y-77038095D01*
X61874406Y-76675000D01*
X60925594Y-76675000D01*
X60049006Y-77038095D01*
X59378095Y-77709006D01*
X59015000Y-78585594D01*
X51127000Y-78585594D01*
X51127000Y-72500000D01*
X77545908Y-72500000D01*
X77661161Y-73079418D01*
X77989375Y-73570625D01*
X78480582Y-73898839D01*
X78913744Y-73985000D01*
X79206256Y-73985000D01*
X79639418Y-73898839D01*
X80130625Y-73570625D01*
X80142816Y-73552381D01*
X80151843Y-73597765D01*
X80292191Y-73807809D01*
X80502235Y-73948157D01*
X80750000Y-73997440D01*
X82450000Y-73997440D01*
X82697765Y-73948157D01*
X82907809Y-73807809D01*
X83048157Y-73597765D01*
X83097440Y-73350000D01*
X83097440Y-73285000D01*
X84721289Y-73285000D01*
X84813720Y-73377431D01*
X85194126Y-73535000D01*
X85605874Y-73535000D01*
X85986280Y-73377431D01*
X86277431Y-73086280D01*
X86435000Y-72705874D01*
X86435000Y-72294126D01*
X86277431Y-71913720D01*
X85986280Y-71622569D01*
X85605874Y-71465000D01*
X85194126Y-71465000D01*
X84813720Y-71622569D01*
X84721289Y-71715000D01*
X83097440Y-71715000D01*
X83097440Y-71650000D01*
X83048157Y-71402235D01*
X82907809Y-71192191D01*
X82697765Y-71051843D01*
X82450000Y-71002560D01*
X80750000Y-71002560D01*
X80502235Y-71051843D01*
X80292191Y-71192191D01*
X80151843Y-71402235D01*
X80142816Y-71447619D01*
X80130625Y-71429375D01*
X79639418Y-71101161D01*
X79206256Y-71015000D01*
X78913744Y-71015000D01*
X78480582Y-71101161D01*
X77989375Y-71429375D01*
X77661161Y-71920582D01*
X77545908Y-72500000D01*
X51127000Y-72500000D01*
X51127000Y-69094126D01*
X79065000Y-69094126D01*
X79065000Y-69505874D01*
X79222569Y-69886280D01*
X79513720Y-70177431D01*
X79894126Y-70335000D01*
X80305874Y-70335000D01*
X80686280Y-70177431D01*
X80977431Y-69886280D01*
X81135000Y-69505874D01*
X81135000Y-69094126D01*
X80977431Y-68713720D01*
X80686280Y-68422569D01*
X80305874Y-68265000D01*
X79894126Y-68265000D01*
X79513720Y-68422569D01*
X79222569Y-68713720D01*
X79065000Y-69094126D01*
X51127000Y-69094126D01*
X51127000Y-66394126D01*
X94565000Y-66394126D01*
X94565000Y-66805874D01*
X94722569Y-67186280D01*
X95013720Y-67477431D01*
X95394126Y-67635000D01*
X95805874Y-67635000D01*
X96186280Y-67477431D01*
X96477431Y-67186280D01*
X96635000Y-66805874D01*
X96635000Y-66394126D01*
X96477431Y-66013720D01*
X96186280Y-65722569D01*
X95805874Y-65565000D01*
X95394126Y-65565000D01*
X95013720Y-65722569D01*
X94722569Y-66013720D01*
X94565000Y-66394126D01*
X51127000Y-66394126D01*
X51127000Y-62594126D01*
X81265000Y-62594126D01*
X81265000Y-63005874D01*
X81422569Y-63386280D01*
X81713720Y-63677431D01*
X82094126Y-63835000D01*
X82505874Y-63835000D01*
X82886280Y-63677431D01*
X83177431Y-63386280D01*
X83335000Y-63005874D01*
X83335000Y-62594126D01*
X83177431Y-62213720D01*
X82886280Y-61922569D01*
X82505874Y-61765000D01*
X82094126Y-61765000D01*
X81713720Y-61922569D01*
X81422569Y-62213720D01*
X81265000Y-62594126D01*
X51127000Y-62594126D01*
X51127000Y-61137054D01*
X51725594Y-61385000D01*
X52674406Y-61385000D01*
X53550994Y-61021905D01*
X54221905Y-60350994D01*
X54585000Y-59474406D01*
X54585000Y-58525594D01*
X54221905Y-57649006D01*
X53550994Y-56978095D01*
X52674406Y-56615000D01*
X51725594Y-56615000D01*
X51127000Y-56862946D01*
X51127000Y-54384180D01*
X51215000Y-54384180D01*
X51215000Y-54815820D01*
X51380182Y-55214603D01*
X51685397Y-55519818D01*
X52084180Y-55685000D01*
X52515820Y-55685000D01*
X52914603Y-55519818D01*
X53219818Y-55214603D01*
X53385000Y-54815820D01*
X53385000Y-54794126D01*
X59465000Y-54794126D01*
X59465000Y-55205874D01*
X59622569Y-55586280D01*
X59913720Y-55877431D01*
X60294126Y-56035000D01*
X60424843Y-56035000D01*
X62690253Y-58300411D01*
X62734047Y-58365953D01*
X62799589Y-58409747D01*
X62799591Y-58409749D01*
X62972965Y-58525594D01*
X62993708Y-58539454D01*
X63222684Y-58585000D01*
X63222688Y-58585000D01*
X63300000Y-58600378D01*
X63377312Y-58585000D01*
X70922688Y-58585000D01*
X71000000Y-58600378D01*
X71077312Y-58585000D01*
X71077316Y-58585000D01*
X71306292Y-58539454D01*
X71565953Y-58365953D01*
X71609749Y-58300408D01*
X77616031Y-52294126D01*
X88265000Y-52294126D01*
X88265000Y-52705874D01*
X88422569Y-53086280D01*
X88713720Y-53377431D01*
X89094126Y-53535000D01*
X89505874Y-53535000D01*
X89886280Y-53377431D01*
X90177431Y-53086280D01*
X90335000Y-52705874D01*
X90335000Y-52294126D01*
X90177431Y-51913720D01*
X89886280Y-51622569D01*
X89505874Y-51465000D01*
X89094126Y-51465000D01*
X88713720Y-51622569D01*
X88422569Y-51913720D01*
X88265000Y-52294126D01*
X77616031Y-52294126D01*
X78826582Y-51083575D01*
X78833744Y-51085000D01*
X79126256Y-51085000D01*
X79559418Y-50998839D01*
X80050625Y-50670625D01*
X80250000Y-50372239D01*
X80449375Y-50670625D01*
X80940582Y-50998839D01*
X81373744Y-51085000D01*
X81666256Y-51085000D01*
X82099418Y-50998839D01*
X82590625Y-50670625D01*
X82790000Y-50372239D01*
X82989375Y-50670625D01*
X83480582Y-50998839D01*
X83913744Y-51085000D01*
X84206256Y-51085000D01*
X84639418Y-50998839D01*
X85130625Y-50670625D01*
X85343843Y-50351522D01*
X85404817Y-50481358D01*
X85833076Y-50871645D01*
X86243110Y-51041476D01*
X86473000Y-50920155D01*
X86473000Y-49727000D01*
X86453000Y-49727000D01*
X86453000Y-49473000D01*
X86473000Y-49473000D01*
X86473000Y-48279845D01*
X86727000Y-48279845D01*
X86727000Y-49473000D01*
X86747000Y-49473000D01*
X86747000Y-49727000D01*
X86727000Y-49727000D01*
X86727000Y-50920155D01*
X86956890Y-51041476D01*
X87366924Y-50871645D01*
X87795183Y-50481358D01*
X87856157Y-50351522D01*
X88069375Y-50670625D01*
X88560582Y-50998839D01*
X88993744Y-51085000D01*
X89286256Y-51085000D01*
X89719418Y-50998839D01*
X90210625Y-50670625D01*
X90410000Y-50372239D01*
X90609375Y-50670625D01*
X90915001Y-50874837D01*
X90915000Y-52221289D01*
X90822569Y-52313720D01*
X90665000Y-52694126D01*
X90665000Y-53105874D01*
X90822569Y-53486280D01*
X91113720Y-53777431D01*
X91494126Y-53935000D01*
X91905874Y-53935000D01*
X92286280Y-53777431D01*
X92577431Y-53486280D01*
X92735000Y-53105874D01*
X92735000Y-52694126D01*
X92577431Y-52313720D01*
X92485000Y-52221289D01*
X92485000Y-50848110D01*
X92750625Y-50670625D01*
X92950000Y-50372239D01*
X93149375Y-50670625D01*
X93515001Y-50914928D01*
X93515000Y-52121289D01*
X93422569Y-52213720D01*
X93265000Y-52594126D01*
X93265000Y-53005874D01*
X93422569Y-53386280D01*
X93713720Y-53677431D01*
X94094126Y-53835000D01*
X94505874Y-53835000D01*
X94886280Y-53677431D01*
X95177431Y-53386280D01*
X95335000Y-53005874D01*
X95335000Y-52594126D01*
X95177431Y-52213720D01*
X95085000Y-52121289D01*
X95085000Y-50808019D01*
X95290625Y-50670625D01*
X95490000Y-50372239D01*
X95689375Y-50670625D01*
X96180582Y-50998839D01*
X96613744Y-51085000D01*
X96906256Y-51085000D01*
X97339418Y-50998839D01*
X97830625Y-50670625D01*
X97842816Y-50652381D01*
X97851843Y-50697765D01*
X97992191Y-50907809D01*
X98202235Y-51048157D01*
X98450000Y-51097440D01*
X100150000Y-51097440D01*
X100397765Y-51048157D01*
X100607809Y-50907809D01*
X100748157Y-50697765D01*
X100797440Y-50450000D01*
X100797440Y-48750000D01*
X100748157Y-48502235D01*
X100607809Y-48292191D01*
X100397765Y-48151843D01*
X100150000Y-48102560D01*
X98450000Y-48102560D01*
X98202235Y-48151843D01*
X97992191Y-48292191D01*
X97851843Y-48502235D01*
X97842816Y-48547619D01*
X97830625Y-48529375D01*
X97339418Y-48201161D01*
X96906256Y-48115000D01*
X96613744Y-48115000D01*
X96180582Y-48201161D01*
X95689375Y-48529375D01*
X95490000Y-48827761D01*
X95290625Y-48529375D01*
X94799418Y-48201161D01*
X94366256Y-48115000D01*
X94073744Y-48115000D01*
X93640582Y-48201161D01*
X93149375Y-48529375D01*
X92950000Y-48827761D01*
X92750625Y-48529375D01*
X92259418Y-48201161D01*
X91826256Y-48115000D01*
X91533744Y-48115000D01*
X91100582Y-48201161D01*
X90609375Y-48529375D01*
X90410000Y-48827761D01*
X90210625Y-48529375D01*
X89719418Y-48201161D01*
X89286256Y-48115000D01*
X88993744Y-48115000D01*
X88560582Y-48201161D01*
X88069375Y-48529375D01*
X87856157Y-48848478D01*
X87795183Y-48718642D01*
X87366924Y-48328355D01*
X86956890Y-48158524D01*
X86727000Y-48279845D01*
X86473000Y-48279845D01*
X86243110Y-48158524D01*
X85833076Y-48328355D01*
X85404817Y-48718642D01*
X85343843Y-48848478D01*
X85130625Y-48529375D01*
X84639418Y-48201161D01*
X84206256Y-48115000D01*
X83913744Y-48115000D01*
X83480582Y-48201161D01*
X82989375Y-48529375D01*
X82790000Y-48827761D01*
X82590625Y-48529375D01*
X82099418Y-48201161D01*
X81666256Y-48115000D01*
X81373744Y-48115000D01*
X80940582Y-48201161D01*
X80449375Y-48529375D01*
X80250000Y-48827761D01*
X80050625Y-48529375D01*
X79559418Y-48201161D01*
X79126256Y-48115000D01*
X78833744Y-48115000D01*
X78400582Y-48201161D01*
X77909375Y-48529375D01*
X77710000Y-48827761D01*
X77510625Y-48529375D01*
X77019418Y-48201161D01*
X76586256Y-48115000D01*
X76293744Y-48115000D01*
X75860582Y-48201161D01*
X75560000Y-48402003D01*
X75560000Y-47903711D01*
X75677431Y-47786280D01*
X75835000Y-47405874D01*
X75835000Y-46994126D01*
X75677431Y-46613720D01*
X75386280Y-46322569D01*
X75005874Y-46165000D01*
X74594126Y-46165000D01*
X74213720Y-46322569D01*
X73922569Y-46613720D01*
X73765000Y-46994126D01*
X73765000Y-47405874D01*
X73922569Y-47786280D01*
X74040000Y-47903711D01*
X74040001Y-48115000D01*
X73753744Y-48115000D01*
X73320582Y-48201161D01*
X72829375Y-48529375D01*
X72630000Y-48827761D01*
X72430625Y-48529375D01*
X71939418Y-48201161D01*
X71506256Y-48115000D01*
X71213744Y-48115000D01*
X70780582Y-48201161D01*
X70289375Y-48529375D01*
X70090000Y-48827761D01*
X69890625Y-48529375D01*
X69399418Y-48201161D01*
X68966256Y-48115000D01*
X68673744Y-48115000D01*
X68240582Y-48201161D01*
X67749375Y-48529375D01*
X67550000Y-48827761D01*
X67350625Y-48529375D01*
X66859418Y-48201161D01*
X66426256Y-48115000D01*
X66133744Y-48115000D01*
X65700582Y-48201161D01*
X65209375Y-48529375D01*
X65010000Y-48827761D01*
X64810625Y-48529375D01*
X64319418Y-48201161D01*
X63886256Y-48115000D01*
X63593744Y-48115000D01*
X63160582Y-48201161D01*
X62669375Y-48529375D01*
X62470000Y-48827761D01*
X62270625Y-48529375D01*
X61779418Y-48201161D01*
X61346256Y-48115000D01*
X61053744Y-48115000D01*
X60620582Y-48201161D01*
X60129375Y-48529375D01*
X59801161Y-49020582D01*
X59685908Y-49600000D01*
X59801161Y-50179418D01*
X60129375Y-50670625D01*
X60620582Y-50998839D01*
X61053744Y-51085000D01*
X61346256Y-51085000D01*
X61779418Y-50998839D01*
X62270625Y-50670625D01*
X62470000Y-50372239D01*
X62669375Y-50670625D01*
X63160582Y-50998839D01*
X63593744Y-51085000D01*
X63886256Y-51085000D01*
X64319418Y-50998839D01*
X64810625Y-50670625D01*
X65010000Y-50372239D01*
X65209375Y-50670625D01*
X65700582Y-50998839D01*
X66133744Y-51085000D01*
X66426256Y-51085000D01*
X66859418Y-50998839D01*
X67350625Y-50670625D01*
X67550000Y-50372239D01*
X67749375Y-50670625D01*
X68240582Y-50998839D01*
X68673744Y-51085000D01*
X68966256Y-51085000D01*
X69115001Y-51055413D01*
X69115000Y-51621289D01*
X69022569Y-51713720D01*
X68865000Y-52094126D01*
X68865000Y-52505874D01*
X69022569Y-52886280D01*
X69313720Y-53177431D01*
X69694126Y-53335000D01*
X70105874Y-53335000D01*
X70486280Y-53177431D01*
X70503179Y-53160532D01*
X70365000Y-53494126D01*
X70365000Y-53905874D01*
X70522569Y-54286280D01*
X70813720Y-54577431D01*
X71194126Y-54735000D01*
X71605874Y-54735000D01*
X71986280Y-54577431D01*
X72277431Y-54286280D01*
X72435000Y-53905874D01*
X72435000Y-53494126D01*
X72277431Y-53113720D01*
X72185000Y-53021289D01*
X72185000Y-50834746D01*
X72430625Y-50670625D01*
X72630000Y-50372239D01*
X72829375Y-50670625D01*
X73320582Y-50998839D01*
X73753744Y-51085000D01*
X74046256Y-51085000D01*
X74479418Y-50998839D01*
X74970625Y-50670625D01*
X75170000Y-50372239D01*
X75369375Y-50670625D01*
X75860582Y-50998839D01*
X76293744Y-51085000D01*
X76586256Y-51085000D01*
X76609457Y-51080385D01*
X70674843Y-57015000D01*
X63625158Y-57015000D01*
X61535000Y-54924843D01*
X61535000Y-54794126D01*
X61377431Y-54413720D01*
X61086280Y-54122569D01*
X60705874Y-53965000D01*
X60294126Y-53965000D01*
X59913720Y-54122569D01*
X59622569Y-54413720D01*
X59465000Y-54794126D01*
X53385000Y-54794126D01*
X53385000Y-54384180D01*
X53219818Y-53985397D01*
X52914603Y-53680182D01*
X52515820Y-53515000D01*
X52084180Y-53515000D01*
X51685397Y-53680182D01*
X51380182Y-53985397D01*
X51215000Y-54384180D01*
X51127000Y-54384180D01*
X51127000Y-47584180D01*
X51215000Y-47584180D01*
X51215000Y-48015820D01*
X51380182Y-48414603D01*
X51685397Y-48719818D01*
X52084180Y-48885000D01*
X52515820Y-48885000D01*
X52914603Y-48719818D01*
X53219818Y-48414603D01*
X53385000Y-48015820D01*
X53385000Y-47584180D01*
X53219818Y-47185397D01*
X52914603Y-46880182D01*
X52515820Y-46715000D01*
X52084180Y-46715000D01*
X51685397Y-46880182D01*
X51380182Y-47185397D01*
X51215000Y-47584180D01*
X51127000Y-47584180D01*
X51127000Y-46127000D01*
X104873000Y-46127000D01*
X104873000Y-56697260D01*
G04 #@! TD*
M02*
