G04 #@! TF.GenerationSoftware,KiCad,Pcbnew,(5.0.2)-1*
G04 #@! TF.CreationDate,2019-02-11T10:40:24+00:00*
G04 #@! TF.ProjectId,AircraftDataLogger,41697263-7261-4667-9444-6174614c6f67,rev?*
G04 #@! TF.SameCoordinates,Original*
G04 #@! TF.FileFunction,Soldermask,Bot*
G04 #@! TF.FilePolarity,Negative*
%FSLAX46Y46*%
G04 Gerber Fmt 4.6, Leading zero omitted, Abs format (unit mm)*
G04 Created by KiCad (PCBNEW (5.0.2)-1) date 11/02/2019 10:40:24*
%MOMM*%
%LPD*%
G01*
G04 APERTURE LIST*
%ADD10C,0.100000*%
G04 APERTURE END LIST*
D10*
G36*
X88885331Y-105068211D02*
X89213092Y-105203974D01*
X89508073Y-105401074D01*
X89758926Y-105651927D01*
X89956026Y-105946908D01*
X90091789Y-106274669D01*
X90161000Y-106622616D01*
X90161000Y-106977384D01*
X90091789Y-107325331D01*
X89956026Y-107653092D01*
X89758926Y-107948073D01*
X89508073Y-108198926D01*
X89213092Y-108396026D01*
X88885331Y-108531789D01*
X88537384Y-108601000D01*
X88182616Y-108601000D01*
X87834669Y-108531789D01*
X87506908Y-108396026D01*
X87211927Y-108198926D01*
X86961074Y-107948073D01*
X86763974Y-107653092D01*
X86628211Y-107325331D01*
X86559000Y-106977384D01*
X86559000Y-106622616D01*
X86628211Y-106274669D01*
X86763974Y-105946908D01*
X86961074Y-105651927D01*
X87211927Y-105401074D01*
X87506908Y-105203974D01*
X87834669Y-105068211D01*
X88182616Y-104999000D01*
X88537384Y-104999000D01*
X88885331Y-105068211D01*
X88885331Y-105068211D01*
G37*
G36*
X68565331Y-105068211D02*
X68893092Y-105203974D01*
X69188073Y-105401074D01*
X69438926Y-105651927D01*
X69636026Y-105946908D01*
X69771789Y-106274669D01*
X69841000Y-106622616D01*
X69841000Y-106977384D01*
X69771789Y-107325331D01*
X69636026Y-107653092D01*
X69438926Y-107948073D01*
X69188073Y-108198926D01*
X68893092Y-108396026D01*
X68565331Y-108531789D01*
X68217384Y-108601000D01*
X67862616Y-108601000D01*
X67514669Y-108531789D01*
X67186908Y-108396026D01*
X66891927Y-108198926D01*
X66641074Y-107948073D01*
X66443974Y-107653092D01*
X66308211Y-107325331D01*
X66239000Y-106977384D01*
X66239000Y-106622616D01*
X66308211Y-106274669D01*
X66443974Y-105946908D01*
X66641074Y-105651927D01*
X66891927Y-105401074D01*
X67186908Y-105203974D01*
X67514669Y-105068211D01*
X67862616Y-104999000D01*
X68217384Y-104999000D01*
X68565331Y-105068211D01*
X68565331Y-105068211D01*
G37*
G36*
X61751000Y-107051000D02*
X59949000Y-107051000D01*
X59949000Y-105249000D01*
X61751000Y-105249000D01*
X61751000Y-107051000D01*
X61751000Y-107051000D01*
G37*
G36*
X58420442Y-105255518D02*
X58486627Y-105262037D01*
X58599853Y-105296384D01*
X58656467Y-105313557D01*
X58795087Y-105387652D01*
X58812991Y-105397222D01*
X58848729Y-105426552D01*
X58950186Y-105509814D01*
X59033448Y-105611271D01*
X59062778Y-105647009D01*
X59062779Y-105647011D01*
X59146443Y-105803533D01*
X59146443Y-105803534D01*
X59197963Y-105973373D01*
X59215359Y-106150000D01*
X59197963Y-106326627D01*
X59163616Y-106439853D01*
X59146443Y-106496467D01*
X59079014Y-106622616D01*
X59062778Y-106652991D01*
X59033448Y-106688729D01*
X58950186Y-106790186D01*
X58848729Y-106873448D01*
X58812991Y-106902778D01*
X58812989Y-106902779D01*
X58656467Y-106986443D01*
X58599853Y-107003616D01*
X58486627Y-107037963D01*
X58420443Y-107044481D01*
X58354260Y-107051000D01*
X58265740Y-107051000D01*
X58199557Y-107044481D01*
X58133373Y-107037963D01*
X58020147Y-107003616D01*
X57963533Y-106986443D01*
X57807011Y-106902779D01*
X57807009Y-106902778D01*
X57771271Y-106873448D01*
X57669814Y-106790186D01*
X57586552Y-106688729D01*
X57557222Y-106652991D01*
X57540986Y-106622616D01*
X57473557Y-106496467D01*
X57456384Y-106439853D01*
X57422037Y-106326627D01*
X57404641Y-106150000D01*
X57422037Y-105973373D01*
X57473557Y-105803534D01*
X57473557Y-105803533D01*
X57557221Y-105647011D01*
X57557222Y-105647009D01*
X57586552Y-105611271D01*
X57669814Y-105509814D01*
X57771271Y-105426552D01*
X57807009Y-105397222D01*
X57824913Y-105387652D01*
X57963533Y-105313557D01*
X58020147Y-105296384D01*
X58133373Y-105262037D01*
X58199558Y-105255518D01*
X58265740Y-105249000D01*
X58354260Y-105249000D01*
X58420442Y-105255518D01*
X58420442Y-105255518D01*
G37*
G36*
X104725331Y-101268211D02*
X105053092Y-101403974D01*
X105348073Y-101601074D01*
X105598926Y-101851927D01*
X105796026Y-102146908D01*
X105931789Y-102474669D01*
X106001000Y-102822616D01*
X106001000Y-103177384D01*
X105931789Y-103525331D01*
X105796026Y-103853092D01*
X105598926Y-104148073D01*
X105348073Y-104398926D01*
X105053092Y-104596026D01*
X104725331Y-104731789D01*
X104377384Y-104801000D01*
X104022616Y-104801000D01*
X103674669Y-104731789D01*
X103346908Y-104596026D01*
X103051927Y-104398926D01*
X102801074Y-104148073D01*
X102603974Y-103853092D01*
X102468211Y-103525331D01*
X102399000Y-103177384D01*
X102399000Y-102822616D01*
X102468211Y-102474669D01*
X102603974Y-102146908D01*
X102801074Y-101851927D01*
X103051927Y-101601074D01*
X103346908Y-101403974D01*
X103674669Y-101268211D01*
X104022616Y-101199000D01*
X104377384Y-101199000D01*
X104725331Y-101268211D01*
X104725331Y-101268211D01*
G37*
G36*
X52725331Y-101268211D02*
X53053092Y-101403974D01*
X53348073Y-101601074D01*
X53598926Y-101851927D01*
X53796026Y-102146908D01*
X53931789Y-102474669D01*
X54001000Y-102822616D01*
X54001000Y-103177384D01*
X53931789Y-103525331D01*
X53796026Y-103853092D01*
X53598926Y-104148073D01*
X53348073Y-104398926D01*
X53053092Y-104596026D01*
X52725331Y-104731789D01*
X52377384Y-104801000D01*
X52022616Y-104801000D01*
X51674669Y-104731789D01*
X51346908Y-104596026D01*
X51051927Y-104398926D01*
X50801074Y-104148073D01*
X50603974Y-103853092D01*
X50468211Y-103525331D01*
X50399000Y-103177384D01*
X50399000Y-102822616D01*
X50468211Y-102474669D01*
X50603974Y-102146908D01*
X50801074Y-101851927D01*
X51051927Y-101601074D01*
X51346908Y-101403974D01*
X51674669Y-101268211D01*
X52022616Y-101199000D01*
X52377384Y-101199000D01*
X52725331Y-101268211D01*
X52725331Y-101268211D01*
G37*
G36*
X103310443Y-97905519D02*
X103376627Y-97912037D01*
X103489853Y-97946384D01*
X103546467Y-97963557D01*
X103685087Y-98037652D01*
X103702991Y-98047222D01*
X103738729Y-98076552D01*
X103840186Y-98159814D01*
X103923448Y-98261271D01*
X103952778Y-98297009D01*
X103952779Y-98297011D01*
X104036443Y-98453533D01*
X104036443Y-98453534D01*
X104087963Y-98623373D01*
X104105359Y-98800000D01*
X104087963Y-98976627D01*
X104053616Y-99089853D01*
X104036443Y-99146467D01*
X103962348Y-99285087D01*
X103952778Y-99302991D01*
X103923448Y-99338729D01*
X103840186Y-99440186D01*
X103738729Y-99523448D01*
X103702991Y-99552778D01*
X103702989Y-99552779D01*
X103546467Y-99636443D01*
X103489853Y-99653616D01*
X103376627Y-99687963D01*
X103310443Y-99694481D01*
X103244260Y-99701000D01*
X103155740Y-99701000D01*
X103089558Y-99694482D01*
X103023373Y-99687963D01*
X102910147Y-99653616D01*
X102853533Y-99636443D01*
X102697011Y-99552779D01*
X102697009Y-99552778D01*
X102661271Y-99523448D01*
X102559814Y-99440186D01*
X102476552Y-99338729D01*
X102447222Y-99302991D01*
X102437652Y-99285087D01*
X102363557Y-99146467D01*
X102346384Y-99089853D01*
X102312037Y-98976627D01*
X102294641Y-98800000D01*
X102312037Y-98623373D01*
X102363557Y-98453534D01*
X102363557Y-98453533D01*
X102447221Y-98297011D01*
X102447222Y-98297009D01*
X102476552Y-98261271D01*
X102559814Y-98159814D01*
X102661271Y-98076552D01*
X102697009Y-98047222D01*
X102714913Y-98037652D01*
X102853533Y-97963557D01*
X102910147Y-97946384D01*
X103023373Y-97912037D01*
X103089557Y-97905519D01*
X103155740Y-97899000D01*
X103244260Y-97899000D01*
X103310443Y-97905519D01*
X103310443Y-97905519D01*
G37*
G36*
X104101000Y-97161000D02*
X102299000Y-97161000D01*
X102299000Y-95359000D01*
X104101000Y-95359000D01*
X104101000Y-97161000D01*
X104101000Y-97161000D01*
G37*
G36*
X79075000Y-91915600D02*
X77173000Y-91915600D01*
X77173000Y-90013600D01*
X79075000Y-90013600D01*
X79075000Y-91915600D01*
X79075000Y-91915600D01*
G37*
G36*
X69701000Y-91901000D02*
X67799000Y-91901000D01*
X67799000Y-89999000D01*
X69701000Y-89999000D01*
X69701000Y-91901000D01*
X69701000Y-91901000D01*
G37*
G36*
X88551000Y-91901000D02*
X86649000Y-91901000D01*
X86649000Y-89999000D01*
X88551000Y-89999000D01*
X88551000Y-91901000D01*
X88551000Y-91901000D01*
G37*
G36*
X62433643Y-89629781D02*
X62579415Y-89690162D01*
X62710611Y-89777824D01*
X62822176Y-89889389D01*
X62909838Y-90020585D01*
X62970219Y-90166357D01*
X63001000Y-90321107D01*
X63001000Y-90478893D01*
X62970219Y-90633643D01*
X62909838Y-90779415D01*
X62822176Y-90910611D01*
X62710611Y-91022176D01*
X62579415Y-91109838D01*
X62433643Y-91170219D01*
X62278893Y-91201000D01*
X62121107Y-91201000D01*
X61966357Y-91170219D01*
X61820585Y-91109838D01*
X61689389Y-91022176D01*
X61577824Y-90910611D01*
X61490162Y-90779415D01*
X61429781Y-90633643D01*
X61399000Y-90478893D01*
X61399000Y-90321107D01*
X61429781Y-90166357D01*
X61490162Y-90020585D01*
X61577824Y-89889389D01*
X61689389Y-89777824D01*
X61820585Y-89690162D01*
X61966357Y-89629781D01*
X62121107Y-89599000D01*
X62278893Y-89599000D01*
X62433643Y-89629781D01*
X62433643Y-89629781D01*
G37*
G36*
X78401396Y-87510146D02*
X78574466Y-87581834D01*
X78730230Y-87685912D01*
X78862688Y-87818370D01*
X78966766Y-87974134D01*
X79038454Y-88147204D01*
X79075000Y-88330933D01*
X79075000Y-88518267D01*
X79038454Y-88701996D01*
X78966766Y-88875066D01*
X78862688Y-89030830D01*
X78730230Y-89163288D01*
X78574466Y-89267366D01*
X78401396Y-89339054D01*
X78217667Y-89375600D01*
X78030333Y-89375600D01*
X77846604Y-89339054D01*
X77673534Y-89267366D01*
X77517770Y-89163288D01*
X77385312Y-89030830D01*
X77281234Y-88875066D01*
X77209546Y-88701996D01*
X77173000Y-88518267D01*
X77173000Y-88330933D01*
X77209546Y-88147204D01*
X77281234Y-87974134D01*
X77385312Y-87818370D01*
X77517770Y-87685912D01*
X77673534Y-87581834D01*
X77846604Y-87510146D01*
X78030333Y-87473600D01*
X78217667Y-87473600D01*
X78401396Y-87510146D01*
X78401396Y-87510146D01*
G37*
G36*
X87877396Y-87495546D02*
X88050466Y-87567234D01*
X88206230Y-87671312D01*
X88338688Y-87803770D01*
X88442766Y-87959534D01*
X88514454Y-88132604D01*
X88551000Y-88316333D01*
X88551000Y-88503667D01*
X88514454Y-88687396D01*
X88442766Y-88860466D01*
X88338688Y-89016230D01*
X88206230Y-89148688D01*
X88050466Y-89252766D01*
X87877396Y-89324454D01*
X87693667Y-89361000D01*
X87506333Y-89361000D01*
X87322604Y-89324454D01*
X87149534Y-89252766D01*
X86993770Y-89148688D01*
X86861312Y-89016230D01*
X86757234Y-88860466D01*
X86685546Y-88687396D01*
X86649000Y-88503667D01*
X86649000Y-88316333D01*
X86685546Y-88132604D01*
X86757234Y-87959534D01*
X86861312Y-87803770D01*
X86993770Y-87671312D01*
X87149534Y-87567234D01*
X87322604Y-87495546D01*
X87506333Y-87459000D01*
X87693667Y-87459000D01*
X87877396Y-87495546D01*
X87877396Y-87495546D01*
G37*
G36*
X69027396Y-87495546D02*
X69200466Y-87567234D01*
X69356230Y-87671312D01*
X69488688Y-87803770D01*
X69592766Y-87959534D01*
X69664454Y-88132604D01*
X69701000Y-88316333D01*
X69701000Y-88503667D01*
X69664454Y-88687396D01*
X69592766Y-88860466D01*
X69488688Y-89016230D01*
X69356230Y-89148688D01*
X69200466Y-89252766D01*
X69027396Y-89324454D01*
X68843667Y-89361000D01*
X68656333Y-89361000D01*
X68472604Y-89324454D01*
X68299534Y-89252766D01*
X68143770Y-89148688D01*
X68011312Y-89016230D01*
X67907234Y-88860466D01*
X67835546Y-88687396D01*
X67799000Y-88503667D01*
X67799000Y-88316333D01*
X67835546Y-88132604D01*
X67907234Y-87959534D01*
X68011312Y-87803770D01*
X68143770Y-87671312D01*
X68299534Y-87567234D01*
X68472604Y-87495546D01*
X68656333Y-87459000D01*
X68843667Y-87459000D01*
X69027396Y-87495546D01*
X69027396Y-87495546D01*
G37*
G36*
X62433643Y-84749781D02*
X62579415Y-84810162D01*
X62710611Y-84897824D01*
X62822176Y-85009389D01*
X62909838Y-85140585D01*
X62970219Y-85286357D01*
X63001000Y-85441107D01*
X63001000Y-85598893D01*
X62970219Y-85753643D01*
X62909838Y-85899415D01*
X62822176Y-86030611D01*
X62710611Y-86142176D01*
X62579415Y-86229838D01*
X62433643Y-86290219D01*
X62278893Y-86321000D01*
X62121107Y-86321000D01*
X61966357Y-86290219D01*
X61820585Y-86229838D01*
X61689389Y-86142176D01*
X61577824Y-86030611D01*
X61490162Y-85899415D01*
X61429781Y-85753643D01*
X61399000Y-85598893D01*
X61399000Y-85441107D01*
X61429781Y-85286357D01*
X61490162Y-85140585D01*
X61577824Y-85009389D01*
X61689389Y-84897824D01*
X61820585Y-84810162D01*
X61966357Y-84749781D01*
X62121107Y-84719000D01*
X62278893Y-84719000D01*
X62433643Y-84749781D01*
X62433643Y-84749781D01*
G37*
G36*
X61925331Y-77328211D02*
X62253092Y-77463974D01*
X62548073Y-77661074D01*
X62798926Y-77911927D01*
X62996026Y-78206908D01*
X63131789Y-78534669D01*
X63201000Y-78882616D01*
X63201000Y-79237384D01*
X63131789Y-79585331D01*
X62996026Y-79913092D01*
X62798926Y-80208073D01*
X62548073Y-80458926D01*
X62253092Y-80656026D01*
X61925331Y-80791789D01*
X61577384Y-80861000D01*
X61222616Y-80861000D01*
X60874669Y-80791789D01*
X60546908Y-80656026D01*
X60251927Y-80458926D01*
X60001074Y-80208073D01*
X59803974Y-79913092D01*
X59668211Y-79585331D01*
X59599000Y-79237384D01*
X59599000Y-78882616D01*
X59668211Y-78534669D01*
X59803974Y-78206908D01*
X60001074Y-77911927D01*
X60251927Y-77661074D01*
X60546908Y-77463974D01*
X60874669Y-77328211D01*
X61222616Y-77259000D01*
X61577384Y-77259000D01*
X61925331Y-77328211D01*
X61925331Y-77328211D01*
G37*
G36*
X87701000Y-80031000D02*
X85899000Y-80031000D01*
X85899000Y-78229000D01*
X87701000Y-78229000D01*
X87701000Y-80031000D01*
X87701000Y-80031000D01*
G37*
G36*
X84370443Y-78235519D02*
X84436627Y-78242037D01*
X84549853Y-78276384D01*
X84606467Y-78293557D01*
X84745087Y-78367652D01*
X84762991Y-78377222D01*
X84798729Y-78406552D01*
X84900186Y-78489814D01*
X84983448Y-78591271D01*
X85012778Y-78627009D01*
X85012779Y-78627011D01*
X85096443Y-78783533D01*
X85096443Y-78783534D01*
X85147963Y-78953373D01*
X85165359Y-79130000D01*
X85147963Y-79306627D01*
X85113616Y-79419853D01*
X85096443Y-79476467D01*
X85022348Y-79615087D01*
X85012778Y-79632991D01*
X84983448Y-79668729D01*
X84900186Y-79770186D01*
X84798729Y-79853448D01*
X84762991Y-79882778D01*
X84762989Y-79882779D01*
X84606467Y-79966443D01*
X84549853Y-79983616D01*
X84436627Y-80017963D01*
X84370443Y-80024481D01*
X84304260Y-80031000D01*
X84215740Y-80031000D01*
X84149557Y-80024481D01*
X84083373Y-80017963D01*
X83970147Y-79983616D01*
X83913533Y-79966443D01*
X83757011Y-79882779D01*
X83757009Y-79882778D01*
X83721271Y-79853448D01*
X83619814Y-79770186D01*
X83536552Y-79668729D01*
X83507222Y-79632991D01*
X83497652Y-79615087D01*
X83423557Y-79476467D01*
X83406384Y-79419853D01*
X83372037Y-79306627D01*
X83354641Y-79130000D01*
X83372037Y-78953373D01*
X83423557Y-78783534D01*
X83423557Y-78783533D01*
X83507221Y-78627011D01*
X83507222Y-78627009D01*
X83536552Y-78591271D01*
X83619814Y-78489814D01*
X83721271Y-78406552D01*
X83757009Y-78377222D01*
X83774913Y-78367652D01*
X83913533Y-78293557D01*
X83970147Y-78276384D01*
X84083373Y-78242037D01*
X84149557Y-78235519D01*
X84215740Y-78229000D01*
X84304260Y-78229000D01*
X84370443Y-78235519D01*
X84370443Y-78235519D01*
G37*
G36*
X76750443Y-78235519D02*
X76816627Y-78242037D01*
X76929853Y-78276384D01*
X76986467Y-78293557D01*
X77125087Y-78367652D01*
X77142991Y-78377222D01*
X77178729Y-78406552D01*
X77280186Y-78489814D01*
X77363448Y-78591271D01*
X77392778Y-78627009D01*
X77392779Y-78627011D01*
X77476443Y-78783533D01*
X77476443Y-78783534D01*
X77527963Y-78953373D01*
X77545359Y-79130000D01*
X77527963Y-79306627D01*
X77493616Y-79419853D01*
X77476443Y-79476467D01*
X77402348Y-79615087D01*
X77392778Y-79632991D01*
X77363448Y-79668729D01*
X77280186Y-79770186D01*
X77178729Y-79853448D01*
X77142991Y-79882778D01*
X77142989Y-79882779D01*
X76986467Y-79966443D01*
X76929853Y-79983616D01*
X76816627Y-80017963D01*
X76750443Y-80024481D01*
X76684260Y-80031000D01*
X76595740Y-80031000D01*
X76529557Y-80024481D01*
X76463373Y-80017963D01*
X76350147Y-79983616D01*
X76293533Y-79966443D01*
X76137011Y-79882779D01*
X76137009Y-79882778D01*
X76101271Y-79853448D01*
X75999814Y-79770186D01*
X75916552Y-79668729D01*
X75887222Y-79632991D01*
X75877652Y-79615087D01*
X75803557Y-79476467D01*
X75786384Y-79419853D01*
X75752037Y-79306627D01*
X75734641Y-79130000D01*
X75752037Y-78953373D01*
X75803557Y-78783534D01*
X75803557Y-78783533D01*
X75887221Y-78627011D01*
X75887222Y-78627009D01*
X75916552Y-78591271D01*
X75999814Y-78489814D01*
X76101271Y-78406552D01*
X76137009Y-78377222D01*
X76154913Y-78367652D01*
X76293533Y-78293557D01*
X76350147Y-78276384D01*
X76463373Y-78242037D01*
X76529557Y-78235519D01*
X76595740Y-78229000D01*
X76684260Y-78229000D01*
X76750443Y-78235519D01*
X76750443Y-78235519D01*
G37*
G36*
X74210443Y-78235519D02*
X74276627Y-78242037D01*
X74389853Y-78276384D01*
X74446467Y-78293557D01*
X74585087Y-78367652D01*
X74602991Y-78377222D01*
X74638729Y-78406552D01*
X74740186Y-78489814D01*
X74823448Y-78591271D01*
X74852778Y-78627009D01*
X74852779Y-78627011D01*
X74936443Y-78783533D01*
X74936443Y-78783534D01*
X74987963Y-78953373D01*
X75005359Y-79130000D01*
X74987963Y-79306627D01*
X74953616Y-79419853D01*
X74936443Y-79476467D01*
X74862348Y-79615087D01*
X74852778Y-79632991D01*
X74823448Y-79668729D01*
X74740186Y-79770186D01*
X74638729Y-79853448D01*
X74602991Y-79882778D01*
X74602989Y-79882779D01*
X74446467Y-79966443D01*
X74389853Y-79983616D01*
X74276627Y-80017963D01*
X74210443Y-80024481D01*
X74144260Y-80031000D01*
X74055740Y-80031000D01*
X73989557Y-80024481D01*
X73923373Y-80017963D01*
X73810147Y-79983616D01*
X73753533Y-79966443D01*
X73597011Y-79882779D01*
X73597009Y-79882778D01*
X73561271Y-79853448D01*
X73459814Y-79770186D01*
X73376552Y-79668729D01*
X73347222Y-79632991D01*
X73337652Y-79615087D01*
X73263557Y-79476467D01*
X73246384Y-79419853D01*
X73212037Y-79306627D01*
X73194641Y-79130000D01*
X73212037Y-78953373D01*
X73263557Y-78783534D01*
X73263557Y-78783533D01*
X73347221Y-78627011D01*
X73347222Y-78627009D01*
X73376552Y-78591271D01*
X73459814Y-78489814D01*
X73561271Y-78406552D01*
X73597009Y-78377222D01*
X73614913Y-78367652D01*
X73753533Y-78293557D01*
X73810147Y-78276384D01*
X73923373Y-78242037D01*
X73989557Y-78235519D01*
X74055740Y-78229000D01*
X74144260Y-78229000D01*
X74210443Y-78235519D01*
X74210443Y-78235519D01*
G37*
G36*
X69130443Y-78235519D02*
X69196627Y-78242037D01*
X69309853Y-78276384D01*
X69366467Y-78293557D01*
X69505087Y-78367652D01*
X69522991Y-78377222D01*
X69558729Y-78406552D01*
X69660186Y-78489814D01*
X69743448Y-78591271D01*
X69772778Y-78627009D01*
X69772779Y-78627011D01*
X69856443Y-78783533D01*
X69856443Y-78783534D01*
X69907963Y-78953373D01*
X69925359Y-79130000D01*
X69907963Y-79306627D01*
X69873616Y-79419853D01*
X69856443Y-79476467D01*
X69782348Y-79615087D01*
X69772778Y-79632991D01*
X69743448Y-79668729D01*
X69660186Y-79770186D01*
X69558729Y-79853448D01*
X69522991Y-79882778D01*
X69522989Y-79882779D01*
X69366467Y-79966443D01*
X69309853Y-79983616D01*
X69196627Y-80017963D01*
X69130443Y-80024481D01*
X69064260Y-80031000D01*
X68975740Y-80031000D01*
X68909557Y-80024481D01*
X68843373Y-80017963D01*
X68730147Y-79983616D01*
X68673533Y-79966443D01*
X68517011Y-79882779D01*
X68517009Y-79882778D01*
X68481271Y-79853448D01*
X68379814Y-79770186D01*
X68296552Y-79668729D01*
X68267222Y-79632991D01*
X68257652Y-79615087D01*
X68183557Y-79476467D01*
X68166384Y-79419853D01*
X68132037Y-79306627D01*
X68114641Y-79130000D01*
X68132037Y-78953373D01*
X68183557Y-78783534D01*
X68183557Y-78783533D01*
X68267221Y-78627011D01*
X68267222Y-78627009D01*
X68296552Y-78591271D01*
X68379814Y-78489814D01*
X68481271Y-78406552D01*
X68517009Y-78377222D01*
X68534913Y-78367652D01*
X68673533Y-78293557D01*
X68730147Y-78276384D01*
X68843373Y-78242037D01*
X68909557Y-78235519D01*
X68975740Y-78229000D01*
X69064260Y-78229000D01*
X69130443Y-78235519D01*
X69130443Y-78235519D01*
G37*
G36*
X81830443Y-78235519D02*
X81896627Y-78242037D01*
X82009853Y-78276384D01*
X82066467Y-78293557D01*
X82205087Y-78367652D01*
X82222991Y-78377222D01*
X82258729Y-78406552D01*
X82360186Y-78489814D01*
X82443448Y-78591271D01*
X82472778Y-78627009D01*
X82472779Y-78627011D01*
X82556443Y-78783533D01*
X82556443Y-78783534D01*
X82607963Y-78953373D01*
X82625359Y-79130000D01*
X82607963Y-79306627D01*
X82573616Y-79419853D01*
X82556443Y-79476467D01*
X82482348Y-79615087D01*
X82472778Y-79632991D01*
X82443448Y-79668729D01*
X82360186Y-79770186D01*
X82258729Y-79853448D01*
X82222991Y-79882778D01*
X82222989Y-79882779D01*
X82066467Y-79966443D01*
X82009853Y-79983616D01*
X81896627Y-80017963D01*
X81830443Y-80024481D01*
X81764260Y-80031000D01*
X81675740Y-80031000D01*
X81609557Y-80024481D01*
X81543373Y-80017963D01*
X81430147Y-79983616D01*
X81373533Y-79966443D01*
X81217011Y-79882779D01*
X81217009Y-79882778D01*
X81181271Y-79853448D01*
X81079814Y-79770186D01*
X80996552Y-79668729D01*
X80967222Y-79632991D01*
X80957652Y-79615087D01*
X80883557Y-79476467D01*
X80866384Y-79419853D01*
X80832037Y-79306627D01*
X80814641Y-79130000D01*
X80832037Y-78953373D01*
X80883557Y-78783534D01*
X80883557Y-78783533D01*
X80967221Y-78627011D01*
X80967222Y-78627009D01*
X80996552Y-78591271D01*
X81079814Y-78489814D01*
X81181271Y-78406552D01*
X81217009Y-78377222D01*
X81234913Y-78367652D01*
X81373533Y-78293557D01*
X81430147Y-78276384D01*
X81543373Y-78242037D01*
X81609557Y-78235519D01*
X81675740Y-78229000D01*
X81764260Y-78229000D01*
X81830443Y-78235519D01*
X81830443Y-78235519D01*
G37*
G36*
X79290443Y-78235519D02*
X79356627Y-78242037D01*
X79469853Y-78276384D01*
X79526467Y-78293557D01*
X79665087Y-78367652D01*
X79682991Y-78377222D01*
X79718729Y-78406552D01*
X79820186Y-78489814D01*
X79903448Y-78591271D01*
X79932778Y-78627009D01*
X79932779Y-78627011D01*
X80016443Y-78783533D01*
X80016443Y-78783534D01*
X80067963Y-78953373D01*
X80085359Y-79130000D01*
X80067963Y-79306627D01*
X80033616Y-79419853D01*
X80016443Y-79476467D01*
X79942348Y-79615087D01*
X79932778Y-79632991D01*
X79903448Y-79668729D01*
X79820186Y-79770186D01*
X79718729Y-79853448D01*
X79682991Y-79882778D01*
X79682989Y-79882779D01*
X79526467Y-79966443D01*
X79469853Y-79983616D01*
X79356627Y-80017963D01*
X79290443Y-80024481D01*
X79224260Y-80031000D01*
X79135740Y-80031000D01*
X79069557Y-80024481D01*
X79003373Y-80017963D01*
X78890147Y-79983616D01*
X78833533Y-79966443D01*
X78677011Y-79882779D01*
X78677009Y-79882778D01*
X78641271Y-79853448D01*
X78539814Y-79770186D01*
X78456552Y-79668729D01*
X78427222Y-79632991D01*
X78417652Y-79615087D01*
X78343557Y-79476467D01*
X78326384Y-79419853D01*
X78292037Y-79306627D01*
X78274641Y-79130000D01*
X78292037Y-78953373D01*
X78343557Y-78783534D01*
X78343557Y-78783533D01*
X78427221Y-78627011D01*
X78427222Y-78627009D01*
X78456552Y-78591271D01*
X78539814Y-78489814D01*
X78641271Y-78406552D01*
X78677009Y-78377222D01*
X78694913Y-78367652D01*
X78833533Y-78293557D01*
X78890147Y-78276384D01*
X79003373Y-78242037D01*
X79069557Y-78235519D01*
X79135740Y-78229000D01*
X79224260Y-78229000D01*
X79290443Y-78235519D01*
X79290443Y-78235519D01*
G37*
G36*
X71670443Y-78235519D02*
X71736627Y-78242037D01*
X71849853Y-78276384D01*
X71906467Y-78293557D01*
X72045087Y-78367652D01*
X72062991Y-78377222D01*
X72098729Y-78406552D01*
X72200186Y-78489814D01*
X72283448Y-78591271D01*
X72312778Y-78627009D01*
X72312779Y-78627011D01*
X72396443Y-78783533D01*
X72396443Y-78783534D01*
X72447963Y-78953373D01*
X72465359Y-79130000D01*
X72447963Y-79306627D01*
X72413616Y-79419853D01*
X72396443Y-79476467D01*
X72322348Y-79615087D01*
X72312778Y-79632991D01*
X72283448Y-79668729D01*
X72200186Y-79770186D01*
X72098729Y-79853448D01*
X72062991Y-79882778D01*
X72062989Y-79882779D01*
X71906467Y-79966443D01*
X71849853Y-79983616D01*
X71736627Y-80017963D01*
X71670443Y-80024481D01*
X71604260Y-80031000D01*
X71515740Y-80031000D01*
X71449557Y-80024481D01*
X71383373Y-80017963D01*
X71270147Y-79983616D01*
X71213533Y-79966443D01*
X71057011Y-79882779D01*
X71057009Y-79882778D01*
X71021271Y-79853448D01*
X70919814Y-79770186D01*
X70836552Y-79668729D01*
X70807222Y-79632991D01*
X70797652Y-79615087D01*
X70723557Y-79476467D01*
X70706384Y-79419853D01*
X70672037Y-79306627D01*
X70654641Y-79130000D01*
X70672037Y-78953373D01*
X70723557Y-78783534D01*
X70723557Y-78783533D01*
X70807221Y-78627011D01*
X70807222Y-78627009D01*
X70836552Y-78591271D01*
X70919814Y-78489814D01*
X71021271Y-78406552D01*
X71057009Y-78377222D01*
X71074913Y-78367652D01*
X71213533Y-78293557D01*
X71270147Y-78276384D01*
X71383373Y-78242037D01*
X71449557Y-78235519D01*
X71515740Y-78229000D01*
X71604260Y-78229000D01*
X71670443Y-78235519D01*
X71670443Y-78235519D01*
G37*
G36*
X79170443Y-71605519D02*
X79236627Y-71612037D01*
X79349853Y-71646384D01*
X79406467Y-71663557D01*
X79545087Y-71737652D01*
X79562991Y-71747222D01*
X79598729Y-71776552D01*
X79700186Y-71859814D01*
X79783448Y-71961271D01*
X79812778Y-71997009D01*
X79812779Y-71997011D01*
X79896443Y-72153533D01*
X79896443Y-72153534D01*
X79947963Y-72323373D01*
X79965359Y-72500000D01*
X79947963Y-72676627D01*
X79913616Y-72789853D01*
X79896443Y-72846467D01*
X79822348Y-72985087D01*
X79812778Y-73002991D01*
X79783448Y-73038729D01*
X79700186Y-73140186D01*
X79598729Y-73223448D01*
X79562991Y-73252778D01*
X79562989Y-73252779D01*
X79406467Y-73336443D01*
X79349853Y-73353616D01*
X79236627Y-73387963D01*
X79170443Y-73394481D01*
X79104260Y-73401000D01*
X79015740Y-73401000D01*
X78949557Y-73394481D01*
X78883373Y-73387963D01*
X78770147Y-73353616D01*
X78713533Y-73336443D01*
X78557011Y-73252779D01*
X78557009Y-73252778D01*
X78521271Y-73223448D01*
X78419814Y-73140186D01*
X78336552Y-73038729D01*
X78307222Y-73002991D01*
X78297652Y-72985087D01*
X78223557Y-72846467D01*
X78206384Y-72789853D01*
X78172037Y-72676627D01*
X78154641Y-72500000D01*
X78172037Y-72323373D01*
X78223557Y-72153534D01*
X78223557Y-72153533D01*
X78307221Y-71997011D01*
X78307222Y-71997009D01*
X78336552Y-71961271D01*
X78419814Y-71859814D01*
X78521271Y-71776552D01*
X78557009Y-71747222D01*
X78574913Y-71737652D01*
X78713533Y-71663557D01*
X78770147Y-71646384D01*
X78883373Y-71612037D01*
X78949557Y-71605519D01*
X79015740Y-71599000D01*
X79104260Y-71599000D01*
X79170443Y-71605519D01*
X79170443Y-71605519D01*
G37*
G36*
X82501000Y-73401000D02*
X80699000Y-73401000D01*
X80699000Y-71599000D01*
X82501000Y-71599000D01*
X82501000Y-73401000D01*
X82501000Y-73401000D01*
G37*
G36*
X104725331Y-57268211D02*
X105053092Y-57403974D01*
X105348073Y-57601074D01*
X105598926Y-57851927D01*
X105796026Y-58146908D01*
X105931789Y-58474669D01*
X106001000Y-58822616D01*
X106001000Y-59177384D01*
X105931789Y-59525331D01*
X105796026Y-59853092D01*
X105598926Y-60148073D01*
X105348073Y-60398926D01*
X105053092Y-60596026D01*
X104725331Y-60731789D01*
X104377384Y-60801000D01*
X104022616Y-60801000D01*
X103674669Y-60731789D01*
X103346908Y-60596026D01*
X103051927Y-60398926D01*
X102801074Y-60148073D01*
X102603974Y-59853092D01*
X102468211Y-59525331D01*
X102399000Y-59177384D01*
X102399000Y-58822616D01*
X102468211Y-58474669D01*
X102603974Y-58146908D01*
X102801074Y-57851927D01*
X103051927Y-57601074D01*
X103346908Y-57403974D01*
X103674669Y-57268211D01*
X104022616Y-57199000D01*
X104377384Y-57199000D01*
X104725331Y-57268211D01*
X104725331Y-57268211D01*
G37*
G36*
X52725331Y-57268211D02*
X53053092Y-57403974D01*
X53348073Y-57601074D01*
X53598926Y-57851927D01*
X53796026Y-58146908D01*
X53931789Y-58474669D01*
X54001000Y-58822616D01*
X54001000Y-59177384D01*
X53931789Y-59525331D01*
X53796026Y-59853092D01*
X53598926Y-60148073D01*
X53348073Y-60398926D01*
X53053092Y-60596026D01*
X52725331Y-60731789D01*
X52377384Y-60801000D01*
X52022616Y-60801000D01*
X51674669Y-60731789D01*
X51346908Y-60596026D01*
X51051927Y-60398926D01*
X50801074Y-60148073D01*
X50603974Y-59853092D01*
X50468211Y-59525331D01*
X50399000Y-59177384D01*
X50399000Y-58822616D01*
X50468211Y-58474669D01*
X50603974Y-58146908D01*
X50801074Y-57851927D01*
X51051927Y-57601074D01*
X51346908Y-57403974D01*
X51674669Y-57268211D01*
X52022616Y-57199000D01*
X52377384Y-57199000D01*
X52725331Y-57268211D01*
X52725331Y-57268211D01*
G37*
G36*
X52446136Y-54118253D02*
X52537312Y-54156019D01*
X52619372Y-54210850D01*
X52689150Y-54280628D01*
X52743981Y-54362688D01*
X52781747Y-54453864D01*
X52801000Y-54550656D01*
X52801000Y-54649344D01*
X52781747Y-54746136D01*
X52743981Y-54837312D01*
X52689150Y-54919372D01*
X52619372Y-54989150D01*
X52537312Y-55043981D01*
X52446136Y-55081747D01*
X52349344Y-55101000D01*
X52250656Y-55101000D01*
X52153864Y-55081747D01*
X52062688Y-55043981D01*
X51980628Y-54989150D01*
X51910850Y-54919372D01*
X51856019Y-54837312D01*
X51818253Y-54746136D01*
X51799000Y-54649344D01*
X51799000Y-54550656D01*
X51818253Y-54453864D01*
X51856019Y-54362688D01*
X51910850Y-54280628D01*
X51980628Y-54210850D01*
X52062688Y-54156019D01*
X52153864Y-54118253D01*
X52250656Y-54099000D01*
X52349344Y-54099000D01*
X52446136Y-54118253D01*
X52446136Y-54118253D01*
G37*
G36*
X94330443Y-48705519D02*
X94396627Y-48712037D01*
X94509853Y-48746384D01*
X94566467Y-48763557D01*
X94705087Y-48837652D01*
X94722991Y-48847222D01*
X94758729Y-48876552D01*
X94860186Y-48959814D01*
X94943448Y-49061271D01*
X94972778Y-49097009D01*
X94972779Y-49097011D01*
X95056443Y-49253533D01*
X95056443Y-49253534D01*
X95107963Y-49423373D01*
X95125359Y-49600000D01*
X95107963Y-49776627D01*
X95073616Y-49889853D01*
X95056443Y-49946467D01*
X94982348Y-50085087D01*
X94972778Y-50102991D01*
X94943448Y-50138729D01*
X94860186Y-50240186D01*
X94758729Y-50323448D01*
X94722991Y-50352778D01*
X94722989Y-50352779D01*
X94566467Y-50436443D01*
X94509853Y-50453616D01*
X94396627Y-50487963D01*
X94330443Y-50494481D01*
X94264260Y-50501000D01*
X94175740Y-50501000D01*
X94109557Y-50494481D01*
X94043373Y-50487963D01*
X93930147Y-50453616D01*
X93873533Y-50436443D01*
X93717011Y-50352779D01*
X93717009Y-50352778D01*
X93681271Y-50323448D01*
X93579814Y-50240186D01*
X93496552Y-50138729D01*
X93467222Y-50102991D01*
X93457652Y-50085087D01*
X93383557Y-49946467D01*
X93366384Y-49889853D01*
X93332037Y-49776627D01*
X93314641Y-49600000D01*
X93332037Y-49423373D01*
X93383557Y-49253534D01*
X93383557Y-49253533D01*
X93467221Y-49097011D01*
X93467222Y-49097009D01*
X93496552Y-49061271D01*
X93579814Y-48959814D01*
X93681271Y-48876552D01*
X93717009Y-48847222D01*
X93734913Y-48837652D01*
X93873533Y-48763557D01*
X93930147Y-48746384D01*
X94043373Y-48712037D01*
X94109557Y-48705519D01*
X94175740Y-48699000D01*
X94264260Y-48699000D01*
X94330443Y-48705519D01*
X94330443Y-48705519D01*
G37*
G36*
X96870443Y-48705519D02*
X96936627Y-48712037D01*
X97049853Y-48746384D01*
X97106467Y-48763557D01*
X97245087Y-48837652D01*
X97262991Y-48847222D01*
X97298729Y-48876552D01*
X97400186Y-48959814D01*
X97483448Y-49061271D01*
X97512778Y-49097009D01*
X97512779Y-49097011D01*
X97596443Y-49253533D01*
X97596443Y-49253534D01*
X97647963Y-49423373D01*
X97665359Y-49600000D01*
X97647963Y-49776627D01*
X97613616Y-49889853D01*
X97596443Y-49946467D01*
X97522348Y-50085087D01*
X97512778Y-50102991D01*
X97483448Y-50138729D01*
X97400186Y-50240186D01*
X97298729Y-50323448D01*
X97262991Y-50352778D01*
X97262989Y-50352779D01*
X97106467Y-50436443D01*
X97049853Y-50453616D01*
X96936627Y-50487963D01*
X96870443Y-50494481D01*
X96804260Y-50501000D01*
X96715740Y-50501000D01*
X96649557Y-50494481D01*
X96583373Y-50487963D01*
X96470147Y-50453616D01*
X96413533Y-50436443D01*
X96257011Y-50352779D01*
X96257009Y-50352778D01*
X96221271Y-50323448D01*
X96119814Y-50240186D01*
X96036552Y-50138729D01*
X96007222Y-50102991D01*
X95997652Y-50085087D01*
X95923557Y-49946467D01*
X95906384Y-49889853D01*
X95872037Y-49776627D01*
X95854641Y-49600000D01*
X95872037Y-49423373D01*
X95923557Y-49253534D01*
X95923557Y-49253533D01*
X96007221Y-49097011D01*
X96007222Y-49097009D01*
X96036552Y-49061271D01*
X96119814Y-48959814D01*
X96221271Y-48876552D01*
X96257009Y-48847222D01*
X96274913Y-48837652D01*
X96413533Y-48763557D01*
X96470147Y-48746384D01*
X96583373Y-48712037D01*
X96649557Y-48705519D01*
X96715740Y-48699000D01*
X96804260Y-48699000D01*
X96870443Y-48705519D01*
X96870443Y-48705519D01*
G37*
G36*
X61310443Y-48705519D02*
X61376627Y-48712037D01*
X61489853Y-48746384D01*
X61546467Y-48763557D01*
X61685087Y-48837652D01*
X61702991Y-48847222D01*
X61738729Y-48876552D01*
X61840186Y-48959814D01*
X61923448Y-49061271D01*
X61952778Y-49097009D01*
X61952779Y-49097011D01*
X62036443Y-49253533D01*
X62036443Y-49253534D01*
X62087963Y-49423373D01*
X62105359Y-49600000D01*
X62087963Y-49776627D01*
X62053616Y-49889853D01*
X62036443Y-49946467D01*
X61962348Y-50085087D01*
X61952778Y-50102991D01*
X61923448Y-50138729D01*
X61840186Y-50240186D01*
X61738729Y-50323448D01*
X61702991Y-50352778D01*
X61702989Y-50352779D01*
X61546467Y-50436443D01*
X61489853Y-50453616D01*
X61376627Y-50487963D01*
X61310443Y-50494481D01*
X61244260Y-50501000D01*
X61155740Y-50501000D01*
X61089557Y-50494481D01*
X61023373Y-50487963D01*
X60910147Y-50453616D01*
X60853533Y-50436443D01*
X60697011Y-50352779D01*
X60697009Y-50352778D01*
X60661271Y-50323448D01*
X60559814Y-50240186D01*
X60476552Y-50138729D01*
X60447222Y-50102991D01*
X60437652Y-50085087D01*
X60363557Y-49946467D01*
X60346384Y-49889853D01*
X60312037Y-49776627D01*
X60294641Y-49600000D01*
X60312037Y-49423373D01*
X60363557Y-49253534D01*
X60363557Y-49253533D01*
X60447221Y-49097011D01*
X60447222Y-49097009D01*
X60476552Y-49061271D01*
X60559814Y-48959814D01*
X60661271Y-48876552D01*
X60697009Y-48847222D01*
X60714913Y-48837652D01*
X60853533Y-48763557D01*
X60910147Y-48746384D01*
X61023373Y-48712037D01*
X61089557Y-48705519D01*
X61155740Y-48699000D01*
X61244260Y-48699000D01*
X61310443Y-48705519D01*
X61310443Y-48705519D01*
G37*
G36*
X63850443Y-48705519D02*
X63916627Y-48712037D01*
X64029853Y-48746384D01*
X64086467Y-48763557D01*
X64225087Y-48837652D01*
X64242991Y-48847222D01*
X64278729Y-48876552D01*
X64380186Y-48959814D01*
X64463448Y-49061271D01*
X64492778Y-49097009D01*
X64492779Y-49097011D01*
X64576443Y-49253533D01*
X64576443Y-49253534D01*
X64627963Y-49423373D01*
X64645359Y-49600000D01*
X64627963Y-49776627D01*
X64593616Y-49889853D01*
X64576443Y-49946467D01*
X64502348Y-50085087D01*
X64492778Y-50102991D01*
X64463448Y-50138729D01*
X64380186Y-50240186D01*
X64278729Y-50323448D01*
X64242991Y-50352778D01*
X64242989Y-50352779D01*
X64086467Y-50436443D01*
X64029853Y-50453616D01*
X63916627Y-50487963D01*
X63850443Y-50494481D01*
X63784260Y-50501000D01*
X63695740Y-50501000D01*
X63629557Y-50494481D01*
X63563373Y-50487963D01*
X63450147Y-50453616D01*
X63393533Y-50436443D01*
X63237011Y-50352779D01*
X63237009Y-50352778D01*
X63201271Y-50323448D01*
X63099814Y-50240186D01*
X63016552Y-50138729D01*
X62987222Y-50102991D01*
X62977652Y-50085087D01*
X62903557Y-49946467D01*
X62886384Y-49889853D01*
X62852037Y-49776627D01*
X62834641Y-49600000D01*
X62852037Y-49423373D01*
X62903557Y-49253534D01*
X62903557Y-49253533D01*
X62987221Y-49097011D01*
X62987222Y-49097009D01*
X63016552Y-49061271D01*
X63099814Y-48959814D01*
X63201271Y-48876552D01*
X63237009Y-48847222D01*
X63254913Y-48837652D01*
X63393533Y-48763557D01*
X63450147Y-48746384D01*
X63563373Y-48712037D01*
X63629557Y-48705519D01*
X63695740Y-48699000D01*
X63784260Y-48699000D01*
X63850443Y-48705519D01*
X63850443Y-48705519D01*
G37*
G36*
X84170443Y-48705519D02*
X84236627Y-48712037D01*
X84349853Y-48746384D01*
X84406467Y-48763557D01*
X84545087Y-48837652D01*
X84562991Y-48847222D01*
X84598729Y-48876552D01*
X84700186Y-48959814D01*
X84783448Y-49061271D01*
X84812778Y-49097009D01*
X84812779Y-49097011D01*
X84896443Y-49253533D01*
X84896443Y-49253534D01*
X84947963Y-49423373D01*
X84965359Y-49600000D01*
X84947963Y-49776627D01*
X84913616Y-49889853D01*
X84896443Y-49946467D01*
X84822348Y-50085087D01*
X84812778Y-50102991D01*
X84783448Y-50138729D01*
X84700186Y-50240186D01*
X84598729Y-50323448D01*
X84562991Y-50352778D01*
X84562989Y-50352779D01*
X84406467Y-50436443D01*
X84349853Y-50453616D01*
X84236627Y-50487963D01*
X84170443Y-50494481D01*
X84104260Y-50501000D01*
X84015740Y-50501000D01*
X83949557Y-50494481D01*
X83883373Y-50487963D01*
X83770147Y-50453616D01*
X83713533Y-50436443D01*
X83557011Y-50352779D01*
X83557009Y-50352778D01*
X83521271Y-50323448D01*
X83419814Y-50240186D01*
X83336552Y-50138729D01*
X83307222Y-50102991D01*
X83297652Y-50085087D01*
X83223557Y-49946467D01*
X83206384Y-49889853D01*
X83172037Y-49776627D01*
X83154641Y-49600000D01*
X83172037Y-49423373D01*
X83223557Y-49253534D01*
X83223557Y-49253533D01*
X83307221Y-49097011D01*
X83307222Y-49097009D01*
X83336552Y-49061271D01*
X83419814Y-48959814D01*
X83521271Y-48876552D01*
X83557009Y-48847222D01*
X83574913Y-48837652D01*
X83713533Y-48763557D01*
X83770147Y-48746384D01*
X83883373Y-48712037D01*
X83949557Y-48705519D01*
X84015740Y-48699000D01*
X84104260Y-48699000D01*
X84170443Y-48705519D01*
X84170443Y-48705519D01*
G37*
G36*
X66390443Y-48705519D02*
X66456627Y-48712037D01*
X66569853Y-48746384D01*
X66626467Y-48763557D01*
X66765087Y-48837652D01*
X66782991Y-48847222D01*
X66818729Y-48876552D01*
X66920186Y-48959814D01*
X67003448Y-49061271D01*
X67032778Y-49097009D01*
X67032779Y-49097011D01*
X67116443Y-49253533D01*
X67116443Y-49253534D01*
X67167963Y-49423373D01*
X67185359Y-49600000D01*
X67167963Y-49776627D01*
X67133616Y-49889853D01*
X67116443Y-49946467D01*
X67042348Y-50085087D01*
X67032778Y-50102991D01*
X67003448Y-50138729D01*
X66920186Y-50240186D01*
X66818729Y-50323448D01*
X66782991Y-50352778D01*
X66782989Y-50352779D01*
X66626467Y-50436443D01*
X66569853Y-50453616D01*
X66456627Y-50487963D01*
X66390443Y-50494481D01*
X66324260Y-50501000D01*
X66235740Y-50501000D01*
X66169557Y-50494481D01*
X66103373Y-50487963D01*
X65990147Y-50453616D01*
X65933533Y-50436443D01*
X65777011Y-50352779D01*
X65777009Y-50352778D01*
X65741271Y-50323448D01*
X65639814Y-50240186D01*
X65556552Y-50138729D01*
X65527222Y-50102991D01*
X65517652Y-50085087D01*
X65443557Y-49946467D01*
X65426384Y-49889853D01*
X65392037Y-49776627D01*
X65374641Y-49600000D01*
X65392037Y-49423373D01*
X65443557Y-49253534D01*
X65443557Y-49253533D01*
X65527221Y-49097011D01*
X65527222Y-49097009D01*
X65556552Y-49061271D01*
X65639814Y-48959814D01*
X65741271Y-48876552D01*
X65777009Y-48847222D01*
X65794913Y-48837652D01*
X65933533Y-48763557D01*
X65990147Y-48746384D01*
X66103373Y-48712037D01*
X66169557Y-48705519D01*
X66235740Y-48699000D01*
X66324260Y-48699000D01*
X66390443Y-48705519D01*
X66390443Y-48705519D01*
G37*
G36*
X68930443Y-48705519D02*
X68996627Y-48712037D01*
X69109853Y-48746384D01*
X69166467Y-48763557D01*
X69305087Y-48837652D01*
X69322991Y-48847222D01*
X69358729Y-48876552D01*
X69460186Y-48959814D01*
X69543448Y-49061271D01*
X69572778Y-49097009D01*
X69572779Y-49097011D01*
X69656443Y-49253533D01*
X69656443Y-49253534D01*
X69707963Y-49423373D01*
X69725359Y-49600000D01*
X69707963Y-49776627D01*
X69673616Y-49889853D01*
X69656443Y-49946467D01*
X69582348Y-50085087D01*
X69572778Y-50102991D01*
X69543448Y-50138729D01*
X69460186Y-50240186D01*
X69358729Y-50323448D01*
X69322991Y-50352778D01*
X69322989Y-50352779D01*
X69166467Y-50436443D01*
X69109853Y-50453616D01*
X68996627Y-50487963D01*
X68930443Y-50494481D01*
X68864260Y-50501000D01*
X68775740Y-50501000D01*
X68709557Y-50494481D01*
X68643373Y-50487963D01*
X68530147Y-50453616D01*
X68473533Y-50436443D01*
X68317011Y-50352779D01*
X68317009Y-50352778D01*
X68281271Y-50323448D01*
X68179814Y-50240186D01*
X68096552Y-50138729D01*
X68067222Y-50102991D01*
X68057652Y-50085087D01*
X67983557Y-49946467D01*
X67966384Y-49889853D01*
X67932037Y-49776627D01*
X67914641Y-49600000D01*
X67932037Y-49423373D01*
X67983557Y-49253534D01*
X67983557Y-49253533D01*
X68067221Y-49097011D01*
X68067222Y-49097009D01*
X68096552Y-49061271D01*
X68179814Y-48959814D01*
X68281271Y-48876552D01*
X68317009Y-48847222D01*
X68334913Y-48837652D01*
X68473533Y-48763557D01*
X68530147Y-48746384D01*
X68643373Y-48712037D01*
X68709557Y-48705519D01*
X68775740Y-48699000D01*
X68864260Y-48699000D01*
X68930443Y-48705519D01*
X68930443Y-48705519D01*
G37*
G36*
X71470443Y-48705519D02*
X71536627Y-48712037D01*
X71649853Y-48746384D01*
X71706467Y-48763557D01*
X71845087Y-48837652D01*
X71862991Y-48847222D01*
X71898729Y-48876552D01*
X72000186Y-48959814D01*
X72083448Y-49061271D01*
X72112778Y-49097009D01*
X72112779Y-49097011D01*
X72196443Y-49253533D01*
X72196443Y-49253534D01*
X72247963Y-49423373D01*
X72265359Y-49600000D01*
X72247963Y-49776627D01*
X72213616Y-49889853D01*
X72196443Y-49946467D01*
X72122348Y-50085087D01*
X72112778Y-50102991D01*
X72083448Y-50138729D01*
X72000186Y-50240186D01*
X71898729Y-50323448D01*
X71862991Y-50352778D01*
X71862989Y-50352779D01*
X71706467Y-50436443D01*
X71649853Y-50453616D01*
X71536627Y-50487963D01*
X71470443Y-50494481D01*
X71404260Y-50501000D01*
X71315740Y-50501000D01*
X71249557Y-50494481D01*
X71183373Y-50487963D01*
X71070147Y-50453616D01*
X71013533Y-50436443D01*
X70857011Y-50352779D01*
X70857009Y-50352778D01*
X70821271Y-50323448D01*
X70719814Y-50240186D01*
X70636552Y-50138729D01*
X70607222Y-50102991D01*
X70597652Y-50085087D01*
X70523557Y-49946467D01*
X70506384Y-49889853D01*
X70472037Y-49776627D01*
X70454641Y-49600000D01*
X70472037Y-49423373D01*
X70523557Y-49253534D01*
X70523557Y-49253533D01*
X70607221Y-49097011D01*
X70607222Y-49097009D01*
X70636552Y-49061271D01*
X70719814Y-48959814D01*
X70821271Y-48876552D01*
X70857009Y-48847222D01*
X70874913Y-48837652D01*
X71013533Y-48763557D01*
X71070147Y-48746384D01*
X71183373Y-48712037D01*
X71249557Y-48705519D01*
X71315740Y-48699000D01*
X71404260Y-48699000D01*
X71470443Y-48705519D01*
X71470443Y-48705519D01*
G37*
G36*
X74010443Y-48705519D02*
X74076627Y-48712037D01*
X74189853Y-48746384D01*
X74246467Y-48763557D01*
X74385087Y-48837652D01*
X74402991Y-48847222D01*
X74438729Y-48876552D01*
X74540186Y-48959814D01*
X74623448Y-49061271D01*
X74652778Y-49097009D01*
X74652779Y-49097011D01*
X74736443Y-49253533D01*
X74736443Y-49253534D01*
X74787963Y-49423373D01*
X74805359Y-49600000D01*
X74787963Y-49776627D01*
X74753616Y-49889853D01*
X74736443Y-49946467D01*
X74662348Y-50085087D01*
X74652778Y-50102991D01*
X74623448Y-50138729D01*
X74540186Y-50240186D01*
X74438729Y-50323448D01*
X74402991Y-50352778D01*
X74402989Y-50352779D01*
X74246467Y-50436443D01*
X74189853Y-50453616D01*
X74076627Y-50487963D01*
X74010443Y-50494481D01*
X73944260Y-50501000D01*
X73855740Y-50501000D01*
X73789557Y-50494481D01*
X73723373Y-50487963D01*
X73610147Y-50453616D01*
X73553533Y-50436443D01*
X73397011Y-50352779D01*
X73397009Y-50352778D01*
X73361271Y-50323448D01*
X73259814Y-50240186D01*
X73176552Y-50138729D01*
X73147222Y-50102991D01*
X73137652Y-50085087D01*
X73063557Y-49946467D01*
X73046384Y-49889853D01*
X73012037Y-49776627D01*
X72994641Y-49600000D01*
X73012037Y-49423373D01*
X73063557Y-49253534D01*
X73063557Y-49253533D01*
X73147221Y-49097011D01*
X73147222Y-49097009D01*
X73176552Y-49061271D01*
X73259814Y-48959814D01*
X73361271Y-48876552D01*
X73397009Y-48847222D01*
X73414913Y-48837652D01*
X73553533Y-48763557D01*
X73610147Y-48746384D01*
X73723373Y-48712037D01*
X73789557Y-48705519D01*
X73855740Y-48699000D01*
X73944260Y-48699000D01*
X74010443Y-48705519D01*
X74010443Y-48705519D01*
G37*
G36*
X76550443Y-48705519D02*
X76616627Y-48712037D01*
X76729853Y-48746384D01*
X76786467Y-48763557D01*
X76925087Y-48837652D01*
X76942991Y-48847222D01*
X76978729Y-48876552D01*
X77080186Y-48959814D01*
X77163448Y-49061271D01*
X77192778Y-49097009D01*
X77192779Y-49097011D01*
X77276443Y-49253533D01*
X77276443Y-49253534D01*
X77327963Y-49423373D01*
X77345359Y-49600000D01*
X77327963Y-49776627D01*
X77293616Y-49889853D01*
X77276443Y-49946467D01*
X77202348Y-50085087D01*
X77192778Y-50102991D01*
X77163448Y-50138729D01*
X77080186Y-50240186D01*
X76978729Y-50323448D01*
X76942991Y-50352778D01*
X76942989Y-50352779D01*
X76786467Y-50436443D01*
X76729853Y-50453616D01*
X76616627Y-50487963D01*
X76550443Y-50494481D01*
X76484260Y-50501000D01*
X76395740Y-50501000D01*
X76329557Y-50494481D01*
X76263373Y-50487963D01*
X76150147Y-50453616D01*
X76093533Y-50436443D01*
X75937011Y-50352779D01*
X75937009Y-50352778D01*
X75901271Y-50323448D01*
X75799814Y-50240186D01*
X75716552Y-50138729D01*
X75687222Y-50102991D01*
X75677652Y-50085087D01*
X75603557Y-49946467D01*
X75586384Y-49889853D01*
X75552037Y-49776627D01*
X75534641Y-49600000D01*
X75552037Y-49423373D01*
X75603557Y-49253534D01*
X75603557Y-49253533D01*
X75687221Y-49097011D01*
X75687222Y-49097009D01*
X75716552Y-49061271D01*
X75799814Y-48959814D01*
X75901271Y-48876552D01*
X75937009Y-48847222D01*
X75954913Y-48837652D01*
X76093533Y-48763557D01*
X76150147Y-48746384D01*
X76263373Y-48712037D01*
X76329557Y-48705519D01*
X76395740Y-48699000D01*
X76484260Y-48699000D01*
X76550443Y-48705519D01*
X76550443Y-48705519D01*
G37*
G36*
X79090443Y-48705519D02*
X79156627Y-48712037D01*
X79269853Y-48746384D01*
X79326467Y-48763557D01*
X79465087Y-48837652D01*
X79482991Y-48847222D01*
X79518729Y-48876552D01*
X79620186Y-48959814D01*
X79703448Y-49061271D01*
X79732778Y-49097009D01*
X79732779Y-49097011D01*
X79816443Y-49253533D01*
X79816443Y-49253534D01*
X79867963Y-49423373D01*
X79885359Y-49600000D01*
X79867963Y-49776627D01*
X79833616Y-49889853D01*
X79816443Y-49946467D01*
X79742348Y-50085087D01*
X79732778Y-50102991D01*
X79703448Y-50138729D01*
X79620186Y-50240186D01*
X79518729Y-50323448D01*
X79482991Y-50352778D01*
X79482989Y-50352779D01*
X79326467Y-50436443D01*
X79269853Y-50453616D01*
X79156627Y-50487963D01*
X79090443Y-50494481D01*
X79024260Y-50501000D01*
X78935740Y-50501000D01*
X78869557Y-50494481D01*
X78803373Y-50487963D01*
X78690147Y-50453616D01*
X78633533Y-50436443D01*
X78477011Y-50352779D01*
X78477009Y-50352778D01*
X78441271Y-50323448D01*
X78339814Y-50240186D01*
X78256552Y-50138729D01*
X78227222Y-50102991D01*
X78217652Y-50085087D01*
X78143557Y-49946467D01*
X78126384Y-49889853D01*
X78092037Y-49776627D01*
X78074641Y-49600000D01*
X78092037Y-49423373D01*
X78143557Y-49253534D01*
X78143557Y-49253533D01*
X78227221Y-49097011D01*
X78227222Y-49097009D01*
X78256552Y-49061271D01*
X78339814Y-48959814D01*
X78441271Y-48876552D01*
X78477009Y-48847222D01*
X78494913Y-48837652D01*
X78633533Y-48763557D01*
X78690147Y-48746384D01*
X78803373Y-48712037D01*
X78869557Y-48705519D01*
X78935740Y-48699000D01*
X79024260Y-48699000D01*
X79090443Y-48705519D01*
X79090443Y-48705519D01*
G37*
G36*
X81630443Y-48705519D02*
X81696627Y-48712037D01*
X81809853Y-48746384D01*
X81866467Y-48763557D01*
X82005087Y-48837652D01*
X82022991Y-48847222D01*
X82058729Y-48876552D01*
X82160186Y-48959814D01*
X82243448Y-49061271D01*
X82272778Y-49097009D01*
X82272779Y-49097011D01*
X82356443Y-49253533D01*
X82356443Y-49253534D01*
X82407963Y-49423373D01*
X82425359Y-49600000D01*
X82407963Y-49776627D01*
X82373616Y-49889853D01*
X82356443Y-49946467D01*
X82282348Y-50085087D01*
X82272778Y-50102991D01*
X82243448Y-50138729D01*
X82160186Y-50240186D01*
X82058729Y-50323448D01*
X82022991Y-50352778D01*
X82022989Y-50352779D01*
X81866467Y-50436443D01*
X81809853Y-50453616D01*
X81696627Y-50487963D01*
X81630443Y-50494481D01*
X81564260Y-50501000D01*
X81475740Y-50501000D01*
X81409557Y-50494481D01*
X81343373Y-50487963D01*
X81230147Y-50453616D01*
X81173533Y-50436443D01*
X81017011Y-50352779D01*
X81017009Y-50352778D01*
X80981271Y-50323448D01*
X80879814Y-50240186D01*
X80796552Y-50138729D01*
X80767222Y-50102991D01*
X80757652Y-50085087D01*
X80683557Y-49946467D01*
X80666384Y-49889853D01*
X80632037Y-49776627D01*
X80614641Y-49600000D01*
X80632037Y-49423373D01*
X80683557Y-49253534D01*
X80683557Y-49253533D01*
X80767221Y-49097011D01*
X80767222Y-49097009D01*
X80796552Y-49061271D01*
X80879814Y-48959814D01*
X80981271Y-48876552D01*
X81017009Y-48847222D01*
X81034913Y-48837652D01*
X81173533Y-48763557D01*
X81230147Y-48746384D01*
X81343373Y-48712037D01*
X81409557Y-48705519D01*
X81475740Y-48699000D01*
X81564260Y-48699000D01*
X81630443Y-48705519D01*
X81630443Y-48705519D01*
G37*
G36*
X86710443Y-48705519D02*
X86776627Y-48712037D01*
X86889853Y-48746384D01*
X86946467Y-48763557D01*
X87085087Y-48837652D01*
X87102991Y-48847222D01*
X87138729Y-48876552D01*
X87240186Y-48959814D01*
X87323448Y-49061271D01*
X87352778Y-49097009D01*
X87352779Y-49097011D01*
X87436443Y-49253533D01*
X87436443Y-49253534D01*
X87487963Y-49423373D01*
X87505359Y-49600000D01*
X87487963Y-49776627D01*
X87453616Y-49889853D01*
X87436443Y-49946467D01*
X87362348Y-50085087D01*
X87352778Y-50102991D01*
X87323448Y-50138729D01*
X87240186Y-50240186D01*
X87138729Y-50323448D01*
X87102991Y-50352778D01*
X87102989Y-50352779D01*
X86946467Y-50436443D01*
X86889853Y-50453616D01*
X86776627Y-50487963D01*
X86710443Y-50494481D01*
X86644260Y-50501000D01*
X86555740Y-50501000D01*
X86489557Y-50494481D01*
X86423373Y-50487963D01*
X86310147Y-50453616D01*
X86253533Y-50436443D01*
X86097011Y-50352779D01*
X86097009Y-50352778D01*
X86061271Y-50323448D01*
X85959814Y-50240186D01*
X85876552Y-50138729D01*
X85847222Y-50102991D01*
X85837652Y-50085087D01*
X85763557Y-49946467D01*
X85746384Y-49889853D01*
X85712037Y-49776627D01*
X85694641Y-49600000D01*
X85712037Y-49423373D01*
X85763557Y-49253534D01*
X85763557Y-49253533D01*
X85847221Y-49097011D01*
X85847222Y-49097009D01*
X85876552Y-49061271D01*
X85959814Y-48959814D01*
X86061271Y-48876552D01*
X86097009Y-48847222D01*
X86114913Y-48837652D01*
X86253533Y-48763557D01*
X86310147Y-48746384D01*
X86423373Y-48712037D01*
X86489557Y-48705519D01*
X86555740Y-48699000D01*
X86644260Y-48699000D01*
X86710443Y-48705519D01*
X86710443Y-48705519D01*
G37*
G36*
X89250443Y-48705519D02*
X89316627Y-48712037D01*
X89429853Y-48746384D01*
X89486467Y-48763557D01*
X89625087Y-48837652D01*
X89642991Y-48847222D01*
X89678729Y-48876552D01*
X89780186Y-48959814D01*
X89863448Y-49061271D01*
X89892778Y-49097009D01*
X89892779Y-49097011D01*
X89976443Y-49253533D01*
X89976443Y-49253534D01*
X90027963Y-49423373D01*
X90045359Y-49600000D01*
X90027963Y-49776627D01*
X89993616Y-49889853D01*
X89976443Y-49946467D01*
X89902348Y-50085087D01*
X89892778Y-50102991D01*
X89863448Y-50138729D01*
X89780186Y-50240186D01*
X89678729Y-50323448D01*
X89642991Y-50352778D01*
X89642989Y-50352779D01*
X89486467Y-50436443D01*
X89429853Y-50453616D01*
X89316627Y-50487963D01*
X89250443Y-50494481D01*
X89184260Y-50501000D01*
X89095740Y-50501000D01*
X89029557Y-50494481D01*
X88963373Y-50487963D01*
X88850147Y-50453616D01*
X88793533Y-50436443D01*
X88637011Y-50352779D01*
X88637009Y-50352778D01*
X88601271Y-50323448D01*
X88499814Y-50240186D01*
X88416552Y-50138729D01*
X88387222Y-50102991D01*
X88377652Y-50085087D01*
X88303557Y-49946467D01*
X88286384Y-49889853D01*
X88252037Y-49776627D01*
X88234641Y-49600000D01*
X88252037Y-49423373D01*
X88303557Y-49253534D01*
X88303557Y-49253533D01*
X88387221Y-49097011D01*
X88387222Y-49097009D01*
X88416552Y-49061271D01*
X88499814Y-48959814D01*
X88601271Y-48876552D01*
X88637009Y-48847222D01*
X88654913Y-48837652D01*
X88793533Y-48763557D01*
X88850147Y-48746384D01*
X88963373Y-48712037D01*
X89029557Y-48705519D01*
X89095740Y-48699000D01*
X89184260Y-48699000D01*
X89250443Y-48705519D01*
X89250443Y-48705519D01*
G37*
G36*
X91790443Y-48705519D02*
X91856627Y-48712037D01*
X91969853Y-48746384D01*
X92026467Y-48763557D01*
X92165087Y-48837652D01*
X92182991Y-48847222D01*
X92218729Y-48876552D01*
X92320186Y-48959814D01*
X92403448Y-49061271D01*
X92432778Y-49097009D01*
X92432779Y-49097011D01*
X92516443Y-49253533D01*
X92516443Y-49253534D01*
X92567963Y-49423373D01*
X92585359Y-49600000D01*
X92567963Y-49776627D01*
X92533616Y-49889853D01*
X92516443Y-49946467D01*
X92442348Y-50085087D01*
X92432778Y-50102991D01*
X92403448Y-50138729D01*
X92320186Y-50240186D01*
X92218729Y-50323448D01*
X92182991Y-50352778D01*
X92182989Y-50352779D01*
X92026467Y-50436443D01*
X91969853Y-50453616D01*
X91856627Y-50487963D01*
X91790443Y-50494481D01*
X91724260Y-50501000D01*
X91635740Y-50501000D01*
X91569557Y-50494481D01*
X91503373Y-50487963D01*
X91390147Y-50453616D01*
X91333533Y-50436443D01*
X91177011Y-50352779D01*
X91177009Y-50352778D01*
X91141271Y-50323448D01*
X91039814Y-50240186D01*
X90956552Y-50138729D01*
X90927222Y-50102991D01*
X90917652Y-50085087D01*
X90843557Y-49946467D01*
X90826384Y-49889853D01*
X90792037Y-49776627D01*
X90774641Y-49600000D01*
X90792037Y-49423373D01*
X90843557Y-49253534D01*
X90843557Y-49253533D01*
X90927221Y-49097011D01*
X90927222Y-49097009D01*
X90956552Y-49061271D01*
X91039814Y-48959814D01*
X91141271Y-48876552D01*
X91177009Y-48847222D01*
X91194913Y-48837652D01*
X91333533Y-48763557D01*
X91390147Y-48746384D01*
X91503373Y-48712037D01*
X91569557Y-48705519D01*
X91635740Y-48699000D01*
X91724260Y-48699000D01*
X91790443Y-48705519D01*
X91790443Y-48705519D01*
G37*
G36*
X100201000Y-50501000D02*
X98399000Y-50501000D01*
X98399000Y-48699000D01*
X100201000Y-48699000D01*
X100201000Y-50501000D01*
X100201000Y-50501000D01*
G37*
G36*
X52446136Y-47318253D02*
X52537312Y-47356019D01*
X52619372Y-47410850D01*
X52689150Y-47480628D01*
X52743981Y-47562688D01*
X52781747Y-47653864D01*
X52801000Y-47750656D01*
X52801000Y-47849344D01*
X52781747Y-47946136D01*
X52743981Y-48037312D01*
X52689150Y-48119372D01*
X52619372Y-48189150D01*
X52537312Y-48243981D01*
X52446136Y-48281747D01*
X52349344Y-48301000D01*
X52250656Y-48301000D01*
X52153864Y-48281747D01*
X52062688Y-48243981D01*
X51980628Y-48189150D01*
X51910850Y-48119372D01*
X51856019Y-48037312D01*
X51818253Y-47946136D01*
X51799000Y-47849344D01*
X51799000Y-47750656D01*
X51818253Y-47653864D01*
X51856019Y-47562688D01*
X51910850Y-47480628D01*
X51980628Y-47410850D01*
X52062688Y-47356019D01*
X52153864Y-47318253D01*
X52250656Y-47299000D01*
X52349344Y-47299000D01*
X52446136Y-47318253D01*
X52446136Y-47318253D01*
G37*
M02*
