G04 #@! TF.GenerationSoftware,KiCad,Pcbnew,(5.0.2)-1*
G04 #@! TF.CreationDate,2019-02-11T10:40:24+00:00*
G04 #@! TF.ProjectId,AircraftDataLogger,41697263-7261-4667-9444-6174614c6f67,rev?*
G04 #@! TF.SameCoordinates,Original*
G04 #@! TF.FileFunction,Copper,L1,Top*
G04 #@! TF.FilePolarity,Positive*
%FSLAX46Y46*%
G04 Gerber Fmt 4.6, Leading zero omitted, Abs format (unit mm)*
G04 Created by KiCad (PCBNEW (5.0.2)-1) date 11/02/2019 10:40:24*
%MOMM*%
%LPD*%
G01*
G04 APERTURE LIST*
G04 #@! TA.AperFunction,ComponentPad*
%ADD10C,3.500000*%
G04 #@! TD*
G04 #@! TA.AperFunction,Conductor*
%ADD11C,0.100000*%
G04 #@! TD*
G04 #@! TA.AperFunction,SMDPad,CuDef*
%ADD12C,0.975000*%
G04 #@! TD*
G04 #@! TA.AperFunction,ComponentPad*
%ADD13C,1.800000*%
G04 #@! TD*
G04 #@! TA.AperFunction,ComponentPad*
%ADD14R,1.800000X1.800000*%
G04 #@! TD*
G04 #@! TA.AperFunction,ComponentPad*
%ADD15R,1.700000X1.700000*%
G04 #@! TD*
G04 #@! TA.AperFunction,ComponentPad*
%ADD16O,1.700000X1.700000*%
G04 #@! TD*
G04 #@! TA.AperFunction,SMDPad,CuDef*
%ADD17R,1.220000X0.650000*%
G04 #@! TD*
G04 #@! TA.AperFunction,SMDPad,CuDef*
%ADD18R,1.600000X0.550000*%
G04 #@! TD*
G04 #@! TA.AperFunction,SMDPad,CuDef*
%ADD19R,0.550000X1.600000*%
G04 #@! TD*
G04 #@! TA.AperFunction,ComponentPad*
%ADD20C,1.500000*%
G04 #@! TD*
G04 #@! TA.AperFunction,SMDPad,CuDef*
%ADD21R,2.500000X1.250000*%
G04 #@! TD*
G04 #@! TA.AperFunction,SMDPad,CuDef*
%ADD22C,1.250000*%
G04 #@! TD*
G04 #@! TA.AperFunction,ViaPad*
%ADD23C,0.800000*%
G04 #@! TD*
G04 #@! TA.AperFunction,Conductor*
%ADD24C,0.300000*%
G04 #@! TD*
G04 #@! TA.AperFunction,Conductor*
%ADD25C,0.250000*%
G04 #@! TD*
G04 #@! TA.AperFunction,Conductor*
%ADD26C,0.254000*%
G04 #@! TD*
G04 APERTURE END LIST*
D10*
G04 #@! TO.P,TL,1*
G04 #@! TO.N,N/C*
X52200000Y-59000000D03*
G04 #@! TD*
G04 #@! TO.P,uSDR,1*
G04 #@! TO.N,N/C*
X88360000Y-106800000D03*
G04 #@! TD*
G04 #@! TO.P,uSDL,1*
G04 #@! TO.N,N/C*
X68040000Y-106800000D03*
G04 #@! TD*
G04 #@! TO.P,BL,1*
G04 #@! TO.N,N/C*
X104200000Y-103000000D03*
G04 #@! TD*
G04 #@! TO.P,TR,1*
G04 #@! TO.N,N/C*
X104200000Y-59000000D03*
G04 #@! TD*
G04 #@! TO.P,GPS,1*
G04 #@! TO.N,N/C*
X61400000Y-79060000D03*
G04 #@! TD*
D11*
G04 #@! TO.N,Net-(C1-Pad2)*
G04 #@! TO.C,C1*
G36*
X58705142Y-84801174D02*
X58728803Y-84804684D01*
X58752007Y-84810496D01*
X58774529Y-84818554D01*
X58796153Y-84828782D01*
X58816670Y-84841079D01*
X58835883Y-84855329D01*
X58853607Y-84871393D01*
X58869671Y-84889117D01*
X58883921Y-84908330D01*
X58896218Y-84928847D01*
X58906446Y-84950471D01*
X58914504Y-84972993D01*
X58920316Y-84996197D01*
X58923826Y-85019858D01*
X58925000Y-85043750D01*
X58925000Y-85956250D01*
X58923826Y-85980142D01*
X58920316Y-86003803D01*
X58914504Y-86027007D01*
X58906446Y-86049529D01*
X58896218Y-86071153D01*
X58883921Y-86091670D01*
X58869671Y-86110883D01*
X58853607Y-86128607D01*
X58835883Y-86144671D01*
X58816670Y-86158921D01*
X58796153Y-86171218D01*
X58774529Y-86181446D01*
X58752007Y-86189504D01*
X58728803Y-86195316D01*
X58705142Y-86198826D01*
X58681250Y-86200000D01*
X58193750Y-86200000D01*
X58169858Y-86198826D01*
X58146197Y-86195316D01*
X58122993Y-86189504D01*
X58100471Y-86181446D01*
X58078847Y-86171218D01*
X58058330Y-86158921D01*
X58039117Y-86144671D01*
X58021393Y-86128607D01*
X58005329Y-86110883D01*
X57991079Y-86091670D01*
X57978782Y-86071153D01*
X57968554Y-86049529D01*
X57960496Y-86027007D01*
X57954684Y-86003803D01*
X57951174Y-85980142D01*
X57950000Y-85956250D01*
X57950000Y-85043750D01*
X57951174Y-85019858D01*
X57954684Y-84996197D01*
X57960496Y-84972993D01*
X57968554Y-84950471D01*
X57978782Y-84928847D01*
X57991079Y-84908330D01*
X58005329Y-84889117D01*
X58021393Y-84871393D01*
X58039117Y-84855329D01*
X58058330Y-84841079D01*
X58078847Y-84828782D01*
X58100471Y-84818554D01*
X58122993Y-84810496D01*
X58146197Y-84804684D01*
X58169858Y-84801174D01*
X58193750Y-84800000D01*
X58681250Y-84800000D01*
X58705142Y-84801174D01*
X58705142Y-84801174D01*
G37*
D12*
G04 #@! TD*
G04 #@! TO.P,C1,2*
G04 #@! TO.N,Net-(C1-Pad2)*
X58437500Y-85500000D03*
D11*
G04 #@! TO.N,GND*
G04 #@! TO.C,C1*
G36*
X56830142Y-84801174D02*
X56853803Y-84804684D01*
X56877007Y-84810496D01*
X56899529Y-84818554D01*
X56921153Y-84828782D01*
X56941670Y-84841079D01*
X56960883Y-84855329D01*
X56978607Y-84871393D01*
X56994671Y-84889117D01*
X57008921Y-84908330D01*
X57021218Y-84928847D01*
X57031446Y-84950471D01*
X57039504Y-84972993D01*
X57045316Y-84996197D01*
X57048826Y-85019858D01*
X57050000Y-85043750D01*
X57050000Y-85956250D01*
X57048826Y-85980142D01*
X57045316Y-86003803D01*
X57039504Y-86027007D01*
X57031446Y-86049529D01*
X57021218Y-86071153D01*
X57008921Y-86091670D01*
X56994671Y-86110883D01*
X56978607Y-86128607D01*
X56960883Y-86144671D01*
X56941670Y-86158921D01*
X56921153Y-86171218D01*
X56899529Y-86181446D01*
X56877007Y-86189504D01*
X56853803Y-86195316D01*
X56830142Y-86198826D01*
X56806250Y-86200000D01*
X56318750Y-86200000D01*
X56294858Y-86198826D01*
X56271197Y-86195316D01*
X56247993Y-86189504D01*
X56225471Y-86181446D01*
X56203847Y-86171218D01*
X56183330Y-86158921D01*
X56164117Y-86144671D01*
X56146393Y-86128607D01*
X56130329Y-86110883D01*
X56116079Y-86091670D01*
X56103782Y-86071153D01*
X56093554Y-86049529D01*
X56085496Y-86027007D01*
X56079684Y-86003803D01*
X56076174Y-85980142D01*
X56075000Y-85956250D01*
X56075000Y-85043750D01*
X56076174Y-85019858D01*
X56079684Y-84996197D01*
X56085496Y-84972993D01*
X56093554Y-84950471D01*
X56103782Y-84928847D01*
X56116079Y-84908330D01*
X56130329Y-84889117D01*
X56146393Y-84871393D01*
X56164117Y-84855329D01*
X56183330Y-84841079D01*
X56203847Y-84828782D01*
X56225471Y-84818554D01*
X56247993Y-84810496D01*
X56271197Y-84804684D01*
X56294858Y-84801174D01*
X56318750Y-84800000D01*
X56806250Y-84800000D01*
X56830142Y-84801174D01*
X56830142Y-84801174D01*
G37*
D12*
G04 #@! TD*
G04 #@! TO.P,C1,1*
G04 #@! TO.N,GND*
X56562500Y-85500000D03*
D11*
G04 #@! TO.N,GND*
G04 #@! TO.C,C2*
G36*
X56830142Y-89701174D02*
X56853803Y-89704684D01*
X56877007Y-89710496D01*
X56899529Y-89718554D01*
X56921153Y-89728782D01*
X56941670Y-89741079D01*
X56960883Y-89755329D01*
X56978607Y-89771393D01*
X56994671Y-89789117D01*
X57008921Y-89808330D01*
X57021218Y-89828847D01*
X57031446Y-89850471D01*
X57039504Y-89872993D01*
X57045316Y-89896197D01*
X57048826Y-89919858D01*
X57050000Y-89943750D01*
X57050000Y-90856250D01*
X57048826Y-90880142D01*
X57045316Y-90903803D01*
X57039504Y-90927007D01*
X57031446Y-90949529D01*
X57021218Y-90971153D01*
X57008921Y-90991670D01*
X56994671Y-91010883D01*
X56978607Y-91028607D01*
X56960883Y-91044671D01*
X56941670Y-91058921D01*
X56921153Y-91071218D01*
X56899529Y-91081446D01*
X56877007Y-91089504D01*
X56853803Y-91095316D01*
X56830142Y-91098826D01*
X56806250Y-91100000D01*
X56318750Y-91100000D01*
X56294858Y-91098826D01*
X56271197Y-91095316D01*
X56247993Y-91089504D01*
X56225471Y-91081446D01*
X56203847Y-91071218D01*
X56183330Y-91058921D01*
X56164117Y-91044671D01*
X56146393Y-91028607D01*
X56130329Y-91010883D01*
X56116079Y-90991670D01*
X56103782Y-90971153D01*
X56093554Y-90949529D01*
X56085496Y-90927007D01*
X56079684Y-90903803D01*
X56076174Y-90880142D01*
X56075000Y-90856250D01*
X56075000Y-89943750D01*
X56076174Y-89919858D01*
X56079684Y-89896197D01*
X56085496Y-89872993D01*
X56093554Y-89850471D01*
X56103782Y-89828847D01*
X56116079Y-89808330D01*
X56130329Y-89789117D01*
X56146393Y-89771393D01*
X56164117Y-89755329D01*
X56183330Y-89741079D01*
X56203847Y-89728782D01*
X56225471Y-89718554D01*
X56247993Y-89710496D01*
X56271197Y-89704684D01*
X56294858Y-89701174D01*
X56318750Y-89700000D01*
X56806250Y-89700000D01*
X56830142Y-89701174D01*
X56830142Y-89701174D01*
G37*
D12*
G04 #@! TD*
G04 #@! TO.P,C2,1*
G04 #@! TO.N,GND*
X56562500Y-90400000D03*
D11*
G04 #@! TO.N,Net-(C2-Pad2)*
G04 #@! TO.C,C2*
G36*
X58705142Y-89701174D02*
X58728803Y-89704684D01*
X58752007Y-89710496D01*
X58774529Y-89718554D01*
X58796153Y-89728782D01*
X58816670Y-89741079D01*
X58835883Y-89755329D01*
X58853607Y-89771393D01*
X58869671Y-89789117D01*
X58883921Y-89808330D01*
X58896218Y-89828847D01*
X58906446Y-89850471D01*
X58914504Y-89872993D01*
X58920316Y-89896197D01*
X58923826Y-89919858D01*
X58925000Y-89943750D01*
X58925000Y-90856250D01*
X58923826Y-90880142D01*
X58920316Y-90903803D01*
X58914504Y-90927007D01*
X58906446Y-90949529D01*
X58896218Y-90971153D01*
X58883921Y-90991670D01*
X58869671Y-91010883D01*
X58853607Y-91028607D01*
X58835883Y-91044671D01*
X58816670Y-91058921D01*
X58796153Y-91071218D01*
X58774529Y-91081446D01*
X58752007Y-91089504D01*
X58728803Y-91095316D01*
X58705142Y-91098826D01*
X58681250Y-91100000D01*
X58193750Y-91100000D01*
X58169858Y-91098826D01*
X58146197Y-91095316D01*
X58122993Y-91089504D01*
X58100471Y-91081446D01*
X58078847Y-91071218D01*
X58058330Y-91058921D01*
X58039117Y-91044671D01*
X58021393Y-91028607D01*
X58005329Y-91010883D01*
X57991079Y-90991670D01*
X57978782Y-90971153D01*
X57968554Y-90949529D01*
X57960496Y-90927007D01*
X57954684Y-90903803D01*
X57951174Y-90880142D01*
X57950000Y-90856250D01*
X57950000Y-89943750D01*
X57951174Y-89919858D01*
X57954684Y-89896197D01*
X57960496Y-89872993D01*
X57968554Y-89850471D01*
X57978782Y-89828847D01*
X57991079Y-89808330D01*
X58005329Y-89789117D01*
X58021393Y-89771393D01*
X58039117Y-89755329D01*
X58058330Y-89741079D01*
X58078847Y-89728782D01*
X58100471Y-89718554D01*
X58122993Y-89710496D01*
X58146197Y-89704684D01*
X58169858Y-89701174D01*
X58193750Y-89700000D01*
X58681250Y-89700000D01*
X58705142Y-89701174D01*
X58705142Y-89701174D01*
G37*
D12*
G04 #@! TD*
G04 #@! TO.P,C2,2*
G04 #@! TO.N,Net-(C2-Pad2)*
X58437500Y-90400000D03*
D13*
G04 #@! TO.P,D1,2*
G04 #@! TO.N,FIX*
X87600000Y-88410000D03*
D14*
G04 #@! TO.P,D1,1*
G04 #@! TO.N,Net-(D1-Pad1)*
X87600000Y-90950000D03*
G04 #@! TD*
G04 #@! TO.P,D2,1*
G04 #@! TO.N,Net-(D2-Pad1)*
X68750000Y-90950000D03*
D13*
G04 #@! TO.P,D2,2*
G04 #@! TO.N,STABLE*
X68750000Y-88410000D03*
G04 #@! TD*
D14*
G04 #@! TO.P,D3,1*
G04 #@! TO.N,Net-(D3-Pad1)*
X78124000Y-90964600D03*
D13*
G04 #@! TO.P,D3,2*
G04 #@! TO.N,REC*
X78124000Y-88424600D03*
G04 #@! TD*
D15*
G04 #@! TO.P,J1,1*
G04 #@! TO.N,Net-(J1-Pad1)*
X86800000Y-79130000D03*
D16*
G04 #@! TO.P,J1,2*
G04 #@! TO.N,GND*
X84260000Y-79130000D03*
G04 #@! TO.P,J1,3*
G04 #@! TO.N,3V3*
X81720000Y-79130000D03*
G04 #@! TO.P,J1,4*
G04 #@! TO.N,SCK*
X79180000Y-79130000D03*
G04 #@! TO.P,J1,5*
G04 #@! TO.N,MISO*
X76640000Y-79130000D03*
G04 #@! TO.P,J1,6*
G04 #@! TO.N,MOSI*
X74100000Y-79130000D03*
G04 #@! TO.P,J1,7*
G04 #@! TO.N,CS*
X71560000Y-79130000D03*
G04 #@! TO.P,J1,8*
G04 #@! TO.N,Net-(J1-Pad8)*
X69020000Y-79130000D03*
G04 #@! TD*
D15*
G04 #@! TO.P,J3,1*
G04 #@! TO.N,TXD*
X60850000Y-106150000D03*
D16*
G04 #@! TO.P,J3,2*
G04 #@! TO.N,RXD*
X58310000Y-106150000D03*
G04 #@! TD*
D11*
G04 #@! TO.N,3V3*
G04 #@! TO.C,R1*
G36*
X89780142Y-54176174D02*
X89803803Y-54179684D01*
X89827007Y-54185496D01*
X89849529Y-54193554D01*
X89871153Y-54203782D01*
X89891670Y-54216079D01*
X89910883Y-54230329D01*
X89928607Y-54246393D01*
X89944671Y-54264117D01*
X89958921Y-54283330D01*
X89971218Y-54303847D01*
X89981446Y-54325471D01*
X89989504Y-54347993D01*
X89995316Y-54371197D01*
X89998826Y-54394858D01*
X90000000Y-54418750D01*
X90000000Y-54906250D01*
X89998826Y-54930142D01*
X89995316Y-54953803D01*
X89989504Y-54977007D01*
X89981446Y-54999529D01*
X89971218Y-55021153D01*
X89958921Y-55041670D01*
X89944671Y-55060883D01*
X89928607Y-55078607D01*
X89910883Y-55094671D01*
X89891670Y-55108921D01*
X89871153Y-55121218D01*
X89849529Y-55131446D01*
X89827007Y-55139504D01*
X89803803Y-55145316D01*
X89780142Y-55148826D01*
X89756250Y-55150000D01*
X88843750Y-55150000D01*
X88819858Y-55148826D01*
X88796197Y-55145316D01*
X88772993Y-55139504D01*
X88750471Y-55131446D01*
X88728847Y-55121218D01*
X88708330Y-55108921D01*
X88689117Y-55094671D01*
X88671393Y-55078607D01*
X88655329Y-55060883D01*
X88641079Y-55041670D01*
X88628782Y-55021153D01*
X88618554Y-54999529D01*
X88610496Y-54977007D01*
X88604684Y-54953803D01*
X88601174Y-54930142D01*
X88600000Y-54906250D01*
X88600000Y-54418750D01*
X88601174Y-54394858D01*
X88604684Y-54371197D01*
X88610496Y-54347993D01*
X88618554Y-54325471D01*
X88628782Y-54303847D01*
X88641079Y-54283330D01*
X88655329Y-54264117D01*
X88671393Y-54246393D01*
X88689117Y-54230329D01*
X88708330Y-54216079D01*
X88728847Y-54203782D01*
X88750471Y-54193554D01*
X88772993Y-54185496D01*
X88796197Y-54179684D01*
X88819858Y-54176174D01*
X88843750Y-54175000D01*
X89756250Y-54175000D01*
X89780142Y-54176174D01*
X89780142Y-54176174D01*
G37*
D12*
G04 #@! TD*
G04 #@! TO.P,R1,1*
G04 #@! TO.N,3V3*
X89300000Y-54662500D03*
D11*
G04 #@! TO.N,Net-(R1-Pad2)*
G04 #@! TO.C,R1*
G36*
X89780142Y-56051174D02*
X89803803Y-56054684D01*
X89827007Y-56060496D01*
X89849529Y-56068554D01*
X89871153Y-56078782D01*
X89891670Y-56091079D01*
X89910883Y-56105329D01*
X89928607Y-56121393D01*
X89944671Y-56139117D01*
X89958921Y-56158330D01*
X89971218Y-56178847D01*
X89981446Y-56200471D01*
X89989504Y-56222993D01*
X89995316Y-56246197D01*
X89998826Y-56269858D01*
X90000000Y-56293750D01*
X90000000Y-56781250D01*
X89998826Y-56805142D01*
X89995316Y-56828803D01*
X89989504Y-56852007D01*
X89981446Y-56874529D01*
X89971218Y-56896153D01*
X89958921Y-56916670D01*
X89944671Y-56935883D01*
X89928607Y-56953607D01*
X89910883Y-56969671D01*
X89891670Y-56983921D01*
X89871153Y-56996218D01*
X89849529Y-57006446D01*
X89827007Y-57014504D01*
X89803803Y-57020316D01*
X89780142Y-57023826D01*
X89756250Y-57025000D01*
X88843750Y-57025000D01*
X88819858Y-57023826D01*
X88796197Y-57020316D01*
X88772993Y-57014504D01*
X88750471Y-57006446D01*
X88728847Y-56996218D01*
X88708330Y-56983921D01*
X88689117Y-56969671D01*
X88671393Y-56953607D01*
X88655329Y-56935883D01*
X88641079Y-56916670D01*
X88628782Y-56896153D01*
X88618554Y-56874529D01*
X88610496Y-56852007D01*
X88604684Y-56828803D01*
X88601174Y-56805142D01*
X88600000Y-56781250D01*
X88600000Y-56293750D01*
X88601174Y-56269858D01*
X88604684Y-56246197D01*
X88610496Y-56222993D01*
X88618554Y-56200471D01*
X88628782Y-56178847D01*
X88641079Y-56158330D01*
X88655329Y-56139117D01*
X88671393Y-56121393D01*
X88689117Y-56105329D01*
X88708330Y-56091079D01*
X88728847Y-56078782D01*
X88750471Y-56068554D01*
X88772993Y-56060496D01*
X88796197Y-56054684D01*
X88819858Y-56051174D01*
X88843750Y-56050000D01*
X89756250Y-56050000D01*
X89780142Y-56051174D01*
X89780142Y-56051174D01*
G37*
D12*
G04 #@! TD*
G04 #@! TO.P,R1,2*
G04 #@! TO.N,Net-(R1-Pad2)*
X89300000Y-56537500D03*
D11*
G04 #@! TO.N,GND*
G04 #@! TO.C,R2*
G36*
X88080142Y-94701174D02*
X88103803Y-94704684D01*
X88127007Y-94710496D01*
X88149529Y-94718554D01*
X88171153Y-94728782D01*
X88191670Y-94741079D01*
X88210883Y-94755329D01*
X88228607Y-94771393D01*
X88244671Y-94789117D01*
X88258921Y-94808330D01*
X88271218Y-94828847D01*
X88281446Y-94850471D01*
X88289504Y-94872993D01*
X88295316Y-94896197D01*
X88298826Y-94919858D01*
X88300000Y-94943750D01*
X88300000Y-95431250D01*
X88298826Y-95455142D01*
X88295316Y-95478803D01*
X88289504Y-95502007D01*
X88281446Y-95524529D01*
X88271218Y-95546153D01*
X88258921Y-95566670D01*
X88244671Y-95585883D01*
X88228607Y-95603607D01*
X88210883Y-95619671D01*
X88191670Y-95633921D01*
X88171153Y-95646218D01*
X88149529Y-95656446D01*
X88127007Y-95664504D01*
X88103803Y-95670316D01*
X88080142Y-95673826D01*
X88056250Y-95675000D01*
X87143750Y-95675000D01*
X87119858Y-95673826D01*
X87096197Y-95670316D01*
X87072993Y-95664504D01*
X87050471Y-95656446D01*
X87028847Y-95646218D01*
X87008330Y-95633921D01*
X86989117Y-95619671D01*
X86971393Y-95603607D01*
X86955329Y-95585883D01*
X86941079Y-95566670D01*
X86928782Y-95546153D01*
X86918554Y-95524529D01*
X86910496Y-95502007D01*
X86904684Y-95478803D01*
X86901174Y-95455142D01*
X86900000Y-95431250D01*
X86900000Y-94943750D01*
X86901174Y-94919858D01*
X86904684Y-94896197D01*
X86910496Y-94872993D01*
X86918554Y-94850471D01*
X86928782Y-94828847D01*
X86941079Y-94808330D01*
X86955329Y-94789117D01*
X86971393Y-94771393D01*
X86989117Y-94755329D01*
X87008330Y-94741079D01*
X87028847Y-94728782D01*
X87050471Y-94718554D01*
X87072993Y-94710496D01*
X87096197Y-94704684D01*
X87119858Y-94701174D01*
X87143750Y-94700000D01*
X88056250Y-94700000D01*
X88080142Y-94701174D01*
X88080142Y-94701174D01*
G37*
D12*
G04 #@! TD*
G04 #@! TO.P,R2,1*
G04 #@! TO.N,GND*
X87600000Y-95187500D03*
D11*
G04 #@! TO.N,Net-(D1-Pad1)*
G04 #@! TO.C,R2*
G36*
X88080142Y-92826174D02*
X88103803Y-92829684D01*
X88127007Y-92835496D01*
X88149529Y-92843554D01*
X88171153Y-92853782D01*
X88191670Y-92866079D01*
X88210883Y-92880329D01*
X88228607Y-92896393D01*
X88244671Y-92914117D01*
X88258921Y-92933330D01*
X88271218Y-92953847D01*
X88281446Y-92975471D01*
X88289504Y-92997993D01*
X88295316Y-93021197D01*
X88298826Y-93044858D01*
X88300000Y-93068750D01*
X88300000Y-93556250D01*
X88298826Y-93580142D01*
X88295316Y-93603803D01*
X88289504Y-93627007D01*
X88281446Y-93649529D01*
X88271218Y-93671153D01*
X88258921Y-93691670D01*
X88244671Y-93710883D01*
X88228607Y-93728607D01*
X88210883Y-93744671D01*
X88191670Y-93758921D01*
X88171153Y-93771218D01*
X88149529Y-93781446D01*
X88127007Y-93789504D01*
X88103803Y-93795316D01*
X88080142Y-93798826D01*
X88056250Y-93800000D01*
X87143750Y-93800000D01*
X87119858Y-93798826D01*
X87096197Y-93795316D01*
X87072993Y-93789504D01*
X87050471Y-93781446D01*
X87028847Y-93771218D01*
X87008330Y-93758921D01*
X86989117Y-93744671D01*
X86971393Y-93728607D01*
X86955329Y-93710883D01*
X86941079Y-93691670D01*
X86928782Y-93671153D01*
X86918554Y-93649529D01*
X86910496Y-93627007D01*
X86904684Y-93603803D01*
X86901174Y-93580142D01*
X86900000Y-93556250D01*
X86900000Y-93068750D01*
X86901174Y-93044858D01*
X86904684Y-93021197D01*
X86910496Y-92997993D01*
X86918554Y-92975471D01*
X86928782Y-92953847D01*
X86941079Y-92933330D01*
X86955329Y-92914117D01*
X86971393Y-92896393D01*
X86989117Y-92880329D01*
X87008330Y-92866079D01*
X87028847Y-92853782D01*
X87050471Y-92843554D01*
X87072993Y-92835496D01*
X87096197Y-92829684D01*
X87119858Y-92826174D01*
X87143750Y-92825000D01*
X88056250Y-92825000D01*
X88080142Y-92826174D01*
X88080142Y-92826174D01*
G37*
D12*
G04 #@! TD*
G04 #@! TO.P,R2,2*
G04 #@! TO.N,Net-(D1-Pad1)*
X87600000Y-93312500D03*
D11*
G04 #@! TO.N,Net-(D2-Pad1)*
G04 #@! TO.C,R3*
G36*
X69230142Y-92826174D02*
X69253803Y-92829684D01*
X69277007Y-92835496D01*
X69299529Y-92843554D01*
X69321153Y-92853782D01*
X69341670Y-92866079D01*
X69360883Y-92880329D01*
X69378607Y-92896393D01*
X69394671Y-92914117D01*
X69408921Y-92933330D01*
X69421218Y-92953847D01*
X69431446Y-92975471D01*
X69439504Y-92997993D01*
X69445316Y-93021197D01*
X69448826Y-93044858D01*
X69450000Y-93068750D01*
X69450000Y-93556250D01*
X69448826Y-93580142D01*
X69445316Y-93603803D01*
X69439504Y-93627007D01*
X69431446Y-93649529D01*
X69421218Y-93671153D01*
X69408921Y-93691670D01*
X69394671Y-93710883D01*
X69378607Y-93728607D01*
X69360883Y-93744671D01*
X69341670Y-93758921D01*
X69321153Y-93771218D01*
X69299529Y-93781446D01*
X69277007Y-93789504D01*
X69253803Y-93795316D01*
X69230142Y-93798826D01*
X69206250Y-93800000D01*
X68293750Y-93800000D01*
X68269858Y-93798826D01*
X68246197Y-93795316D01*
X68222993Y-93789504D01*
X68200471Y-93781446D01*
X68178847Y-93771218D01*
X68158330Y-93758921D01*
X68139117Y-93744671D01*
X68121393Y-93728607D01*
X68105329Y-93710883D01*
X68091079Y-93691670D01*
X68078782Y-93671153D01*
X68068554Y-93649529D01*
X68060496Y-93627007D01*
X68054684Y-93603803D01*
X68051174Y-93580142D01*
X68050000Y-93556250D01*
X68050000Y-93068750D01*
X68051174Y-93044858D01*
X68054684Y-93021197D01*
X68060496Y-92997993D01*
X68068554Y-92975471D01*
X68078782Y-92953847D01*
X68091079Y-92933330D01*
X68105329Y-92914117D01*
X68121393Y-92896393D01*
X68139117Y-92880329D01*
X68158330Y-92866079D01*
X68178847Y-92853782D01*
X68200471Y-92843554D01*
X68222993Y-92835496D01*
X68246197Y-92829684D01*
X68269858Y-92826174D01*
X68293750Y-92825000D01*
X69206250Y-92825000D01*
X69230142Y-92826174D01*
X69230142Y-92826174D01*
G37*
D12*
G04 #@! TD*
G04 #@! TO.P,R3,2*
G04 #@! TO.N,Net-(D2-Pad1)*
X68750000Y-93312500D03*
D11*
G04 #@! TO.N,GND*
G04 #@! TO.C,R3*
G36*
X69230142Y-94701174D02*
X69253803Y-94704684D01*
X69277007Y-94710496D01*
X69299529Y-94718554D01*
X69321153Y-94728782D01*
X69341670Y-94741079D01*
X69360883Y-94755329D01*
X69378607Y-94771393D01*
X69394671Y-94789117D01*
X69408921Y-94808330D01*
X69421218Y-94828847D01*
X69431446Y-94850471D01*
X69439504Y-94872993D01*
X69445316Y-94896197D01*
X69448826Y-94919858D01*
X69450000Y-94943750D01*
X69450000Y-95431250D01*
X69448826Y-95455142D01*
X69445316Y-95478803D01*
X69439504Y-95502007D01*
X69431446Y-95524529D01*
X69421218Y-95546153D01*
X69408921Y-95566670D01*
X69394671Y-95585883D01*
X69378607Y-95603607D01*
X69360883Y-95619671D01*
X69341670Y-95633921D01*
X69321153Y-95646218D01*
X69299529Y-95656446D01*
X69277007Y-95664504D01*
X69253803Y-95670316D01*
X69230142Y-95673826D01*
X69206250Y-95675000D01*
X68293750Y-95675000D01*
X68269858Y-95673826D01*
X68246197Y-95670316D01*
X68222993Y-95664504D01*
X68200471Y-95656446D01*
X68178847Y-95646218D01*
X68158330Y-95633921D01*
X68139117Y-95619671D01*
X68121393Y-95603607D01*
X68105329Y-95585883D01*
X68091079Y-95566670D01*
X68078782Y-95546153D01*
X68068554Y-95524529D01*
X68060496Y-95502007D01*
X68054684Y-95478803D01*
X68051174Y-95455142D01*
X68050000Y-95431250D01*
X68050000Y-94943750D01*
X68051174Y-94919858D01*
X68054684Y-94896197D01*
X68060496Y-94872993D01*
X68068554Y-94850471D01*
X68078782Y-94828847D01*
X68091079Y-94808330D01*
X68105329Y-94789117D01*
X68121393Y-94771393D01*
X68139117Y-94755329D01*
X68158330Y-94741079D01*
X68178847Y-94728782D01*
X68200471Y-94718554D01*
X68222993Y-94710496D01*
X68246197Y-94704684D01*
X68269858Y-94701174D01*
X68293750Y-94700000D01*
X69206250Y-94700000D01*
X69230142Y-94701174D01*
X69230142Y-94701174D01*
G37*
D12*
G04 #@! TD*
G04 #@! TO.P,R3,1*
G04 #@! TO.N,GND*
X68750000Y-95187500D03*
D11*
G04 #@! TO.N,GND*
G04 #@! TO.C,R4*
G36*
X78580142Y-94751174D02*
X78603803Y-94754684D01*
X78627007Y-94760496D01*
X78649529Y-94768554D01*
X78671153Y-94778782D01*
X78691670Y-94791079D01*
X78710883Y-94805329D01*
X78728607Y-94821393D01*
X78744671Y-94839117D01*
X78758921Y-94858330D01*
X78771218Y-94878847D01*
X78781446Y-94900471D01*
X78789504Y-94922993D01*
X78795316Y-94946197D01*
X78798826Y-94969858D01*
X78800000Y-94993750D01*
X78800000Y-95481250D01*
X78798826Y-95505142D01*
X78795316Y-95528803D01*
X78789504Y-95552007D01*
X78781446Y-95574529D01*
X78771218Y-95596153D01*
X78758921Y-95616670D01*
X78744671Y-95635883D01*
X78728607Y-95653607D01*
X78710883Y-95669671D01*
X78691670Y-95683921D01*
X78671153Y-95696218D01*
X78649529Y-95706446D01*
X78627007Y-95714504D01*
X78603803Y-95720316D01*
X78580142Y-95723826D01*
X78556250Y-95725000D01*
X77643750Y-95725000D01*
X77619858Y-95723826D01*
X77596197Y-95720316D01*
X77572993Y-95714504D01*
X77550471Y-95706446D01*
X77528847Y-95696218D01*
X77508330Y-95683921D01*
X77489117Y-95669671D01*
X77471393Y-95653607D01*
X77455329Y-95635883D01*
X77441079Y-95616670D01*
X77428782Y-95596153D01*
X77418554Y-95574529D01*
X77410496Y-95552007D01*
X77404684Y-95528803D01*
X77401174Y-95505142D01*
X77400000Y-95481250D01*
X77400000Y-94993750D01*
X77401174Y-94969858D01*
X77404684Y-94946197D01*
X77410496Y-94922993D01*
X77418554Y-94900471D01*
X77428782Y-94878847D01*
X77441079Y-94858330D01*
X77455329Y-94839117D01*
X77471393Y-94821393D01*
X77489117Y-94805329D01*
X77508330Y-94791079D01*
X77528847Y-94778782D01*
X77550471Y-94768554D01*
X77572993Y-94760496D01*
X77596197Y-94754684D01*
X77619858Y-94751174D01*
X77643750Y-94750000D01*
X78556250Y-94750000D01*
X78580142Y-94751174D01*
X78580142Y-94751174D01*
G37*
D12*
G04 #@! TD*
G04 #@! TO.P,R4,1*
G04 #@! TO.N,GND*
X78100000Y-95237500D03*
D11*
G04 #@! TO.N,Net-(D3-Pad1)*
G04 #@! TO.C,R4*
G36*
X78580142Y-92876174D02*
X78603803Y-92879684D01*
X78627007Y-92885496D01*
X78649529Y-92893554D01*
X78671153Y-92903782D01*
X78691670Y-92916079D01*
X78710883Y-92930329D01*
X78728607Y-92946393D01*
X78744671Y-92964117D01*
X78758921Y-92983330D01*
X78771218Y-93003847D01*
X78781446Y-93025471D01*
X78789504Y-93047993D01*
X78795316Y-93071197D01*
X78798826Y-93094858D01*
X78800000Y-93118750D01*
X78800000Y-93606250D01*
X78798826Y-93630142D01*
X78795316Y-93653803D01*
X78789504Y-93677007D01*
X78781446Y-93699529D01*
X78771218Y-93721153D01*
X78758921Y-93741670D01*
X78744671Y-93760883D01*
X78728607Y-93778607D01*
X78710883Y-93794671D01*
X78691670Y-93808921D01*
X78671153Y-93821218D01*
X78649529Y-93831446D01*
X78627007Y-93839504D01*
X78603803Y-93845316D01*
X78580142Y-93848826D01*
X78556250Y-93850000D01*
X77643750Y-93850000D01*
X77619858Y-93848826D01*
X77596197Y-93845316D01*
X77572993Y-93839504D01*
X77550471Y-93831446D01*
X77528847Y-93821218D01*
X77508330Y-93808921D01*
X77489117Y-93794671D01*
X77471393Y-93778607D01*
X77455329Y-93760883D01*
X77441079Y-93741670D01*
X77428782Y-93721153D01*
X77418554Y-93699529D01*
X77410496Y-93677007D01*
X77404684Y-93653803D01*
X77401174Y-93630142D01*
X77400000Y-93606250D01*
X77400000Y-93118750D01*
X77401174Y-93094858D01*
X77404684Y-93071197D01*
X77410496Y-93047993D01*
X77418554Y-93025471D01*
X77428782Y-93003847D01*
X77441079Y-92983330D01*
X77455329Y-92964117D01*
X77471393Y-92946393D01*
X77489117Y-92930329D01*
X77508330Y-92916079D01*
X77528847Y-92903782D01*
X77550471Y-92893554D01*
X77572993Y-92885496D01*
X77596197Y-92879684D01*
X77619858Y-92876174D01*
X77643750Y-92875000D01*
X78556250Y-92875000D01*
X78580142Y-92876174D01*
X78580142Y-92876174D01*
G37*
D12*
G04 #@! TD*
G04 #@! TO.P,R4,2*
G04 #@! TO.N,Net-(D3-Pad1)*
X78100000Y-93362500D03*
D17*
G04 #@! TO.P,U1,1*
G04 #@! TO.N,+9V*
X93814000Y-100050000D03*
G04 #@! TO.P,U1,2*
G04 #@! TO.N,GND*
X93814000Y-99100000D03*
G04 #@! TO.P,U1,3*
G04 #@! TO.N,+9V*
X93814000Y-98150000D03*
G04 #@! TO.P,U1,4*
G04 #@! TO.N,Net-(R5-Pad2)*
X91194000Y-98150000D03*
G04 #@! TO.P,U1,5*
G04 #@! TO.N,3V3*
X91194000Y-100050000D03*
G04 #@! TD*
D18*
G04 #@! TO.P,U4,1*
G04 #@! TO.N,Net-(U4-Pad1)*
X85250000Y-61800000D03*
G04 #@! TO.P,U4,2*
G04 #@! TO.N,Net-(U4-Pad2)*
X85250000Y-62600000D03*
G04 #@! TO.P,U4,3*
G04 #@! TO.N,Net-(U4-Pad3)*
X85250000Y-63400000D03*
G04 #@! TO.P,U4,4*
G04 #@! TO.N,3V3*
X85250000Y-64200000D03*
G04 #@! TO.P,U4,5*
G04 #@! TO.N,GND*
X85250000Y-65000000D03*
G04 #@! TO.P,U4,6*
G04 #@! TO.N,Net-(U4-Pad6)*
X85250000Y-65800000D03*
G04 #@! TO.P,U4,7*
G04 #@! TO.N,Net-(C1-Pad2)*
X85250000Y-66600000D03*
G04 #@! TO.P,U4,8*
G04 #@! TO.N,Net-(C2-Pad2)*
X85250000Y-67400000D03*
D19*
G04 #@! TO.P,U4,9*
G04 #@! TO.N,Net-(U4-Pad9)*
X86700000Y-68850000D03*
G04 #@! TO.P,U4,10*
G04 #@! TO.N,Net-(J4-Pad1)*
X87500000Y-68850000D03*
G04 #@! TO.P,U4,11*
G04 #@! TO.N,Net-(U4-Pad11)*
X88300000Y-68850000D03*
G04 #@! TO.P,U4,12*
G04 #@! TO.N,Net-(U4-Pad12)*
X89100000Y-68850000D03*
G04 #@! TO.P,U4,13*
G04 #@! TO.N,Net-(U4-Pad13)*
X89900000Y-68850000D03*
G04 #@! TO.P,U4,14*
G04 #@! TO.N,CS*
X90700000Y-68850000D03*
G04 #@! TO.P,U4,15*
G04 #@! TO.N,MOSI*
X91500000Y-68850000D03*
G04 #@! TO.P,U4,16*
G04 #@! TO.N,MISO*
X92300000Y-68850000D03*
D18*
G04 #@! TO.P,U4,17*
G04 #@! TO.N,SCK*
X93750000Y-67400000D03*
G04 #@! TO.P,U4,18*
G04 #@! TO.N,3V3*
X93750000Y-66600000D03*
G04 #@! TO.P,U4,19*
G04 #@! TO.N,Net-(U4-Pad19)*
X93750000Y-65800000D03*
G04 #@! TO.P,U4,20*
G04 #@! TO.N,Net-(U4-Pad20)*
X93750000Y-65000000D03*
G04 #@! TO.P,U4,21*
G04 #@! TO.N,GND*
X93750000Y-64200000D03*
G04 #@! TO.P,U4,22*
G04 #@! TO.N,Net-(U4-Pad22)*
X93750000Y-63400000D03*
G04 #@! TO.P,U4,23*
G04 #@! TO.N,STABLE*
X93750000Y-62600000D03*
G04 #@! TO.P,U4,24*
G04 #@! TO.N,REC*
X93750000Y-61800000D03*
D19*
G04 #@! TO.P,U4,25*
G04 #@! TO.N,Net-(U4-Pad25)*
X92300000Y-60350000D03*
G04 #@! TO.P,U4,26*
G04 #@! TO.N,Net-(U4-Pad26)*
X91500000Y-60350000D03*
G04 #@! TO.P,U4,27*
G04 #@! TO.N,SDA*
X90700000Y-60350000D03*
G04 #@! TO.P,U4,28*
G04 #@! TO.N,SCL*
X89900000Y-60350000D03*
G04 #@! TO.P,U4,29*
G04 #@! TO.N,Net-(R1-Pad2)*
X89100000Y-60350000D03*
G04 #@! TO.P,U4,30*
G04 #@! TO.N,RXD*
X88300000Y-60350000D03*
G04 #@! TO.P,U4,31*
G04 #@! TO.N,TXD*
X87500000Y-60350000D03*
G04 #@! TO.P,U4,32*
G04 #@! TO.N,Net-(U4-Pad32)*
X86700000Y-60350000D03*
G04 #@! TD*
D20*
G04 #@! TO.P,Y1,1*
G04 #@! TO.N,Net-(C2-Pad2)*
X62200000Y-90400000D03*
G04 #@! TO.P,Y1,2*
G04 #@! TO.N,Net-(C1-Pad2)*
X62200000Y-85520000D03*
G04 #@! TD*
D10*
G04 #@! TO.P,BL,1*
G04 #@! TO.N,N/C*
X52200000Y-103000000D03*
G04 #@! TD*
D15*
G04 #@! TO.P,J2,1*
G04 #@! TO.N,Net-(J2-Pad1)*
X99300000Y-49600000D03*
D16*
G04 #@! TO.P,J2,2*
G04 #@! TO.N,Net-(J2-Pad2)*
X96760000Y-49600000D03*
G04 #@! TO.P,J2,3*
G04 #@! TO.N,SDA*
X94220000Y-49600000D03*
G04 #@! TO.P,J2,4*
G04 #@! TO.N,SCL*
X91680000Y-49600000D03*
G04 #@! TO.P,J2,5*
G04 #@! TO.N,3V3*
X89140000Y-49600000D03*
G04 #@! TO.P,J2,6*
G04 #@! TO.N,GND*
X86600000Y-49600000D03*
G04 #@! TO.P,J2,7*
G04 #@! TO.N,Net-(J2-Pad7)*
X84060000Y-49600000D03*
G04 #@! TO.P,J2,8*
G04 #@! TO.N,3V3*
X81520000Y-49600000D03*
G04 #@! TO.P,J2,9*
G04 #@! TO.N,Net-(J2-Pad9)*
X78980000Y-49600000D03*
G04 #@! TO.P,J2,10*
G04 #@! TO.N,Net-(J2-Pad10)*
X76440000Y-49600000D03*
G04 #@! TO.P,J2,11*
G04 #@! TO.N,FIX*
X73900000Y-49600000D03*
G04 #@! TO.P,J2,12*
G04 #@! TO.N,TXD*
X71360000Y-49600000D03*
G04 #@! TO.P,J2,13*
G04 #@! TO.N,RXD*
X68820000Y-49600000D03*
G04 #@! TO.P,J2,14*
G04 #@! TO.N,Net-(J2-Pad14)*
X66280000Y-49600000D03*
G04 #@! TO.P,J2,15*
G04 #@! TO.N,Net-(J2-Pad15)*
X63740000Y-49600000D03*
G04 #@! TO.P,J2,16*
G04 #@! TO.N,Net-(J2-Pad16)*
X61200000Y-49600000D03*
G04 #@! TD*
G04 #@! TO.P,J4,2*
G04 #@! TO.N,3V3*
X79060000Y-72500000D03*
D15*
G04 #@! TO.P,J4,1*
G04 #@! TO.N,Net-(J4-Pad1)*
X81600000Y-72500000D03*
G04 #@! TD*
D11*
G04 #@! TO.N,Net-(R5-Pad2)*
G04 #@! TO.C,R5*
G36*
X85580142Y-101676174D02*
X85603803Y-101679684D01*
X85627007Y-101685496D01*
X85649529Y-101693554D01*
X85671153Y-101703782D01*
X85691670Y-101716079D01*
X85710883Y-101730329D01*
X85728607Y-101746393D01*
X85744671Y-101764117D01*
X85758921Y-101783330D01*
X85771218Y-101803847D01*
X85781446Y-101825471D01*
X85789504Y-101847993D01*
X85795316Y-101871197D01*
X85798826Y-101894858D01*
X85800000Y-101918750D01*
X85800000Y-102406250D01*
X85798826Y-102430142D01*
X85795316Y-102453803D01*
X85789504Y-102477007D01*
X85781446Y-102499529D01*
X85771218Y-102521153D01*
X85758921Y-102541670D01*
X85744671Y-102560883D01*
X85728607Y-102578607D01*
X85710883Y-102594671D01*
X85691670Y-102608921D01*
X85671153Y-102621218D01*
X85649529Y-102631446D01*
X85627007Y-102639504D01*
X85603803Y-102645316D01*
X85580142Y-102648826D01*
X85556250Y-102650000D01*
X84643750Y-102650000D01*
X84619858Y-102648826D01*
X84596197Y-102645316D01*
X84572993Y-102639504D01*
X84550471Y-102631446D01*
X84528847Y-102621218D01*
X84508330Y-102608921D01*
X84489117Y-102594671D01*
X84471393Y-102578607D01*
X84455329Y-102560883D01*
X84441079Y-102541670D01*
X84428782Y-102521153D01*
X84418554Y-102499529D01*
X84410496Y-102477007D01*
X84404684Y-102453803D01*
X84401174Y-102430142D01*
X84400000Y-102406250D01*
X84400000Y-101918750D01*
X84401174Y-101894858D01*
X84404684Y-101871197D01*
X84410496Y-101847993D01*
X84418554Y-101825471D01*
X84428782Y-101803847D01*
X84441079Y-101783330D01*
X84455329Y-101764117D01*
X84471393Y-101746393D01*
X84489117Y-101730329D01*
X84508330Y-101716079D01*
X84528847Y-101703782D01*
X84550471Y-101693554D01*
X84572993Y-101685496D01*
X84596197Y-101679684D01*
X84619858Y-101676174D01*
X84643750Y-101675000D01*
X85556250Y-101675000D01*
X85580142Y-101676174D01*
X85580142Y-101676174D01*
G37*
D12*
G04 #@! TD*
G04 #@! TO.P,R5,2*
G04 #@! TO.N,Net-(R5-Pad2)*
X85100000Y-102162500D03*
D11*
G04 #@! TO.N,3V3*
G04 #@! TO.C,R5*
G36*
X85580142Y-103551174D02*
X85603803Y-103554684D01*
X85627007Y-103560496D01*
X85649529Y-103568554D01*
X85671153Y-103578782D01*
X85691670Y-103591079D01*
X85710883Y-103605329D01*
X85728607Y-103621393D01*
X85744671Y-103639117D01*
X85758921Y-103658330D01*
X85771218Y-103678847D01*
X85781446Y-103700471D01*
X85789504Y-103722993D01*
X85795316Y-103746197D01*
X85798826Y-103769858D01*
X85800000Y-103793750D01*
X85800000Y-104281250D01*
X85798826Y-104305142D01*
X85795316Y-104328803D01*
X85789504Y-104352007D01*
X85781446Y-104374529D01*
X85771218Y-104396153D01*
X85758921Y-104416670D01*
X85744671Y-104435883D01*
X85728607Y-104453607D01*
X85710883Y-104469671D01*
X85691670Y-104483921D01*
X85671153Y-104496218D01*
X85649529Y-104506446D01*
X85627007Y-104514504D01*
X85603803Y-104520316D01*
X85580142Y-104523826D01*
X85556250Y-104525000D01*
X84643750Y-104525000D01*
X84619858Y-104523826D01*
X84596197Y-104520316D01*
X84572993Y-104514504D01*
X84550471Y-104506446D01*
X84528847Y-104496218D01*
X84508330Y-104483921D01*
X84489117Y-104469671D01*
X84471393Y-104453607D01*
X84455329Y-104435883D01*
X84441079Y-104416670D01*
X84428782Y-104396153D01*
X84418554Y-104374529D01*
X84410496Y-104352007D01*
X84404684Y-104328803D01*
X84401174Y-104305142D01*
X84400000Y-104281250D01*
X84400000Y-103793750D01*
X84401174Y-103769858D01*
X84404684Y-103746197D01*
X84410496Y-103722993D01*
X84418554Y-103700471D01*
X84428782Y-103678847D01*
X84441079Y-103658330D01*
X84455329Y-103639117D01*
X84471393Y-103621393D01*
X84489117Y-103605329D01*
X84508330Y-103591079D01*
X84528847Y-103578782D01*
X84550471Y-103568554D01*
X84572993Y-103560496D01*
X84596197Y-103554684D01*
X84619858Y-103551174D01*
X84643750Y-103550000D01*
X85556250Y-103550000D01*
X85580142Y-103551174D01*
X85580142Y-103551174D01*
G37*
D12*
G04 #@! TD*
G04 #@! TO.P,R5,1*
G04 #@! TO.N,3V3*
X85100000Y-104037500D03*
D11*
G04 #@! TO.N,Net-(R5-Pad2)*
G04 #@! TO.C,R6*
G36*
X85580142Y-99251174D02*
X85603803Y-99254684D01*
X85627007Y-99260496D01*
X85649529Y-99268554D01*
X85671153Y-99278782D01*
X85691670Y-99291079D01*
X85710883Y-99305329D01*
X85728607Y-99321393D01*
X85744671Y-99339117D01*
X85758921Y-99358330D01*
X85771218Y-99378847D01*
X85781446Y-99400471D01*
X85789504Y-99422993D01*
X85795316Y-99446197D01*
X85798826Y-99469858D01*
X85800000Y-99493750D01*
X85800000Y-99981250D01*
X85798826Y-100005142D01*
X85795316Y-100028803D01*
X85789504Y-100052007D01*
X85781446Y-100074529D01*
X85771218Y-100096153D01*
X85758921Y-100116670D01*
X85744671Y-100135883D01*
X85728607Y-100153607D01*
X85710883Y-100169671D01*
X85691670Y-100183921D01*
X85671153Y-100196218D01*
X85649529Y-100206446D01*
X85627007Y-100214504D01*
X85603803Y-100220316D01*
X85580142Y-100223826D01*
X85556250Y-100225000D01*
X84643750Y-100225000D01*
X84619858Y-100223826D01*
X84596197Y-100220316D01*
X84572993Y-100214504D01*
X84550471Y-100206446D01*
X84528847Y-100196218D01*
X84508330Y-100183921D01*
X84489117Y-100169671D01*
X84471393Y-100153607D01*
X84455329Y-100135883D01*
X84441079Y-100116670D01*
X84428782Y-100096153D01*
X84418554Y-100074529D01*
X84410496Y-100052007D01*
X84404684Y-100028803D01*
X84401174Y-100005142D01*
X84400000Y-99981250D01*
X84400000Y-99493750D01*
X84401174Y-99469858D01*
X84404684Y-99446197D01*
X84410496Y-99422993D01*
X84418554Y-99400471D01*
X84428782Y-99378847D01*
X84441079Y-99358330D01*
X84455329Y-99339117D01*
X84471393Y-99321393D01*
X84489117Y-99305329D01*
X84508330Y-99291079D01*
X84528847Y-99278782D01*
X84550471Y-99268554D01*
X84572993Y-99260496D01*
X84596197Y-99254684D01*
X84619858Y-99251174D01*
X84643750Y-99250000D01*
X85556250Y-99250000D01*
X85580142Y-99251174D01*
X85580142Y-99251174D01*
G37*
D12*
G04 #@! TD*
G04 #@! TO.P,R6,1*
G04 #@! TO.N,Net-(R5-Pad2)*
X85100000Y-99737500D03*
D11*
G04 #@! TO.N,GND*
G04 #@! TO.C,R6*
G36*
X85580142Y-97376174D02*
X85603803Y-97379684D01*
X85627007Y-97385496D01*
X85649529Y-97393554D01*
X85671153Y-97403782D01*
X85691670Y-97416079D01*
X85710883Y-97430329D01*
X85728607Y-97446393D01*
X85744671Y-97464117D01*
X85758921Y-97483330D01*
X85771218Y-97503847D01*
X85781446Y-97525471D01*
X85789504Y-97547993D01*
X85795316Y-97571197D01*
X85798826Y-97594858D01*
X85800000Y-97618750D01*
X85800000Y-98106250D01*
X85798826Y-98130142D01*
X85795316Y-98153803D01*
X85789504Y-98177007D01*
X85781446Y-98199529D01*
X85771218Y-98221153D01*
X85758921Y-98241670D01*
X85744671Y-98260883D01*
X85728607Y-98278607D01*
X85710883Y-98294671D01*
X85691670Y-98308921D01*
X85671153Y-98321218D01*
X85649529Y-98331446D01*
X85627007Y-98339504D01*
X85603803Y-98345316D01*
X85580142Y-98348826D01*
X85556250Y-98350000D01*
X84643750Y-98350000D01*
X84619858Y-98348826D01*
X84596197Y-98345316D01*
X84572993Y-98339504D01*
X84550471Y-98331446D01*
X84528847Y-98321218D01*
X84508330Y-98308921D01*
X84489117Y-98294671D01*
X84471393Y-98278607D01*
X84455329Y-98260883D01*
X84441079Y-98241670D01*
X84428782Y-98221153D01*
X84418554Y-98199529D01*
X84410496Y-98177007D01*
X84404684Y-98153803D01*
X84401174Y-98130142D01*
X84400000Y-98106250D01*
X84400000Y-97618750D01*
X84401174Y-97594858D01*
X84404684Y-97571197D01*
X84410496Y-97547993D01*
X84418554Y-97525471D01*
X84428782Y-97503847D01*
X84441079Y-97483330D01*
X84455329Y-97464117D01*
X84471393Y-97446393D01*
X84489117Y-97430329D01*
X84508330Y-97416079D01*
X84528847Y-97403782D01*
X84550471Y-97393554D01*
X84572993Y-97385496D01*
X84596197Y-97379684D01*
X84619858Y-97376174D01*
X84643750Y-97375000D01*
X85556250Y-97375000D01*
X85580142Y-97376174D01*
X85580142Y-97376174D01*
G37*
D12*
G04 #@! TD*
G04 #@! TO.P,R6,2*
G04 #@! TO.N,GND*
X85100000Y-97862500D03*
D11*
G04 #@! TO.N,3V3*
G04 #@! TO.C,C5*
G36*
X79380142Y-102451174D02*
X79403803Y-102454684D01*
X79427007Y-102460496D01*
X79449529Y-102468554D01*
X79471153Y-102478782D01*
X79491670Y-102491079D01*
X79510883Y-102505329D01*
X79528607Y-102521393D01*
X79544671Y-102539117D01*
X79558921Y-102558330D01*
X79571218Y-102578847D01*
X79581446Y-102600471D01*
X79589504Y-102622993D01*
X79595316Y-102646197D01*
X79598826Y-102669858D01*
X79600000Y-102693750D01*
X79600000Y-103181250D01*
X79598826Y-103205142D01*
X79595316Y-103228803D01*
X79589504Y-103252007D01*
X79581446Y-103274529D01*
X79571218Y-103296153D01*
X79558921Y-103316670D01*
X79544671Y-103335883D01*
X79528607Y-103353607D01*
X79510883Y-103369671D01*
X79491670Y-103383921D01*
X79471153Y-103396218D01*
X79449529Y-103406446D01*
X79427007Y-103414504D01*
X79403803Y-103420316D01*
X79380142Y-103423826D01*
X79356250Y-103425000D01*
X78443750Y-103425000D01*
X78419858Y-103423826D01*
X78396197Y-103420316D01*
X78372993Y-103414504D01*
X78350471Y-103406446D01*
X78328847Y-103396218D01*
X78308330Y-103383921D01*
X78289117Y-103369671D01*
X78271393Y-103353607D01*
X78255329Y-103335883D01*
X78241079Y-103316670D01*
X78228782Y-103296153D01*
X78218554Y-103274529D01*
X78210496Y-103252007D01*
X78204684Y-103228803D01*
X78201174Y-103205142D01*
X78200000Y-103181250D01*
X78200000Y-102693750D01*
X78201174Y-102669858D01*
X78204684Y-102646197D01*
X78210496Y-102622993D01*
X78218554Y-102600471D01*
X78228782Y-102578847D01*
X78241079Y-102558330D01*
X78255329Y-102539117D01*
X78271393Y-102521393D01*
X78289117Y-102505329D01*
X78308330Y-102491079D01*
X78328847Y-102478782D01*
X78350471Y-102468554D01*
X78372993Y-102460496D01*
X78396197Y-102454684D01*
X78419858Y-102451174D01*
X78443750Y-102450000D01*
X79356250Y-102450000D01*
X79380142Y-102451174D01*
X79380142Y-102451174D01*
G37*
D12*
G04 #@! TD*
G04 #@! TO.P,C5,1*
G04 #@! TO.N,3V3*
X78900000Y-102937500D03*
D11*
G04 #@! TO.N,Net-(C5-Pad2)*
G04 #@! TO.C,C5*
G36*
X79380142Y-100576174D02*
X79403803Y-100579684D01*
X79427007Y-100585496D01*
X79449529Y-100593554D01*
X79471153Y-100603782D01*
X79491670Y-100616079D01*
X79510883Y-100630329D01*
X79528607Y-100646393D01*
X79544671Y-100664117D01*
X79558921Y-100683330D01*
X79571218Y-100703847D01*
X79581446Y-100725471D01*
X79589504Y-100747993D01*
X79595316Y-100771197D01*
X79598826Y-100794858D01*
X79600000Y-100818750D01*
X79600000Y-101306250D01*
X79598826Y-101330142D01*
X79595316Y-101353803D01*
X79589504Y-101377007D01*
X79581446Y-101399529D01*
X79571218Y-101421153D01*
X79558921Y-101441670D01*
X79544671Y-101460883D01*
X79528607Y-101478607D01*
X79510883Y-101494671D01*
X79491670Y-101508921D01*
X79471153Y-101521218D01*
X79449529Y-101531446D01*
X79427007Y-101539504D01*
X79403803Y-101545316D01*
X79380142Y-101548826D01*
X79356250Y-101550000D01*
X78443750Y-101550000D01*
X78419858Y-101548826D01*
X78396197Y-101545316D01*
X78372993Y-101539504D01*
X78350471Y-101531446D01*
X78328847Y-101521218D01*
X78308330Y-101508921D01*
X78289117Y-101494671D01*
X78271393Y-101478607D01*
X78255329Y-101460883D01*
X78241079Y-101441670D01*
X78228782Y-101421153D01*
X78218554Y-101399529D01*
X78210496Y-101377007D01*
X78204684Y-101353803D01*
X78201174Y-101330142D01*
X78200000Y-101306250D01*
X78200000Y-100818750D01*
X78201174Y-100794858D01*
X78204684Y-100771197D01*
X78210496Y-100747993D01*
X78218554Y-100725471D01*
X78228782Y-100703847D01*
X78241079Y-100683330D01*
X78255329Y-100664117D01*
X78271393Y-100646393D01*
X78289117Y-100630329D01*
X78308330Y-100616079D01*
X78328847Y-100603782D01*
X78350471Y-100593554D01*
X78372993Y-100585496D01*
X78396197Y-100579684D01*
X78419858Y-100576174D01*
X78443750Y-100575000D01*
X79356250Y-100575000D01*
X79380142Y-100576174D01*
X79380142Y-100576174D01*
G37*
D12*
G04 #@! TD*
G04 #@! TO.P,C5,2*
G04 #@! TO.N,Net-(C5-Pad2)*
X78900000Y-101062500D03*
D11*
G04 #@! TO.N,Net-(C5-Pad2)*
G04 #@! TO.C,R7*
G36*
X81292642Y-100401174D02*
X81316303Y-100404684D01*
X81339507Y-100410496D01*
X81362029Y-100418554D01*
X81383653Y-100428782D01*
X81404170Y-100441079D01*
X81423383Y-100455329D01*
X81441107Y-100471393D01*
X81457171Y-100489117D01*
X81471421Y-100508330D01*
X81483718Y-100528847D01*
X81493946Y-100550471D01*
X81502004Y-100572993D01*
X81507816Y-100596197D01*
X81511326Y-100619858D01*
X81512500Y-100643750D01*
X81512500Y-101556250D01*
X81511326Y-101580142D01*
X81507816Y-101603803D01*
X81502004Y-101627007D01*
X81493946Y-101649529D01*
X81483718Y-101671153D01*
X81471421Y-101691670D01*
X81457171Y-101710883D01*
X81441107Y-101728607D01*
X81423383Y-101744671D01*
X81404170Y-101758921D01*
X81383653Y-101771218D01*
X81362029Y-101781446D01*
X81339507Y-101789504D01*
X81316303Y-101795316D01*
X81292642Y-101798826D01*
X81268750Y-101800000D01*
X80781250Y-101800000D01*
X80757358Y-101798826D01*
X80733697Y-101795316D01*
X80710493Y-101789504D01*
X80687971Y-101781446D01*
X80666347Y-101771218D01*
X80645830Y-101758921D01*
X80626617Y-101744671D01*
X80608893Y-101728607D01*
X80592829Y-101710883D01*
X80578579Y-101691670D01*
X80566282Y-101671153D01*
X80556054Y-101649529D01*
X80547996Y-101627007D01*
X80542184Y-101603803D01*
X80538674Y-101580142D01*
X80537500Y-101556250D01*
X80537500Y-100643750D01*
X80538674Y-100619858D01*
X80542184Y-100596197D01*
X80547996Y-100572993D01*
X80556054Y-100550471D01*
X80566282Y-100528847D01*
X80578579Y-100508330D01*
X80592829Y-100489117D01*
X80608893Y-100471393D01*
X80626617Y-100455329D01*
X80645830Y-100441079D01*
X80666347Y-100428782D01*
X80687971Y-100418554D01*
X80710493Y-100410496D01*
X80733697Y-100404684D01*
X80757358Y-100401174D01*
X80781250Y-100400000D01*
X81268750Y-100400000D01*
X81292642Y-100401174D01*
X81292642Y-100401174D01*
G37*
D12*
G04 #@! TD*
G04 #@! TO.P,R7,1*
G04 #@! TO.N,Net-(C5-Pad2)*
X81025000Y-101100000D03*
D11*
G04 #@! TO.N,Net-(R5-Pad2)*
G04 #@! TO.C,R7*
G36*
X83167642Y-100401174D02*
X83191303Y-100404684D01*
X83214507Y-100410496D01*
X83237029Y-100418554D01*
X83258653Y-100428782D01*
X83279170Y-100441079D01*
X83298383Y-100455329D01*
X83316107Y-100471393D01*
X83332171Y-100489117D01*
X83346421Y-100508330D01*
X83358718Y-100528847D01*
X83368946Y-100550471D01*
X83377004Y-100572993D01*
X83382816Y-100596197D01*
X83386326Y-100619858D01*
X83387500Y-100643750D01*
X83387500Y-101556250D01*
X83386326Y-101580142D01*
X83382816Y-101603803D01*
X83377004Y-101627007D01*
X83368946Y-101649529D01*
X83358718Y-101671153D01*
X83346421Y-101691670D01*
X83332171Y-101710883D01*
X83316107Y-101728607D01*
X83298383Y-101744671D01*
X83279170Y-101758921D01*
X83258653Y-101771218D01*
X83237029Y-101781446D01*
X83214507Y-101789504D01*
X83191303Y-101795316D01*
X83167642Y-101798826D01*
X83143750Y-101800000D01*
X82656250Y-101800000D01*
X82632358Y-101798826D01*
X82608697Y-101795316D01*
X82585493Y-101789504D01*
X82562971Y-101781446D01*
X82541347Y-101771218D01*
X82520830Y-101758921D01*
X82501617Y-101744671D01*
X82483893Y-101728607D01*
X82467829Y-101710883D01*
X82453579Y-101691670D01*
X82441282Y-101671153D01*
X82431054Y-101649529D01*
X82422996Y-101627007D01*
X82417184Y-101603803D01*
X82413674Y-101580142D01*
X82412500Y-101556250D01*
X82412500Y-100643750D01*
X82413674Y-100619858D01*
X82417184Y-100596197D01*
X82422996Y-100572993D01*
X82431054Y-100550471D01*
X82441282Y-100528847D01*
X82453579Y-100508330D01*
X82467829Y-100489117D01*
X82483893Y-100471393D01*
X82501617Y-100455329D01*
X82520830Y-100441079D01*
X82541347Y-100428782D01*
X82562971Y-100418554D01*
X82585493Y-100410496D01*
X82608697Y-100404684D01*
X82632358Y-100401174D01*
X82656250Y-100400000D01*
X83143750Y-100400000D01*
X83167642Y-100401174D01*
X83167642Y-100401174D01*
G37*
D12*
G04 #@! TD*
G04 #@! TO.P,R7,2*
G04 #@! TO.N,Net-(R5-Pad2)*
X82900000Y-101100000D03*
D21*
G04 #@! TO.P,SW2,1*
G04 #@! TO.N,GND*
X55050000Y-48700000D03*
G04 #@! TO.P,SW2,2*
G04 #@! TO.N,Net-(J2-Pad9)*
X55050000Y-51200000D03*
G04 #@! TO.P,SW2,3*
G04 #@! TO.N,Net-(SW2-Pad3)*
X55050000Y-53700000D03*
G04 #@! TD*
D15*
G04 #@! TO.P,J5,1*
G04 #@! TO.N,+9V*
X103200000Y-96260000D03*
D16*
G04 #@! TO.P,J5,2*
G04 #@! TO.N,GND*
X103200000Y-98800000D03*
G04 #@! TD*
D11*
G04 #@! TO.N,GND*
G04 #@! TO.C,C3*
G36*
X98099504Y-102876204D02*
X98123773Y-102879804D01*
X98147571Y-102885765D01*
X98170671Y-102894030D01*
X98192849Y-102904520D01*
X98213893Y-102917133D01*
X98233598Y-102931747D01*
X98251777Y-102948223D01*
X98268253Y-102966402D01*
X98282867Y-102986107D01*
X98295480Y-103007151D01*
X98305970Y-103029329D01*
X98314235Y-103052429D01*
X98320196Y-103076227D01*
X98323796Y-103100496D01*
X98325000Y-103125000D01*
X98325000Y-103875000D01*
X98323796Y-103899504D01*
X98320196Y-103923773D01*
X98314235Y-103947571D01*
X98305970Y-103970671D01*
X98295480Y-103992849D01*
X98282867Y-104013893D01*
X98268253Y-104033598D01*
X98251777Y-104051777D01*
X98233598Y-104068253D01*
X98213893Y-104082867D01*
X98192849Y-104095480D01*
X98170671Y-104105970D01*
X98147571Y-104114235D01*
X98123773Y-104120196D01*
X98099504Y-104123796D01*
X98075000Y-104125000D01*
X95925000Y-104125000D01*
X95900496Y-104123796D01*
X95876227Y-104120196D01*
X95852429Y-104114235D01*
X95829329Y-104105970D01*
X95807151Y-104095480D01*
X95786107Y-104082867D01*
X95766402Y-104068253D01*
X95748223Y-104051777D01*
X95731747Y-104033598D01*
X95717133Y-104013893D01*
X95704520Y-103992849D01*
X95694030Y-103970671D01*
X95685765Y-103947571D01*
X95679804Y-103923773D01*
X95676204Y-103899504D01*
X95675000Y-103875000D01*
X95675000Y-103125000D01*
X95676204Y-103100496D01*
X95679804Y-103076227D01*
X95685765Y-103052429D01*
X95694030Y-103029329D01*
X95704520Y-103007151D01*
X95717133Y-102986107D01*
X95731747Y-102966402D01*
X95748223Y-102948223D01*
X95766402Y-102931747D01*
X95786107Y-102917133D01*
X95807151Y-102904520D01*
X95829329Y-102894030D01*
X95852429Y-102885765D01*
X95876227Y-102879804D01*
X95900496Y-102876204D01*
X95925000Y-102875000D01*
X98075000Y-102875000D01*
X98099504Y-102876204D01*
X98099504Y-102876204D01*
G37*
D22*
G04 #@! TD*
G04 #@! TO.P,C3,2*
G04 #@! TO.N,GND*
X97000000Y-103500000D03*
D11*
G04 #@! TO.N,+9V*
G04 #@! TO.C,C3*
G36*
X98099504Y-100076204D02*
X98123773Y-100079804D01*
X98147571Y-100085765D01*
X98170671Y-100094030D01*
X98192849Y-100104520D01*
X98213893Y-100117133D01*
X98233598Y-100131747D01*
X98251777Y-100148223D01*
X98268253Y-100166402D01*
X98282867Y-100186107D01*
X98295480Y-100207151D01*
X98305970Y-100229329D01*
X98314235Y-100252429D01*
X98320196Y-100276227D01*
X98323796Y-100300496D01*
X98325000Y-100325000D01*
X98325000Y-101075000D01*
X98323796Y-101099504D01*
X98320196Y-101123773D01*
X98314235Y-101147571D01*
X98305970Y-101170671D01*
X98295480Y-101192849D01*
X98282867Y-101213893D01*
X98268253Y-101233598D01*
X98251777Y-101251777D01*
X98233598Y-101268253D01*
X98213893Y-101282867D01*
X98192849Y-101295480D01*
X98170671Y-101305970D01*
X98147571Y-101314235D01*
X98123773Y-101320196D01*
X98099504Y-101323796D01*
X98075000Y-101325000D01*
X95925000Y-101325000D01*
X95900496Y-101323796D01*
X95876227Y-101320196D01*
X95852429Y-101314235D01*
X95829329Y-101305970D01*
X95807151Y-101295480D01*
X95786107Y-101282867D01*
X95766402Y-101268253D01*
X95748223Y-101251777D01*
X95731747Y-101233598D01*
X95717133Y-101213893D01*
X95704520Y-101192849D01*
X95694030Y-101170671D01*
X95685765Y-101147571D01*
X95679804Y-101123773D01*
X95676204Y-101099504D01*
X95675000Y-101075000D01*
X95675000Y-100325000D01*
X95676204Y-100300496D01*
X95679804Y-100276227D01*
X95685765Y-100252429D01*
X95694030Y-100229329D01*
X95704520Y-100207151D01*
X95717133Y-100186107D01*
X95731747Y-100166402D01*
X95748223Y-100148223D01*
X95766402Y-100131747D01*
X95786107Y-100117133D01*
X95807151Y-100104520D01*
X95829329Y-100094030D01*
X95852429Y-100085765D01*
X95876227Y-100079804D01*
X95900496Y-100076204D01*
X95925000Y-100075000D01*
X98075000Y-100075000D01*
X98099504Y-100076204D01*
X98099504Y-100076204D01*
G37*
D22*
G04 #@! TD*
G04 #@! TO.P,C3,1*
G04 #@! TO.N,+9V*
X97000000Y-100700000D03*
D11*
G04 #@! TO.N,3V3*
G04 #@! TO.C,C4*
G36*
X77099504Y-102276204D02*
X77123773Y-102279804D01*
X77147571Y-102285765D01*
X77170671Y-102294030D01*
X77192849Y-102304520D01*
X77213893Y-102317133D01*
X77233598Y-102331747D01*
X77251777Y-102348223D01*
X77268253Y-102366402D01*
X77282867Y-102386107D01*
X77295480Y-102407151D01*
X77305970Y-102429329D01*
X77314235Y-102452429D01*
X77320196Y-102476227D01*
X77323796Y-102500496D01*
X77325000Y-102525000D01*
X77325000Y-103275000D01*
X77323796Y-103299504D01*
X77320196Y-103323773D01*
X77314235Y-103347571D01*
X77305970Y-103370671D01*
X77295480Y-103392849D01*
X77282867Y-103413893D01*
X77268253Y-103433598D01*
X77251777Y-103451777D01*
X77233598Y-103468253D01*
X77213893Y-103482867D01*
X77192849Y-103495480D01*
X77170671Y-103505970D01*
X77147571Y-103514235D01*
X77123773Y-103520196D01*
X77099504Y-103523796D01*
X77075000Y-103525000D01*
X74925000Y-103525000D01*
X74900496Y-103523796D01*
X74876227Y-103520196D01*
X74852429Y-103514235D01*
X74829329Y-103505970D01*
X74807151Y-103495480D01*
X74786107Y-103482867D01*
X74766402Y-103468253D01*
X74748223Y-103451777D01*
X74731747Y-103433598D01*
X74717133Y-103413893D01*
X74704520Y-103392849D01*
X74694030Y-103370671D01*
X74685765Y-103347571D01*
X74679804Y-103323773D01*
X74676204Y-103299504D01*
X74675000Y-103275000D01*
X74675000Y-102525000D01*
X74676204Y-102500496D01*
X74679804Y-102476227D01*
X74685765Y-102452429D01*
X74694030Y-102429329D01*
X74704520Y-102407151D01*
X74717133Y-102386107D01*
X74731747Y-102366402D01*
X74748223Y-102348223D01*
X74766402Y-102331747D01*
X74786107Y-102317133D01*
X74807151Y-102304520D01*
X74829329Y-102294030D01*
X74852429Y-102285765D01*
X74876227Y-102279804D01*
X74900496Y-102276204D01*
X74925000Y-102275000D01*
X77075000Y-102275000D01*
X77099504Y-102276204D01*
X77099504Y-102276204D01*
G37*
D22*
G04 #@! TD*
G04 #@! TO.P,C4,1*
G04 #@! TO.N,3V3*
X76000000Y-102900000D03*
D11*
G04 #@! TO.N,GND*
G04 #@! TO.C,C4*
G36*
X77099504Y-99476204D02*
X77123773Y-99479804D01*
X77147571Y-99485765D01*
X77170671Y-99494030D01*
X77192849Y-99504520D01*
X77213893Y-99517133D01*
X77233598Y-99531747D01*
X77251777Y-99548223D01*
X77268253Y-99566402D01*
X77282867Y-99586107D01*
X77295480Y-99607151D01*
X77305970Y-99629329D01*
X77314235Y-99652429D01*
X77320196Y-99676227D01*
X77323796Y-99700496D01*
X77325000Y-99725000D01*
X77325000Y-100475000D01*
X77323796Y-100499504D01*
X77320196Y-100523773D01*
X77314235Y-100547571D01*
X77305970Y-100570671D01*
X77295480Y-100592849D01*
X77282867Y-100613893D01*
X77268253Y-100633598D01*
X77251777Y-100651777D01*
X77233598Y-100668253D01*
X77213893Y-100682867D01*
X77192849Y-100695480D01*
X77170671Y-100705970D01*
X77147571Y-100714235D01*
X77123773Y-100720196D01*
X77099504Y-100723796D01*
X77075000Y-100725000D01*
X74925000Y-100725000D01*
X74900496Y-100723796D01*
X74876227Y-100720196D01*
X74852429Y-100714235D01*
X74829329Y-100705970D01*
X74807151Y-100695480D01*
X74786107Y-100682867D01*
X74766402Y-100668253D01*
X74748223Y-100651777D01*
X74731747Y-100633598D01*
X74717133Y-100613893D01*
X74704520Y-100592849D01*
X74694030Y-100570671D01*
X74685765Y-100547571D01*
X74679804Y-100523773D01*
X74676204Y-100499504D01*
X74675000Y-100475000D01*
X74675000Y-99725000D01*
X74676204Y-99700496D01*
X74679804Y-99676227D01*
X74685765Y-99652429D01*
X74694030Y-99629329D01*
X74704520Y-99607151D01*
X74717133Y-99586107D01*
X74731747Y-99566402D01*
X74748223Y-99548223D01*
X74766402Y-99531747D01*
X74786107Y-99517133D01*
X74807151Y-99504520D01*
X74829329Y-99494030D01*
X74852429Y-99485765D01*
X74876227Y-99479804D01*
X74900496Y-99476204D01*
X74925000Y-99475000D01*
X77075000Y-99475000D01*
X77099504Y-99476204D01*
X77099504Y-99476204D01*
G37*
D22*
G04 #@! TD*
G04 #@! TO.P,C4,2*
G04 #@! TO.N,GND*
X76000000Y-100100000D03*
D23*
G04 #@! TO.N,GND*
X92200000Y-95900000D03*
X56600000Y-87800000D03*
X95600000Y-65000000D03*
X81150000Y-63700000D03*
X79900000Y-97800000D03*
X58200000Y-49300000D03*
X100500000Y-102900000D03*
X96500000Y-98200000D03*
G04 #@! TO.N,3V3*
X82300000Y-62800000D03*
X95600000Y-66600000D03*
X80100000Y-69300000D03*
X72700000Y-103000000D03*
X89300000Y-52500000D03*
G04 #@! TO.N,FIX*
X74800000Y-47200000D03*
X87600000Y-86300000D03*
G04 #@! TO.N,STABLE*
X71000000Y-86300000D03*
G04 #@! TO.N,REC*
X79500000Y-86500000D03*
G04 #@! TO.N,RXD*
X69900000Y-52300000D03*
G04 #@! TO.N,TXD*
X71400000Y-53700000D03*
G04 #@! TO.N,SDA*
X94300000Y-52800000D03*
G04 #@! TO.N,SCL*
X91700000Y-52900000D03*
G04 #@! TO.N,+9V*
X93400000Y-96650000D03*
X98700000Y-96600000D03*
G04 #@! TO.N,Net-(J2-Pad9)*
X60500000Y-55000000D03*
G04 #@! TO.N,Net-(J4-Pad1)*
X85400000Y-72500000D03*
G04 #@! TD*
D24*
G04 #@! TO.N,*
X60449999Y-80270001D02*
X62229999Y-80270001D01*
G04 #@! TO.N,GND*
X56562500Y-85500000D02*
X56562500Y-87762500D01*
X56562500Y-87762500D02*
X56600000Y-87800000D01*
X56562500Y-87837500D02*
X56600000Y-87800000D01*
X56562500Y-90400000D02*
X56562500Y-87837500D01*
X92200000Y-95900000D02*
X90100000Y-95900000D01*
X69550000Y-95187500D02*
X69562500Y-95200000D01*
X68750000Y-95187500D02*
X69550000Y-95187500D01*
X69562500Y-95200000D02*
X87700000Y-95200000D01*
X88400000Y-95900000D02*
X90100000Y-95900000D01*
X87700000Y-95200000D02*
X88400000Y-95900000D01*
X93750000Y-64200000D02*
X94800000Y-64200000D01*
X94800000Y-64200000D02*
X95600000Y-65000000D01*
X85250000Y-65000000D02*
X82450000Y-65000000D01*
X82450000Y-65000000D02*
X81150000Y-63700000D01*
X79162500Y-97800000D02*
X79900000Y-97800000D01*
X79962500Y-97862500D02*
X79900000Y-97800000D01*
X85100000Y-97862500D02*
X79962500Y-97862500D01*
X55050000Y-48700000D02*
X57600000Y-48700000D01*
X57600000Y-48700000D02*
X58200000Y-49300000D01*
X100500000Y-101940000D02*
X100500000Y-102900000D01*
X100500000Y-101940000D02*
X100500000Y-101500000D01*
X100500000Y-101500000D02*
X103200000Y-98800000D01*
X78300000Y-97800000D02*
X79162500Y-97800000D01*
X76000000Y-100100000D02*
X78300000Y-97800000D01*
X99900000Y-103500000D02*
X100500000Y-102900000D01*
X97000000Y-103500000D02*
X99900000Y-103500000D01*
X93814000Y-99100000D02*
X95600000Y-99100000D01*
X95600000Y-99100000D02*
X96500000Y-98200000D01*
G04 #@! TO.N,Net-(C1-Pad2)*
X58437500Y-85500000D02*
X59025000Y-85500000D01*
X76892880Y-66500000D02*
X85200000Y-66500000D01*
X66199990Y-77192890D02*
X76892880Y-66500000D01*
X66199990Y-82780670D02*
X66199990Y-77192890D01*
X58437500Y-85500000D02*
X62200000Y-85500000D01*
X66199990Y-82780670D02*
X66199990Y-83200010D01*
X66199990Y-83200010D02*
X63900000Y-85500000D01*
X63900000Y-85500000D02*
X62300000Y-85500000D01*
G04 #@! TO.N,Net-(C2-Pad2)*
X76800000Y-67300000D02*
X85200000Y-67300000D01*
X66700000Y-77400000D02*
X76800000Y-67300000D01*
X66700000Y-86100000D02*
X66700000Y-77400000D01*
X58437500Y-90400000D02*
X59025000Y-90400000D01*
X59025000Y-90400000D02*
X62200000Y-90400000D01*
X66700000Y-86100000D02*
X66700000Y-86200000D01*
X66700000Y-86200000D02*
X62300000Y-90600000D01*
G04 #@! TO.N,3V3*
X89300000Y-54662500D02*
X89300000Y-54550000D01*
X89300000Y-54662500D02*
X89300000Y-52700000D01*
X91194000Y-100675000D02*
X87869000Y-104000000D01*
X91194000Y-100050000D02*
X91194000Y-100675000D01*
X87869000Y-104000000D02*
X85100000Y-104000000D01*
X79060000Y-72500000D02*
X79060000Y-70340000D01*
X79060000Y-70340000D02*
X80100000Y-69300000D01*
X93750000Y-66600000D02*
X95450000Y-66600000D01*
X85250000Y-64200000D02*
X82950000Y-64200000D01*
X82950000Y-64200000D02*
X82450000Y-63700000D01*
X85100000Y-104037500D02*
X82537500Y-104037500D01*
X82537500Y-104037500D02*
X81400000Y-102900000D01*
X81400000Y-102900000D02*
X78900000Y-102900000D01*
X92650000Y-66600000D02*
X90150000Y-64100000D01*
X93750000Y-66600000D02*
X92650000Y-66600000D01*
X90150000Y-64100000D02*
X85300000Y-64100000D01*
X82450000Y-63700000D02*
X82450000Y-62950000D01*
X82450000Y-62950000D02*
X82300000Y-62800000D01*
X95450000Y-66600000D02*
X95600000Y-66600000D01*
X89300000Y-52700000D02*
X89300000Y-52500000D01*
X78900000Y-102937500D02*
X75837500Y-102937500D01*
X75837500Y-102937500D02*
X75875000Y-102900000D01*
X72800000Y-102900000D02*
X72700000Y-103000000D01*
X76000000Y-102900000D02*
X72800000Y-102900000D01*
D25*
G04 #@! TO.N,FIX*
X74850000Y-47150000D02*
X74800000Y-47200000D01*
D24*
X76200000Y-47200000D02*
X74800000Y-47200000D01*
X76250000Y-47150000D02*
X76200000Y-47200000D01*
X102500000Y-47150000D02*
X76250000Y-47150000D01*
X87600000Y-86300000D02*
X87600000Y-85214240D01*
X97700000Y-75114240D02*
X97700000Y-56300000D01*
X97700000Y-56300000D02*
X103250000Y-50750000D01*
X87600000Y-85214240D02*
X97700000Y-75114240D01*
X103250000Y-50750000D02*
X103250000Y-47900000D01*
X103250000Y-47900000D02*
X102500000Y-47150000D01*
G04 #@! TO.N,STABLE*
X89550000Y-81850000D02*
X96550000Y-74850000D01*
X96550000Y-64494998D02*
X94705002Y-62650000D01*
X96550000Y-74850000D02*
X96550000Y-64494998D01*
X94705002Y-62650000D02*
X93800000Y-62650000D01*
X89549998Y-81850002D02*
X89449998Y-81850002D01*
X89550000Y-81850000D02*
X89549998Y-81850002D01*
X89449998Y-81850002D02*
X85900000Y-85400000D01*
X85900000Y-85400000D02*
X71900000Y-85400000D01*
X71900000Y-85400000D02*
X71000000Y-86300000D01*
G04 #@! TO.N,REC*
X97050010Y-64287888D02*
X94562122Y-61800000D01*
X97050010Y-75057110D02*
X97050010Y-64287888D01*
X89757110Y-82350010D02*
X97050010Y-75057110D01*
X94562122Y-61800000D02*
X93800000Y-61800000D01*
D25*
X89757110Y-82350010D02*
X89749990Y-82350010D01*
D24*
X89749990Y-82350010D02*
X86100000Y-86000000D01*
X86100000Y-86000000D02*
X80000000Y-86000000D01*
X80000000Y-86000000D02*
X79500000Y-86500000D01*
G04 #@! TO.N,RXD*
X68750000Y-49500000D02*
X68800000Y-49550000D01*
X81350000Y-52300000D02*
X69900000Y-52300000D01*
X88300000Y-60350000D02*
X88300000Y-59250000D01*
X88300000Y-59250000D02*
X81350000Y-52300000D01*
X58310000Y-104947919D02*
X54700000Y-101337919D01*
X58310000Y-106150000D02*
X58310000Y-104947919D01*
X54700000Y-101337919D02*
X54700000Y-62300000D01*
X64700000Y-52300000D02*
X69900000Y-52300000D01*
X54700000Y-62300000D02*
X64700000Y-52300000D01*
G04 #@! TO.N,TXD*
X81950000Y-53700000D02*
X71400000Y-53700000D01*
X87500000Y-60350000D02*
X87500000Y-59250000D01*
X87500000Y-59250000D02*
X81950000Y-53700000D01*
X71400000Y-53700000D02*
X64007120Y-53700000D01*
X64007120Y-53700000D02*
X55200010Y-62507110D01*
X55200010Y-62507110D02*
X55200010Y-100200010D01*
X55200010Y-100200010D02*
X61000000Y-106000000D01*
G04 #@! TO.N,CS*
X75390030Y-75299970D02*
X92750030Y-75299970D01*
X71560000Y-79130000D02*
X75390030Y-75299970D01*
X92750030Y-75299970D02*
X93800000Y-74250000D01*
X93800000Y-71500000D02*
X93050000Y-70750000D01*
X93800000Y-74250000D02*
X93800000Y-71500000D01*
X91592880Y-70750000D02*
X90750000Y-69907120D01*
X93050000Y-70750000D02*
X91592880Y-70750000D01*
X90750000Y-69907120D02*
X90750000Y-68950000D01*
G04 #@! TO.N,MOSI*
X91500000Y-69950000D02*
X91750000Y-70200000D01*
X91500000Y-68850000D02*
X91500000Y-69950000D01*
X91750000Y-70200000D02*
X93400000Y-70200000D01*
X93400000Y-70200000D02*
X94300000Y-71100000D01*
X94300000Y-71100000D02*
X94300000Y-74750000D01*
X93250020Y-75799980D02*
X77350020Y-75799980D01*
X94300000Y-74750000D02*
X93250020Y-75799980D01*
X74949999Y-78280001D02*
X74949999Y-78200001D01*
X74100000Y-79130000D02*
X74949999Y-78280001D01*
X74949999Y-78200001D02*
X77350020Y-75799980D01*
G04 #@! TO.N,MISO*
X92300000Y-68850000D02*
X92875000Y-68850000D01*
X92875000Y-68850000D02*
X95300000Y-71275000D01*
X93542890Y-76299990D02*
X79450010Y-76299990D01*
X95300000Y-74542880D02*
X93542890Y-76299990D01*
X95300000Y-71275000D02*
X95300000Y-74542880D01*
X79450010Y-76299990D02*
X76700000Y-79050000D01*
G04 #@! TO.N,SCK*
X79180000Y-79130000D02*
X81510000Y-76800000D01*
X81510000Y-76800000D02*
X93750000Y-76800000D01*
X93750000Y-76800000D02*
X95900000Y-74650000D01*
X95900000Y-74650000D02*
X95900000Y-68100000D01*
X95900000Y-68100000D02*
X95200000Y-67400000D01*
X95200000Y-67400000D02*
X94000000Y-67400000D01*
G04 #@! TO.N,SDA*
X90700000Y-59250000D02*
X94300000Y-55650000D01*
X90700000Y-60350000D02*
X90700000Y-59250000D01*
X94300000Y-49800000D02*
X94200000Y-49700000D01*
X94300000Y-55650000D02*
X94300000Y-52800000D01*
G04 #@! TO.N,SCL*
X89900000Y-59250000D02*
X91700000Y-57450000D01*
X89900000Y-60350000D02*
X89900000Y-59250000D01*
X91700000Y-57450000D02*
X91700000Y-52900000D01*
G04 #@! TO.N,Net-(D1-Pad1)*
X87550000Y-90950000D02*
X87550000Y-93369400D01*
G04 #@! TO.N,Net-(D2-Pad1)*
X68750000Y-92150000D02*
X68800000Y-92200000D01*
X68750000Y-90950000D02*
X68750000Y-92150000D01*
X68800000Y-92200000D02*
X68800000Y-93300000D01*
G04 #@! TO.N,Net-(D3-Pad1)*
X78124000Y-92164600D02*
X78100000Y-92188600D01*
X78124000Y-90964600D02*
X78124000Y-92164600D01*
X78100000Y-92188600D02*
X78100000Y-93300000D01*
G04 #@! TO.N,+9V*
X93814000Y-98150000D02*
X93814000Y-97064000D01*
X93814000Y-97064000D02*
X93400000Y-96650000D01*
X98700000Y-96600000D02*
X100800000Y-96600000D01*
X103000000Y-96800000D02*
X103100000Y-96700000D01*
X100800000Y-96600000D02*
X102900000Y-96600000D01*
X102900000Y-96600000D02*
X103200000Y-96300000D01*
X93814000Y-100050000D02*
X96550000Y-100050000D01*
X96550000Y-100050000D02*
X97000000Y-100500000D01*
X100800000Y-96700000D02*
X100800000Y-96600000D01*
X97000000Y-100500000D02*
X100800000Y-96700000D01*
G04 #@! TO.N,Net-(J2-Pad9)*
X55050000Y-51200000D02*
X56700000Y-51200000D01*
X56700000Y-51200000D02*
X60500000Y-55000000D01*
G04 #@! TO.N,Net-(J4-Pad1)*
X85400000Y-72050000D02*
X85400000Y-72500000D01*
X87500000Y-68850000D02*
X87500000Y-69950000D01*
X87500000Y-69950000D02*
X85400000Y-72050000D01*
G04 #@! TO.N,Net-(R1-Pad2)*
X89300000Y-57125000D02*
X89100000Y-57325000D01*
X89300000Y-56537500D02*
X89300000Y-57125000D01*
X89100000Y-59200000D02*
X89100000Y-58989338D01*
X89100000Y-59200000D02*
X89100000Y-60400000D01*
X89100000Y-57325000D02*
X89100000Y-59200000D01*
G04 #@! TO.N,Net-(R5-Pad2)*
X85100000Y-102162500D02*
X85100000Y-101575000D01*
X87534000Y-100900000D02*
X85100000Y-100900000D01*
X90284000Y-98150000D02*
X87534000Y-100900000D01*
X91194000Y-98150000D02*
X90284000Y-98150000D01*
X85100000Y-101575000D02*
X85100000Y-100900000D01*
X85100000Y-100900000D02*
X85100000Y-99800000D01*
X85100000Y-100900000D02*
X84900000Y-101100000D01*
X84900000Y-101100000D02*
X82900000Y-101100000D01*
G04 #@! TO.N,Net-(C5-Pad2)*
X81025000Y-101100000D02*
X78900000Y-101100000D01*
G04 #@! TD*
D26*
G04 #@! TO.N,3V3*
G36*
X83992191Y-68132809D02*
X84202235Y-68273157D01*
X84450000Y-68322440D01*
X85777560Y-68322440D01*
X85777560Y-69650000D01*
X85826843Y-69897765D01*
X85967191Y-70107809D01*
X86125952Y-70213890D01*
X84899592Y-71440251D01*
X84834047Y-71484047D01*
X84660546Y-71743709D01*
X84652592Y-71783697D01*
X84522569Y-71913720D01*
X84365000Y-72294126D01*
X84365000Y-72705874D01*
X84522569Y-73086280D01*
X84813720Y-73377431D01*
X85194126Y-73535000D01*
X85605874Y-73535000D01*
X85986280Y-73377431D01*
X86277431Y-73086280D01*
X86435000Y-72705874D01*
X86435000Y-72294126D01*
X86385510Y-72174647D01*
X88000411Y-70559747D01*
X88065953Y-70515953D01*
X88109747Y-70450411D01*
X88109749Y-70450409D01*
X88210502Y-70299621D01*
X88211960Y-70297440D01*
X88575000Y-70297440D01*
X88700000Y-70272576D01*
X88825000Y-70297440D01*
X89375000Y-70297440D01*
X89500000Y-70272576D01*
X89625000Y-70297440D01*
X90066693Y-70297440D01*
X90184047Y-70473073D01*
X90249592Y-70516869D01*
X90983133Y-71250411D01*
X91026927Y-71315953D01*
X91092469Y-71359747D01*
X91092471Y-71359749D01*
X91186660Y-71422684D01*
X91286588Y-71489454D01*
X91515564Y-71535000D01*
X91515568Y-71535000D01*
X91592879Y-71550378D01*
X91670190Y-71535000D01*
X92724843Y-71535000D01*
X93015001Y-71825159D01*
X93015000Y-73924842D01*
X92424873Y-74514970D01*
X75467340Y-74514970D01*
X75390029Y-74499592D01*
X75312718Y-74514970D01*
X75312714Y-74514970D01*
X75083738Y-74560516D01*
X75083736Y-74560517D01*
X75083737Y-74560517D01*
X74889621Y-74690221D01*
X74889619Y-74690223D01*
X74824077Y-74734017D01*
X74780283Y-74799559D01*
X71896918Y-77682925D01*
X71706256Y-77645000D01*
X71413744Y-77645000D01*
X70980582Y-77731161D01*
X70489375Y-78059375D01*
X70290000Y-78357761D01*
X70090625Y-78059375D01*
X69599418Y-77731161D01*
X69166256Y-77645000D01*
X68873744Y-77645000D01*
X68440582Y-77731161D01*
X67949375Y-78059375D01*
X67621161Y-78550582D01*
X67505908Y-79130000D01*
X67621161Y-79709418D01*
X67949375Y-80200625D01*
X68440582Y-80528839D01*
X68873744Y-80615000D01*
X69166256Y-80615000D01*
X69599418Y-80528839D01*
X70090625Y-80200625D01*
X70290000Y-79902239D01*
X70489375Y-80200625D01*
X70980582Y-80528839D01*
X71413744Y-80615000D01*
X71706256Y-80615000D01*
X72139418Y-80528839D01*
X72630625Y-80200625D01*
X72830000Y-79902239D01*
X73029375Y-80200625D01*
X73520582Y-80528839D01*
X73953744Y-80615000D01*
X74246256Y-80615000D01*
X74679418Y-80528839D01*
X75170625Y-80200625D01*
X75370000Y-79902239D01*
X75569375Y-80200625D01*
X76060582Y-80528839D01*
X76493744Y-80615000D01*
X76786256Y-80615000D01*
X77219418Y-80528839D01*
X77710625Y-80200625D01*
X77910000Y-79902239D01*
X78109375Y-80200625D01*
X78600582Y-80528839D01*
X79033744Y-80615000D01*
X79326256Y-80615000D01*
X79759418Y-80528839D01*
X80250625Y-80200625D01*
X80463843Y-79881522D01*
X80524817Y-80011358D01*
X80953076Y-80401645D01*
X81363110Y-80571476D01*
X81593000Y-80450155D01*
X81593000Y-79257000D01*
X81573000Y-79257000D01*
X81573000Y-79003000D01*
X81593000Y-79003000D01*
X81593000Y-78983000D01*
X81847000Y-78983000D01*
X81847000Y-79003000D01*
X81867000Y-79003000D01*
X81867000Y-79257000D01*
X81847000Y-79257000D01*
X81847000Y-80450155D01*
X82076890Y-80571476D01*
X82486924Y-80401645D01*
X82915183Y-80011358D01*
X82976157Y-79881522D01*
X83189375Y-80200625D01*
X83680582Y-80528839D01*
X84113744Y-80615000D01*
X84406256Y-80615000D01*
X84839418Y-80528839D01*
X85330625Y-80200625D01*
X85342816Y-80182381D01*
X85351843Y-80227765D01*
X85492191Y-80437809D01*
X85702235Y-80578157D01*
X85950000Y-80627440D01*
X87650000Y-80627440D01*
X87897765Y-80578157D01*
X88107809Y-80437809D01*
X88248157Y-80227765D01*
X88297440Y-79980000D01*
X88297440Y-78280000D01*
X88248157Y-78032235D01*
X88107809Y-77822191D01*
X87897765Y-77681843D01*
X87650000Y-77632560D01*
X85950000Y-77632560D01*
X85702235Y-77681843D01*
X85492191Y-77822191D01*
X85351843Y-78032235D01*
X85342816Y-78077619D01*
X85330625Y-78059375D01*
X84839418Y-77731161D01*
X84406256Y-77645000D01*
X84113744Y-77645000D01*
X83680582Y-77731161D01*
X83189375Y-78059375D01*
X82976157Y-78378478D01*
X82915183Y-78248642D01*
X82486924Y-77858355D01*
X82076890Y-77688524D01*
X81847002Y-77809844D01*
X81847002Y-77645000D01*
X81775157Y-77645000D01*
X81835157Y-77585000D01*
X92704842Y-77585000D01*
X89188132Y-81101711D01*
X89143706Y-81110548D01*
X89143704Y-81110549D01*
X89143705Y-81110549D01*
X88949589Y-81240253D01*
X88949587Y-81240255D01*
X88884045Y-81284049D01*
X88840251Y-81349591D01*
X85574843Y-84615000D01*
X71977310Y-84615000D01*
X71899999Y-84599622D01*
X71822688Y-84615000D01*
X71822684Y-84615000D01*
X71593708Y-84660546D01*
X71481592Y-84735460D01*
X71399591Y-84790251D01*
X71399589Y-84790253D01*
X71334047Y-84834047D01*
X71290253Y-84899589D01*
X70924842Y-85265000D01*
X70794126Y-85265000D01*
X70413720Y-85422569D01*
X70122569Y-85713720D01*
X69965000Y-86094126D01*
X69965000Y-86505874D01*
X70122569Y-86886280D01*
X70413720Y-87177431D01*
X70794126Y-87335000D01*
X71205874Y-87335000D01*
X71586280Y-87177431D01*
X71877431Y-86886280D01*
X72035000Y-86505874D01*
X72035000Y-86375158D01*
X72225158Y-86185000D01*
X78510201Y-86185000D01*
X78465000Y-86294126D01*
X78465000Y-86705874D01*
X78564250Y-86945486D01*
X78429330Y-86889600D01*
X77818670Y-86889600D01*
X77254493Y-87123290D01*
X76822690Y-87555093D01*
X76589000Y-88119270D01*
X76589000Y-88729930D01*
X76822690Y-89294107D01*
X76991908Y-89463325D01*
X76976235Y-89466443D01*
X76766191Y-89606791D01*
X76625843Y-89816835D01*
X76576560Y-90064600D01*
X76576560Y-91864600D01*
X76625843Y-92112365D01*
X76766191Y-92322409D01*
X76976235Y-92462757D01*
X77034802Y-92474407D01*
X77013584Y-92488584D01*
X76820398Y-92777706D01*
X76752560Y-93118750D01*
X76752560Y-93606250D01*
X76820398Y-93947294D01*
X77013584Y-94236416D01*
X77108744Y-94300000D01*
X77013584Y-94363584D01*
X76979229Y-94415000D01*
X69904180Y-94415000D01*
X69836416Y-94313584D01*
X69741256Y-94250000D01*
X69836416Y-94186416D01*
X70029602Y-93897294D01*
X70097440Y-93556250D01*
X70097440Y-93068750D01*
X70029602Y-92727706D01*
X69849259Y-92457805D01*
X69897765Y-92448157D01*
X70107809Y-92307809D01*
X70248157Y-92097765D01*
X70297440Y-91850000D01*
X70297440Y-90050000D01*
X70248157Y-89802235D01*
X70107809Y-89592191D01*
X69897765Y-89451843D01*
X69882092Y-89448725D01*
X70051310Y-89279507D01*
X70285000Y-88715330D01*
X70285000Y-88104670D01*
X70051310Y-87540493D01*
X69619507Y-87108690D01*
X69055330Y-86875000D01*
X68444670Y-86875000D01*
X67880493Y-87108690D01*
X67448690Y-87540493D01*
X67215000Y-88104670D01*
X67215000Y-88715330D01*
X67448690Y-89279507D01*
X67617908Y-89448725D01*
X67602235Y-89451843D01*
X67392191Y-89592191D01*
X67251843Y-89802235D01*
X67202560Y-90050000D01*
X67202560Y-91850000D01*
X67251843Y-92097765D01*
X67392191Y-92307809D01*
X67602235Y-92448157D01*
X67650741Y-92457805D01*
X67470398Y-92727706D01*
X67402560Y-93068750D01*
X67402560Y-93556250D01*
X67470398Y-93897294D01*
X67663584Y-94186416D01*
X67758744Y-94250000D01*
X67663584Y-94313584D01*
X67470398Y-94602706D01*
X67402560Y-94943750D01*
X67402560Y-95431250D01*
X67470398Y-95772294D01*
X67663584Y-96061416D01*
X67952706Y-96254602D01*
X68293750Y-96322440D01*
X69206250Y-96322440D01*
X69547294Y-96254602D01*
X69836416Y-96061416D01*
X69887476Y-95985000D01*
X76929115Y-95985000D01*
X77013584Y-96111416D01*
X77302706Y-96304602D01*
X77643750Y-96372440D01*
X78556250Y-96372440D01*
X78897294Y-96304602D01*
X79186416Y-96111416D01*
X79270885Y-95985000D01*
X86462524Y-95985000D01*
X86513584Y-96061416D01*
X86802706Y-96254602D01*
X87143750Y-96322440D01*
X87712282Y-96322440D01*
X87790253Y-96400410D01*
X87834047Y-96465953D01*
X87899589Y-96509747D01*
X87899591Y-96509749D01*
X87980173Y-96563592D01*
X88093708Y-96639454D01*
X88322684Y-96685000D01*
X88322688Y-96685000D01*
X88399999Y-96700378D01*
X88477310Y-96685000D01*
X91521289Y-96685000D01*
X91613720Y-96777431D01*
X91994126Y-96935000D01*
X92397775Y-96935000D01*
X92413515Y-96973000D01*
X86163093Y-96973000D01*
X85897294Y-96795398D01*
X85556250Y-96727560D01*
X84643750Y-96727560D01*
X84302706Y-96795398D01*
X84036907Y-96973000D01*
X80536711Y-96973000D01*
X80486280Y-96922569D01*
X80105874Y-96765000D01*
X79694126Y-96765000D01*
X79313720Y-96922569D01*
X79263289Y-96973000D01*
X74200000Y-96973000D01*
X74151399Y-96982667D01*
X74110197Y-97010197D01*
X74082667Y-97051399D01*
X74073000Y-97100000D01*
X74073000Y-99496559D01*
X74027560Y-99725000D01*
X74027560Y-100475000D01*
X74073000Y-100703441D01*
X74073000Y-102069022D01*
X74040000Y-102148691D01*
X74040000Y-102614250D01*
X74073000Y-102647250D01*
X74073000Y-103152750D01*
X74040000Y-103185750D01*
X74040000Y-103651309D01*
X74073000Y-103730978D01*
X74073000Y-107873000D01*
X70177054Y-107873000D01*
X70425000Y-107274406D01*
X70425000Y-106325594D01*
X70061905Y-105449006D01*
X69390994Y-104778095D01*
X68514406Y-104415000D01*
X67565594Y-104415000D01*
X66689006Y-104778095D01*
X66018095Y-105449006D01*
X65655000Y-106325594D01*
X65655000Y-107274406D01*
X65902946Y-107873000D01*
X51121399Y-107873000D01*
X51121399Y-105134734D01*
X51725594Y-105385000D01*
X52674406Y-105385000D01*
X53550994Y-105021905D01*
X54221905Y-104350994D01*
X54585000Y-103474406D01*
X54585000Y-102525594D01*
X54448869Y-102196945D01*
X57294479Y-105042556D01*
X57239375Y-105079375D01*
X56911161Y-105570582D01*
X56795908Y-106150000D01*
X56911161Y-106729418D01*
X57239375Y-107220625D01*
X57730582Y-107548839D01*
X58163744Y-107635000D01*
X58456256Y-107635000D01*
X58889418Y-107548839D01*
X59380625Y-107220625D01*
X59392816Y-107202381D01*
X59401843Y-107247765D01*
X59542191Y-107457809D01*
X59752235Y-107598157D01*
X60000000Y-107647440D01*
X61700000Y-107647440D01*
X61947765Y-107598157D01*
X62157809Y-107457809D01*
X62298157Y-107247765D01*
X62347440Y-107000000D01*
X62347440Y-105300000D01*
X62298157Y-105052235D01*
X62157809Y-104842191D01*
X61947765Y-104701843D01*
X61700000Y-104652560D01*
X60762717Y-104652560D01*
X55985010Y-99874853D01*
X55985010Y-91681055D01*
X56318750Y-91747440D01*
X56806250Y-91747440D01*
X57147294Y-91679602D01*
X57436416Y-91486416D01*
X57500000Y-91391256D01*
X57563584Y-91486416D01*
X57852706Y-91679602D01*
X58193750Y-91747440D01*
X58681250Y-91747440D01*
X59022294Y-91679602D01*
X59311416Y-91486416D01*
X59504602Y-91197294D01*
X59507047Y-91185000D01*
X61026313Y-91185000D01*
X61415460Y-91574147D01*
X61924506Y-91785000D01*
X62475494Y-91785000D01*
X62984540Y-91574147D01*
X63374147Y-91184540D01*
X63585000Y-90675494D01*
X63585000Y-90425157D01*
X67200408Y-86809749D01*
X67265953Y-86765953D01*
X67332771Y-86665953D01*
X67439454Y-86506292D01*
X67459345Y-86406291D01*
X67485000Y-86277315D01*
X67485000Y-86277312D01*
X67500378Y-86200000D01*
X67485000Y-86122688D01*
X67485000Y-77725157D01*
X72353265Y-72856892D01*
X77618514Y-72856892D01*
X77864817Y-73381358D01*
X78293076Y-73771645D01*
X78703110Y-73941476D01*
X78933000Y-73820155D01*
X78933000Y-72627000D01*
X77739181Y-72627000D01*
X77618514Y-72856892D01*
X72353265Y-72856892D01*
X73067049Y-72143108D01*
X77618514Y-72143108D01*
X77739181Y-72373000D01*
X78933000Y-72373000D01*
X78933000Y-71179845D01*
X79187000Y-71179845D01*
X79187000Y-72373000D01*
X79207000Y-72373000D01*
X79207000Y-72627000D01*
X79187000Y-72627000D01*
X79187000Y-73820155D01*
X79416890Y-73941476D01*
X79826924Y-73771645D01*
X80131261Y-73494292D01*
X80151843Y-73597765D01*
X80292191Y-73807809D01*
X80502235Y-73948157D01*
X80750000Y-73997440D01*
X82450000Y-73997440D01*
X82697765Y-73948157D01*
X82907809Y-73807809D01*
X83048157Y-73597765D01*
X83097440Y-73350000D01*
X83097440Y-71650000D01*
X83048157Y-71402235D01*
X82907809Y-71192191D01*
X82697765Y-71051843D01*
X82450000Y-71002560D01*
X80750000Y-71002560D01*
X80502235Y-71051843D01*
X80292191Y-71192191D01*
X80151843Y-71402235D01*
X80131261Y-71505708D01*
X79826924Y-71228355D01*
X79416890Y-71058524D01*
X79187000Y-71179845D01*
X78933000Y-71179845D01*
X78703110Y-71058524D01*
X78293076Y-71228355D01*
X77864817Y-71618642D01*
X77618514Y-72143108D01*
X73067049Y-72143108D01*
X77125158Y-68085000D01*
X83960246Y-68085000D01*
X83992191Y-68132809D01*
X83992191Y-68132809D01*
G37*
X83992191Y-68132809D02*
X84202235Y-68273157D01*
X84450000Y-68322440D01*
X85777560Y-68322440D01*
X85777560Y-69650000D01*
X85826843Y-69897765D01*
X85967191Y-70107809D01*
X86125952Y-70213890D01*
X84899592Y-71440251D01*
X84834047Y-71484047D01*
X84660546Y-71743709D01*
X84652592Y-71783697D01*
X84522569Y-71913720D01*
X84365000Y-72294126D01*
X84365000Y-72705874D01*
X84522569Y-73086280D01*
X84813720Y-73377431D01*
X85194126Y-73535000D01*
X85605874Y-73535000D01*
X85986280Y-73377431D01*
X86277431Y-73086280D01*
X86435000Y-72705874D01*
X86435000Y-72294126D01*
X86385510Y-72174647D01*
X88000411Y-70559747D01*
X88065953Y-70515953D01*
X88109747Y-70450411D01*
X88109749Y-70450409D01*
X88210502Y-70299621D01*
X88211960Y-70297440D01*
X88575000Y-70297440D01*
X88700000Y-70272576D01*
X88825000Y-70297440D01*
X89375000Y-70297440D01*
X89500000Y-70272576D01*
X89625000Y-70297440D01*
X90066693Y-70297440D01*
X90184047Y-70473073D01*
X90249592Y-70516869D01*
X90983133Y-71250411D01*
X91026927Y-71315953D01*
X91092469Y-71359747D01*
X91092471Y-71359749D01*
X91186660Y-71422684D01*
X91286588Y-71489454D01*
X91515564Y-71535000D01*
X91515568Y-71535000D01*
X91592879Y-71550378D01*
X91670190Y-71535000D01*
X92724843Y-71535000D01*
X93015001Y-71825159D01*
X93015000Y-73924842D01*
X92424873Y-74514970D01*
X75467340Y-74514970D01*
X75390029Y-74499592D01*
X75312718Y-74514970D01*
X75312714Y-74514970D01*
X75083738Y-74560516D01*
X75083736Y-74560517D01*
X75083737Y-74560517D01*
X74889621Y-74690221D01*
X74889619Y-74690223D01*
X74824077Y-74734017D01*
X74780283Y-74799559D01*
X71896918Y-77682925D01*
X71706256Y-77645000D01*
X71413744Y-77645000D01*
X70980582Y-77731161D01*
X70489375Y-78059375D01*
X70290000Y-78357761D01*
X70090625Y-78059375D01*
X69599418Y-77731161D01*
X69166256Y-77645000D01*
X68873744Y-77645000D01*
X68440582Y-77731161D01*
X67949375Y-78059375D01*
X67621161Y-78550582D01*
X67505908Y-79130000D01*
X67621161Y-79709418D01*
X67949375Y-80200625D01*
X68440582Y-80528839D01*
X68873744Y-80615000D01*
X69166256Y-80615000D01*
X69599418Y-80528839D01*
X70090625Y-80200625D01*
X70290000Y-79902239D01*
X70489375Y-80200625D01*
X70980582Y-80528839D01*
X71413744Y-80615000D01*
X71706256Y-80615000D01*
X72139418Y-80528839D01*
X72630625Y-80200625D01*
X72830000Y-79902239D01*
X73029375Y-80200625D01*
X73520582Y-80528839D01*
X73953744Y-80615000D01*
X74246256Y-80615000D01*
X74679418Y-80528839D01*
X75170625Y-80200625D01*
X75370000Y-79902239D01*
X75569375Y-80200625D01*
X76060582Y-80528839D01*
X76493744Y-80615000D01*
X76786256Y-80615000D01*
X77219418Y-80528839D01*
X77710625Y-80200625D01*
X77910000Y-79902239D01*
X78109375Y-80200625D01*
X78600582Y-80528839D01*
X79033744Y-80615000D01*
X79326256Y-80615000D01*
X79759418Y-80528839D01*
X80250625Y-80200625D01*
X80463843Y-79881522D01*
X80524817Y-80011358D01*
X80953076Y-80401645D01*
X81363110Y-80571476D01*
X81593000Y-80450155D01*
X81593000Y-79257000D01*
X81573000Y-79257000D01*
X81573000Y-79003000D01*
X81593000Y-79003000D01*
X81593000Y-78983000D01*
X81847000Y-78983000D01*
X81847000Y-79003000D01*
X81867000Y-79003000D01*
X81867000Y-79257000D01*
X81847000Y-79257000D01*
X81847000Y-80450155D01*
X82076890Y-80571476D01*
X82486924Y-80401645D01*
X82915183Y-80011358D01*
X82976157Y-79881522D01*
X83189375Y-80200625D01*
X83680582Y-80528839D01*
X84113744Y-80615000D01*
X84406256Y-80615000D01*
X84839418Y-80528839D01*
X85330625Y-80200625D01*
X85342816Y-80182381D01*
X85351843Y-80227765D01*
X85492191Y-80437809D01*
X85702235Y-80578157D01*
X85950000Y-80627440D01*
X87650000Y-80627440D01*
X87897765Y-80578157D01*
X88107809Y-80437809D01*
X88248157Y-80227765D01*
X88297440Y-79980000D01*
X88297440Y-78280000D01*
X88248157Y-78032235D01*
X88107809Y-77822191D01*
X87897765Y-77681843D01*
X87650000Y-77632560D01*
X85950000Y-77632560D01*
X85702235Y-77681843D01*
X85492191Y-77822191D01*
X85351843Y-78032235D01*
X85342816Y-78077619D01*
X85330625Y-78059375D01*
X84839418Y-77731161D01*
X84406256Y-77645000D01*
X84113744Y-77645000D01*
X83680582Y-77731161D01*
X83189375Y-78059375D01*
X82976157Y-78378478D01*
X82915183Y-78248642D01*
X82486924Y-77858355D01*
X82076890Y-77688524D01*
X81847002Y-77809844D01*
X81847002Y-77645000D01*
X81775157Y-77645000D01*
X81835157Y-77585000D01*
X92704842Y-77585000D01*
X89188132Y-81101711D01*
X89143706Y-81110548D01*
X89143704Y-81110549D01*
X89143705Y-81110549D01*
X88949589Y-81240253D01*
X88949587Y-81240255D01*
X88884045Y-81284049D01*
X88840251Y-81349591D01*
X85574843Y-84615000D01*
X71977310Y-84615000D01*
X71899999Y-84599622D01*
X71822688Y-84615000D01*
X71822684Y-84615000D01*
X71593708Y-84660546D01*
X71481592Y-84735460D01*
X71399591Y-84790251D01*
X71399589Y-84790253D01*
X71334047Y-84834047D01*
X71290253Y-84899589D01*
X70924842Y-85265000D01*
X70794126Y-85265000D01*
X70413720Y-85422569D01*
X70122569Y-85713720D01*
X69965000Y-86094126D01*
X69965000Y-86505874D01*
X70122569Y-86886280D01*
X70413720Y-87177431D01*
X70794126Y-87335000D01*
X71205874Y-87335000D01*
X71586280Y-87177431D01*
X71877431Y-86886280D01*
X72035000Y-86505874D01*
X72035000Y-86375158D01*
X72225158Y-86185000D01*
X78510201Y-86185000D01*
X78465000Y-86294126D01*
X78465000Y-86705874D01*
X78564250Y-86945486D01*
X78429330Y-86889600D01*
X77818670Y-86889600D01*
X77254493Y-87123290D01*
X76822690Y-87555093D01*
X76589000Y-88119270D01*
X76589000Y-88729930D01*
X76822690Y-89294107D01*
X76991908Y-89463325D01*
X76976235Y-89466443D01*
X76766191Y-89606791D01*
X76625843Y-89816835D01*
X76576560Y-90064600D01*
X76576560Y-91864600D01*
X76625843Y-92112365D01*
X76766191Y-92322409D01*
X76976235Y-92462757D01*
X77034802Y-92474407D01*
X77013584Y-92488584D01*
X76820398Y-92777706D01*
X76752560Y-93118750D01*
X76752560Y-93606250D01*
X76820398Y-93947294D01*
X77013584Y-94236416D01*
X77108744Y-94300000D01*
X77013584Y-94363584D01*
X76979229Y-94415000D01*
X69904180Y-94415000D01*
X69836416Y-94313584D01*
X69741256Y-94250000D01*
X69836416Y-94186416D01*
X70029602Y-93897294D01*
X70097440Y-93556250D01*
X70097440Y-93068750D01*
X70029602Y-92727706D01*
X69849259Y-92457805D01*
X69897765Y-92448157D01*
X70107809Y-92307809D01*
X70248157Y-92097765D01*
X70297440Y-91850000D01*
X70297440Y-90050000D01*
X70248157Y-89802235D01*
X70107809Y-89592191D01*
X69897765Y-89451843D01*
X69882092Y-89448725D01*
X70051310Y-89279507D01*
X70285000Y-88715330D01*
X70285000Y-88104670D01*
X70051310Y-87540493D01*
X69619507Y-87108690D01*
X69055330Y-86875000D01*
X68444670Y-86875000D01*
X67880493Y-87108690D01*
X67448690Y-87540493D01*
X67215000Y-88104670D01*
X67215000Y-88715330D01*
X67448690Y-89279507D01*
X67617908Y-89448725D01*
X67602235Y-89451843D01*
X67392191Y-89592191D01*
X67251843Y-89802235D01*
X67202560Y-90050000D01*
X67202560Y-91850000D01*
X67251843Y-92097765D01*
X67392191Y-92307809D01*
X67602235Y-92448157D01*
X67650741Y-92457805D01*
X67470398Y-92727706D01*
X67402560Y-93068750D01*
X67402560Y-93556250D01*
X67470398Y-93897294D01*
X67663584Y-94186416D01*
X67758744Y-94250000D01*
X67663584Y-94313584D01*
X67470398Y-94602706D01*
X67402560Y-94943750D01*
X67402560Y-95431250D01*
X67470398Y-95772294D01*
X67663584Y-96061416D01*
X67952706Y-96254602D01*
X68293750Y-96322440D01*
X69206250Y-96322440D01*
X69547294Y-96254602D01*
X69836416Y-96061416D01*
X69887476Y-95985000D01*
X76929115Y-95985000D01*
X77013584Y-96111416D01*
X77302706Y-96304602D01*
X77643750Y-96372440D01*
X78556250Y-96372440D01*
X78897294Y-96304602D01*
X79186416Y-96111416D01*
X79270885Y-95985000D01*
X86462524Y-95985000D01*
X86513584Y-96061416D01*
X86802706Y-96254602D01*
X87143750Y-96322440D01*
X87712282Y-96322440D01*
X87790253Y-96400410D01*
X87834047Y-96465953D01*
X87899589Y-96509747D01*
X87899591Y-96509749D01*
X87980173Y-96563592D01*
X88093708Y-96639454D01*
X88322684Y-96685000D01*
X88322688Y-96685000D01*
X88399999Y-96700378D01*
X88477310Y-96685000D01*
X91521289Y-96685000D01*
X91613720Y-96777431D01*
X91994126Y-96935000D01*
X92397775Y-96935000D01*
X92413515Y-96973000D01*
X86163093Y-96973000D01*
X85897294Y-96795398D01*
X85556250Y-96727560D01*
X84643750Y-96727560D01*
X84302706Y-96795398D01*
X84036907Y-96973000D01*
X80536711Y-96973000D01*
X80486280Y-96922569D01*
X80105874Y-96765000D01*
X79694126Y-96765000D01*
X79313720Y-96922569D01*
X79263289Y-96973000D01*
X74200000Y-96973000D01*
X74151399Y-96982667D01*
X74110197Y-97010197D01*
X74082667Y-97051399D01*
X74073000Y-97100000D01*
X74073000Y-99496559D01*
X74027560Y-99725000D01*
X74027560Y-100475000D01*
X74073000Y-100703441D01*
X74073000Y-102069022D01*
X74040000Y-102148691D01*
X74040000Y-102614250D01*
X74073000Y-102647250D01*
X74073000Y-103152750D01*
X74040000Y-103185750D01*
X74040000Y-103651309D01*
X74073000Y-103730978D01*
X74073000Y-107873000D01*
X70177054Y-107873000D01*
X70425000Y-107274406D01*
X70425000Y-106325594D01*
X70061905Y-105449006D01*
X69390994Y-104778095D01*
X68514406Y-104415000D01*
X67565594Y-104415000D01*
X66689006Y-104778095D01*
X66018095Y-105449006D01*
X65655000Y-106325594D01*
X65655000Y-107274406D01*
X65902946Y-107873000D01*
X51121399Y-107873000D01*
X51121399Y-105134734D01*
X51725594Y-105385000D01*
X52674406Y-105385000D01*
X53550994Y-105021905D01*
X54221905Y-104350994D01*
X54585000Y-103474406D01*
X54585000Y-102525594D01*
X54448869Y-102196945D01*
X57294479Y-105042556D01*
X57239375Y-105079375D01*
X56911161Y-105570582D01*
X56795908Y-106150000D01*
X56911161Y-106729418D01*
X57239375Y-107220625D01*
X57730582Y-107548839D01*
X58163744Y-107635000D01*
X58456256Y-107635000D01*
X58889418Y-107548839D01*
X59380625Y-107220625D01*
X59392816Y-107202381D01*
X59401843Y-107247765D01*
X59542191Y-107457809D01*
X59752235Y-107598157D01*
X60000000Y-107647440D01*
X61700000Y-107647440D01*
X61947765Y-107598157D01*
X62157809Y-107457809D01*
X62298157Y-107247765D01*
X62347440Y-107000000D01*
X62347440Y-105300000D01*
X62298157Y-105052235D01*
X62157809Y-104842191D01*
X61947765Y-104701843D01*
X61700000Y-104652560D01*
X60762717Y-104652560D01*
X55985010Y-99874853D01*
X55985010Y-91681055D01*
X56318750Y-91747440D01*
X56806250Y-91747440D01*
X57147294Y-91679602D01*
X57436416Y-91486416D01*
X57500000Y-91391256D01*
X57563584Y-91486416D01*
X57852706Y-91679602D01*
X58193750Y-91747440D01*
X58681250Y-91747440D01*
X59022294Y-91679602D01*
X59311416Y-91486416D01*
X59504602Y-91197294D01*
X59507047Y-91185000D01*
X61026313Y-91185000D01*
X61415460Y-91574147D01*
X61924506Y-91785000D01*
X62475494Y-91785000D01*
X62984540Y-91574147D01*
X63374147Y-91184540D01*
X63585000Y-90675494D01*
X63585000Y-90425157D01*
X67200408Y-86809749D01*
X67265953Y-86765953D01*
X67332771Y-86665953D01*
X67439454Y-86506292D01*
X67459345Y-86406291D01*
X67485000Y-86277315D01*
X67485000Y-86277312D01*
X67500378Y-86200000D01*
X67485000Y-86122688D01*
X67485000Y-77725157D01*
X72353265Y-72856892D01*
X77618514Y-72856892D01*
X77864817Y-73381358D01*
X78293076Y-73771645D01*
X78703110Y-73941476D01*
X78933000Y-73820155D01*
X78933000Y-72627000D01*
X77739181Y-72627000D01*
X77618514Y-72856892D01*
X72353265Y-72856892D01*
X73067049Y-72143108D01*
X77618514Y-72143108D01*
X77739181Y-72373000D01*
X78933000Y-72373000D01*
X78933000Y-71179845D01*
X79187000Y-71179845D01*
X79187000Y-72373000D01*
X79207000Y-72373000D01*
X79207000Y-72627000D01*
X79187000Y-72627000D01*
X79187000Y-73820155D01*
X79416890Y-73941476D01*
X79826924Y-73771645D01*
X80131261Y-73494292D01*
X80151843Y-73597765D01*
X80292191Y-73807809D01*
X80502235Y-73948157D01*
X80750000Y-73997440D01*
X82450000Y-73997440D01*
X82697765Y-73948157D01*
X82907809Y-73807809D01*
X83048157Y-73597765D01*
X83097440Y-73350000D01*
X83097440Y-71650000D01*
X83048157Y-71402235D01*
X82907809Y-71192191D01*
X82697765Y-71051843D01*
X82450000Y-71002560D01*
X80750000Y-71002560D01*
X80502235Y-71051843D01*
X80292191Y-71192191D01*
X80151843Y-71402235D01*
X80131261Y-71505708D01*
X79826924Y-71228355D01*
X79416890Y-71058524D01*
X79187000Y-71179845D01*
X78933000Y-71179845D01*
X78703110Y-71058524D01*
X78293076Y-71228355D01*
X77864817Y-71618642D01*
X77618514Y-72143108D01*
X73067049Y-72143108D01*
X77125158Y-68085000D01*
X83960246Y-68085000D01*
X83992191Y-68132809D01*
G36*
X104867399Y-56694940D02*
X104674406Y-56615000D01*
X103725594Y-56615000D01*
X102849006Y-56978095D01*
X102178095Y-57649006D01*
X101815000Y-58525594D01*
X101815000Y-59474406D01*
X102178095Y-60350994D01*
X102849006Y-61021905D01*
X103725594Y-61385000D01*
X104674406Y-61385000D01*
X104867399Y-61305060D01*
X104867399Y-100694940D01*
X104674406Y-100615000D01*
X103725594Y-100615000D01*
X102849006Y-100978095D01*
X102178095Y-101649006D01*
X101815000Y-102525594D01*
X101815000Y-103474406D01*
X102178095Y-104350994D01*
X102849006Y-105021905D01*
X103725594Y-105385000D01*
X104674406Y-105385000D01*
X104867399Y-105305060D01*
X104867399Y-107873000D01*
X99027000Y-107873000D01*
X99027000Y-104285000D01*
X99822688Y-104285000D01*
X99900000Y-104300378D01*
X99977312Y-104285000D01*
X99977316Y-104285000D01*
X100206292Y-104239454D01*
X100465953Y-104065953D01*
X100509749Y-104000408D01*
X100575157Y-103935000D01*
X100705874Y-103935000D01*
X101086280Y-103777431D01*
X101377431Y-103486280D01*
X101535000Y-103105874D01*
X101535000Y-102694126D01*
X101377431Y-102313720D01*
X101285000Y-102221289D01*
X101285000Y-101825157D01*
X102863082Y-100247075D01*
X103053744Y-100285000D01*
X103346256Y-100285000D01*
X103779418Y-100198839D01*
X104270625Y-99870625D01*
X104598839Y-99379418D01*
X104714092Y-98800000D01*
X104598839Y-98220582D01*
X104270625Y-97729375D01*
X104252381Y-97717184D01*
X104297765Y-97708157D01*
X104507809Y-97567809D01*
X104648157Y-97357765D01*
X104697440Y-97110000D01*
X104697440Y-95410000D01*
X104648157Y-95162235D01*
X104507809Y-94952191D01*
X104297765Y-94811843D01*
X104050000Y-94762560D01*
X102350000Y-94762560D01*
X102102235Y-94811843D01*
X101892191Y-94952191D01*
X101751843Y-95162235D01*
X101702560Y-95410000D01*
X101702560Y-95815000D01*
X100877316Y-95815000D01*
X100800000Y-95799621D01*
X100722684Y-95815000D01*
X99378711Y-95815000D01*
X99286280Y-95722569D01*
X98905874Y-95565000D01*
X98494126Y-95565000D01*
X98113720Y-95722569D01*
X97822569Y-96013720D01*
X97665000Y-96394126D01*
X97665000Y-96805874D01*
X97734226Y-96973000D01*
X94596278Y-96973000D01*
X94553454Y-96757708D01*
X94435000Y-96580430D01*
X94435000Y-96444126D01*
X94277431Y-96063720D01*
X93986280Y-95772569D01*
X93605874Y-95615000D01*
X93202225Y-95615000D01*
X93077431Y-95313720D01*
X92786280Y-95022569D01*
X92405874Y-94865000D01*
X91994126Y-94865000D01*
X91613720Y-95022569D01*
X91521289Y-95115000D01*
X88947440Y-95115000D01*
X88947440Y-94943750D01*
X88879602Y-94602706D01*
X88686416Y-94313584D01*
X88591256Y-94250000D01*
X88686416Y-94186416D01*
X88879602Y-93897294D01*
X88947440Y-93556250D01*
X88947440Y-93068750D01*
X88879602Y-92727706D01*
X88699259Y-92457805D01*
X88747765Y-92448157D01*
X88957809Y-92307809D01*
X89098157Y-92097765D01*
X89147440Y-91850000D01*
X89147440Y-90050000D01*
X89098157Y-89802235D01*
X88957809Y-89592191D01*
X88747765Y-89451843D01*
X88732092Y-89448725D01*
X88901310Y-89279507D01*
X89135000Y-88715330D01*
X89135000Y-88104670D01*
X88901310Y-87540493D01*
X88469507Y-87108690D01*
X88317843Y-87045868D01*
X88477431Y-86886280D01*
X88635000Y-86505874D01*
X88635000Y-86094126D01*
X88477431Y-85713720D01*
X88385000Y-85621289D01*
X88385000Y-85539397D01*
X98200411Y-75723987D01*
X98265953Y-75680193D01*
X98309747Y-75614651D01*
X98309749Y-75614649D01*
X98439454Y-75420532D01*
X98453402Y-75350409D01*
X98485000Y-75191556D01*
X98485000Y-75191552D01*
X98500378Y-75114240D01*
X98485000Y-75036928D01*
X98485000Y-56625157D01*
X103750411Y-51359747D01*
X103815953Y-51315953D01*
X103859747Y-51250411D01*
X103859749Y-51250409D01*
X103909885Y-51175375D01*
X103989454Y-51056292D01*
X104035000Y-50827316D01*
X104035000Y-50827312D01*
X104050378Y-50750001D01*
X104035000Y-50672690D01*
X104035000Y-47977310D01*
X104050378Y-47899999D01*
X104035000Y-47822688D01*
X104035000Y-47822684D01*
X103989454Y-47593708D01*
X103863947Y-47405874D01*
X103859749Y-47399591D01*
X103859747Y-47399589D01*
X103815953Y-47334047D01*
X103750411Y-47290253D01*
X103109749Y-46649592D01*
X103065953Y-46584047D01*
X102806292Y-46410546D01*
X102577316Y-46365000D01*
X102577312Y-46365000D01*
X102500000Y-46349622D01*
X102422688Y-46365000D01*
X76327312Y-46365000D01*
X76250000Y-46349622D01*
X76172688Y-46365000D01*
X76172684Y-46365000D01*
X75943708Y-46410546D01*
X75937042Y-46415000D01*
X75478711Y-46415000D01*
X75386280Y-46322569D01*
X75005874Y-46165000D01*
X74594126Y-46165000D01*
X74213720Y-46322569D01*
X73922569Y-46613720D01*
X73765000Y-46994126D01*
X73765000Y-47405874D01*
X73922569Y-47786280D01*
X74213720Y-48077431D01*
X74594126Y-48235000D01*
X75005874Y-48235000D01*
X75386280Y-48077431D01*
X75478711Y-47985000D01*
X76122688Y-47985000D01*
X76200000Y-48000378D01*
X76277312Y-47985000D01*
X76277316Y-47985000D01*
X76506292Y-47939454D01*
X76512958Y-47935000D01*
X102174843Y-47935000D01*
X102465001Y-48225159D01*
X102465000Y-50424842D01*
X97199590Y-55690253D01*
X97134048Y-55734047D01*
X97090254Y-55799589D01*
X97090251Y-55799592D01*
X96960546Y-55993709D01*
X96899622Y-56300000D01*
X96915001Y-56377317D01*
X96915001Y-63042721D01*
X95171871Y-61299592D01*
X95128075Y-61234047D01*
X95112221Y-61223454D01*
X95007809Y-61067191D01*
X94797765Y-60926843D01*
X94550000Y-60877560D01*
X93222440Y-60877560D01*
X93222440Y-59550000D01*
X93173157Y-59302235D01*
X93032809Y-59092191D01*
X92822765Y-58951843D01*
X92575000Y-58902560D01*
X92157597Y-58902560D01*
X94800411Y-56259747D01*
X94865953Y-56215953D01*
X94909747Y-56150411D01*
X94909749Y-56150409D01*
X95039454Y-55956292D01*
X95070623Y-55799592D01*
X95085000Y-55727316D01*
X95085000Y-55727312D01*
X95100378Y-55650000D01*
X95085000Y-55572688D01*
X95085000Y-53478711D01*
X95177431Y-53386280D01*
X95335000Y-53005874D01*
X95335000Y-52594126D01*
X95177431Y-52213720D01*
X94886280Y-51922569D01*
X94505874Y-51765000D01*
X94094126Y-51765000D01*
X93713720Y-51922569D01*
X93422569Y-52213720D01*
X93265000Y-52594126D01*
X93265000Y-53005874D01*
X93422569Y-53386280D01*
X93515001Y-53478712D01*
X93515000Y-55324842D01*
X92485000Y-56354842D01*
X92485000Y-53578711D01*
X92577431Y-53486280D01*
X92735000Y-53105874D01*
X92735000Y-52694126D01*
X92577431Y-52313720D01*
X92286280Y-52022569D01*
X91905874Y-51865000D01*
X91494126Y-51865000D01*
X91113720Y-52022569D01*
X90822569Y-52313720D01*
X90665000Y-52694126D01*
X90665000Y-53105874D01*
X90822569Y-53486280D01*
X90915001Y-53578712D01*
X90915000Y-57124842D01*
X89885000Y-58154843D01*
X89885000Y-57662447D01*
X89897035Y-57644436D01*
X90097294Y-57604602D01*
X90386416Y-57411416D01*
X90579602Y-57122294D01*
X90647440Y-56781250D01*
X90647440Y-56293750D01*
X90579602Y-55952706D01*
X90386416Y-55663584D01*
X90385233Y-55662793D01*
X90538327Y-55509698D01*
X90635000Y-55276309D01*
X90635000Y-54948250D01*
X90476250Y-54789500D01*
X89427000Y-54789500D01*
X89427000Y-54809500D01*
X89173000Y-54809500D01*
X89173000Y-54789500D01*
X88123750Y-54789500D01*
X87965000Y-54948250D01*
X87965000Y-55276309D01*
X88061673Y-55509698D01*
X88214767Y-55662793D01*
X88213584Y-55663584D01*
X88020398Y-55952706D01*
X87952560Y-56293750D01*
X87952560Y-56781250D01*
X88020398Y-57122294D01*
X88213584Y-57411416D01*
X88315000Y-57479180D01*
X88315000Y-58154843D01*
X84208848Y-54048691D01*
X87965000Y-54048691D01*
X87965000Y-54376750D01*
X88123750Y-54535500D01*
X89173000Y-54535500D01*
X89173000Y-53698750D01*
X89427000Y-53698750D01*
X89427000Y-54535500D01*
X90476250Y-54535500D01*
X90635000Y-54376750D01*
X90635000Y-54048691D01*
X90538327Y-53815302D01*
X90359699Y-53636673D01*
X90126310Y-53540000D01*
X89585750Y-53540000D01*
X89427000Y-53698750D01*
X89173000Y-53698750D01*
X89014250Y-53540000D01*
X88473690Y-53540000D01*
X88240301Y-53636673D01*
X88061673Y-53815302D01*
X87965000Y-54048691D01*
X84208848Y-54048691D01*
X81959749Y-51799592D01*
X81915953Y-51734047D01*
X81656292Y-51560546D01*
X81427316Y-51515000D01*
X81427312Y-51515000D01*
X81350000Y-51499622D01*
X81272688Y-51515000D01*
X70578711Y-51515000D01*
X70486280Y-51422569D01*
X70105874Y-51265000D01*
X69694126Y-51265000D01*
X69313720Y-51422569D01*
X69221289Y-51515000D01*
X64777312Y-51515000D01*
X64700000Y-51499622D01*
X64622688Y-51515000D01*
X64622684Y-51515000D01*
X64393708Y-51560546D01*
X64134047Y-51734047D01*
X64090251Y-51799592D01*
X61406337Y-54483506D01*
X61377431Y-54413720D01*
X61086280Y-54122569D01*
X60705874Y-53965000D01*
X60575157Y-53965000D01*
X57309749Y-50699592D01*
X57265953Y-50634047D01*
X57006292Y-50460546D01*
X56921312Y-50443642D01*
X56898157Y-50327235D01*
X56757809Y-50117191D01*
X56547765Y-49976843D01*
X56412815Y-49950000D01*
X56547765Y-49923157D01*
X56757809Y-49782809D01*
X56898157Y-49572765D01*
X56915614Y-49485000D01*
X57165000Y-49485000D01*
X57165000Y-49505874D01*
X57322569Y-49886280D01*
X57613720Y-50177431D01*
X57994126Y-50335000D01*
X58405874Y-50335000D01*
X58786280Y-50177431D01*
X59077431Y-49886280D01*
X59196011Y-49600000D01*
X59685908Y-49600000D01*
X59801161Y-50179418D01*
X60129375Y-50670625D01*
X60620582Y-50998839D01*
X61053744Y-51085000D01*
X61346256Y-51085000D01*
X61779418Y-50998839D01*
X62270625Y-50670625D01*
X62470000Y-50372239D01*
X62669375Y-50670625D01*
X63160582Y-50998839D01*
X63593744Y-51085000D01*
X63886256Y-51085000D01*
X64319418Y-50998839D01*
X64810625Y-50670625D01*
X65010000Y-50372239D01*
X65209375Y-50670625D01*
X65700582Y-50998839D01*
X66133744Y-51085000D01*
X66426256Y-51085000D01*
X66859418Y-50998839D01*
X67350625Y-50670625D01*
X67550000Y-50372239D01*
X67749375Y-50670625D01*
X68240582Y-50998839D01*
X68673744Y-51085000D01*
X68966256Y-51085000D01*
X69399418Y-50998839D01*
X69890625Y-50670625D01*
X70090000Y-50372239D01*
X70289375Y-50670625D01*
X70780582Y-50998839D01*
X71213744Y-51085000D01*
X71506256Y-51085000D01*
X71939418Y-50998839D01*
X72430625Y-50670625D01*
X72630000Y-50372239D01*
X72829375Y-50670625D01*
X73320582Y-50998839D01*
X73753744Y-51085000D01*
X74046256Y-51085000D01*
X74479418Y-50998839D01*
X74970625Y-50670625D01*
X75170000Y-50372239D01*
X75369375Y-50670625D01*
X75860582Y-50998839D01*
X76293744Y-51085000D01*
X76586256Y-51085000D01*
X77019418Y-50998839D01*
X77510625Y-50670625D01*
X77710000Y-50372239D01*
X77909375Y-50670625D01*
X78400582Y-50998839D01*
X78833744Y-51085000D01*
X79126256Y-51085000D01*
X79559418Y-50998839D01*
X80050625Y-50670625D01*
X80263843Y-50351522D01*
X80324817Y-50481358D01*
X80753076Y-50871645D01*
X81163110Y-51041476D01*
X81393000Y-50920155D01*
X81393000Y-49727000D01*
X81373000Y-49727000D01*
X81373000Y-49473000D01*
X81393000Y-49473000D01*
X81393000Y-48279845D01*
X81647000Y-48279845D01*
X81647000Y-49473000D01*
X81667000Y-49473000D01*
X81667000Y-49727000D01*
X81647000Y-49727000D01*
X81647000Y-50920155D01*
X81876890Y-51041476D01*
X82286924Y-50871645D01*
X82715183Y-50481358D01*
X82776157Y-50351522D01*
X82989375Y-50670625D01*
X83480582Y-50998839D01*
X83913744Y-51085000D01*
X84206256Y-51085000D01*
X84639418Y-50998839D01*
X85130625Y-50670625D01*
X85330000Y-50372239D01*
X85529375Y-50670625D01*
X86020582Y-50998839D01*
X86453744Y-51085000D01*
X86746256Y-51085000D01*
X87179418Y-50998839D01*
X87670625Y-50670625D01*
X87883843Y-50351522D01*
X87944817Y-50481358D01*
X88373076Y-50871645D01*
X88783110Y-51041476D01*
X89013000Y-50920155D01*
X89013000Y-49727000D01*
X88993000Y-49727000D01*
X88993000Y-49473000D01*
X89013000Y-49473000D01*
X89013000Y-48279845D01*
X89267000Y-48279845D01*
X89267000Y-49473000D01*
X89287000Y-49473000D01*
X89287000Y-49727000D01*
X89267000Y-49727000D01*
X89267000Y-50920155D01*
X89496890Y-51041476D01*
X89906924Y-50871645D01*
X90335183Y-50481358D01*
X90396157Y-50351522D01*
X90609375Y-50670625D01*
X91100582Y-50998839D01*
X91533744Y-51085000D01*
X91826256Y-51085000D01*
X92259418Y-50998839D01*
X92750625Y-50670625D01*
X92950000Y-50372239D01*
X93149375Y-50670625D01*
X93640582Y-50998839D01*
X94073744Y-51085000D01*
X94366256Y-51085000D01*
X94799418Y-50998839D01*
X95290625Y-50670625D01*
X95490000Y-50372239D01*
X95689375Y-50670625D01*
X96180582Y-50998839D01*
X96613744Y-51085000D01*
X96906256Y-51085000D01*
X97339418Y-50998839D01*
X97830625Y-50670625D01*
X97842816Y-50652381D01*
X97851843Y-50697765D01*
X97992191Y-50907809D01*
X98202235Y-51048157D01*
X98450000Y-51097440D01*
X100150000Y-51097440D01*
X100397765Y-51048157D01*
X100607809Y-50907809D01*
X100748157Y-50697765D01*
X100797440Y-50450000D01*
X100797440Y-48750000D01*
X100748157Y-48502235D01*
X100607809Y-48292191D01*
X100397765Y-48151843D01*
X100150000Y-48102560D01*
X98450000Y-48102560D01*
X98202235Y-48151843D01*
X97992191Y-48292191D01*
X97851843Y-48502235D01*
X97842816Y-48547619D01*
X97830625Y-48529375D01*
X97339418Y-48201161D01*
X96906256Y-48115000D01*
X96613744Y-48115000D01*
X96180582Y-48201161D01*
X95689375Y-48529375D01*
X95490000Y-48827761D01*
X95290625Y-48529375D01*
X94799418Y-48201161D01*
X94366256Y-48115000D01*
X94073744Y-48115000D01*
X93640582Y-48201161D01*
X93149375Y-48529375D01*
X92950000Y-48827761D01*
X92750625Y-48529375D01*
X92259418Y-48201161D01*
X91826256Y-48115000D01*
X91533744Y-48115000D01*
X91100582Y-48201161D01*
X90609375Y-48529375D01*
X90396157Y-48848478D01*
X90335183Y-48718642D01*
X89906924Y-48328355D01*
X89496890Y-48158524D01*
X89267000Y-48279845D01*
X89013000Y-48279845D01*
X88783110Y-48158524D01*
X88373076Y-48328355D01*
X87944817Y-48718642D01*
X87883843Y-48848478D01*
X87670625Y-48529375D01*
X87179418Y-48201161D01*
X86746256Y-48115000D01*
X86453744Y-48115000D01*
X86020582Y-48201161D01*
X85529375Y-48529375D01*
X85330000Y-48827761D01*
X85130625Y-48529375D01*
X84639418Y-48201161D01*
X84206256Y-48115000D01*
X83913744Y-48115000D01*
X83480582Y-48201161D01*
X82989375Y-48529375D01*
X82776157Y-48848478D01*
X82715183Y-48718642D01*
X82286924Y-48328355D01*
X81876890Y-48158524D01*
X81647000Y-48279845D01*
X81393000Y-48279845D01*
X81163110Y-48158524D01*
X80753076Y-48328355D01*
X80324817Y-48718642D01*
X80263843Y-48848478D01*
X80050625Y-48529375D01*
X79559418Y-48201161D01*
X79126256Y-48115000D01*
X78833744Y-48115000D01*
X78400582Y-48201161D01*
X77909375Y-48529375D01*
X77710000Y-48827761D01*
X77510625Y-48529375D01*
X77019418Y-48201161D01*
X76586256Y-48115000D01*
X76293744Y-48115000D01*
X75860582Y-48201161D01*
X75369375Y-48529375D01*
X75170000Y-48827761D01*
X74970625Y-48529375D01*
X74479418Y-48201161D01*
X74046256Y-48115000D01*
X73753744Y-48115000D01*
X73320582Y-48201161D01*
X72829375Y-48529375D01*
X72630000Y-48827761D01*
X72430625Y-48529375D01*
X71939418Y-48201161D01*
X71506256Y-48115000D01*
X71213744Y-48115000D01*
X70780582Y-48201161D01*
X70289375Y-48529375D01*
X70090000Y-48827761D01*
X69890625Y-48529375D01*
X69399418Y-48201161D01*
X68966256Y-48115000D01*
X68673744Y-48115000D01*
X68240582Y-48201161D01*
X67749375Y-48529375D01*
X67550000Y-48827761D01*
X67350625Y-48529375D01*
X66859418Y-48201161D01*
X66426256Y-48115000D01*
X66133744Y-48115000D01*
X65700582Y-48201161D01*
X65209375Y-48529375D01*
X65010000Y-48827761D01*
X64810625Y-48529375D01*
X64319418Y-48201161D01*
X63886256Y-48115000D01*
X63593744Y-48115000D01*
X63160582Y-48201161D01*
X62669375Y-48529375D01*
X62470000Y-48827761D01*
X62270625Y-48529375D01*
X61779418Y-48201161D01*
X61346256Y-48115000D01*
X61053744Y-48115000D01*
X60620582Y-48201161D01*
X60129375Y-48529375D01*
X59801161Y-49020582D01*
X59685908Y-49600000D01*
X59196011Y-49600000D01*
X59235000Y-49505874D01*
X59235000Y-49094126D01*
X59077431Y-48713720D01*
X58786280Y-48422569D01*
X58405874Y-48265000D01*
X58275157Y-48265000D01*
X58209749Y-48199592D01*
X58165953Y-48134047D01*
X57906292Y-47960546D01*
X57677316Y-47915000D01*
X57677312Y-47915000D01*
X57600000Y-47899622D01*
X57522688Y-47915000D01*
X56915614Y-47915000D01*
X56898157Y-47827235D01*
X56757809Y-47617191D01*
X56547765Y-47476843D01*
X56300000Y-47427560D01*
X53800000Y-47427560D01*
X53552235Y-47476843D01*
X53385000Y-47588587D01*
X53385000Y-47584180D01*
X53219818Y-47185397D01*
X52914603Y-46880182D01*
X52515820Y-46715000D01*
X52084180Y-46715000D01*
X51685397Y-46880182D01*
X51380182Y-47185397D01*
X51215000Y-47584180D01*
X51215000Y-48015820D01*
X51380182Y-48414603D01*
X51685397Y-48719818D01*
X52084180Y-48885000D01*
X52515820Y-48885000D01*
X52914603Y-48719818D01*
X53152560Y-48481861D01*
X53152560Y-49325000D01*
X53201843Y-49572765D01*
X53342191Y-49782809D01*
X53552235Y-49923157D01*
X53687185Y-49950000D01*
X53552235Y-49976843D01*
X53342191Y-50117191D01*
X53201843Y-50327235D01*
X53152560Y-50575000D01*
X53152560Y-51825000D01*
X53201843Y-52072765D01*
X53342191Y-52282809D01*
X53552235Y-52423157D01*
X53687185Y-52450000D01*
X53552235Y-52476843D01*
X53342191Y-52617191D01*
X53201843Y-52827235D01*
X53152560Y-53075000D01*
X53152560Y-53918139D01*
X52914603Y-53680182D01*
X52515820Y-53515000D01*
X52084180Y-53515000D01*
X51685397Y-53680182D01*
X51380182Y-53985397D01*
X51215000Y-54384180D01*
X51215000Y-54815820D01*
X51380182Y-55214603D01*
X51685397Y-55519818D01*
X52084180Y-55685000D01*
X52515820Y-55685000D01*
X52914603Y-55519818D01*
X53219818Y-55214603D01*
X53385000Y-54815820D01*
X53385000Y-54811413D01*
X53552235Y-54923157D01*
X53800000Y-54972440D01*
X56300000Y-54972440D01*
X56547765Y-54923157D01*
X56757809Y-54782809D01*
X56898157Y-54572765D01*
X56947440Y-54325000D01*
X56947440Y-53075000D01*
X56898157Y-52827235D01*
X56757809Y-52617191D01*
X56547765Y-52476843D01*
X56412815Y-52450000D01*
X56547765Y-52423157D01*
X56706761Y-52316918D01*
X59465000Y-55075157D01*
X59465000Y-55205874D01*
X59622569Y-55586280D01*
X59913720Y-55877431D01*
X59983506Y-55906337D01*
X54199590Y-61690253D01*
X54134048Y-61734047D01*
X54090254Y-61799589D01*
X54090251Y-61799592D01*
X53960546Y-61993709D01*
X53899622Y-62300000D01*
X53915001Y-62377317D01*
X53915000Y-101260607D01*
X53901480Y-101328581D01*
X53550994Y-100978095D01*
X52674406Y-100615000D01*
X51725594Y-100615000D01*
X51121399Y-100865266D01*
X51121399Y-61134734D01*
X51725594Y-61385000D01*
X52674406Y-61385000D01*
X53550994Y-61021905D01*
X54221905Y-60350994D01*
X54585000Y-59474406D01*
X54585000Y-58525594D01*
X54221905Y-57649006D01*
X53550994Y-56978095D01*
X52674406Y-56615000D01*
X51725594Y-56615000D01*
X51121399Y-56865266D01*
X51121399Y-46127000D01*
X104867399Y-46127000D01*
X104867399Y-56694940D01*
X104867399Y-56694940D01*
G37*
X104867399Y-56694940D02*
X104674406Y-56615000D01*
X103725594Y-56615000D01*
X102849006Y-56978095D01*
X102178095Y-57649006D01*
X101815000Y-58525594D01*
X101815000Y-59474406D01*
X102178095Y-60350994D01*
X102849006Y-61021905D01*
X103725594Y-61385000D01*
X104674406Y-61385000D01*
X104867399Y-61305060D01*
X104867399Y-100694940D01*
X104674406Y-100615000D01*
X103725594Y-100615000D01*
X102849006Y-100978095D01*
X102178095Y-101649006D01*
X101815000Y-102525594D01*
X101815000Y-103474406D01*
X102178095Y-104350994D01*
X102849006Y-105021905D01*
X103725594Y-105385000D01*
X104674406Y-105385000D01*
X104867399Y-105305060D01*
X104867399Y-107873000D01*
X99027000Y-107873000D01*
X99027000Y-104285000D01*
X99822688Y-104285000D01*
X99900000Y-104300378D01*
X99977312Y-104285000D01*
X99977316Y-104285000D01*
X100206292Y-104239454D01*
X100465953Y-104065953D01*
X100509749Y-104000408D01*
X100575157Y-103935000D01*
X100705874Y-103935000D01*
X101086280Y-103777431D01*
X101377431Y-103486280D01*
X101535000Y-103105874D01*
X101535000Y-102694126D01*
X101377431Y-102313720D01*
X101285000Y-102221289D01*
X101285000Y-101825157D01*
X102863082Y-100247075D01*
X103053744Y-100285000D01*
X103346256Y-100285000D01*
X103779418Y-100198839D01*
X104270625Y-99870625D01*
X104598839Y-99379418D01*
X104714092Y-98800000D01*
X104598839Y-98220582D01*
X104270625Y-97729375D01*
X104252381Y-97717184D01*
X104297765Y-97708157D01*
X104507809Y-97567809D01*
X104648157Y-97357765D01*
X104697440Y-97110000D01*
X104697440Y-95410000D01*
X104648157Y-95162235D01*
X104507809Y-94952191D01*
X104297765Y-94811843D01*
X104050000Y-94762560D01*
X102350000Y-94762560D01*
X102102235Y-94811843D01*
X101892191Y-94952191D01*
X101751843Y-95162235D01*
X101702560Y-95410000D01*
X101702560Y-95815000D01*
X100877316Y-95815000D01*
X100800000Y-95799621D01*
X100722684Y-95815000D01*
X99378711Y-95815000D01*
X99286280Y-95722569D01*
X98905874Y-95565000D01*
X98494126Y-95565000D01*
X98113720Y-95722569D01*
X97822569Y-96013720D01*
X97665000Y-96394126D01*
X97665000Y-96805874D01*
X97734226Y-96973000D01*
X94596278Y-96973000D01*
X94553454Y-96757708D01*
X94435000Y-96580430D01*
X94435000Y-96444126D01*
X94277431Y-96063720D01*
X93986280Y-95772569D01*
X93605874Y-95615000D01*
X93202225Y-95615000D01*
X93077431Y-95313720D01*
X92786280Y-95022569D01*
X92405874Y-94865000D01*
X91994126Y-94865000D01*
X91613720Y-95022569D01*
X91521289Y-95115000D01*
X88947440Y-95115000D01*
X88947440Y-94943750D01*
X88879602Y-94602706D01*
X88686416Y-94313584D01*
X88591256Y-94250000D01*
X88686416Y-94186416D01*
X88879602Y-93897294D01*
X88947440Y-93556250D01*
X88947440Y-93068750D01*
X88879602Y-92727706D01*
X88699259Y-92457805D01*
X88747765Y-92448157D01*
X88957809Y-92307809D01*
X89098157Y-92097765D01*
X89147440Y-91850000D01*
X89147440Y-90050000D01*
X89098157Y-89802235D01*
X88957809Y-89592191D01*
X88747765Y-89451843D01*
X88732092Y-89448725D01*
X88901310Y-89279507D01*
X89135000Y-88715330D01*
X89135000Y-88104670D01*
X88901310Y-87540493D01*
X88469507Y-87108690D01*
X88317843Y-87045868D01*
X88477431Y-86886280D01*
X88635000Y-86505874D01*
X88635000Y-86094126D01*
X88477431Y-85713720D01*
X88385000Y-85621289D01*
X88385000Y-85539397D01*
X98200411Y-75723987D01*
X98265953Y-75680193D01*
X98309747Y-75614651D01*
X98309749Y-75614649D01*
X98439454Y-75420532D01*
X98453402Y-75350409D01*
X98485000Y-75191556D01*
X98485000Y-75191552D01*
X98500378Y-75114240D01*
X98485000Y-75036928D01*
X98485000Y-56625157D01*
X103750411Y-51359747D01*
X103815953Y-51315953D01*
X103859747Y-51250411D01*
X103859749Y-51250409D01*
X103909885Y-51175375D01*
X103989454Y-51056292D01*
X104035000Y-50827316D01*
X104035000Y-50827312D01*
X104050378Y-50750001D01*
X104035000Y-50672690D01*
X104035000Y-47977310D01*
X104050378Y-47899999D01*
X104035000Y-47822688D01*
X104035000Y-47822684D01*
X103989454Y-47593708D01*
X103863947Y-47405874D01*
X103859749Y-47399591D01*
X103859747Y-47399589D01*
X103815953Y-47334047D01*
X103750411Y-47290253D01*
X103109749Y-46649592D01*
X103065953Y-46584047D01*
X102806292Y-46410546D01*
X102577316Y-46365000D01*
X102577312Y-46365000D01*
X102500000Y-46349622D01*
X102422688Y-46365000D01*
X76327312Y-46365000D01*
X76250000Y-46349622D01*
X76172688Y-46365000D01*
X76172684Y-46365000D01*
X75943708Y-46410546D01*
X75937042Y-46415000D01*
X75478711Y-46415000D01*
X75386280Y-46322569D01*
X75005874Y-46165000D01*
X74594126Y-46165000D01*
X74213720Y-46322569D01*
X73922569Y-46613720D01*
X73765000Y-46994126D01*
X73765000Y-47405874D01*
X73922569Y-47786280D01*
X74213720Y-48077431D01*
X74594126Y-48235000D01*
X75005874Y-48235000D01*
X75386280Y-48077431D01*
X75478711Y-47985000D01*
X76122688Y-47985000D01*
X76200000Y-48000378D01*
X76277312Y-47985000D01*
X76277316Y-47985000D01*
X76506292Y-47939454D01*
X76512958Y-47935000D01*
X102174843Y-47935000D01*
X102465001Y-48225159D01*
X102465000Y-50424842D01*
X97199590Y-55690253D01*
X97134048Y-55734047D01*
X97090254Y-55799589D01*
X97090251Y-55799592D01*
X96960546Y-55993709D01*
X96899622Y-56300000D01*
X96915001Y-56377317D01*
X96915001Y-63042721D01*
X95171871Y-61299592D01*
X95128075Y-61234047D01*
X95112221Y-61223454D01*
X95007809Y-61067191D01*
X94797765Y-60926843D01*
X94550000Y-60877560D01*
X93222440Y-60877560D01*
X93222440Y-59550000D01*
X93173157Y-59302235D01*
X93032809Y-59092191D01*
X92822765Y-58951843D01*
X92575000Y-58902560D01*
X92157597Y-58902560D01*
X94800411Y-56259747D01*
X94865953Y-56215953D01*
X94909747Y-56150411D01*
X94909749Y-56150409D01*
X95039454Y-55956292D01*
X95070623Y-55799592D01*
X95085000Y-55727316D01*
X95085000Y-55727312D01*
X95100378Y-55650000D01*
X95085000Y-55572688D01*
X95085000Y-53478711D01*
X95177431Y-53386280D01*
X95335000Y-53005874D01*
X95335000Y-52594126D01*
X95177431Y-52213720D01*
X94886280Y-51922569D01*
X94505874Y-51765000D01*
X94094126Y-51765000D01*
X93713720Y-51922569D01*
X93422569Y-52213720D01*
X93265000Y-52594126D01*
X93265000Y-53005874D01*
X93422569Y-53386280D01*
X93515001Y-53478712D01*
X93515000Y-55324842D01*
X92485000Y-56354842D01*
X92485000Y-53578711D01*
X92577431Y-53486280D01*
X92735000Y-53105874D01*
X92735000Y-52694126D01*
X92577431Y-52313720D01*
X92286280Y-52022569D01*
X91905874Y-51865000D01*
X91494126Y-51865000D01*
X91113720Y-52022569D01*
X90822569Y-52313720D01*
X90665000Y-52694126D01*
X90665000Y-53105874D01*
X90822569Y-53486280D01*
X90915001Y-53578712D01*
X90915000Y-57124842D01*
X89885000Y-58154843D01*
X89885000Y-57662447D01*
X89897035Y-57644436D01*
X90097294Y-57604602D01*
X90386416Y-57411416D01*
X90579602Y-57122294D01*
X90647440Y-56781250D01*
X90647440Y-56293750D01*
X90579602Y-55952706D01*
X90386416Y-55663584D01*
X90385233Y-55662793D01*
X90538327Y-55509698D01*
X90635000Y-55276309D01*
X90635000Y-54948250D01*
X90476250Y-54789500D01*
X89427000Y-54789500D01*
X89427000Y-54809500D01*
X89173000Y-54809500D01*
X89173000Y-54789500D01*
X88123750Y-54789500D01*
X87965000Y-54948250D01*
X87965000Y-55276309D01*
X88061673Y-55509698D01*
X88214767Y-55662793D01*
X88213584Y-55663584D01*
X88020398Y-55952706D01*
X87952560Y-56293750D01*
X87952560Y-56781250D01*
X88020398Y-57122294D01*
X88213584Y-57411416D01*
X88315000Y-57479180D01*
X88315000Y-58154843D01*
X84208848Y-54048691D01*
X87965000Y-54048691D01*
X87965000Y-54376750D01*
X88123750Y-54535500D01*
X89173000Y-54535500D01*
X89173000Y-53698750D01*
X89427000Y-53698750D01*
X89427000Y-54535500D01*
X90476250Y-54535500D01*
X90635000Y-54376750D01*
X90635000Y-54048691D01*
X90538327Y-53815302D01*
X90359699Y-53636673D01*
X90126310Y-53540000D01*
X89585750Y-53540000D01*
X89427000Y-53698750D01*
X89173000Y-53698750D01*
X89014250Y-53540000D01*
X88473690Y-53540000D01*
X88240301Y-53636673D01*
X88061673Y-53815302D01*
X87965000Y-54048691D01*
X84208848Y-54048691D01*
X81959749Y-51799592D01*
X81915953Y-51734047D01*
X81656292Y-51560546D01*
X81427316Y-51515000D01*
X81427312Y-51515000D01*
X81350000Y-51499622D01*
X81272688Y-51515000D01*
X70578711Y-51515000D01*
X70486280Y-51422569D01*
X70105874Y-51265000D01*
X69694126Y-51265000D01*
X69313720Y-51422569D01*
X69221289Y-51515000D01*
X64777312Y-51515000D01*
X64700000Y-51499622D01*
X64622688Y-51515000D01*
X64622684Y-51515000D01*
X64393708Y-51560546D01*
X64134047Y-51734047D01*
X64090251Y-51799592D01*
X61406337Y-54483506D01*
X61377431Y-54413720D01*
X61086280Y-54122569D01*
X60705874Y-53965000D01*
X60575157Y-53965000D01*
X57309749Y-50699592D01*
X57265953Y-50634047D01*
X57006292Y-50460546D01*
X56921312Y-50443642D01*
X56898157Y-50327235D01*
X56757809Y-50117191D01*
X56547765Y-49976843D01*
X56412815Y-49950000D01*
X56547765Y-49923157D01*
X56757809Y-49782809D01*
X56898157Y-49572765D01*
X56915614Y-49485000D01*
X57165000Y-49485000D01*
X57165000Y-49505874D01*
X57322569Y-49886280D01*
X57613720Y-50177431D01*
X57994126Y-50335000D01*
X58405874Y-50335000D01*
X58786280Y-50177431D01*
X59077431Y-49886280D01*
X59196011Y-49600000D01*
X59685908Y-49600000D01*
X59801161Y-50179418D01*
X60129375Y-50670625D01*
X60620582Y-50998839D01*
X61053744Y-51085000D01*
X61346256Y-51085000D01*
X61779418Y-50998839D01*
X62270625Y-50670625D01*
X62470000Y-50372239D01*
X62669375Y-50670625D01*
X63160582Y-50998839D01*
X63593744Y-51085000D01*
X63886256Y-51085000D01*
X64319418Y-50998839D01*
X64810625Y-50670625D01*
X65010000Y-50372239D01*
X65209375Y-50670625D01*
X65700582Y-50998839D01*
X66133744Y-51085000D01*
X66426256Y-51085000D01*
X66859418Y-50998839D01*
X67350625Y-50670625D01*
X67550000Y-50372239D01*
X67749375Y-50670625D01*
X68240582Y-50998839D01*
X68673744Y-51085000D01*
X68966256Y-51085000D01*
X69399418Y-50998839D01*
X69890625Y-50670625D01*
X70090000Y-50372239D01*
X70289375Y-50670625D01*
X70780582Y-50998839D01*
X71213744Y-51085000D01*
X71506256Y-51085000D01*
X71939418Y-50998839D01*
X72430625Y-50670625D01*
X72630000Y-50372239D01*
X72829375Y-50670625D01*
X73320582Y-50998839D01*
X73753744Y-51085000D01*
X74046256Y-51085000D01*
X74479418Y-50998839D01*
X74970625Y-50670625D01*
X75170000Y-50372239D01*
X75369375Y-50670625D01*
X75860582Y-50998839D01*
X76293744Y-51085000D01*
X76586256Y-51085000D01*
X77019418Y-50998839D01*
X77510625Y-50670625D01*
X77710000Y-50372239D01*
X77909375Y-50670625D01*
X78400582Y-50998839D01*
X78833744Y-51085000D01*
X79126256Y-51085000D01*
X79559418Y-50998839D01*
X80050625Y-50670625D01*
X80263843Y-50351522D01*
X80324817Y-50481358D01*
X80753076Y-50871645D01*
X81163110Y-51041476D01*
X81393000Y-50920155D01*
X81393000Y-49727000D01*
X81373000Y-49727000D01*
X81373000Y-49473000D01*
X81393000Y-49473000D01*
X81393000Y-48279845D01*
X81647000Y-48279845D01*
X81647000Y-49473000D01*
X81667000Y-49473000D01*
X81667000Y-49727000D01*
X81647000Y-49727000D01*
X81647000Y-50920155D01*
X81876890Y-51041476D01*
X82286924Y-50871645D01*
X82715183Y-50481358D01*
X82776157Y-50351522D01*
X82989375Y-50670625D01*
X83480582Y-50998839D01*
X83913744Y-51085000D01*
X84206256Y-51085000D01*
X84639418Y-50998839D01*
X85130625Y-50670625D01*
X85330000Y-50372239D01*
X85529375Y-50670625D01*
X86020582Y-50998839D01*
X86453744Y-51085000D01*
X86746256Y-51085000D01*
X87179418Y-50998839D01*
X87670625Y-50670625D01*
X87883843Y-50351522D01*
X87944817Y-50481358D01*
X88373076Y-50871645D01*
X88783110Y-51041476D01*
X89013000Y-50920155D01*
X89013000Y-49727000D01*
X88993000Y-49727000D01*
X88993000Y-49473000D01*
X89013000Y-49473000D01*
X89013000Y-48279845D01*
X89267000Y-48279845D01*
X89267000Y-49473000D01*
X89287000Y-49473000D01*
X89287000Y-49727000D01*
X89267000Y-49727000D01*
X89267000Y-50920155D01*
X89496890Y-51041476D01*
X89906924Y-50871645D01*
X90335183Y-50481358D01*
X90396157Y-50351522D01*
X90609375Y-50670625D01*
X91100582Y-50998839D01*
X91533744Y-51085000D01*
X91826256Y-51085000D01*
X92259418Y-50998839D01*
X92750625Y-50670625D01*
X92950000Y-50372239D01*
X93149375Y-50670625D01*
X93640582Y-50998839D01*
X94073744Y-51085000D01*
X94366256Y-51085000D01*
X94799418Y-50998839D01*
X95290625Y-50670625D01*
X95490000Y-50372239D01*
X95689375Y-50670625D01*
X96180582Y-50998839D01*
X96613744Y-51085000D01*
X96906256Y-51085000D01*
X97339418Y-50998839D01*
X97830625Y-50670625D01*
X97842816Y-50652381D01*
X97851843Y-50697765D01*
X97992191Y-50907809D01*
X98202235Y-51048157D01*
X98450000Y-51097440D01*
X100150000Y-51097440D01*
X100397765Y-51048157D01*
X100607809Y-50907809D01*
X100748157Y-50697765D01*
X100797440Y-50450000D01*
X100797440Y-48750000D01*
X100748157Y-48502235D01*
X100607809Y-48292191D01*
X100397765Y-48151843D01*
X100150000Y-48102560D01*
X98450000Y-48102560D01*
X98202235Y-48151843D01*
X97992191Y-48292191D01*
X97851843Y-48502235D01*
X97842816Y-48547619D01*
X97830625Y-48529375D01*
X97339418Y-48201161D01*
X96906256Y-48115000D01*
X96613744Y-48115000D01*
X96180582Y-48201161D01*
X95689375Y-48529375D01*
X95490000Y-48827761D01*
X95290625Y-48529375D01*
X94799418Y-48201161D01*
X94366256Y-48115000D01*
X94073744Y-48115000D01*
X93640582Y-48201161D01*
X93149375Y-48529375D01*
X92950000Y-48827761D01*
X92750625Y-48529375D01*
X92259418Y-48201161D01*
X91826256Y-48115000D01*
X91533744Y-48115000D01*
X91100582Y-48201161D01*
X90609375Y-48529375D01*
X90396157Y-48848478D01*
X90335183Y-48718642D01*
X89906924Y-48328355D01*
X89496890Y-48158524D01*
X89267000Y-48279845D01*
X89013000Y-48279845D01*
X88783110Y-48158524D01*
X88373076Y-48328355D01*
X87944817Y-48718642D01*
X87883843Y-48848478D01*
X87670625Y-48529375D01*
X87179418Y-48201161D01*
X86746256Y-48115000D01*
X86453744Y-48115000D01*
X86020582Y-48201161D01*
X85529375Y-48529375D01*
X85330000Y-48827761D01*
X85130625Y-48529375D01*
X84639418Y-48201161D01*
X84206256Y-48115000D01*
X83913744Y-48115000D01*
X83480582Y-48201161D01*
X82989375Y-48529375D01*
X82776157Y-48848478D01*
X82715183Y-48718642D01*
X82286924Y-48328355D01*
X81876890Y-48158524D01*
X81647000Y-48279845D01*
X81393000Y-48279845D01*
X81163110Y-48158524D01*
X80753076Y-48328355D01*
X80324817Y-48718642D01*
X80263843Y-48848478D01*
X80050625Y-48529375D01*
X79559418Y-48201161D01*
X79126256Y-48115000D01*
X78833744Y-48115000D01*
X78400582Y-48201161D01*
X77909375Y-48529375D01*
X77710000Y-48827761D01*
X77510625Y-48529375D01*
X77019418Y-48201161D01*
X76586256Y-48115000D01*
X76293744Y-48115000D01*
X75860582Y-48201161D01*
X75369375Y-48529375D01*
X75170000Y-48827761D01*
X74970625Y-48529375D01*
X74479418Y-48201161D01*
X74046256Y-48115000D01*
X73753744Y-48115000D01*
X73320582Y-48201161D01*
X72829375Y-48529375D01*
X72630000Y-48827761D01*
X72430625Y-48529375D01*
X71939418Y-48201161D01*
X71506256Y-48115000D01*
X71213744Y-48115000D01*
X70780582Y-48201161D01*
X70289375Y-48529375D01*
X70090000Y-48827761D01*
X69890625Y-48529375D01*
X69399418Y-48201161D01*
X68966256Y-48115000D01*
X68673744Y-48115000D01*
X68240582Y-48201161D01*
X67749375Y-48529375D01*
X67550000Y-48827761D01*
X67350625Y-48529375D01*
X66859418Y-48201161D01*
X66426256Y-48115000D01*
X66133744Y-48115000D01*
X65700582Y-48201161D01*
X65209375Y-48529375D01*
X65010000Y-48827761D01*
X64810625Y-48529375D01*
X64319418Y-48201161D01*
X63886256Y-48115000D01*
X63593744Y-48115000D01*
X63160582Y-48201161D01*
X62669375Y-48529375D01*
X62470000Y-48827761D01*
X62270625Y-48529375D01*
X61779418Y-48201161D01*
X61346256Y-48115000D01*
X61053744Y-48115000D01*
X60620582Y-48201161D01*
X60129375Y-48529375D01*
X59801161Y-49020582D01*
X59685908Y-49600000D01*
X59196011Y-49600000D01*
X59235000Y-49505874D01*
X59235000Y-49094126D01*
X59077431Y-48713720D01*
X58786280Y-48422569D01*
X58405874Y-48265000D01*
X58275157Y-48265000D01*
X58209749Y-48199592D01*
X58165953Y-48134047D01*
X57906292Y-47960546D01*
X57677316Y-47915000D01*
X57677312Y-47915000D01*
X57600000Y-47899622D01*
X57522688Y-47915000D01*
X56915614Y-47915000D01*
X56898157Y-47827235D01*
X56757809Y-47617191D01*
X56547765Y-47476843D01*
X56300000Y-47427560D01*
X53800000Y-47427560D01*
X53552235Y-47476843D01*
X53385000Y-47588587D01*
X53385000Y-47584180D01*
X53219818Y-47185397D01*
X52914603Y-46880182D01*
X52515820Y-46715000D01*
X52084180Y-46715000D01*
X51685397Y-46880182D01*
X51380182Y-47185397D01*
X51215000Y-47584180D01*
X51215000Y-48015820D01*
X51380182Y-48414603D01*
X51685397Y-48719818D01*
X52084180Y-48885000D01*
X52515820Y-48885000D01*
X52914603Y-48719818D01*
X53152560Y-48481861D01*
X53152560Y-49325000D01*
X53201843Y-49572765D01*
X53342191Y-49782809D01*
X53552235Y-49923157D01*
X53687185Y-49950000D01*
X53552235Y-49976843D01*
X53342191Y-50117191D01*
X53201843Y-50327235D01*
X53152560Y-50575000D01*
X53152560Y-51825000D01*
X53201843Y-52072765D01*
X53342191Y-52282809D01*
X53552235Y-52423157D01*
X53687185Y-52450000D01*
X53552235Y-52476843D01*
X53342191Y-52617191D01*
X53201843Y-52827235D01*
X53152560Y-53075000D01*
X53152560Y-53918139D01*
X52914603Y-53680182D01*
X52515820Y-53515000D01*
X52084180Y-53515000D01*
X51685397Y-53680182D01*
X51380182Y-53985397D01*
X51215000Y-54384180D01*
X51215000Y-54815820D01*
X51380182Y-55214603D01*
X51685397Y-55519818D01*
X52084180Y-55685000D01*
X52515820Y-55685000D01*
X52914603Y-55519818D01*
X53219818Y-55214603D01*
X53385000Y-54815820D01*
X53385000Y-54811413D01*
X53552235Y-54923157D01*
X53800000Y-54972440D01*
X56300000Y-54972440D01*
X56547765Y-54923157D01*
X56757809Y-54782809D01*
X56898157Y-54572765D01*
X56947440Y-54325000D01*
X56947440Y-53075000D01*
X56898157Y-52827235D01*
X56757809Y-52617191D01*
X56547765Y-52476843D01*
X56412815Y-52450000D01*
X56547765Y-52423157D01*
X56706761Y-52316918D01*
X59465000Y-55075157D01*
X59465000Y-55205874D01*
X59622569Y-55586280D01*
X59913720Y-55877431D01*
X59983506Y-55906337D01*
X54199590Y-61690253D01*
X54134048Y-61734047D01*
X54090254Y-61799589D01*
X54090251Y-61799592D01*
X53960546Y-61993709D01*
X53899622Y-62300000D01*
X53915001Y-62377317D01*
X53915000Y-101260607D01*
X53901480Y-101328581D01*
X53550994Y-100978095D01*
X52674406Y-100615000D01*
X51725594Y-100615000D01*
X51121399Y-100865266D01*
X51121399Y-61134734D01*
X51725594Y-61385000D01*
X52674406Y-61385000D01*
X53550994Y-61021905D01*
X54221905Y-60350994D01*
X54585000Y-59474406D01*
X54585000Y-58525594D01*
X54221905Y-57649006D01*
X53550994Y-56978095D01*
X52674406Y-56615000D01*
X51725594Y-56615000D01*
X51121399Y-56865266D01*
X51121399Y-46127000D01*
X104867399Y-46127000D01*
X104867399Y-56694940D01*
G36*
X70813720Y-54577431D02*
X71194126Y-54735000D01*
X71605874Y-54735000D01*
X71986280Y-54577431D01*
X72078711Y-54485000D01*
X81624843Y-54485000D01*
X86125952Y-58986110D01*
X85967191Y-59092191D01*
X85826843Y-59302235D01*
X85777560Y-59550000D01*
X85777560Y-60877560D01*
X84450000Y-60877560D01*
X84202235Y-60926843D01*
X83992191Y-61067191D01*
X83851843Y-61277235D01*
X83802560Y-61525000D01*
X83802560Y-62075000D01*
X83827424Y-62200000D01*
X83802560Y-62325000D01*
X83802560Y-62875000D01*
X83827424Y-63000000D01*
X83802560Y-63125000D01*
X83802560Y-63675000D01*
X83823217Y-63778852D01*
X83815000Y-63798690D01*
X83815000Y-63914250D01*
X83908888Y-64008138D01*
X83992191Y-64132809D01*
X84092749Y-64200000D01*
X84070300Y-64215000D01*
X82775157Y-64215000D01*
X82185000Y-63624843D01*
X82185000Y-63494126D01*
X82027431Y-63113720D01*
X81736280Y-62822569D01*
X81355874Y-62665000D01*
X80944126Y-62665000D01*
X80563720Y-62822569D01*
X80272569Y-63113720D01*
X80115000Y-63494126D01*
X80115000Y-63905874D01*
X80272569Y-64286280D01*
X80563720Y-64577431D01*
X80944126Y-64735000D01*
X81074843Y-64735000D01*
X81840251Y-65500408D01*
X81884047Y-65565953D01*
X82107110Y-65715000D01*
X76970191Y-65715000D01*
X76892879Y-65699622D01*
X76815567Y-65715000D01*
X76815564Y-65715000D01*
X76586588Y-65760546D01*
X76392471Y-65890251D01*
X76392469Y-65890253D01*
X76326927Y-65934047D01*
X76283133Y-65999589D01*
X65699580Y-76583143D01*
X65634038Y-76626937D01*
X65590244Y-76692479D01*
X65590241Y-76692482D01*
X65460536Y-76886599D01*
X65399612Y-77192890D01*
X65414991Y-77270207D01*
X65414990Y-82703354D01*
X65414990Y-82874852D01*
X63574843Y-84715000D01*
X63353687Y-84715000D01*
X62984540Y-84345853D01*
X62475494Y-84135000D01*
X61924506Y-84135000D01*
X61415460Y-84345853D01*
X61046313Y-84715000D01*
X59507047Y-84715000D01*
X59504602Y-84702706D01*
X59311416Y-84413584D01*
X59022294Y-84220398D01*
X58681250Y-84152560D01*
X58193750Y-84152560D01*
X57852706Y-84220398D01*
X57563584Y-84413584D01*
X57500000Y-84508744D01*
X57436416Y-84413584D01*
X57147294Y-84220398D01*
X56806250Y-84152560D01*
X56318750Y-84152560D01*
X55985010Y-84218945D01*
X55985010Y-78585594D01*
X59015000Y-78585594D01*
X59015000Y-79534406D01*
X59378095Y-80410994D01*
X60049006Y-81081905D01*
X60925594Y-81445000D01*
X61874406Y-81445000D01*
X62750994Y-81081905D01*
X63421905Y-80410994D01*
X63785000Y-79534406D01*
X63785000Y-78585594D01*
X63421905Y-77709006D01*
X62750994Y-77038095D01*
X61874406Y-76675000D01*
X60925594Y-76675000D01*
X60049006Y-77038095D01*
X59378095Y-77709006D01*
X59015000Y-78585594D01*
X55985010Y-78585594D01*
X55985010Y-62832267D01*
X64332278Y-54485000D01*
X70721289Y-54485000D01*
X70813720Y-54577431D01*
X70813720Y-54577431D01*
G37*
X70813720Y-54577431D02*
X71194126Y-54735000D01*
X71605874Y-54735000D01*
X71986280Y-54577431D01*
X72078711Y-54485000D01*
X81624843Y-54485000D01*
X86125952Y-58986110D01*
X85967191Y-59092191D01*
X85826843Y-59302235D01*
X85777560Y-59550000D01*
X85777560Y-60877560D01*
X84450000Y-60877560D01*
X84202235Y-60926843D01*
X83992191Y-61067191D01*
X83851843Y-61277235D01*
X83802560Y-61525000D01*
X83802560Y-62075000D01*
X83827424Y-62200000D01*
X83802560Y-62325000D01*
X83802560Y-62875000D01*
X83827424Y-63000000D01*
X83802560Y-63125000D01*
X83802560Y-63675000D01*
X83823217Y-63778852D01*
X83815000Y-63798690D01*
X83815000Y-63914250D01*
X83908888Y-64008138D01*
X83992191Y-64132809D01*
X84092749Y-64200000D01*
X84070300Y-64215000D01*
X82775157Y-64215000D01*
X82185000Y-63624843D01*
X82185000Y-63494126D01*
X82027431Y-63113720D01*
X81736280Y-62822569D01*
X81355874Y-62665000D01*
X80944126Y-62665000D01*
X80563720Y-62822569D01*
X80272569Y-63113720D01*
X80115000Y-63494126D01*
X80115000Y-63905874D01*
X80272569Y-64286280D01*
X80563720Y-64577431D01*
X80944126Y-64735000D01*
X81074843Y-64735000D01*
X81840251Y-65500408D01*
X81884047Y-65565953D01*
X82107110Y-65715000D01*
X76970191Y-65715000D01*
X76892879Y-65699622D01*
X76815567Y-65715000D01*
X76815564Y-65715000D01*
X76586588Y-65760546D01*
X76392471Y-65890251D01*
X76392469Y-65890253D01*
X76326927Y-65934047D01*
X76283133Y-65999589D01*
X65699580Y-76583143D01*
X65634038Y-76626937D01*
X65590244Y-76692479D01*
X65590241Y-76692482D01*
X65460536Y-76886599D01*
X65399612Y-77192890D01*
X65414991Y-77270207D01*
X65414990Y-82703354D01*
X65414990Y-82874852D01*
X63574843Y-84715000D01*
X63353687Y-84715000D01*
X62984540Y-84345853D01*
X62475494Y-84135000D01*
X61924506Y-84135000D01*
X61415460Y-84345853D01*
X61046313Y-84715000D01*
X59507047Y-84715000D01*
X59504602Y-84702706D01*
X59311416Y-84413584D01*
X59022294Y-84220398D01*
X58681250Y-84152560D01*
X58193750Y-84152560D01*
X57852706Y-84220398D01*
X57563584Y-84413584D01*
X57500000Y-84508744D01*
X57436416Y-84413584D01*
X57147294Y-84220398D01*
X56806250Y-84152560D01*
X56318750Y-84152560D01*
X55985010Y-84218945D01*
X55985010Y-78585594D01*
X59015000Y-78585594D01*
X59015000Y-79534406D01*
X59378095Y-80410994D01*
X60049006Y-81081905D01*
X60925594Y-81445000D01*
X61874406Y-81445000D01*
X62750994Y-81081905D01*
X63421905Y-80410994D01*
X63785000Y-79534406D01*
X63785000Y-78585594D01*
X63421905Y-77709006D01*
X62750994Y-77038095D01*
X61874406Y-76675000D01*
X60925594Y-76675000D01*
X60049006Y-77038095D01*
X59378095Y-77709006D01*
X59015000Y-78585594D01*
X55985010Y-78585594D01*
X55985010Y-62832267D01*
X64332278Y-54485000D01*
X70721289Y-54485000D01*
X70813720Y-54577431D01*
G36*
X92025000Y-61797440D02*
X92302560Y-61797440D01*
X92302560Y-62075000D01*
X92327424Y-62200000D01*
X92302560Y-62325000D01*
X92302560Y-62875000D01*
X92327424Y-63000000D01*
X92302560Y-63125000D01*
X92302560Y-63675000D01*
X92327424Y-63800000D01*
X92302560Y-63925000D01*
X92302560Y-64475000D01*
X92327424Y-64600000D01*
X92302560Y-64725000D01*
X92302560Y-65275000D01*
X92327424Y-65400000D01*
X92302560Y-65525000D01*
X92302560Y-66075000D01*
X92323217Y-66178852D01*
X92315000Y-66198690D01*
X92315000Y-66314250D01*
X92408888Y-66408138D01*
X92492191Y-66532809D01*
X92592749Y-66600000D01*
X92492191Y-66667191D01*
X92408888Y-66791862D01*
X92315000Y-66885750D01*
X92315000Y-67001310D01*
X92323217Y-67021148D01*
X92302560Y-67125000D01*
X92302560Y-67402560D01*
X92025000Y-67402560D01*
X91900000Y-67427424D01*
X91775000Y-67402560D01*
X91225000Y-67402560D01*
X91100000Y-67427424D01*
X90975000Y-67402560D01*
X90425000Y-67402560D01*
X90300000Y-67427424D01*
X90175000Y-67402560D01*
X89625000Y-67402560D01*
X89500000Y-67427424D01*
X89375000Y-67402560D01*
X88825000Y-67402560D01*
X88700000Y-67427424D01*
X88575000Y-67402560D01*
X88025000Y-67402560D01*
X87900000Y-67427424D01*
X87775000Y-67402560D01*
X87225000Y-67402560D01*
X87100000Y-67427424D01*
X86975000Y-67402560D01*
X86697440Y-67402560D01*
X86697440Y-67125000D01*
X86672576Y-67000000D01*
X86697440Y-66875000D01*
X86697440Y-66325000D01*
X86672576Y-66200000D01*
X86697440Y-66075000D01*
X86697440Y-65525000D01*
X86672576Y-65400000D01*
X86697440Y-65275000D01*
X86697440Y-64725000D01*
X86676783Y-64621148D01*
X86685000Y-64601310D01*
X86685000Y-64485750D01*
X86591112Y-64391862D01*
X86507809Y-64267191D01*
X86407251Y-64200000D01*
X86507809Y-64132809D01*
X86591112Y-64008138D01*
X86685000Y-63914250D01*
X86685000Y-63798690D01*
X86676783Y-63778852D01*
X86697440Y-63675000D01*
X86697440Y-63125000D01*
X86672576Y-63000000D01*
X86697440Y-62875000D01*
X86697440Y-62325000D01*
X86672576Y-62200000D01*
X86697440Y-62075000D01*
X86697440Y-61797440D01*
X86975000Y-61797440D01*
X87100000Y-61772576D01*
X87225000Y-61797440D01*
X87775000Y-61797440D01*
X87900000Y-61772576D01*
X88025000Y-61797440D01*
X88575000Y-61797440D01*
X88700000Y-61772576D01*
X88825000Y-61797440D01*
X89375000Y-61797440D01*
X89500000Y-61772576D01*
X89625000Y-61797440D01*
X90175000Y-61797440D01*
X90300000Y-61772576D01*
X90425000Y-61797440D01*
X90975000Y-61797440D01*
X91100000Y-61772576D01*
X91225000Y-61797440D01*
X91775000Y-61797440D01*
X91900000Y-61772576D01*
X92025000Y-61797440D01*
X92025000Y-61797440D01*
G37*
X92025000Y-61797440D02*
X92302560Y-61797440D01*
X92302560Y-62075000D01*
X92327424Y-62200000D01*
X92302560Y-62325000D01*
X92302560Y-62875000D01*
X92327424Y-63000000D01*
X92302560Y-63125000D01*
X92302560Y-63675000D01*
X92327424Y-63800000D01*
X92302560Y-63925000D01*
X92302560Y-64475000D01*
X92327424Y-64600000D01*
X92302560Y-64725000D01*
X92302560Y-65275000D01*
X92327424Y-65400000D01*
X92302560Y-65525000D01*
X92302560Y-66075000D01*
X92323217Y-66178852D01*
X92315000Y-66198690D01*
X92315000Y-66314250D01*
X92408888Y-66408138D01*
X92492191Y-66532809D01*
X92592749Y-66600000D01*
X92492191Y-66667191D01*
X92408888Y-66791862D01*
X92315000Y-66885750D01*
X92315000Y-67001310D01*
X92323217Y-67021148D01*
X92302560Y-67125000D01*
X92302560Y-67402560D01*
X92025000Y-67402560D01*
X91900000Y-67427424D01*
X91775000Y-67402560D01*
X91225000Y-67402560D01*
X91100000Y-67427424D01*
X90975000Y-67402560D01*
X90425000Y-67402560D01*
X90300000Y-67427424D01*
X90175000Y-67402560D01*
X89625000Y-67402560D01*
X89500000Y-67427424D01*
X89375000Y-67402560D01*
X88825000Y-67402560D01*
X88700000Y-67427424D01*
X88575000Y-67402560D01*
X88025000Y-67402560D01*
X87900000Y-67427424D01*
X87775000Y-67402560D01*
X87225000Y-67402560D01*
X87100000Y-67427424D01*
X86975000Y-67402560D01*
X86697440Y-67402560D01*
X86697440Y-67125000D01*
X86672576Y-67000000D01*
X86697440Y-66875000D01*
X86697440Y-66325000D01*
X86672576Y-66200000D01*
X86697440Y-66075000D01*
X86697440Y-65525000D01*
X86672576Y-65400000D01*
X86697440Y-65275000D01*
X86697440Y-64725000D01*
X86676783Y-64621148D01*
X86685000Y-64601310D01*
X86685000Y-64485750D01*
X86591112Y-64391862D01*
X86507809Y-64267191D01*
X86407251Y-64200000D01*
X86507809Y-64132809D01*
X86591112Y-64008138D01*
X86685000Y-63914250D01*
X86685000Y-63798690D01*
X86676783Y-63778852D01*
X86697440Y-63675000D01*
X86697440Y-63125000D01*
X86672576Y-63000000D01*
X86697440Y-62875000D01*
X86697440Y-62325000D01*
X86672576Y-62200000D01*
X86697440Y-62075000D01*
X86697440Y-61797440D01*
X86975000Y-61797440D01*
X87100000Y-61772576D01*
X87225000Y-61797440D01*
X87775000Y-61797440D01*
X87900000Y-61772576D01*
X88025000Y-61797440D01*
X88575000Y-61797440D01*
X88700000Y-61772576D01*
X88825000Y-61797440D01*
X89375000Y-61797440D01*
X89500000Y-61772576D01*
X89625000Y-61797440D01*
X90175000Y-61797440D01*
X90300000Y-61772576D01*
X90425000Y-61797440D01*
X90975000Y-61797440D01*
X91100000Y-61772576D01*
X91225000Y-61797440D01*
X91775000Y-61797440D01*
X91900000Y-61772576D01*
X92025000Y-61797440D01*
G36*
X95394126Y-66035000D02*
X95765001Y-66035000D01*
X95765001Y-66833411D01*
X95506292Y-66660546D01*
X95277316Y-66615000D01*
X95277312Y-66615000D01*
X95200000Y-66599622D01*
X95122688Y-66615000D01*
X94929700Y-66615000D01*
X94907251Y-66600000D01*
X95007809Y-66532809D01*
X95091112Y-66408138D01*
X95185000Y-66314250D01*
X95185000Y-66198690D01*
X95176783Y-66178852D01*
X95197440Y-66075000D01*
X95197440Y-65953530D01*
X95394126Y-66035000D01*
X95394126Y-66035000D01*
G37*
X95394126Y-66035000D02*
X95765001Y-66035000D01*
X95765001Y-66833411D01*
X95506292Y-66660546D01*
X95277316Y-66615000D01*
X95277312Y-66615000D01*
X95200000Y-66599622D01*
X95122688Y-66615000D01*
X94929700Y-66615000D01*
X94907251Y-66600000D01*
X95007809Y-66532809D01*
X95091112Y-66408138D01*
X95185000Y-66314250D01*
X95185000Y-66198690D01*
X95176783Y-66178852D01*
X95197440Y-66075000D01*
X95197440Y-65953530D01*
X95394126Y-66035000D01*
G04 #@! TD*
M02*
